<?xml version="1.0" encoding="UTF-8" standalone="no"?>
<svg
   id="Layer"
   viewBox="0 0 420 250.03999"
   version="1.1"
   width="420"
   height="250.03999"
   xmlns="http://www.w3.org/2000/svg"
   xmlns:svg="http://www.w3.org/2000/svg">
  <defs
     id="defs1">
    <style
       id="style1">
      .cls-1, .cls-2, .cls-3, .cls-4 {
        stroke-width: 0px;
      }

      .cls-2 {
        fill: #a00;
      }

      .cls-3 {
        fill: #b3995d;
      }

      .cls-4 {
        fill: #fffffe;
      }
    </style>
  </defs>
  <path
     class="cls-4"
     d="m 211.12,250.04 c 71.6,0 142.14,-24.27 179.71,-61.85 C 409.91,169.11 420,147.08 420,124.46 420,101.84 410.05,80.19 391.22,61.37 353.94,24.09 283.24,0 211.12,0 160.62,0 109.08,11.89 69.72,32.61 24.76,56.29 0,88.91 0,124.46 c 0,22.29 9.99,44.07 28.89,62.96 18.89,18.88 46.34,34.78 79.38,45.95 32.25,10.91 67.82,16.67 102.85,16.67"
     id="path1" />
  <path
     class="cls-1"
     d="M 72.84,38.53 C 30.18,60.99 6.69,91.51 6.69,124.46 c 0,20.48 9.31,40.61 26.93,58.24 18.16,18.16 44.72,33.49 76.79,44.34 31.57,10.68 66.4,16.32 100.71,16.32 69.91,0 138.6,-23.51 174.98,-59.89 17.8,-17.79 27.21,-38.19 27.21,-59 0,-20.81 -9.27,-40.82 -26.82,-58.36 C 350.4,30.01 281.56,6.69 211.12,6.69 c -49.45,0 -99.85,11.6 -138.28,31.84"
     id="path2" />
  <path
     class="cls-3"
     d="m 211,231.49 c 61.71,0 120.2,-20.14 152.62,-52.55 16.35,-16.36 25,-35.02 25,-53.99 0,-18.97 -8.64,-37.63 -25,-53.98 C 331.19,38.55 272.71,18.42 211,18.42 165.68,18.42 120.57,29.6 87.24,49.11 52.51,69.43 33.38,96.36 33.38,124.95 c 0,18.97 8.65,37.63 25,53.99 32.42,32.41 90.9,52.55 152.62,52.55"
     id="path3" />
  <path
     class="cls-2"
     d="m 211.32,227.71 c 90.46,0 163.8,-46.86 163.8,-103.33 0,-56.47 -73.34,-102.23 -163.8,-102.23 -90.46,0 -163.8,45.77 -163.8,102.23 0,56.46 73.33,103.33 163.8,103.33"
     id="path4" />
  <path
     class="cls-1"
     d="m 339.44,111.54 h -0.45 v -3.73 H 274 c -1.39,-7.31 -5.6,-14.09 -11.6,-19.39 -5.91,-6.79 -14.5,-11.9 -24.28,-13.85 l -4.05,-0.84 c -9.38,-1.97 -16.79,-3.53 -46.6,-3.38 0,0 -5.73,-0.2 -11.3,-0.93 -1.41,-0.36 -2.64,-0.78 -3.7,-1.24 0.41,-2.48 4.94,-5.9 10.07,-6.56 0.53,-0.1 32.79,-6.03 65.99,15.47 l 0.81,0.52 h 21.82 V 44.22 h -3.73 v -3.73 h -29.95 l -5.05,3.85 c -8.62,-2.16 -50.85,-11.4 -87.32,4.56 -15.33,6.33 -24.83,18.28 -24.16,30.42 0.34,6.12 3.27,11.46 8.34,15.59 3.72,4.65 9.58,8.28 17.21,10.48 10.79,3.11 19.94,4.39 28.8,4.9 v 15.22 h 3.73 v 3.73 h 11.39 c 4.72,0 5.93,2.61 6.22,3.58 -14.53,-0.95 -36.63,-5.08 -52.9,-20.13 l -0.61,-0.66 h -0.12 c -0.9,-0.86 -1.78,-1.75 -2.64,-2.68 l -0.98,-1.05 h -16.37 v 47.53 h 3.73 v 3.72 h 13.36 c 1.96,0.14 8.16,-0.55 12.45,-13.07 6.95,2.42 24.07,7.58 45.15,8.15 v 29.57 c -0.73,9.93 -22.61,13.04 -30.22,13.34 l -3.15,0.12 v 14.7 h 3.73 v 3.72 h 96.04 v -14.06 l -2.45,-0.65 c -0.44,-0.11 -0.86,-0.23 -1.28,-0.35 v -3.22 l -3,-0.26 c -5.4,-0.48 -9.55,-1.41 -12.77,-2.56 -6.04,-3.38 -7.07,-6.13 -7.21,-6.57 v -15.76 h 28.15 c 2.97,0.45 5.52,1.75 7.68,3.44 4.05,4.99 5.9,10.7 5.93,10.79 l 0.72,2.31 h 2.42 c 0,0 0.08,0 0.08,0 0.34,0.85 0.51,1.38 0.52,1.41 l 0.72,2.31 h 2.42 c 0,0 12.71,0 12.71,0 v -57.19 h -3.73 v -3.73 h -15.06 l -0.54,2.61 c -3.94,19 -25.92,18.73 -45.47,15.88 3.83,-1.04 7.68,-2.31 11.52,-3.83 10.46,-4.16 18.31,-9.81 23.21,-16.43 h 42.19 c 2.94,0.09 5.44,0.83 7.54,2.21 4.42,6.48 3.98,16.04 3.97,16.15 l -0.18,3.46 h 3.92 v 0.26 c 0,0 -0.19,3.46 -0.19,3.46 h 3.46 c 0,0 13.35,0 13.35,0 v -44.27 h -3.28"
     id="path5" />
  <path
     class="cls-4"
     d="m 272.15,123.25 c 3.07,-3.72 3.21,-12.16 3.21,-12.16 h 60.33 v 37.71 h -10.06 c 0,0 1.44,-24.91 -18.53,-25.55 h -34.96 v 0 z m -71.16,32.2 c 13.58,0.29 25.09,-2.59 25.09,-2.59 3.46,-0.76 50.2,12.95 56.52,-17.54 h 9.1 v 50.62 h -9.42 c 0,0 -5.59,-18.21 -20.12,-20.29 h -31.79 v 19.33 c 0,0 0.12,13.55 26.71,15.85 v 8.26 h -89.47 v -8.26 c 0,0 32.35,-1.26 33.38,-16.43 v -28.96 0 z m 27.91,-49.81 c -4.33,-1.32 -10.59,-1.6 -17.79,-1.87 -25.77,-0.98 -41.99,2.09 -67.43,-5.25 -28.87,-8.32 -23.69,-35.67 2.75,-46.59 39.34,-17.22 86.72,-3.99 86.72,-3.99 l 5.44,-4.15 h 25.55 v 26.83 h -17.57 c -34.81,-22.55 -68.2,-15.97 -68.2,-15.97 -10.86,1.41 -21.4,13.38 -2.88,18.01 5.91,0.8 11.98,0.99 11.98,0.99 33.62,-0.18 38.27,1.83 49.99,4.15 30.45,6.04 47.3,44.54 3.03,62.12 -45.7,18.15 -93.75,-1.41 -93.75,-1.41 -3.99,15.01 -10.22,14.06 -10.22,14.06 H 126.3 v -40.96 h 11.65 c 27.32,29.53 74.11,24.48 74.11,24.48 0,0 13.9,-0.35 23,-8.94 7.11,-8.68 5.98,-17.95 -6.17,-21.5 v 0 z m -38.18,16.61 h -12.14 v -10.88 c 9.41,0 28.6,0.08 42.18,0 13.66,0 15.49,7.9 9.73,13.24 -5.43,5.03 -16.79,8.62 -30.25,6.17 0,0 -1.11,-8.54 -9.52,-8.54 v 0 z"
     id="path6" />
</svg>
