<?xml version="1.0" encoding="UTF-8" standalone="no"?>
<svg
   id="Layer"
   viewBox="0 0 400.08298 396.51723"
   version="1.1"
   width="400.08298"
   height="396.51724"
   xmlns="http://www.w3.org/2000/svg"
   xmlns:svg="http://www.w3.org/2000/svg">
  <defs
     id="defs1">
    <style
       id="style1">
      .cls-1 {
        fill: #fff;
      }

      .cls-1, .cls-2, .cls-3 {
        stroke-width: 0px;
      }

      .cls-2 {
        fill: #e64100;
      }

      .cls-3 {
        fill: #0b162a;
      }
    </style>
  </defs>
  <path
     class="cls-1"
     d="m 390.3091,90.223503 c 0,0 -0.05,0.06 -0.07,0.08 -0.08,0.1 -0.15,0.2 -0.24,0.29 0.1,-0.12 0.21,-0.24 0.3,-0.38 v 0 z"
     id="path1" />
  <path
     class="cls-1"
     d="m 399.2391,59.543503 c 0,-0.85 -0.12,-1.7 -0.42,-2.53 -8.77,-24.53 -32.56,-21.46 -46.78,-19.62 -3.36,0.43 -8.27,1.06 -10.31,0.78 -4.7,-5.23 -9.78,-10.01 -15.17,-14.24 0.22,-2.19 -0.55,-4.46 -2.27,-6.05 -1.53,-1.42 -3.58,-2.09 -5.62,-1.89 -0.95,0.06 -3.74,0.14 -6.38,0.14 -0.54,-1.2 -1.34,-2.23 -2.4,-3.01 -2.24,-1.7 -4.84,-1.94 -6.6,-1.97 -0.82,-1.2399999 -2.03,-2.2599999 -3.51,-2.8499999 -12.99,-5.23 -26.99,-7.85999996 -41.62,-7.77999996 -18.85,0.1 -39.02,4.66999996 -59.95,13.58999986 -10.82,-1.6 -19.98,-4.3899999 -28.84,-7.1199999 -11.52,-3.52 -22.39,-6.86999996 -35.14,-6.98999996 -10.21,-0.1 -20.58,1.93999996 -31.71,6.23999996 -1.83,0.71 -3.270003,2.08 -4.090003,3.7799999 -2.41,-0.5099999 -4.45,-0.9899999 -5.24,-1.2199999 0,0 0.02,0 0.02,0 -1.98,-0.66 -4.16,-0.46 -5.98,0.63 -1.25,0.7399999 -2.21,1.8399999 -2.82,3.1099999 -1.05,0.14 -1.97,0.39 -2.8,0.84 -1.7,0.91 -2.96,2.42 -3.56,4.24 -0.03,0.09 -0.06,0.18 -0.08,0.26 -0.14,0.5 -0.23,1.03 -0.26,1.54 0,0.05 0,0.1 0,0.15 v 0.06 -0.06 c -3.21,0.76 -5.69,2.21 -7.69,3.55 -0.47,-0.13 -0.93,-0.26 -1.42,-0.38 -0.33,-0.08 -0.62,-0.14 -0.87,-0.18 l -0.26,-0.05 c -0.58,-0.12 -1.08,-0.22 -1.63,-0.32 -0.34,-0.06 -0.67,-0.1 -0.96,-0.14 l -0.26,-0.04 c -0.56,-0.08 -1.06,-0.15 -1.6,-0.21 -0.38,-0.04 -0.75,-0.07 -1.07,-0.1 l -0.24,-0.02 c -0.49,-0.04 -1.02,-0.09 -1.61,-0.11 -0.42,-0.02 -0.83,-0.03 -1.2,-0.04 h -0.16 c -0.46,-0.02 -1.02,-0.02 -1.62,-0.02 -0.52,0 -1,0.02 -1.42,0.03 -0.59,0.02 -1.13,0.05 -1.62,0.08 -0.46,0.03 -0.94,0.06 -1.46,0.11 -0.53,0.05 -1.08,0.1 -1.63,0.18 -0.5,0.06 -1.01,0.13 -1.49,0.2 -0.47,0.07 -1,0.16 -1.63,0.27 -0.6,0.11 -1.06,0.2 -1.5,0.29 -0.6,0.13 -1.15,0.26 -1.66,0.38 -0.46,0.11 -0.97,0.23 -1.5,0.38 -0.59,0.16 -1.13,0.33 -1.65,0.48 -0.02,0 -0.22,0.07 -0.22,0.07 -0.39,0.12 -0.84,0.26 -1.31,0.42 -0.54,0.18 -1.05,0.38 -1.5,0.54 l -0.15,0.06 -0.27,0.1 c -0.37,0.14 -0.78,0.29 -1.22,0.47 -0.52,0.21 -1.01,0.43 -1.43,0.62 l -0.24,0.11 -0.33,0.14 c -0.34,0.14 -0.71,0.31 -1.12,0.51 -0.51,0.25 -0.99,0.5 -1.42,0.73 l -0.31,0.17 -0.34,0.18 c -0.3,0.15 -0.64,0.33 -1.02,0.54 -0.18,0.1 -0.34,0.2 -0.52,0.3 -0.17,0 -0.34,-0.06 -0.51,-0.06 -1.3,0 -2.58,0.35 -3.7,1.02 -0.85,0.5 -1.69,1.04 -2.65,1.7 -0.28,0.19 -0.59,0.4 -0.92,0.64 -0.65,0.47 -1.25,0.93 -1.82,1.38 -0.12,0.1 -0.26,0.23 -0.39,0.34 -0.82,0.3 -1.62,0.63 -2.41,1.03 -0.39,0.2 -0.63,0.33 -0.82,0.43 -0.11,0.06 -0.21,0.11 -0.33,0.18 -0.18,0.1 -0.37,0.22 -0.52,0.3 -0.02,0 -0.14,0.08 -0.15,0.09 l -0.03,0.02 c 0,0 -0.2,0.12 -0.23,0.14 -0.23,0.14 -0.42,0.26 -0.56,0.36 -0.05,0.03 -0.1,0.07 -0.1,0.07 -0.08,0.06 -0.2,0.13 -0.33,0.22 -0.22,0.15 -0.41,0.29 -0.58,0.4 -0.08,0.06 -0.34,0.25 -0.34,0.25 -0.21,0.15 -0.36,0.27 -0.5,0.38 -0.19,0.14 -0.31,0.24 -0.44,0.34 -0.18,0.15 -0.37,0.3 -0.51,0.42 -0.14,0.12 -0.26,0.22 -0.38,0.32 -0.16,0.14 -0.3,0.26 -0.42,0.38 -0.1,0.1 -0.45,0.41 -0.45,0.41 -0.17,0.16 -0.33,0.3 -0.46,0.44 -0.1,0.1 -0.24,0.23 -0.39,0.38 l -0.42,0.42 c -0.07,0.07 -0.4,0.42 -0.4,0.42 -0.02,0.02 -0.42,0.46 -0.42,0.46 0,0 -0.38,0.42 -0.38,0.42 -0.14,0.15 -0.26,0.3 -0.41,0.47 -0.09,0.1 -0.22,0.26 -0.36,0.43 -0.02,0.03 -0.3,0.38 -0.3,0.38 -0.23,0.3 -0.36,0.46 -0.47,0.61 -0.1,0.13 -0.22,0.3 -0.33,0.45 -0.14,0.18 -0.26,0.35 -0.38,0.51 l -0.33,0.47 c -0.12,0.18 -0.24,0.35 -0.36,0.54 -0.12,0.18 -0.22,0.34 -0.33,0.5 0,-0.02 -0.33,0.53 -0.33,0.53 -0.02,0.02 -0.29,0.47 -0.29,0.47 -0.14,0.22 -0.25,0.42 -0.35,0.62 -0.08,0.14 -0.18,0.3 -0.27,0.49 -0.1,0.18 -0.2,0.37 -0.32,0.61 l -0.24,0.47 c -0.12,0.23 -0.22,0.45 -0.31,0.65 -0.08,0.18 -0.15,0.33 -0.23,0.5 -0.1,0.23 -0.2,0.46 -0.29,0.66 -0.03,0.08 -0.2,0.47 -0.2,0.47 -0.11,0.27 -0.2,0.5 -0.28,0.71 0,-0.02 -0.18,0.47 -0.18,0.47 -0.1,0.29 -0.19,0.54 -0.27,0.76 -0.06,0.19 -0.11,0.32 -0.16,0.46 -0.1,0.28 -0.18,0.55 -0.25,0.78 -0.05,0.15 -0.09,0.29 -0.13,0.44 -0.09,0.3 -0.16,0.58 -0.22,0.83 -0.05,0.18 -0.08,0.29 -0.11000005,0.42 -0.08,0.32 -0.14,0.62 -0.2,0.88 -0.03,0.14 -0.06,0.26 -0.08,0.39 -0.07,0.36 -0.13,0.69 -0.18,0.96 -0.02,0.1 -0.04,0.21 -0.06,0.34 -0.06,0.42 -0.12,0.82 -0.15,1.11 0,0 -0.02,0.09 -0.02,0.21 -0.22,1.84 -0.26,3.69 -0.15,5.5 0,0.08 0.02,0.24 0.02,0.32 0.02,0.31 0.06,0.7 0.1,1.09 0,0.06 0.03,0.26 0.04,0.32 v 0.02 c 0.04,0.3 0.08,0.66 0.14,1.05 0.02,0.14 0.04,0.26 0.06,0.35 0.06,0.36 0.12,0.69 0.19,1.06 0.03,0.16 0.06,0.29 0.08,0.38 0.08,0.37 0.15,0.68 0.24,1.03 0.04,0.16 0.07,0.29 0.10000005,0.38 0.1,0.36 0.18,0.68 0.29,1.02 0.05,0.16 0.09,0.29 0.12,0.39 0.13,0.4 0.22,0.7 0.34,1 0.07,0.19 0.13,0.35 0.18,0.48 0.12,0.31 0.23,0.62 0.37,0.94 0.06,0.14 0.12,0.29 0.18,0.41 0.16,0.37 0.29,0.66 0.43,0.98 0.08,0.18 0.16,0.34 0.22,0.46 0.14,0.3 0.3,0.6 0.46,0.91 0.08,0.15 0.17,0.31 0.24,0.44 0.23,0.42 0.38,0.67 0.52,0.91 0.13,0.22 0.24,0.4 0.34,0.56 0.17,0.27 0.34,0.54 0.5,0.78 0.12,0.18 0.24,0.35 0.36,0.54 0.19,0.28 0.38,0.54 0.56,0.8 0.13,0.18 0.26,0.36 0.39,0.53 0.19,0.26 0.39,0.52 0.59,0.77 0.14,0.17 0.28,0.35 0.42,0.53 0.21,0.25 0.42,0.5 0.63,0.75 l 0.46,0.52 c 0.21,0.23 0.42,0.46 0.67,0.73 0.19,0.21 0.35,0.38 0.5,0.53 0.24,0.25 0.48,0.48 0.7,0.7 0.02,0.02 0.54,0.51 0.54,0.51 0.23,0.22 0.47,0.44 0.77,0.7 0.06,0.05 0.56,0.5 0.56,0.5 0.28,0.25 0.56,0.48 0.8,0.68 -0.02,-0.02 0.58,0.48 0.58,0.48 0.29,0.23 0.55,0.43 0.86,0.67 0.21,0.16 0.41,0.31 0.62,0.47 0.3,0.23 0.6,0.44 0.88,0.64 0.11,0.08 0.66,0.46 0.66,0.46 0.34,0.23 0.65,0.44 0.94,0.64 l 0.15,0.1 0.52,0.34 c 0.32,0.2 0.62,0.38 0.9,0.56 0.1,0.06 0.28,0.17 0.28,0.17 l 0.51,0.31 c 0.36,0.22 0.7,0.41 1.03,0.6 0.03,0.02 0.2,0.11 0.2,0.11 0.16,0.1 0.35,0.2 0.56,0.32 0.31,0.17 0.62,0.34 0.91,0.49 l 0.2,0.1 0.22,0.12 0.51,0.27 c 0.41,0.21 0.8,0.4 1.18,0.58 0.04,0.02 0.24,0.12 0.24,0.12 0.15,0.08 0.33,0.16 0.52,0.26 0.43,0.21 0.87,0.41 1.29,0.6 0.08,0.03 0.26,0.12 0.26,0.12 0.06,0.03 0.14,0.06 0.22,0.1 -0.11,6.999997 -1.93,10.289997 -4.66,15.179997 -2.39,4.29 -5.38,9.62 -7.54,18.25 -0.47,1.88 -0.17,3.87 0.84,5.52 1.01,1.66 2.64,2.83 4.53,3.28 0.25,0.06 0.37,0.12 0.41,0.14 1.53,1.71 0.41,11.21 -0.2,16.31 -1.37,11.55 -3.04,25.76 4.35,35.82 l 0.57,6.72 c -0.08,0.17 -0.14,0.3 -0.14,0.3 0,0 -0.09,0.18 -0.09,0.18 -0.18,0.35 -0.32,0.66 -0.46,0.96 -0.06,0.12 -0.08,0.18 -0.08,0.18 -0.18,0.39 -0.31,0.69 -0.43,0.98 0.02,-0.04 -0.1,0.22 -0.1,0.22 -0.13,0.3 -0.26,0.61 -0.38,0.9 0,0.02 -0.07,0.19 -0.08,0.22 l -0.02,0.06 c -0.14,0.34 -0.25,0.63 -0.34,0.9 0,0.02 -0.06,0.17 -0.06,0.18 l -0.02,0.05 c -0.13,0.38 -0.23,0.66 -0.31,0.93 0,0.03 -0.06,0.19 -0.07,0.22 l -0.02,0.05 c -0.09,0.28 -0.18,0.59 -0.27,0.92 -0.03,0.11 -0.06,0.22 -0.08,0.3 -0.1,0.36 -0.16,0.64 -0.22,0.9 -0.03,0.14 -0.06,0.25 -0.07,0.33 -0.08,0.38 -0.13,0.66 -0.18,0.94 0,0.05 -0.04,0.25 -0.05,0.3 v 0.03 c -0.04,0.26 -0.09,0.57 -0.13,0.91 -0.02,0.15 -0.03,0.3 -0.03,0.38 -0.02,0.29 -0.05,0.59 -0.06,0.94 0,0.06 0,0.29 0,0.35 v 0.03 c 0,0.23 -0.02,0.55 0,0.91 0,0.07 0,0.3 0.02,0.38 v 0.03 c 0.02,0.27 0.03,0.6 0.06,0.95 0.02,0.15 0.03,0.3 0.05,0.38 0.03,0.27 0.07,0.58 0.14,0.94 0.02,0.14 0.06,0.29 0.07,0.38 0.06,0.28 0.11,0.58 0.19,0.91 0.06,0.22 0.1,0.35 0.12,0.44 0.07,0.26 0.15,0.54 0.25,0.86 0.07,0.22 0.12,0.35 0.15,0.44 0.09,0.24 0.19,0.54 0.32,0.86 0.08,0.2 0.15,0.35 0.2,0.46 0.1,0.21 0.22,0.49 0.37,0.8 0.09,0.18 0.16,0.31 0.21,0.41 0.13,0.25 0.27,0.52 0.44,0.82 0.09,0.15 0.17,0.27 0.22,0.35 0.05,0.08 0.07,0.11 0.07,0.11 0.11,0.18 0.26,0.42 0.43,0.68 0.11,0.17 0.2,0.3 0.26,0.38 0.05,0.07 0.09,0.13 0.09,0.13 0.12,0.18 0.26,0.38 0.45,0.63 0.13,0.17 0.22,0.3 0.3,0.38 0.06,0.08 0.14,0.18 0.14,0.18 0.12,0.15 0.27,0.34 0.45,0.56 0.11,0.14 0.23,0.27 0.32,0.37 0.08,0.09 0.16,0.18 0.16,0.18 0.12,0.14 0.27,0.31 0.45,0.51 0.14,0.15 0.27,0.29 0.38,0.41 0.07,0.08 0.17,0.18 0.17,0.18 0.12,0.13 0.26,0.28 0.43,0.45 0.17,0.18 0.33,0.33 0.46,0.45 l 0.16,0.16 c 0.12,0.12 0.26,0.26 0.43,0.42 0.22,0.2 0.39,0.35 0.54,0.5 0.08,0.07 0.21,0.18 0.21,0.18 0.1,0.1 0.22,0.21 0.37,0.34 0.24,0.21 0.44,0.38 0.62,0.53 l 0.12,0.1 c 0.18,0.15 0.31,0.26 0.46,0.38 0.25,0.2 0.49,0.39 0.71,0.57 l 0.14,0.11 0.13,0.1 0.26,0.21 c 0.38,0.29 0.75,0.58 1.19,0.9 l 0.17,0.13 c 0.08,0.06 0.18,0.12 0.26,0.18 3.14,19.2 9.06,34.04 17.65,44.11 1.38,1.62 3.39,2.54 5.51,2.54 0.68,0 1.36,-0.1 2.02,-0.29 3.01,-0.88 5.7,-1.35 8.01,-1.42 3.39,-0.1 5.67,0.64 6.77,2.22 1.2,1.71 1.13,4.39 0.61,5.67 -1.13,2.82 -0.39,6.03 1.86,8.06 24.410003,22.12 38.590003,25.36 47.980003,27.51 7.18,1.64 9.88,2.26 15.03,11.03 5.33,9.76 8.66,18.38 11.61,25.98 7.43,19.19 13.3,34.35 42.87,37.06 5.42,0.5 11.56,0.6 18.78,0.32 0.98,-0.02 2.1,-0.09 3.21,-0.18 0.93,-0.08 1.79,-0.21 2.54,-0.32 0.14,-0.02 0.35,-0.04 0.61,-0.08 1.82,-0.3 3.66,-0.74 5.46,-1.3 0.35,-0.07 0.68,-0.15 0.98,-0.24 0.06,-0.02 0.11,-0.02 0.16,-0.04 0,0 0.02,0 0.03,0 h 0.02 -0.02 c 0.64,-0.18 1.18,-0.38 1.68,-0.62 0.34,-0.16 0.62,-0.3 0.85,-0.42 l 0.26,-0.13 c -0.15,0.08 -0.26,0.12 -0.41,0.19 0.73,-0.31 1.46,-0.64 2.14,-0.99 -0.18,0.1 -0.38,0.18 -0.57,0.26 0.27,-0.11 0.55,-0.26 0.82,-0.4 1.92,-0.98 3.77,-2.14 5.49,-3.46 0.14,-0.1 0.28,-0.22 0.43,-0.34 1.58,-1.24 3.09,-2.66 4.48,-4.19 0.19,-0.22 0.43,-0.47 0.68,-0.76 0.4,-0.46 0.75,-0.9 1.1,-1.32 0.27,-0.34 0.51,-0.67 0.73,-0.96 0,0 0.1,-0.14 0.11,-0.15 0.46,-0.63 0.88,-1.22 1.26,-1.81 0.42,-0.62 0.74,-1.14 1.05,-1.63 0.26,-0.43 0.49,-0.82 0.68,-1.17 0.3,-0.54 0.62,-1.12 0.94,-1.73 l 0.13,-0.24 c 0.12,-0.22 0.25,-0.46 0.38,-0.75 0.44,-0.9 0.87,-1.83 1.27,-2.78 0.1,-0.23 0.18,-0.42 0.24,-0.58 l 0.09,-0.22 c 0.31,-0.77 0.62,-1.58 0.93,-2.39 0,-0.02 0.06,-0.17 0.06,-0.17 l 0.26,-0.74 c 0.2,-0.58 0.39,-1.14 0.56,-1.67 0.35,-0.51 0.64,-1.06 0.85,-1.67 l 0.82,-2.39 c 3.11,-9.34 3.99,-15.25 4.36,-20.5 9.33,-4.71 17.18,-15.76 25.41,-27.37 6.1,-8.62 13.7,-19.35 18.78,-21.16 0.24,-0.08 0.46,-0.18 0.7,-0.29 3.85,-1.85 8.67,-2.88 13.78,-3.98 4.73,-1.02 10.09,-2.18 15.46,-4.15 -0.26,0.1 -0.54,0.18 -0.81,0.25 1.11,-0.27 2.13,-0.7 3.08,-1.2 0.05,0.02 0.1,0.05 0.15,0.07 0.33,0.14 0.67,0.26 1.02,0.34 0.05,0.02 0.1,0.02 0.16,0.03 0.29,0.06 0.58,0.12 0.89,0.14 0.11,0.02 0.22,0.02 0.34,0.02 0.14,0 0.26,0.02 0.4,0.02 0.08,0 0.15,-0.02 0.22,-0.02 0.3,0 0.59,-0.04 0.9,-0.09 0.14,-0.02 0.28,-0.03 0.42,-0.06 0.38,-0.08 0.74,-0.19 1.1,-0.34 0.05,-0.02 0.1,-0.02 0.14,-0.05 0.38,-0.16 0.74,-0.34 1.1,-0.57 0.03,-0.02 0.06,-0.05 0.1,-0.07 0,0 0.02,0 0.03,-0.02 0,0 -0.02,0 -0.03,0.02 0.02,-0.02 0.05,-0.03 0.07,-0.05 4.7,-3.04 7.31,-7.11 8.83,-10.86 0.48,-0.24 0.94,-0.51 1.36,-0.85 0.54,-0.38 1.06,-0.79 1.58,-1.29 0.06,-0.06 0.2,-0.19 0.37,-0.37 0.62,-0.66 1.16,-1.36 1.62,-2.1 0.06,-0.1 0.18,-0.32 0.25,-0.42 0,0 -0.02,0.05 -0.06,0.1 0.22,-0.38 0.41,-0.75 0.59,-1.13 1.16,-0.59 2.1,-1.43 2.84,-2.49 0.74,-1.09 1.5,-2.29 2.28,-3.58 0.07,-0.07 0.12,-0.12 0.2,-0.2 2.3,-2.28 6.56,-6.53 7.78,-14.68 0.05,-0.31 0.1,-0.66 0.15,-1.07 0.1,-0.82 0.21,-1.74 0.3,-2.77 1.58,-4.07 3.38,-7.37 5.14,-10.55 1.97,-3.57 3.82,-6.94 5.18,-10.99 0.22,-0.66 0.39,-1.22 0.55,-1.8 0.03,-0.12 0.06,-0.24 0.08,-0.32 0.16,-0.59 0.28,-1.09 0.38,-1.56 0.04,-0.18 0.07,-0.34 0.1,-0.47 0.13,-0.61 0.21,-1.06 0.28,-1.49 0.04,-0.23 0.06,-0.44 0.1,-0.62 0.09,-0.58 0.14,-1.02 0.18,-1.45 0.02,-0.23 0.05,-0.46 0.06,-0.66 0.06,-0.62 0.08,-1.06 0.1,-1.47 0.02,-0.3 0.02,-0.6 0.03,-0.87 0.02,-0.47 0.02,-0.93 0.02,-1.36 0,-0.32 0,-0.64 0,-0.96 0,-0.46 -0.03,-0.92 -0.06,-1.38 -0.02,-0.35 -0.04,-0.7 -0.06,-1.03 -0.03,-0.39 -0.07,-0.86 -0.12,-1.38 -0.03,-0.32 -0.07,-0.7 -0.12,-1.09 -0.06,-0.52 -0.14,-1.05 -0.19,-1.44 -0.05,-0.36 -0.1,-0.74 -0.18,-1.16 -0.08,-0.51 -0.18,-1.02 -0.26,-1.5 -0.09,-0.46 -0.15,-0.82 -0.23,-1.21 -0.11,-0.54 -0.23,-1.1 -0.34,-1.58 l -0.04,-0.2 -0.24,-1.05 c -0.14,-0.58 -0.28,-1.13 -0.42,-1.66 0,-0.02 -0.09,-0.33 -0.09,-0.33 l -0.26,-0.99 c -0.15,-0.57 -0.32,-1.13 -0.47,-1.66 -0.04,-0.14 -0.14,-0.5 -0.14,-0.5 l -0.29,-0.98 c 0,0 -0.05,-0.15 -0.12,-0.37 1.53,-1.34 2.44,-3.27 2.47,-5.33 0.61,-36.22 -2.78,-59.95 -11.18,-76.51 0.25,-0.1 0.5,-0.2 0.74,-0.3 l 0.32,-0.14 0.34,-0.14 c 0.25,-0.1 0.53,-0.21 0.83,-0.34 0.86,-0.37 1.64,-0.74 2.39,-1.1 0.04,-0.02 0.13,-0.06 0.21,-0.1 0.18,-0.08 0.42,-0.18 0.66,-0.31 0.91,-0.45 1.74,-0.9 2.43,-1.29 l 0.09,-0.05 c 0.14,-0.07 0.32,-0.17 0.53,-0.28 0.96,-0.539997 1.8,-1.079997 2.42,-1.479997 -0.06,0.04 -0.02,0.02 -0.02,0.02 0.1,-0.06 0.28,-0.17 0.47,-0.3 0.73,-0.48 1.51,-1.03 2.34,-1.66 -0.03,0.02 0.1,-0.06 0.26,-0.19 0.76,-0.58 1.5,-1.2 2.28,-1.89 -0.08,0.07 -0.11,0.1 -0.19,0.17 0.1,-0.08 0.22,-0.18 0.38,-0.32 0.7,-0.62 1.42,-1.34 2.1,-2.07 -0.07,0.08 -0.12,0.13 -0.19,0.2 0.08,-0.07 0.18,-0.18 0.26,-0.26 0.66,-0.72 1.3,-1.47 1.89,-2.25 0.04,-0.05 0.08,-0.09 0.11,-0.14 3.21,-4.21 5.05,-8.97 5.5,-14.15 0.56,-0.81 1.07,-1.62 1.52,-2.46 0.03,-0.06 0.06,-0.12 0.1,-0.18 2.47,-4.66 3.06,-9.5 1.77,-13.82 l -0.06,0.02 z M 225.8191,394.4635 c 0,0 -0.05,0 -0.07,0.02 0.1,-0.03 0.22,-0.06 0.31,-0.09 -0.08,0.02 -0.16,0.05 -0.24,0.07 z m 111.88,-111.23 c -0.13,0 -0.25,-0.02 -0.37,-0.02 0.19,0 0.39,0 0.58,0 -0.07,0 -0.14,0.02 -0.22,0.02 z m 51.04,-210.289997 c 0.32,12.47 -9.64,21.62 -29.88,27.459997 9.73,13.54 15.52,35.38 14.77,80.36 l -5.5,-2.06 c 15.22,39.91 0.75,39.64 -6.52,63.18 0,0.02 0,0.05 0,0.07 -0.49,3.29 -1.55,5.19 -2.73,6.54 -1.81,3.79 -3.72,7.1 -5.71,9.99 -0.98,1.42 -0.47,-5.81 -1.48,-4.58 -0.95,1.16 -0.23,8.44 -4.16,10.65 -1.17,1.19 -0.18,-5.74 -1.39,-4.75 -0.95,0.78 -0.23,10.98 -8.44,16.2 3.46,-7.06 1.98,-7.54 0.69,-6.82 -1.19,0.66 -4.29,6.59 -8.42,7.59 -10.62,3.92 -21.3,4.3 -29.86,8.4 -15.38,5.5 -31.61,46.71 -48.74,50.25 -0.29,7.2 -0.59,12.98 -5.02,25.59 -0.15,0.14 -0.31,0.28 -0.46,0.42 -5.34,18.14 -16.14,27.4 -32.45,27.76 -55.31,2.12 -44.6,-19.3 -66.68,-59.7 -14.62,-24.95 -21.61,-1.49 -64.450003,-40.33 2.78,-6.91 0,-23.12 -24.13,-16.11 -8.18,-9.61 -13.68,-24.14 -16.48,-43.58 -15.17,-10.16 -14.81,-16.45 -8.47,-28.21 l -1.42,-10.82 c -13.87,-15.63 6.79,-52.35 -9.69,-56.23 4.78,-19.11 13.65,-19.34 12.28,-40.079997 -44.38,-16.91 -24.87,-51.68 -9.16,-54.15 v 0 c 1.13,-0.62 2.39,-1.19 3.8,-1.74 13.88,-10.48 31.16,-11.33 42.12,-7.14 3.62,-2.36 6.23,-4.97 11.54,-4.82 1.13,-0.66 5.7,-0.08 6.8,-0.7 1.28,-0.72 -5.7,-5.16 -4.46,-5.82 1.15,-0.62 13.98,2.46 15.100003,1.9 0.94,-0.48 -9.210003,-6 -9.210003,-6 0,0.18 18.260003,4.31 19.960003,3.57 1.71,-0.75 -7.39,-5.61 -5.76,-6.24 39.44,-15.2199999 57.07,4.01 95.06,8.72 l 0.37,-0.73 c 40.88,-17.5499999 72.7,-15.5599999 96.52,-5.96 1.66,0.66 -7,0.94 -3.39,2.9 1.89,1.82 9.96,-0.47 11.86,0.98 1.06,0.55 -2.44,3.5 -0.34,4.02 1.35,0.76 14.24,0.34 14.17,0.27 -0.53,1.22 -7.64,3.05 -6.29,3.98 1.39,0.96 6.47,0.46 7.78,1.46 6.54,4.99 12.06,10.39 16.62,15.62 8.84,5.93 44.39,-13.14 54.52,15.19 h -0.02 c 2.64,4.14 0.45,9.12 -3.24,13.49 v 0 z"
     id="path2" />
  <path
     class="cls-1"
     d="m 397.4391,73.443503 c 0.03,-0.06 0.06,-0.12 0.1,-0.18 -0.02,0.04 -0.04,0.07 -0.06,0.1 -0.02,0.02 -0.02,0.05 -0.03,0.07 v 0 z"
     id="path3" />
  <path
     class="cls-1"
     d="m 380.2191,218.5635 c -0.02,0.07 -0.04,0.12 -0.06,0.18 0.02,-0.06 0.04,-0.13 0.06,-0.18 z"
     id="path4" />
  <path
     class="cls-1"
     d="m 77.689097,19.443503 c 0,-0.09 0,-0.18 0.02,-0.26 0,0.08 -0.02,0.16 -0.02,0.25 0,0.06 0,0.11 0,0.17 0,-0.05 0.02,-0.1 0.02,-0.15 z"
     id="path5" />
  <path
     class="cls-1"
     d="m 397.4291,73.453503 c 0,0 -0.04,0.06 -0.06,0.1 -0.04,0.07 -0.07,0.14 -0.11,0.21 0.06,-0.1 0.12,-0.2 0.18,-0.3 v 0 z"
     id="path6" />
  <path
     class="cls-1"
     d="m 231.5991,392.0735 c 0,0 -0.08,0.03 -0.11,0.06 -0.08,0.04 -0.15,0.09 -0.22,0.13 0.11,-0.06 0.23,-0.12 0.34,-0.18 v 0 z"
     id="path7" />
  <path
     class="cls-2"
     d="m 318.4191,53.523503 c -4.1,-7.94 -10.03,-11.03 -17.78,-9.26 0,-25.75 -62.49,-28.77 -77.25,-18.64 11.57,3.05 23.25,4.11 35.05,3.18 -12.39,8.48 -30.3,11.79 -45.28,6.18 -8.42,12.99 4.02,29.47 27.14,15.18 5.29,-1.66 34.15,-13.12 53.66,12.3 -41.63,-10.65 -53.86,24.92 -67.46,11.74 -3.63,-5.08 1.66,-24.46 -27.68,5.5 4.2,-25.75 2.42,-40.07 -1.3,-52.79 l 0.25,-0.49 c -22.19,-6.9 -43.82,-10.26 -64.89,-10.07 l 10.13,9.26 c -9.47,0.86 -16.54,1.65 -26.46,1.93 -2.79,0.14 -10.27,-0.24 -11.61,0 -1.66,0.29 3.56,2.33 1.95,2.66 -1.33,0.28 -12.440003,-2.81 -18.180003,-0.86 6.02,1.28 9.74,2.84 8.82,3.1 -5.58,1.54 -8.13,2.88 -12.8,5.45 l 2.05,12.71 c -13.74,-8.03 -33.03,-12.13 -57.86,-12.28 0.04,-0.03 0.08,-0.06 0.11,-0.08 -1.4,0.54 -2.67,1.12 -3.8,1.74 -20.97,29.94 -1.12,37.33 11.99,42.38 -10.31,-10.54 -10.54,-21.31 2.68,-27.55 11.7,-3.17 21.58,2.04 29.62,15.62 -22.75,19.77 -22.84,44.829997 -19.5,85.429997 l -18.21,34.58 c 0,0 0,0 -0.02,-0.02 l 1.42,10.82 c 0.78,5.34 4.32,7.17 10.62,5.5 -2.71,5.74 -0.94,13.73 0,18.34 1.44,-3.29 3.62,-7.1 8.55,-9.87 1.88,23.09 8.3,45.38 25.15,42.11 2.99,3.79 7.45,8.5 12.66,13.34 1.53,1.42 4.18,11.97 5.82,13.4 1.51,1.32 2,-6.47 3.58,-5.18 1.750003,1.44 2.810003,14.26 4.600003,15.62 0.26,0.5 2.02,-11.2 5.97,-7.54 17.22,12.11 33.54,18.12 31.24,-0.26 -93.140003,-39.28 -69.350003,-128.66 -69.350003,-128.66 l -8.76,8.47 c -1.48,-14.34 -1.89,-27.26 -1.36,-38.68 0.11,-2.44 4.04,-9.18 4.24,-11.49 2.81,-5.56 4.35,-10.53 -4.94,-1.86 -0.3,-9.91 9.45,-14.02 10.22,-17.039997 0.52,-2.02 -4.6,-1.55 -3.99,-3.39 10.5,-5.9 7.87,-7.63 8.95,-9.92 1.11,-2.35 -3.66,-2.06 -2.37,-3.96 4.98,-7.3 11.26,-11.26 18.5,-11.55 -8.1,11.75 -17.51,34.829997 -14.26,56.069997 32.260003,-7.91 11.99,-38.819997 36.590003,-55.069997 11.46,-5.73 18.3,-6.96 42.19,5.25 -6.7,1.05 -17.27,2.59 -17.22,10.62 4.35,11.04 31.14,-3.04 39.21,27.099997 -8.76,-4.73 -12.54,-6.1 -19.09,-2.52 16.17,5.34 26.13,10.15 18.92,28.35 -7.22,-13.74 -13.7,-16.27 -21.43,-10.75 -1.1,-4 -2.69,-6.9 -4.58,-9.14 -1.09,15.38 -10.22,20.92 -25.02,10.88 1.3,2.42 3.36,5.08 6.13,8.14 -5.06,-1.74 -8.48,-3.94 -10.25,-6.61 -1.72,3.15 -0.26,6.31 4.38,9.5 -7.95,14.82 3.72,15.85 11.96,10.01 10.3,-13.05 16.83,-16.82 23.53,-15.87 -7.73,17.25 -29.36,32.36 -16.66,35.11 -7.43,8.69 -7.5,12.51 -0.2,11.46 -4.62,7.2 -4.95,11.9 0.2,10.52 -4.46,26.44 1.14,34.87 10.3,40.87 -7.9,11.67 -4.48,27.33 6.4,45.89 v 0.04 c 0.11,-0.55 0.25,-1.09 0.39,-1.6 -1.24,-23.32 0.45,-24.66 5.94,-38.69 4.02,2.36 5.94,12.23 11.21,14.25 2.1,-7.23 4.15,-11.72 6.17,-13.45 l 6.17,5.5 5.05,-2.14 3.48,1.57 3.36,-2.24 5.94,2.02 5.72,-4.26 c 1.48,-0.95 2.71,3.23 3.7,12.55 l 7.51,-9.65 c 3.5,5.98 4.44,19.97 2.81,41.94 7.68,-9.58 12.8,-18.74 14.47,-27.92 2.44,-8.38 0.61,-15.78 -5.5,-22.2 l 11.78,6.34 v -0.1 c 6.63,1.65 11.34,-0.58 12.88,-7.06 18.97,27.25 -11.04,58.87 -18.08,79.31 l 3.98,7.09 c 19.66,-20.53 30.9,-36.75 33.68,-48.66 l 7.09,7.01 c 2.71,-3.36 4.55,-9.12 5.5,-17.28 32.81,13.58 35.87,-20.86 55.74,-22.69 l 6.3,10.19 c -0.03,0.06 -0.06,0.13 -0.1,0.2 1.18,-1.34 2.24,-3.26 2.73,-6.54 0,-0.02 0,-0.05 0,-0.07 v 0.02 l -2.41,-8.93 c 5.03,-24.12 4.69,-41.98 -1.03,-53.58 10.46,-22.23 9.54,-47.99 -2.75,-77.27 -23.77,-6.199997 -32.35,-19.249997 -25.75,-39.149997 12.36,13.39 53.58,3.78 59.06,9.96 v 0.02 c 3.69,-4.37 5.88,-9.36 3.24,-13.49 -17.76,2.13 -27.04,-17.34 -73.56,-5.93 h 0.03 z M 44.149097,206.4535 c 0.65,-11.84 -0.56,-29.7 3.06,-35.18 8.76,14.31 9.59,20.3 -3.06,35.18 z M 164.4991,81.183503 c 14.72,-13.46 21.36,-29.95 19.92,-49.46 6.24,7.58 7.39,19.6 3.43,36.06 -4.46,43.619997 7.9,17.51 11.68,25.41 2.01,3.31 -0.18,11.569997 -3.09,21.639997 l -13.05,-5.15 c -1.97,-11.199997 -8.26,-20.699997 -18.89,-28.499997 z m 67.5,151.919997 c 0,0 -46.3,-3.28 -68.43,0 l 5.93,-4.51 -9.59,-2.7 c -15.44,-27.48 1.38,-60.02 10.06,-69.2 -1.18,6.28 -3.74,11.95 5.73,13.09 10.23,-3.32 15.26,0.96 15.09,12.86 -5.34,-2.14 -8.31,-0.46 -8.89,5.03 l -11.46,-6.66 c -4.02,5.57 -2.26,10.13 5.26,13.69 4.11,1.87 13.09,-4.1 17.65,0.93 l -3.4,8.06 c 5.96,0.46 21.28,-6.42 18.48,7.96 l 7.83,-16.25 c 12.32,-4.55 17.9,-11.65 16.72,-21.28 12.15,14.26 -3.26,22.68 -5.96,30.5 l 7.13,-3.73 c 7.25,7.27 4.33,16.28 -8.76,27.01 l 6.62,5.21 v 0 z m -23.89,-59.1 c 4.64,-8 8.7,-9.26 13.41,-3.06 2.84,5.02 2.76,9.74 -0.23,14.15 -2.92,3.02 -16.34,-0.14 -13.18,-11.1 z m 110.82,25.64 c 10.98,-1.58 18.57,-11.01 22.78,-28.27 l 12.7,19.02 c -6.04,3.46 -9.47,13.34 -10.31,29.64 -1.9,6.65 -12.59,12.86 -18.94,16.27 -1.85,0.99 9.39,-9.75 1.8,-15.91 -4.68,4.72 -15.51,23.15 -15.87,22.79 -3.71,1.45 2.44,-10.71 -1.48,-9.03 -2.27,0.97 -11.82,15.13 -14.07,16.27 -2.17,1.1 1.75,-8.9 -0.36,-7.6 -3.79,2.37 -8.67,13.42 -12.02,16.78 1.15,-14.43 -1.82,-25.3 -8.9,-32.59 -5.99,-2.27 -9.81,-1.73 -20.08,0.56 1.83,-12.25 1.33,-24.44 -1.52,-36.57 18.21,38.24 59.87,-24.66 54.95,-36.57 -11.12,14.63 -26.98,12.42 -47.55,-6.63 37.54,-5.37 39.42,-10.32 23.23,-25.28 0.24,3.32 -6.34,8.11 -19.18,14.64 6.69,-6.21 10.01,-11.36 9.96,-15.46 -1.09,-9.22 -13.94,-16.92 -24.87,-6.76 1.57,-1.37 3.74,-2.13 6.33,-1.82 l 2.4,5.15 6.53,-3.43 c 9.95,5.84 2.4,23.01 -12.71,15.11 -6.22,-4.38 -6.39,-10.89 -3.16,-14.41 -2.7,2.69 -5.26,6.48 -7.48,11.66 -2.91,-5.05 -14.35,-1.87 -13.97,27.7 -7.56,-21.63 -12.58,-44.75 -26.55,-30.44 l 15.8,-41.519997 c 4.46,7.35 5.08,10.58 21.29,-1.06 8.58,14.95 24.46,2.29 28.85,21.629997 -16.49,-2.4 -24.73,3.09 -25.75,15.11 6.81,-11.54 14.78,-13.51 25.28,-11.36 3.82,-7.15 10.02,-9.139997 21.87,6.44 14.33,4.62 15.37,-14.149997 -3.78,-23.249997 0.02,-0.1 0.05,-0.18 0.06,-0.28 -8.49,-4.27 -14.22,-4.38 -20.54,-3.57 6.41,-12.71 16.23,-14.14 29.46,-4.37 5.73,-1.41 11.1,-0.99 5.8,-7.04 61.01,17.51 32.23,102.869997 20.03,124.449997 v 0 z"
     id="path8" />
  <path
     class="cls-2"
     d="m 182.8691,351.6335 0.4,0.27 c 15.94,10.82 30.9,2.66 36.78,-0.22 19.13,4.35 22.02,-22.66 17.14,-46.44 -4.25,14.34 -9.66,31.15 -15.42,33.78 4.6,-28.5 4.06,-55.11 -1.86,-73.6 -9.42,-6.62 -15.14,7.86 -24.78,4.82 -4.02,0.67 -8.82,-12.16 -15.02,-9.08 -12.34,22.53 -5.55,51.48 5.94,77.82 6.11,1.16 10.82,0.52 14.12,-1.91 l 5.94,3.48 5.72,-1.34 8.53,0.67 -10.54,5.94 -6.62,-3.03 c -5.53,4.74 -6.67,4.54 -13.58,0 l -6.62,4.6 -1.34,-5.72 c -11.66,-5.05 -8.75,-11.22 -14.25,-25.34 -0.09,-0.45 -0.17,-0.88 -0.26,-1.32 -5.54,23.67 -1.01,40.79 15.7,36.61 v 0 z"
     id="path9" />
  <path
     class="cls-2"
     d="m 146.4691,113.3535 c -0.85,-0.5 -1.71,-0.96 -2.58,-1.41 -1.45,-0.19 -2.85,-0.31 -4.19,-0.31 l 2.34,6.47 4.44,-4.74 v 0 z"
     id="path10" />
  <path
     class="cls-2"
     d="m 128.8891,183.0035 c -21.18,-6.65 -33.640003,-19.72 -37.350003,-39.21 -5.02,9.97 -6.49,18.42 -5.33,25.77 0.18,1.14 -1.09,9.85 -0.78,10.94 0.42,1.5 2.46,-4.64 3.11,-3.23 0.47,1.04 -3.11,10.66 1.02,14.17 0.84,1.43 2.37,-8.3 3.42,-6.96 1.07,1.36 3.57,10.65 4.84,11.93 1.23,1.25 1.23,-5.5 2.630003,-4.33 1.14,0.97 1.49,17.33 8.1,21.68 1.04,0.78 -1.44,-15.5 3.11,-14.05 12.45,11.43 4.13,43.24 25.62,47.43 -7.86,-25.05 -12.16,-52.93 -8.38,-64.13 h -0.02 z"
     id="path11" />
  <path
     class="cls-2"
     d="m 231.7391,370.5935 c -20.52,9.16 -46.82,7.71 -53.6,-1.53 0.26,8.94 6.78,17.46 32.42,15.02 15.81,-1.78 22.86,-6.28 21.18,-13.49 z"
     id="path12" />
  <path
     class="cls-3"
     d="m 234.1291,200.8835 -7.13,3.73 c 2.71,-7.82 18.12,-16.25 5.96,-30.5 1.18,9.63 -4.4,16.73 -16.72,21.28 l -7.83,16.25 c 2.8,-14.39 -12.52,-7.5 -18.48,-7.96 l 3.4,-8.06 c -4.56,-5.02 -13.54,0.94 -17.65,-0.93 -7.52,-3.56 -9.28,-8.12 -5.26,-13.69 l 11.46,6.66 c 0.59,-5.49 3.55,-7.16 8.89,-5.03 0.18,-11.89 -4.85,-16.18 -15.09,-12.86 -9.47,-1.14 -6.91,-6.81 -5.73,-13.09 -8.68,9.18 -25.51,41.72 -10.06,69.2 l 9.59,2.7 -5.93,4.51 c 22.13,-3.28 68.43,0 68.43,0 l -6.62,-5.21 c 13.09,-10.73 16,-19.74 8.76,-27.01 v 0 z"
     id="path13" />
  <path
     class="cls-3"
     d="m 196.4291,114.8335 c 2.91,-10.06 5.1,-18.319997 3.09,-21.639997 -3.78,-7.9 -16.14,18.199997 -11.68,-25.41 3.95,-16.46 2.8,-28.48 -3.43,-36.06 1.45,19.51 -5.19,35.99 -19.92,49.46 10.62,7.8 16.91,17.3 18.89,28.509997 l 13.05,5.15 v 0 z"
     id="path14" />
  <path
     class="cls-3"
     d="m 298.8891,75.193503 c 5.3,6.05 -0.07,5.62 -5.8,7.04 -13.22,-9.78 -23.05,-8.34 -29.46,4.37 6.32,-0.82 12.05,-0.7 20.54,3.57 -0.02,0.1 -0.05,0.18 -0.06,0.28 19.14,9.1 18.1,27.859997 3.78,23.249997 -11.86,-15.579997 -18.05,-13.59 -21.87,-6.44 -10.5,-2.16 -18.47,-0.18 -25.28,11.36 1.02,-12.02 9.27,-17.51 25.75,-15.11 -4.39,-19.349997 -20.26,-6.689997 -28.85,-21.629997 -16.21,11.64 -16.82,8.42 -21.29,1.06 l -15.8,41.519997 c 13.97,-14.31 19,8.81 26.55,30.44 -0.38,-29.57 11.06,-32.75 13.97,-27.7 2.22,-5.18 4.78,-8.98 7.48,-11.66 -3.23,3.52 -3.05,10.04 3.16,14.41 15.1,7.9 22.66,-9.27 12.71,-15.11 l -6.53,3.43 -2.4,-5.15 c -2.59,-0.3 -4.76,0.46 -6.33,1.82 10.94,-10.16 23.79,-2.46 24.87,6.76 0.05,4.1 -3.27,9.25 -9.96,15.46 12.85,-6.53 19.42,-11.32 19.18,-14.64 16.18,14.97 14.3,19.91 -23.23,25.28 20.58,19.06 36.43,21.26 47.55,6.63 4.92,11.9 -36.74,74.8 -54.95,36.57 2.85,12.13 3.35,24.32 1.52,36.57 10.27,-2.29 14.09,-2.83 20.08,-0.56 7.09,7.3 10.06,18.16 8.9,32.59 3.35,-3.35 8.23,-14.41 12.02,-16.78 2.1,-1.31 -1.81,8.69 0.36,7.6 2.26,-1.14 11.8,-15.3 14.07,-16.27 3.92,-1.67 -2.23,10.48 1.48,9.03 0.36,0.36 11.19,-18.07 15.87,-22.78 7.59,6.16 -3.64,16.9 -1.8,15.91 6.34,-3.42 17.03,-9.62 18.94,-16.27 0.83,-16.3 4.27,-26.18 10.31,-29.64 l -12.7,-19.02 c -4.21,17.26 -11.8,26.69 -22.78,28.27 12.19,-21.58 40.97,-106.949997 -20.03,-124.449997 v 0 z"
     id="path15" />
  <path
     class="cls-3"
     d="m 221.2791,185.0935 c 3,-4.42 3.07,-9.14 0.23,-14.15 -4.7,-6.21 -8.77,-4.95 -13.41,3.06 -3.17,10.97 10.26,14.12 13.18,11.1 z"
     id="path16" />
  <path
     class="cls-3"
     d="m 329.6691,62.973503 c -6.59,19.9 1.99,32.95 25.75,39.149997 12.29,29.28 13.21,55.04 2.75,77.27 5.71,11.6 6.07,29.46 1.03,53.58 l 2.41,8.93 v -0.02 c 7.27,-23.54 21.73,-23.26 6.52,-63.18 l 5.5,2.06 c 0.75,-44.98 -5.04,-66.82 -14.77,-80.36 20.24,-5.829997 30.2,-14.979997 29.88,-27.459997 v -0.02 c -5.5,-6.18 -46.7,3.43 -59.07,-9.96 v 0 z"
     id="path17" />
  <path
     class="cls-3"
     d="m 86.779097,50.613503 -2.05,-12.71 c 4.67,-2.58 7.22,-3.91 12.8,-5.45 0.93,-0.26 -2.79,-1.82 -8.82,-3.1 5.74,-1.95 16.860003,1.14 18.180003,0.86 1.61,-0.34 -3.61,-2.38 -1.95,-2.66 1.34,-0.24 8.82,0.14 11.61,0 9.93,-0.28 16.98,-1.06 26.46,-1.93 l -10.13,-9.26 c 21.07,-0.19 42.71,3.17 64.89,10.07 l -0.25,0.49 c 3.72,12.72 5.5,27.04 1.3,52.79 29.34,-29.95 24.05,-10.58 27.68,-5.5 13.59,13.18 25.82,-22.39 67.46,-11.74 -19.5,-25.42 -48.37,-13.95 -53.66,-12.3 -23.13,14.3 -35.57,-2.18 -27.14,-15.18 14.98,5.61 32.9,2.3 45.28,-6.18 -11.8,0.92 -23.48,-0.14 -35.05,-3.18 14.76,-10.13 77.25,-7.11 77.25,18.64 7.74,-1.77 13.67,1.32 17.78,9.26 46.51,-11.42 55.8,8.06 73.56,5.93 h 0.02 c -10.13,-28.34 -45.68,-9.26 -54.52,-15.19 -4.56,-5.22 -10.09,-10.62 -16.62,-15.62 -1.3,-1 -6.39,-0.5 -7.78,-1.46 -1.35,-0.94 5.76,-2.76 6.29,-3.98 0.08,0.07 -12.82,0.5 -14.17,-0.27 -2.11,-0.52 1.4,-3.47 0.34,-4.02 -1.9,-1.46 -9.97,0.84 -11.86,-0.98 -3.61,-1.96 5.05,-2.23 3.39,-2.9 -23.82,-9.5999999 -55.64,-11.5899999 -96.52,5.96 l -0.37,0.73 c -37.98,-4.71 -55.62,-23.9399999 -95.06,-8.72 -1.63,0.63 7.47,5.49 5.76,6.24 -1.7,0.74 -19.960003,-3.39 -19.960003,-3.57 0,0 10.150003,5.52 9.210003,6 -1.110003,0.57 -13.950003,-2.51 -15.100003,-1.9 -1.23,0.66 5.74,5.1 4.46,5.82 -1.1,0.62 -5.67,0.03 -6.8,0.7 -5.3,-0.14 -7.91,2.46 -11.54,4.82 -10.96,-4.19 -28.24,-3.34 -42.12,7.14 -0.04,0.03 -0.08,0.06 -0.11,0.08 24.82,0.15 44.11,4.25 57.86,12.28 v 0 z"
     id="path18" />
  <path
     class="cls-3"
     d="m 50.039097,155.8835 c -3.34,-40.62 -3.26,-65.669997 19.5,-85.429997 -8.05,-13.58 -17.93,-18.79 -29.62,-15.62 -13.22,6.25 -12.99,17.02 -2.68,27.55 -13.11,-5.05 -32.96,-12.44 -11.99,-42.38 v 0 c -15.71,2.46 -35.22,37.23 9.17,54.14 1.37,20.739997 -7.5,20.969997 -12.28,40.079997 16.48,3.87 -4.18,40.59 9.69,56.22 0,0 0,0 0.02,0.02 l 18.21,-34.58 z"
     id="path19" />
  <path
     class="cls-3"
     d="m 352.6791,238.1035 c -19.87,1.83 -22.94,36.27 -55.74,22.69 -0.94,8.16 -2.78,13.92 -5.5,17.28 l -7.09,-7.01 c -2.78,11.9 -14.02,28.12 -33.68,48.66 l -3.98,-7.09 c 7.04,-20.44 37.05,-52.07 18.08,-79.31 -1.54,6.48 -6.25,8.71 -12.88,7.06 v 0.1 l -11.78,-6.34 c 6.1,6.42 7.94,13.82 5.5,22.2 -1.67,9.18 -6.79,18.34 -14.47,27.92 1.63,-21.98 0.7,-35.96 -2.81,-41.94 l -7.51,9.65 c -0.99,-9.32 -2.22,-13.5 -3.7,-12.55 l -5.72,4.26 -5.94,-2.02 -3.36,2.24 -3.48,-1.57 -5.05,2.14 -6.17,-5.5 c -2.01,1.74 -4.06,6.22 -6.17,13.45 -5.27,-2.02 -7.18,-11.88 -11.21,-14.25 -5.5,14.02 -7.18,15.36 -5.94,38.69 -0.15,0.51 -0.28,1.05 -0.39,1.6 v -0.04 c -10.88,-18.57 -14.3,-34.22 -6.4,-45.89 -9.15,-6 -14.77,-14.42 -10.3,-40.87 -5.15,1.38 -4.82,-3.33 -0.2,-10.52 -7.3,1.05 -7.23,-2.77 0.2,-11.46 -12.7,-2.74 8.93,-17.86 16.66,-35.1 -6.7,-0.95 -13.22,2.82 -23.53,15.87 -8.24,5.84 -19.92,4.81 -11.96,-10.01 -4.63,-3.18 -6.1,-6.35 -4.38,-9.5 1.77,2.66 5.18,4.87 10.25,6.61 -2.77,-3.06 -4.82,-5.71 -6.13,-8.14 14.8,10.05 23.93,4.5 25.03,-10.88 1.89,2.24 3.47,5.14 4.58,9.14 7.73,-5.53 14.22,-2.98 21.43,10.75 7.21,-18.2 -2.75,-23.01 -18.92,-28.35 6.55,-3.59 10.33,-2.22 19.09,2.52 -8.07,-30.139997 -34.86,-16.059997 -39.21,-27.099997 -0.05,-8.02 10.53,-9.57 17.22,-10.62 -23.9,-12.21 -30.74,-10.98 -42.19,-5.25 -24.600003,16.26 -4.34,47.159997 -36.590003,55.069997 -3.26,-21.23 6.15,-44.309997 14.26,-56.059997 -7.23,0.3 -13.52,4.25 -18.5,11.55 -1.3,1.9 3.49,1.61 2.37,3.96 -1.08,2.29 1.54,4.02 -8.95,9.92 -0.61,1.83 4.5,1.37 3.99,3.39 -0.77,3.019997 -10.53,7.129997 -10.22,17.039997 9.3,-8.67 7.75,-3.7 4.94,1.86 -0.2,2.3 -4.13,9.04 -4.24,11.49 -0.53,11.41 -0.12,24.34 1.36,38.68 l 8.76,-8.47 c 0,0 -23.79,89.38 69.340003,128.66 2.3,18.39 -14.02,12.37 -31.24,0.26 -3.95,-3.66 -5.72,8.05 -5.97,7.55 -1.78,-1.37 -2.85,-14.18 -4.600003,-15.62 -1.58,-1.3 -2.06,6.5 -3.58,5.18 -1.63,-1.42 -4.29,-11.98 -5.82,-13.4 -5.2,-4.85 -9.66,-9.55 -12.66,-13.34 -16.86,3.26 -23.27,-19.02 -25.15,-42.11 -4.94,2.78 -7.11,6.58 -8.55,9.87 -0.94,-4.61 -2.71,-12.59 0,-18.34 -6.3,1.68 -9.83,-0.16 -10.62,-5.5 -6.34,11.76 -6.69,18.05 8.47,28.21 2.8,19.45 8.3,33.98 16.48,43.58 24.13,-7.01 26.91,9.2 24.13,16.11 42.840003,38.83 49.830003,15.37 64.450003,40.33 22.08,40.4 11.37,61.82 66.68,59.7 16.3,-0.35 27.11,-9.62 32.45,-27.76 0.16,-0.14 0.31,-0.28 0.46,-0.42 4.42,-12.62 4.73,-18.4 5.02,-25.59 17.13,-3.54 33.36,-44.75 48.74,-50.25 8.55,-4.1 19.23,-4.48 29.86,-8.4 4.13,-1 7.22,-6.93 8.42,-7.59 1.29,-0.72 2.77,-0.23 -0.69,6.82 8.21,-5.21 7.5,-15.41 8.44,-16.2 1.2,-0.99 0.21,5.94 1.39,4.75 3.93,-2.21 3.2,-9.49 4.16,-10.65 1.01,-1.22 0.5,6 1.48,4.58 1.99,-2.9 3.9,-6.2 5.71,-9.99 0.03,-0.06 0.06,-0.13 0.1,-0.2 l -6.3,-10.19 h -0.02 z m -208.79,-126.16 c 0.87,0.45 1.74,0.91 2.58,1.41 l -4.44,4.74 -2.34,-6.47 c 1.34,0 2.74,0.12 4.19,0.31 v 0 z m -32.23,87.76 c -4.55,-1.44 -2.06,14.82 -3.11,14.05 -6.61,-4.34 -6.95,-20.71 -8.1,-21.68 -1.400003,-1.18 -1.400003,5.58 -2.630003,4.33 -1.26,-1.28 -3.77,-10.57 -4.84,-11.93 -1.06,-1.34 -2.58,8.39 -3.42,6.96 -4.12,-3.5 -0.54,-13.14 -1.02,-14.17 -0.64,-1.42 -2.69,4.74 -3.11,3.23 -0.3,-1.09 0.97,-9.8 0.78,-10.94 -1.16,-7.34 0.31,-15.8 5.33,-25.77 3.71,19.49 16.160003,32.55 37.340003,39.21 -3.78,11.2 0.52,39.08 8.38,64.13 -21.49,-4.18 -13.17,-36 -25.62,-47.43 h 0.02 z m 55.51,115.32 c 0.09,0.44 0.17,0.87 0.26,1.32 5.5,14.12 2.58,20.29 14.25,25.34 l 1.34,5.72 6.62,-4.6 c 6.9,4.54 8.05,4.74 13.58,0 l 6.62,3.03 10.54,-5.94 -8.53,-0.67 -5.72,1.34 -5.95,-3.48 c -3.3,2.43 -8.01,3.07 -14.12,1.91 -11.5,-26.34 -18.28,-55.3 -5.94,-77.82 6.2,-3.09 10.99,9.74 15.02,9.08 9.65,3.03 15.37,-11.44 24.78,-4.82 5.91,18.5 6.46,45.11 1.86,73.6 5.77,-2.62 11.18,-19.44 15.42,-33.78 4.87,23.77 1.98,50.78 -17.14,46.44 -5.88,2.87 -20.83,11.05 -36.78,0.22 l -0.4,-0.27 c -16.7,4.18 -21.22,-12.94 -15.7,-36.61 v 0 z m 10.97,54.03 c 6.78,9.25 33.08,10.7 53.6,1.53 1.68,7.21 -5.37,11.7 -21.18,13.49 -25.64,2.45 -32.17,-6.07 -32.43,-15.02 z"
     id="path20" />
  <path
     class="cls-3"
     d="m 44.149097,206.4535 c 12.66,-14.88 11.82,-20.86 3.06,-35.18 -3.62,5.48 -2.42,23.34 -3.06,35.18 z"
     id="path21" />
</svg>
