<?xml version="1.0" encoding="UTF-8" standalone="no"?>
<svg
   id="Layer"
   viewBox="0 0 420 295.07999"
   version="1.1"
   width="420"
   height="295.07999"
   xmlns="http://www.w3.org/2000/svg"
   xmlns:svg="http://www.w3.org/2000/svg">
  <defs
     id="defs1">
    <style
       id="style1">
      .cls-1, .cls-2, .cls-3 {
        stroke-width: 0px;
      }

      .cls-2 {
        fill: #fb4f14;
      }

      .cls-3 {
        fill: #fffffe;
      }
    </style>
  </defs>
  <path
     class="cls-3"
     d="m 377.13,142.73 c -2.22,-1.12 -1.94,-3.13 -0.34,-4.32 18.9,-13.98 31.65,-31.92 31.65,-59.61 C 408.44,46.01 384.96,0 293.14,0 H 56.45 L 2.85,93.24 h 39.36 c 4.4,0 7.95,3.54 7.95,7.92 v 93.08 c 0,4.38 -3.55,7.93 -7.95,7.93 H 0 l 54.17,92.91 250.18,-0.03 c 80.74,0 115.65,-42.06 115.65,-87.2 0,-29.9 -21.26,-54.12 -42.87,-65.12"
     id="path1" />
  <path
     class="cls-2"
     d="M 236.95,126.94 H 198.07 V 89.57 c 0.04,-3.92 3.21,-7.07 7.14,-7.07 h 31.74 c 18.63,0 25.54,9.48 25.54,21.86 0,13.13 -6.92,22.58 -25.54,22.58 z m 0,85.96 h -31.74 c -3.94,0 -7.14,-3.19 -7.14,-7.12 v -37.31 h 38.88 c 18.63,0 25.54,9.12 25.54,21.86 0,12.74 -6.92,22.57 -25.54,22.57 z m 110.97,-68.07 c -2.85,-0.67 -2.38,-4.16 -0.3,-4.94 25.67,-9.7 40.65,-26.97 40.65,-57.4 0.36,-40.8 -35.75,-68.84 -94.49,-68.84 H 71.19 L 32.13,82.53 h 26.88 c 5.32,0 9.61,4.29 9.61,9.59 v 111.15 c 0,5.3 -4.29,9.59 -9.61,9.59 H 32.43 l 39.35,68.54 232.57,-0.03 c 66.4,0 93.76,-44.07 93.76,-76.49 0,-28.49 -21.04,-53.09 -50.2,-60.06 v 0 z"
     id="path2" />
  <path
     class="cls-1"
     d="M 146.92,261.96 C 105.65,184.51 94.8,95.46 110.18,13.66 H 71.2 L 32.14,82.54 h 26.88 c 5.32,0 9.61,4.29 9.61,9.59 v 85.29 c 20.03,32.45 49.03,63.53 78.29,84.54 z M 341.55,21.32 C 294.31,91.26 268.72,180.41 280.21,261.6 294.29,193.3 331,130.22 388.19,84.52 c 0.01,-0.68 0.07,-1.33 0.07,-2.03 C 388.5,54.37 371.42,32.3 341.54,21.31 v 0 z m -79.18,-7.66 c -7.41,19.37 -15.19,42.74 -21.73,68.98 -1.17,-0.09 -2.4,-0.14 -3.69,-0.14 h -31.74 c -3.93,0 -7.11,3.16 -7.14,7.07 v 37.37 h 33.38 c -2.21,13.4 -3.99,27.27 -5.17,41.53 h -28.21 v 37.31 c 0,3.94 3.2,7.12 7.14,7.12 h 19.49 c 0.29,22.37 2.29,45.32 6.48,68.48 H 202.17 C 179.28,226.19 147.78,132.82 179.11,13.65 h 83.26 z"
     id="path3" />
</svg>
