<?xml version="1.0" encoding="UTF-8" standalone="no"?>
<svg
   id="Layer"
   viewBox="0 0 419.99301 280.44001"
   version="1.1"
   width="419.99301"
   height="280.44"
   xmlns="http://www.w3.org/2000/svg"
   xmlns:svg="http://www.w3.org/2000/svg">
  <defs
     id="defs1">
    <style
       id="style1">
      .cls-1 {
        fill: #c60c30;
      }

      .cls-1, .cls-2, .cls-3 {
        stroke-width: 0px;
      }

      .cls-2 {
        fill: #00338d;
      }

      .cls-3 {
        fill: #fffffe;
      }
    </style>
  </defs>
  <path
     class="cls-3"
     d="M 44.3,199.08 C 73.5,180.43 82.68,159.43 82.68,159.43 L 0,171.29 l 35.14,-62.43 70.6,-5.95 c 0,0 27.47,-24.52 70,-42.1 0,0 4.44,-7.74 28.72,-21.72 0,0 22.28,-13.12 47.64,-21.52 0,0 17.19,-5.92 22.27,-6.21 L 272.88,5.89 305.3,3.11 306.14,0 c 0,0 16.92,1.14 26.63,5.44 l 1.91,-2.55 c 0,0 22.65,10.41 39.5,36 0,0 16.35,-0.91 30.98,6.09 0,0 15.51,6.17 14.81,24.18 0,0 -0.1,22.98 -6.97,45.75 0,0 -1.05,3.57 -2.03,5.69 0,0 -1.43,2.9 -4.18,6.56 0,0 -7.68,7.91 -10.66,14.88 0,0 -1.61,4.63 -4.82,13.05 0,0 -2.47,11.58 -19.28,12.22 0,0 -16.36,20.71 -23.19,26.66 l -0.58,-5.03 c 0,0 -11.42,10.58 -21.32,16.83 l 3.35,-29.32 c 0,0 0.82,-5.24 -2.5,-5.61 l -8.55,-0.21 c 0,0 2.8,17.65 -0.58,25.81 0,0 -2.15,12.81 -22.02,18.91 0,0 -15.35,4.89 -32.92,6.26 l -3.77,-0.6 -27.65,11.34 8.08,-29 c 0,0 -10.36,1.05 -11.25,-0.25 l -30.79,13.2 12.1,-34.69 8.29,-4.59 -2.65,-3.6 -17.02,0.15 -6.26,4.87 c -14.46,-3.77 -28.52,-2.75 -28.52,-2.75 l -71.55,58.09 -17.93,39.64 -21.41,-28.64 6.7,-8.77 -2.55,-1.92 -9.71,7.64 -14.37,38.71 -21.16,-29.87 5.44,-12.14 -1.2,-7.44 c 6.3,-4.16 10.37,-6.95 13.56,-10.53 1.74,-2.24 2.69,-3.02 4.71,-6.79 1.9,-4.6 1.97,-9.59 4.09,-11.17 2.66,-1.8 4.68,-3.01 5.4,-3.47"
     id="path1" />
  <path
     class="cls-1"
     d="M 39.16,115.12 11.8,163.35 364.82,110.72 c 0,0 -12.27,-9.33 5.52,-24.09 L 39.16,115.12"
     id="path2" />
  <path
     class="cls-2"
     d="m 397.5,79.92 -281.93,23.17 c 30.28,-24.78 71.88,-39.81 71.88,-39.81 l -3.7,-2.03 6.92,-3.26 0.99,-2.98 c 54.46,-36.47 92.85,-38.25 92.85,-38.25 l -1.73,-5.15 C 301.4,9.67 309.93,9.73 309.93,9.73 l 0.71,-1.95 c 14.04,-0.16 23.96,6.67 23.96,6.67 l 2.11,-3.14 c 29.03,20.1 33.23,34.76 33.23,34.76 21.06,-1.72 32.31,4.48 32.31,4.48 15.14,6.51 10.62,28.61 10.62,28.61 0.03,4.26 -4.17,26.6 -4.17,26.6 -3.48,15.41 -9.75,21.29 -9.75,21.29 -8.1,7.97 -10.06,16.07 -10.06,16.07 -4.19,11.53 -5.67,13.02 -5.67,13.02 -3.23,5.3 -16.34,5.04 -16.34,5.04 -3.06,7.4 -15,20.33 -15,20.33 l -1.09,-3.68 -15.75,14.04 2.47,-19.54 c 0.9,-6.66 -6.28,-8.19 -6.28,-8.19 l -34.44,1.5 c -5.04,23.45 -23.14,27.03 -23.14,27.03 -26.09,5.28 -43.44,4.2 -43.44,4.2 l -1.12,-0.84 -19.93,8.68 7.02,-19.47 10.62,-4.22 c 0.82,-0.26 0.52,-1.36 0.52,-1.36 l -1.01,-3.12 c 10.94,-0.99 20.92,-8.67 20.92,-8.67 1.27,-1.03 -0.63,-1.47 -0.63,-1.47 l -50.7,1.12 -4,3.84 c -43.79,-7.25 -73.78,5.55 -73.78,5.55 -33.99,12.67 -54.66,45.03 -54.66,45.03 l -21.12,16.23 -10.67,28.81 -11.79,-16.94 4.82,-11.06 -0.73,-5.15 c 10.28,-6.58 14.72,-14.32 14.72,-14.32 3.58,-4.77 3.3,-8.71 3.3,-8.71 0.26,-3.16 3.14,-4.85 3.14,-4.85 C 84.49,182.14 90.43,157 90.43,157 l 277.54,-42.01 c -4.52,21.11 12.57,13.41 12.57,13.41 -11.05,-7.8 -1.05,-13.34 -1.05,-13.34 C 369.93,98.8 397.5,79.94 397.5,79.94 v 0 z m -97.25,90.03 11.91,-0.14 c 0,0 2.38,15.72 0.97,22.74 0,0 -2.35,10.43 -12.99,14.5 0,0 -15.68,6.64 -39.18,8.14 l -1.14,-0.98 -17.82,7.52 5.85,-20.73 c 0,0 23.89,-1.85 31.1,-4.01 0,0 18.52,-3.64 21.29,-27.06 v 0 z m -146.71,6.16 -65.96,53.46 -14.25,31.58 -12.64,-16.95 7.13,-9.82 -0.56,-3.91 c 15,-8.39 15.08,-20.77 15.08,-20.77 28.95,-34.11 71.21,-33.6 71.21,-33.6 v 0 z"
     id="path3" />
</svg>
