<?xml version="1.0" encoding="UTF-8" standalone="no"?>
<svg
   id="Layer"
   viewBox="0 0 419.97 246.04362"
   version="1.1"
   width="419.97"
   height="246.04362"
   xmlns="http://www.w3.org/2000/svg"
   xmlns:svg="http://www.w3.org/2000/svg">
  <defs
     id="defs1">
    <style
       id="style1">
      .cls-1 {
        fill: #024;
      }

      .cls-1, .cls-2, .cls-3 {
        stroke-width: 0px;
      }

      .cls-2 {
        fill: #fb4f14;
      }

      .cls-3 {
        fill: #fffffe;
      }
    </style>
  </defs>
  <path
     class="cls-1"
     d="m 212.76,243.48 c 0.01,0.16 -0.18,1.23 -0.6,1.7 -0.43,0.47 -1.05,0.65 -1.66,0.78 -0.99,0.22 -1.97,0 -2.75,-0.59 -0.65,-0.49 -1.05,-1.17 -1.1,-1.84 v -0.04 c 0,0 0,0 0,0 L 199.3,219.57 C 195.18,207.3 188.95,194.14 176.87,182.5 162.28,168.44 140.77,158.71 111.11,152.78 85.26,147.61 68.24,143.16 55.94,138.36 44.13,133.76 37.16,128.96 30.33,123.19 12.92,108.46 0.79,89.69 0,66.04 0,66.04 17.31,90.48 36.34,78.81 45.33,73.29 51.8,74.08 51.8,74.08 45.95,67.63 41.63,59.2 40.48,50.04 39.56,42.71 40.16,34.58 42.27,25.86 45.84,11.04 56.27,0.17 56.37,0 c 0,0 -4.1,35.62 12.94,48.26 10.51,5.91 21.3,3.53 21.3,3.53 0,0 -14.16,-6.55 -16.14,-27.57 -0.87,-9.24 0.5,-16.51 0.86,-18.36 0,0 18.69,26.36 37.41,15.53 4.19,-2.42 26.28,-13.83 35.81,-16.36 13.99,-3.71 27.83,-3.97 41.14,-0.77 11.05,2.65 21.84,7.7 32.07,15.01 18.23,13.03 30.04,29.95 34.27,36.62 0,0 36.7,-1.61 56.78,24.03 l 0.03,0.04 46.45,20.49 -5.27,3.37 -0.23,0.15 0.24,0.15 c 15.03,9.55 41.33,26.47 48.49,32.57 l 0.02,0.02 h 0.02 c 0,0 13.31,6.34 13.31,6.34 l -2.43,6.44 v 0 c -0.16,0.44 -3.77,10.75 3.04,15.86 l 3.42,2.57 0.07,0.06 -0.03,0.08 -10.46,27.69 -2.65,-3.56 c -14.59,-20.1 -28.38,-23.81 -35.32,-23.95 -7.84,-0.17 -8.4,4.01 -7.42,5.81 3.15,5.82 20.73,8.84 27.25,9.5 0,0 4.31,0.56 4.43,0.58 l -16.93,15.16 -30.7,-1.93 h -0.13 c 0,0 0.01,-0.13 0.01,-0.13 l 0.52,-6.02 v -0.04 c -0.16,-1.14 -2.23,-11.43 -27.34,-21.75 l -0.07,-0.02 -0.07,0.03 c -4.27,1.97 -13.03,5.37 -23.76,5.94 -12.94,0.7 -24.95,-2.79 -35.7,-10.37 l -0.07,-0.04 -0.09,0.02 c -4.31,1.47 -12.81,4.79 -21.31,10.62 -15.77,10.84 -24.38,25 -25.58,42.12 0,0 -1.38,14.1 -1.81,25.81"
     id="path1" />
  <path
     class="cls-2"
     d="m 112.65,53.3 c 34.19,-10.49 57.33,-8.86 65.23,4.58 C 148.85,61.2 119.82,69.43 91.6,82.36 77.46,81.4 64.47,75.63 56.85,66.92 47.24,55.94 44.06,39.57 50.69,18.92 c 0.47,17.81 5.66,28.27 14.26,34.15 10.09,6.91 25.69,6.98 47.7,0.23 z M 218.92,25.35 c 11.72,8.76 22.71,20.82 31.82,34.92 -17.77,-3.28 -36,-4.58 -54.18,-3.85 -5.38,-10.74 -14.47,-18.62 -24.37,-21.08 -10.98,-2.72 -25.05,-0.62 -41.83,6.25 -15.07,6.17 -27.09,6.85 -35.72,2.03 -4.83,-2.7 -8.59,-7.1 -11.2,-13.09 -2.09,-4.8 -2.95,-9.49 -3.38,-12.08 l 0.21,0.21 c 4.58,4.75 16.75,17.35 35.56,7.61 7.16,-3.71 26.27,-13.08 34.72,-15.35 13.05,-3.51 25.99,-3.59 38.43,-0.37 10.3,2.67 20.38,7.65 29.95,14.8 v 0 z M 11.36,83.38 c 0,0 10.33,9.83 27.71,0.94 19.54,-10 22.87,1.04 39.2,6.19 C 19.3,124.36 11.36,83.38 11.36,83.38 Z"
     id="path2" />
  <path
     class="cls-3"
     d="m 404.66,154.24 c 0.04,-4.54 1.26,-8.24 1.51,-8.95 l -7.92,-3.7 h -0.03 c 0,0 -0.02,-0.03 -0.02,-0.03 -4.89,-5.29 -57.85,-38.56 -58.38,-38.9 l -0.2,-0.13 0.2,-0.13 3.91,-2.61 -35.89,-15.19 -0.04,-0.02 -0.03,-0.04 C 293.2,62.77 264.49,61.9 258.98,61.94 c 10.94,3.38 14.28,6.7 15.12,8.92 0.56,1.48 0,2.4 -0.02,2.44 l -0.06,0.1 -0.1,-0.03 C 150.09,39.67 48.79,117.26 44.54,120.58 c 4.86,4.9 15.79,11.51 55.07,20.22 8.77,-6.84 50.55,-36.53 113.62,-34.78 L 203,90.57 c 0,0 39.06,10.14 61.36,22.52 -1.72,16.5 8.5,32.39 25,37.26 11.82,3.49 24.02,0.48 32.75,-6.95 l 28.02,17.87 -26.88,-10.42 c -11.43,8.26 -26.52,11.14 -40.97,6.45 -17.87,-5.8 -29.73,-21.56 -31.41,-39.14 -60.52,-15.18 -105.14,23.05 -114.05,31.47 7.21,2.28 13.86,4.87 19.89,7.76 7.35,3.52 13.97,7.56 19.77,12.07 4.48,-5.46 22.35,-24.23 56.62,-24.51 0,0 -33.65,8.7 -44.37,36.08 9.53,11.03 14.44,22.68 18.21,33.81 0.86,-10.58 4.24,-20.28 10.1,-28.86 4.79,-7 11.23,-13.28 19.13,-18.63 13.45,-9.12 26.66,-12.48 26.8,-12.51 l 0.07,-0.02 0.06,0.05 c 27.27,21.96 57.28,4.67 57.58,4.49 l 0.06,-0.03 0.07,0.02 c 8.39,3.2 15.48,6.8 21.06,10.68 4.47,3.1 7.99,6.41 10.47,9.81 3.84,5.28 3.95,9.08 3.93,9.87 l 20.33,1.33 5.96,-5.09 c -18.48,-2.39 -24.08,-8.13 -25.22,-13.05 -1.99,-11.86 10.13,-13.32 15.65,-12.6 12.87,1.68 28.52,13.2 34.41,21.21 l 4.36,-11.7 c -5.94,-4.51 -7.14,-10.95 -7.1,-15.57"
     id="path3" />
  <path
     class="cls-1"
     d="m 332.97,106.62 c -0.35,2.37 -2.48,4.1 -4.91,3.91 -2.54,-0.19 -4.44,-2.4 -4.24,-4.94 0.1,-1.19 0.64,-2.24 1.45,-3 -13.59,-6.67 -20.71,-7.68 -20.71,-7.68 16.46,10.92 23.49,20.03 23.49,20.03 l 4.45,-3.03 41.63,23.22 c -16.56,-13.5 -30.34,-22.5 -41.16,-28.5"
     id="path4" />
  <path
     class="cls-2"
     d="m 323.81,105.59 c -0.19,2.54 1.71,4.75 4.24,4.94 2.43,0.19 4.56,-1.54 4.91,-3.91 -0.65,-0.36 -1.3,-0.72 -1.94,-1.06 l -4.54,3.33 1.26,-5.06 c -0.85,-0.44 -1.68,-0.86 -2.49,-1.25 -0.81,0.76 -1.35,1.81 -1.45,3"
     id="path5" />
  <path
     class="cls-1"
     d="m 326.49,108.9 4.54,-3.33 c -1.13,-0.61 -2.22,-1.19 -3.28,-1.73 l -1.26,5.06 m 72.32,37.36 c -9.8,3.92 2.83,15.15 2.83,15.15 -27.47,-21.66 -2.83,-15.15 -2.83,-15.15 M 279.32,75.51 c 17.76,0.36 0.13,-7.17 0.13,-7.17 0,0 12.79,1.96 20.22,13.81 -7.02,-2.7 -14.7,-5.25 -20.36,-6.64"
     id="path6" />
</svg>
