<?xml version="1.0" encoding="UTF-8" standalone="no"?>
<svg
   id="Layer"
   viewBox="0 0 420.0036 324.63056"
   version="1.1"
   width="420.0036"
   height="324.63055"
   xmlns="http://www.w3.org/2000/svg"
   xmlns:svg="http://www.w3.org/2000/svg">
  <defs
     id="defs1">
    <style
       id="style1">
      .cls-1 {
        fill: #fff;
      }

      .cls-1, .cls-2, .cls-3 {
        stroke-width: 0px;
      }

      .cls-2 {
        fill: #311d00;
      }

      .cls-3 {
        fill: #ff3c00;
      }
    </style>
  </defs>
  <path
     class="cls-1"
     d="m 419.96741,283.83925 v -0.18 l -0.02,-0.18 c -1.89,-25.55 -7.6,-51.4 -17.47,-79.03 l -0.11,-0.28 -0.11,-0.28 -1.15,-2.75 0.13,0.3 c -4.12,-10.69 -12.7,-15.3 -25.34,-13.73 0,0 -5.9,0.65 -5.69,0.62 l -2.33,0.21 c -9.74,0.89 -23.76,2.14 -36.1,1 l -15.34,-36.31 c 3.16,-2.08 5.85,-4.49 7.54,-7.56 1.37,-2.47 2.22,-5.08 2.74,-7.65 4.72,-0.65 9.17,-2.75 12.36,-6.19 4.66,-5.09 7.31,-14.25 0.71,-24.7 l 0.33,0.55 -20.55,-37.040004 -12.16,5.17 c -48.7,-78.5400004 -141.39,-90.57 -209.810004,-61.05 -62.06,26.79 -122.17,97.470004 -87.35,208.520004 3.68,11.7 8.41,23.22 14,34.34 -0.34,3.46 -0.14,6.89 0.66,10.38 l 0.03,0.18 0.06,0.19 c 1.78,6.7 3.4,11.15 7.54,20.39 -0.24,6.07 2.02,12.26 6.4,16.97 6.84,7.36 17.69,10.24 29.79,7.9 l -0.58,0.08 c 15.99,-2.24 26.38,-6.93 31.82,-10.06 23.950004,16.76 55.270004,24.26 83.080004,19.64 18.12,-3.01 32.76,-10.84 42.86,-22.76 7.71,0.52 14.66,-0.3 16.05,-0.47 8.54,-0.62 16.32,-2.43 23.25,-5.35 10.27,11.99 24.17,20.58 40.84,24.99 19.47,5.13 41.54,4.78 62.54,-0.85 4.07,0.38 8.03,-0.73 10.92,-2.06 22.06,-5.04 26.98,-7.16 30.25,-9.95 0.04,-0.02 0.08,-0.07 0.12,-0.12 7.85,-5.38 10.42,-15.47 10.1,-22.92 v 0.02 z m -11.64,23.99 -0.18,0.11 c 0.19,-0.11 0.34,-0.26 0.52,-0.37 l -0.35,0.26 v 0 z"
     id="path1" />
  <path
     class="cls-1"
     d="m 286.74741,252.08925 c 15.06,-1.6 29.12,-3.71 42.65,-6.02 l -40.58,-6.85 c -0.28,4.47 -0.97,8.77 -2.07,12.86 v 0 z"
     id="path2" />
  <path
     class="cls-1"
     d="m 355.62741,235.13925 c -1.54,-4.64 -4.49,-13.44 -6.12,-17.54 l -0.02,-0.06 v -0.06 c 0,0 -0.07,-0.51 -1.03,-1.23 -0.58,-0.42 -2.32,-0.13 -2.32,-0.13 -3.91,0.84 -8.53,1.7 -13.61,2.54 l 6.96,16.66 c 4.4,0.07 10.01,0.06 16.14,-0.18 z"
     id="path3" />
  <path
     class="cls-1"
     d="m 326.06741,234.30925 c -1.75,-4.12 -3.71,-8.78 -5.82,-13.76 -10.23,1.46 -21.34,2.82 -31.88,3.95 0.13,1.09 0.26,2.18 0.35,3.25 z"
     id="path4" />
  <path
     class="cls-1"
     d="m 282.02741,185.82925 c 0.06,7.38 0.98,14.29 2.18,19.31 0.78,2.47 1.47,4.94 2.08,7.42 9.8,-1.01 19.89,-2.25 29.11,-3.54 0,0 0,0 0,-0.02 -12.31,-4.07 -24.4,-12.16 -33.34,-23.18 v 0 z"
     id="path5" />
  <path
     class="cls-1"
     d="m 283.56741,169.72925 c 8.3,11.95 18.45,19.78 22.69,22.4 0.64,0.55 1.63,1.14 2.67,1.68 -8.51,-20.12 -16.28,-38.5 -17.64,-41.71 -0.14,0.18 -0.26,0.34 -0.4,0.54 -3.75,4.68 -6,10.72 -7.33,17.09 v 0 z"
     id="path6" />
  <path
     class="cls-1"
     d="m 222.60741,276.77925 c -0.23,0.58 -0.43,1.19 -0.67,1.76 0.23,-0.59 0.47,-1.18 0.67,-1.76 z"
     id="path7" />
  <path
     class="cls-1"
     d="m 173.60741,308.82925 c 18.11,-1.33 34.59,-8.27 44.27,-22.65 h -0.03 c 0.46,-0.66 0.86,-1.32 1.26,-1.98 0.23,-0.39 0.49,-0.74 0.71,-1.13 0.28,-0.48 0.5,-0.97 0.75,-1.46 0.29,-0.56 0.58,-1.15 0.86,-1.74 0.18,-0.4 0.32,-0.8 0.48,-1.2 -8.59,19.47 -27.41,28.54 -48.29,30.18 v 0 z"
     id="path8" />
  <path
     class="cls-1"
     d="m 368.34741,234.27925 c 5.8,-0.56 11.57,-1.42 16.83,-2.65 l -1.62,-6.66 c -0.7,-2.88 -3.2,-10.75 -4.91,-14.89 -1.31,0.45 -6.02,1.87 -17.48,3.96 2.58,6.12 5.01,12.98 7.18,20.24 z"
     id="path9" />
  <path
     class="cls-1"
     d="m 380.07741,291.15925 c -0.76,-0.16 -1.53,-0.45 -2.28,-0.65 0,0.35 -0.02,0.68 0,1.03 0.79,-0.13 1.61,-0.25 2.3,-0.38 v 0 z"
     id="path10" />
  <path
     class="cls-1"
     d="m 377.06741,277.74925 c 4.97,2.12 10.2,3.68 15.53,4.52 0.27,0.02 1.57,0.13 3.21,0.45 0.13,-0.6 0.22,-1.28 0.17,-2.16 -1,-8.74 -3.65,-22.98 -5.38,-32.41 l -0.27,-1.44 c -3.36,0.85 -12.7,3.19 -17.7,4.11 2.01,8.95 3.58,18.07 4.44,26.94 z"
     id="path11" />
  <path
     class="cls-1"
     d="m 363.99741,294.16925 c 0.21,-0.13 1.61,-1.03 1.62,-3.54 0,-0.05 -0.1,-2.03 -0.3,-5.06 -10.97,-5.93 -21.13,-15.65 -28.55,-27.96 -17.71,3.06 -38.29,5.78 -55.53,7.64 -1.01,1.65 -2.12,3.22 -3.33,4.71 16.82,28.32 54.08,32.89 86.1,24.22 v 0 z"
     id="path12" />
  <path
     class="cls-1"
     d="m 363.86741,270.20925 c -0.66,-5.41 -1.55,-10.88 -2.71,-14.97 l -0.03,-0.11 v -0.13 c -0.03,-0.32 -0.24,-1.38 -0.82,-1.76 -0.11,-0.08 -0.42,-0.3 -1.2,-0.09 -3.02,0.72 -6.37,1.44 -9.91,2.14 3.91,5.66 8.88,10.73 14.66,14.92 v 0 z"
     id="path13" />
  <path
     class="cls-1"
     d="m 70.517406,284.51925 c -0.14,0.05 -0.25,0.08 -0.4,0.13 3.06,-0.45 6.79,-0.92 9.29,-0.99 3.59,-0.08 8.68,0.68 13.56,3.71 0.67,-0.39 1.36,-0.81 1.87,-1.14 l 2.06,1.72 c -0.5,0.33 -1.1,0.67 -1.67,1.01 0.57,0.45 1.14,0.91 1.7,1.44 0,0 -0.13,0.09 -0.17,0.13 0.4,-0.27 1.63,-1.14 3.350004,-2.52 -6.650004,-4.74 -16.110004,-8.21 -29.580004,-3.47 v 0 z"
     id="path14" />
  <path
     class="cls-3"
     d="m 193.10741,213.96925 c 3.26,2.14 6.91,4.69 7.06,9.45 0.14,4.89 -4.1,10.61 -5.49,12.46 -1.78,2.38 -7.41,9.05 -14.72,4.4 0,0 -10.6,-6.58 -18.08,-11.05 l -5.33,7.9 c 9.85,1.69 36.64,6.29 59.3,10.17 -1.28,-9.45 -4.38,-18.09 -6.27,-25.62 3.3,7.08 6.67,16.15 8.6,26.02 1.69,0.29 3.34,0.58 4.96,0.86 -0.52,-2.57 -1.07,-4.9 -1.5,-6.88 -0.89,-4.08 -4.53,-12.8 -7.74,-23.41 -4.73,-2.76 -9.46,-6.38 -14.11,-11.42 -0.07,-0.06 -7.92,-7.53 -14.74,-14.36 -3.48,5.62 -5.72,9.26 -7.12,11.52 l 15.2,9.96 v 0 z"
     id="path15" />
  <path
     class="cls-3"
     d="m 234.46741,143.85925 c 8.74,-4.71 16.11,-7.27 27.93,-9.03 -0.06,0 3.44,-0.48 3.44,-0.48 2.35,-0.35 6.85,-1.28 8.13,-3.62 0.72,-1.32 0.94,-3.12 0.86,-5.22 -14.73,3.08 -30.11,6.77 -43.44,12.18 -4.55,1.65 -8.17,3.97 -11.72,6.26 1.08,2.29 2.37,5.04 3.83,8.15 2.96,-2.83 5.89,-4.97 8.27,-6.48 0.48,-0.39 2.7,-1.75 2.7,-1.75 v 0 z"
     id="path16" />
  <path
     class="cls-3"
     d="m 191.88741,181.27925 c 4.88,5.31 12.02,13.08 17.7,18.71 -1.23,-7.96 -1.51,-16.14 0.13,-23.71 1.05,-4.81 2.76,-9 4.81,-12.67 l -4.86,-10.6 c -1.13,1.7 -2.74,4.16 -4.28,6.59 0,0 -6.57,10.47 -13.5,21.67 v 0 z"
     id="path17" />
  <path
     class="cls-3"
     d="m 211.37741,134.25925 c 5.48,-4.48 13.21,-7.27 13.21,-7.27 10.32,-4.33 28.7,-9.27 47.48,-13.04 -1.3,-3.76 -5.49,-15.820004 -5.49,-15.820004 -0.21,-0.52 -3.1,-6.43 -0.82,-9.99 0.99,-1.53 2.87,-2.39 5.21,-2.38 0,0 -0.11,0.07 6.48,0.31 l 0.29,-0.12 c 0.05,-0.02 0.13,-0.07 0.13,-0.07 l 7.2,-3.45 c 1.7,-0.5 3.75,-1.01 3.75,-1.01 4.68,-0.25 7.23,2.6 8.58,5.03 l 0.79,0.06 c -3.07,-6.04 -4.82,-7.96 -6.86,-11.37 -89.73,-127.83 -315.970004,-48.8 -271.340004,129.800004 9.98,36.27 21.64,55.52 34.31,73.56 0,0 0.29,8.74 14.54,4.17 13.62,-4.37 23.18,-4.07 36.320004,6.19 17.47,13.63 44.38,21.74 68.44,19.97 20.89,-1.63 39.7,-10.71 48.29,-30.18 0.02,-0.04 0.02,-0.08 0.04,-0.11 0.24,-0.56 0.44,-1.18 0.67,-1.76 1.78,-5.24 2.28,-10.55 2.12,-15.56 -1.71,-0.29 -3.49,-0.59 -5.34,-0.91 -1.31,22.5 -23.66,44.11 -63.58,41.61 -16.7,-0.62 -34.52,-8.74 -45.16,-14.53 -4.88,-3.28 -18.680004,-10.99 -25.290004,-12.46 5.76,0.31 20.130004,7.84 26.170004,11.31 12.36,6.38 29.62,12.47 44.3,13.09 26.67,2.5 56.94,-11.13 60.3,-39.56 -26.69,-4.52 -62.9,-10.65 -67.62,-11.46 -1.04,0.73 -2.34,1.12 -3.78,1.02 -2.7,-0.18 -5.32,-1.85 -6.37,-4.04 -0.78,-1.65 -0.6,-3.39 0.49,-4.92 -0.02,0.02 12.7,-18.94 12.7,-18.94 l 0.55,-1.08 c -0.55,-2.86 0.77,-5.38 1.38,-5.98 1.03,-1.04 6.81,-10.53 8.16,-13.2 0.14,-0.29 1.68,-2.61 4.68,-2.86 1.32,-2.09 4.57,-7.28 10.12,-16.29 -0.44,-2.52 0.72,-4.96 2.51,-6.36 0.56,-0.44 1.12,-0.67 1.68,-0.92 6.79,-11 14.41,-23.05 16.54,-26.2 2.44,-3.34 4.32,-5.55 6.5,-8.06 0.89,-1.02 2.98,-2.65 3.49,-3.05 1.02,-1.3 2.44,-2.32 3.95,-2.76 0.02,-0.13 0.09,-0.26 0.29,-0.43 v 0 z m -30.08,121.06 c 4.38,0 7.95,3.58 7.93,7.98 -0.02,3.28 -2.01,6.07 -4.85,7.28 -0.95,1.01 -2.27,1.64 -3.74,1.64 -2.05,0 -3.78,-1.25 -4.62,-3.02 -1.65,-1.46 -2.71,-3.58 -2.7,-5.96 0,-4.38 3.59,-7.93 7.97,-7.92 v 0 z m -62.6,25.12 c -1.18,0.97 -2.78,1.32 -4.44,1.16 -1.79,1.03 -4.45,0.47 -6.4,-1.58 -1.85,-1.95 -2.31,-4.49 -1.4,-6.23 -0.38,-2.81 0.4,-5.61 2.39,-7 3.01,-2.13 7.58,-0.82 10.2,2.9 2.62,3.72 2.49,8.37 -0.35,10.75 z m 39.19,-21.38 c -13.34,14.11 -39.77,14.01 -54.79,-5.23 25.42,23.57 49.12,8 54.79,5.23 z m -24.05,-16.6 c -1.63,0.54 -3.37,0.82 -5.16,0.8 -4.93,-0.03 -9.84,-2.24 -13.49,-6.06 -7.14,-7.48 -7.6,-19.02 -1.03,-25.72 2.96,-3.01 6.99,-4.65 11.33,-4.62 4.93,0.03 9.85,2.23 13.49,6.06 3.68,3.86 5.59,8.79 5.67,13.57 l -10.81,15.96 v 0 z"
     id="path18" />
  <path
     class="cls-2"
     d="m 221.41741,279.84925 c -0.28,0.59 -0.56,1.18 -0.86,1.74 0.29,-0.58 0.6,-1.16 0.86,-1.74 z"
     id="path19" />
  <path
     class="cls-2"
     d="m 173.59741,308.82925 c -24.07,1.77 -50.97,-6.32 -68.44,-19.97 -13.150004,-10.27 -22.710004,-10.55 -36.320004,-6.19 -14.25,4.57 -14.54,-4.17 -14.54,-4.17 -12.67,-18.04 -24.33,-37.28 -34.31,-73.56 -44.63,-178.600004 181.610004,-257.630004 271.350004,-129.800004 2.04,3.41 3.8,5.33 6.86,11.37 l 3.18,0.25 c -84,-149.68 -342.360004,-66.64 -280.160004,131.610004 4.38,13.96 9.8,26.12 14.93,35.9 0.13,-0.56 0.26,-1.04 0.33,-1.34 0,0 0.54,1.55 1.59,3.95 0.02,-0.07 0.02,-0.16 0.04,-0.23 0,0 5.49,10.46 13.53,21.5 0.85,0.88 1.72,1.75 2.65,2.55 0.14,1.92 0.65,3.21 1.55,4.02 0.72,0.46 1.51,0.83 2.39,1.04 0.02,0 0.03,0 0.05,0.02 0.29,0.07 0.64,0.04 0.95,0.08 1.5,0.09 3.35,-0.06 5.68,-0.42 0,0 2.32,-0.41 5.24,-0.84 0.14,-0.04 0.25,-0.08 0.4,-0.13 13.47,-4.75 22.93,-1.27 29.580004,3.47 0.86,0.61 1.68,1.24 2.44,1.87 36.49,28.44 96.16,30.69 118.19,-2.99 -0.98,-0.2 -1.96,-0.42 -2.87,-0.71 -9.67,14.38 -26.16,21.33 -44.27,22.65 v 0.03 z"
     id="path20" />
  <path
     class="cls-2"
     d="m 219.80741,283.04925 c -0.22,0.39 -0.48,0.75 -0.7,1.13 0.23,-0.38 0.49,-0.75 0.7,-1.13 z"
     id="path21" />
  <path
     class="cls-2"
     d="m 215.81741,247.29925 c 0.79,0.14 1.55,0.27 2.33,0.4 -1.93,-9.88 -5.3,-18.95 -8.6,-26.02 1.89,7.53 4.98,16.17 6.27,25.62 z"
     id="path22" />
  <path
     class="cls-2"
     d="m 155.79741,299.32925 c -14.68,-0.61 -31.94,-6.71 -44.3,-13.09 -6.03,-3.47 -20.400004,-10.99 -26.170004,-11.31 6.62,1.47 20.410004,9.19 25.290004,12.47 10.63,5.79 28.46,13.91 45.16,14.53 39.92,2.49 62.27,-19.11 63.58,-41.61 -1.08,-0.18 -2.17,-0.37 -3.28,-0.55 -3.36,28.44 -33.63,42.07 -60.3,39.56 v 0 z"
     id="path23" />
  <path
     class="cls-2"
     d="m 125.47741,206.87925 c -4.34,-0.03 -8.37,1.61 -11.33,4.62 -6.57,6.7 -6.11,18.23 1.03,25.72 3.65,3.81 8.56,6.02 13.49,6.06 1.8,0 3.53,-0.27 5.16,-0.8 l 10.81,-15.96 c -0.08,-4.79 -1.99,-9.72 -5.67,-13.57 -3.65,-3.82 -8.55,-6.02 -13.49,-6.06 v 0 z"
     id="path24" />
  <path
     class="cls-2"
     d="m 103.07741,253.82925 c 15.02,19.24 41.45,19.35 54.79,5.23 -5.67,2.76 -29.38,18.34 -54.79,-5.23 z"
     id="path25" />
  <path
     class="cls-2"
     d="m 176.02741,269.19925 c -0.34,-0.71 -0.56,-1.47 -0.56,-2.3 0,-2.93 2.34,-5.3 5.21,-5.29 2.87,0 5.18,2.39 5.17,5.32 0,1.42 -0.57,2.7 -1.47,3.65 2.83,-1.2 4.83,-4.01 4.85,-7.28 0,-4.4 -3.55,-7.96 -7.93,-7.98 -4.38,0 -7.96,3.54 -7.97,7.92 0,2.39 1.05,4.5 2.71,5.96 v 0 z m 8.02,-6.69 c -1.12,-1.24 -3.92,-1.83 -5.54,-0.76 -0.73,0.44 -1.48,-0.14 -0.55,-1.09 1.81,-1.58 5.2,-1.49 6.74,0.81 0.78,1.17 -0.06,1.94 -0.65,1.03 z m -2.56,-5.76 c 5.16,-0.03 8.79,6.62 4.46,11.09 1.86,-4.03 0.34,-9.16 -4.6,-9.37 -5.15,-0.21 -6.85,4.95 -5.95,7.63 -1.74,-1.62 -1.14,-9.33 6.09,-9.36 z"
     id="path26" />
  <path
     class="cls-2"
     d="m 180.67741,261.60925 c -2.87,0 -5.21,2.35 -5.21,5.29 0,0.83 0.23,1.6 0.56,2.3 0.84,1.76 2.57,3.01 4.62,3.01 1.47,0 2.79,-0.63 3.74,-1.64 0.9,-0.95 1.47,-2.23 1.47,-3.64 0,-2.93 -2.3,-5.31 -5.17,-5.32 v 0 z m -0.06,9.68 c -2.39,0 -4.33,-1.96 -4.33,-4.38 0,-2.42 1.94,-4.38 4.33,-4.38 2.39,0 4.33,1.96 4.33,4.38 0,2.42 -1.94,4.38 -4.33,4.38 z"
     id="path27" />
  <path
     class="cls-1"
     d="m 177.95741,260.65925 c -0.92,0.94 -0.18,1.54 0.55,1.09 1.62,-1.07 4.43,-0.49 5.54,0.76 0.6,0.91 1.44,0.13 0.66,-1.03 -1.55,-2.3 -4.93,-2.39 -6.75,-0.82 z"
     id="path28" />
  <path
     class="cls-1"
     d="m 181.34741,258.46925 c 4.94,0.21 6.47,5.33 4.6,9.37 4.33,-4.47 0.7,-11.11 -4.46,-11.09 -7.23,0.02 -7.83,7.74 -6.09,9.36 -0.9,-2.69 0.8,-7.85 5.95,-7.64 z"
     id="path29" />
  <path
     class="cls-1"
     d="m 184.94741,266.90925 c 0,-2.42 -1.94,-4.38 -4.33,-4.38 -2.39,0 -4.33,1.96 -4.33,4.38 0,2.42 1.94,4.38 4.33,4.38 2.39,0 4.33,-1.96 4.33,-4.38 z m -7.83,-0.03 c 0,-1.91 1.55,-3.47 3.46,-3.47 1.91,0 3.45,1.55 3.45,3.47 0,1.92 -1.55,3.45 -3.45,3.45 -1.9,0 -3.46,-1.55 -3.46,-3.45 z"
     id="path30" />
  <path
     class="cls-2"
     d="m 184.04741,266.87925 c 0,-1.91 -1.55,-3.47 -3.45,-3.47 -1.9,0 -3.46,1.55 -3.46,3.47 0,1.92 1.55,3.45 3.46,3.45 1.91,0 3.45,-1.55 3.45,-3.45 z m -6.02,0.11 c 0.1,-0.44 0.29,-0.21 0.4,0.11 0.94,1.5 3.56,1.61 4.37,0.45 0.4,-0.59 0.39,0.22 0.39,0.22 -1.65,3.25 -5.41,1.2 -5.16,-0.79 v 0 z"
     id="path31" />
  <path
     class="cls-1"
     d="m 183.18741,267.77925 c 0,0 0,-0.82 -0.4,-0.22 -0.8,1.16 -3.43,1.04 -4.37,-0.45 -0.1,-0.32 -0.29,-0.55 -0.39,-0.11 -0.25,1.99 3.51,4.04 5.16,0.79 v 0 z"
     id="path32" />
  <path
     class="cls-2"
     d="m 108.84741,266.77925 c -1.99,1.39 -2.76,4.19 -2.39,7.01 0.17,-0.32 0.29,-0.66 0.56,-0.91 1.72,-1.63 4.89,-1.09 7.07,1.22 2.19,2.3 2.57,5.49 0.84,7.12 -0.19,0.18 -0.45,0.23 -0.67,0.37 1.65,0.17 3.26,-0.18 4.44,-1.16 2.85,-2.38 2.97,-7.03 0.35,-10.75 -2.62,-3.72 -7.19,-5.02 -10.2,-2.9 z m 6.65,7.86 c -0.53,-1.13 -2.24,-2.56 -3.19,-2.75 -0.96,-0.19 -0.6,-1.75 0.56,-1.34 1.08,0.37 2.75,1.78 3.16,2.45 1.06,1.75 -0.08,2.62 -0.53,1.65 z m 1.3,5.44 c 5.31,-6.9 -5.02,-14.94 -9.1,-8.54 3.4,-10.43 17.11,2.66 9.1,8.54 z"
     id="path33" />
  <path
     class="cls-2"
     d="m 114.09741,274.10925 c -2.18,-2.31 -5.35,-2.86 -7.07,-1.22 -0.26,0.25 -0.39,0.59 -0.56,0.91 -0.91,1.74 -0.46,4.28 1.4,6.22 1.95,2.04 4.61,2.6 6.4,1.58 0.22,-0.13 0.48,-0.18 0.67,-0.37 1.72,-1.63 1.34,-4.82 -0.84,-7.12 z m -5.72,5.29 c -1.86,-1.96 -2.18,-4.66 -0.71,-6.06 1.46,-1.39 4.15,-0.92 6.01,1.03 1.86,1.95 2.18,4.65 0.71,6.04 -1.47,1.39 -4.15,0.93 -6.01,-1.03 v 0 z"
     id="path34" />
  <path
     class="cls-1"
     d="m 112.87741,270.54925 c -1.16,-0.4 -1.52,1.16 -0.56,1.34 0.96,0.18 2.66,1.63 3.19,2.75 0.45,0.97 1.59,0.1 0.53,-1.65 -0.41,-0.68 -2.08,-2.09 -3.16,-2.45 z"
     id="path35" />
  <path
     class="cls-1"
     d="m 107.70741,271.55925 c 4.07,-6.4 14.41,1.65 9.1,8.54 8.01,-5.89 -5.7,-18.98 -9.1,-8.54 z"
     id="path36" />
  <path
     class="cls-1"
     d="m 113.65741,274.36925 c -1.86,-1.96 -4.54,-2.42 -6.01,-1.03 -1.47,1.39 -1.14,4.1 0.71,6.06 1.86,1.96 4.54,2.41 6.01,1.03 1.47,-1.38 1.14,-4.09 -0.71,-6.04 v 0 z m -0.06,5.62 c -1.22,0.9 -3.26,0.17 -4.77,-1.23 -1.62,-1.48 -1.76,-3.78 -0.63,-4.85 1.24,-1.2 3.46,-0.45 4.8,1.07 1.08,1.24 2.01,3.96 0.61,5 v 0 z"
     id="path37" />
  <path
     class="cls-2"
     d="m 108.19741,273.91925 c -1.13,1.07 -0.99,3.38 0.63,4.85 1.51,1.39 3.55,2.13 4.77,1.23 1.4,-1.04 0.47,-3.76 -0.61,-5 -1.34,-1.52 -3.55,-2.28 -4.8,-1.08 v 0 z m 4.38,5.48 c -2.49,0.24 -4.71,-2.79 -3.8,-4.13 0,0 0.68,-0.92 0.81,-0.06 0.21,1.48 1.78,3.03 3.26,3.42 0.36,0.09 0.47,0.63 -0.27,0.76 v 0 z"
     id="path38" />
  <path
     class="cls-1"
     d="m 109.58741,275.21925 c -0.13,-0.86 -0.81,0.06 -0.81,0.06 -0.92,1.34 1.3,4.37 3.8,4.13 0.75,-0.13 0.63,-0.68 0.27,-0.76 -1.48,-0.39 -3.05,-1.94 -3.26,-3.42 v 0 z"
     id="path39" />
  <path
     class="cls-2"
     d="m 95.227406,288.94925 c -6.99,4.16 -19.24,8.84 -31.05,9.96 -12.88,2.07 -20.03,-6.95 -17.55,-13.84 0,0 0,0 -0.71,-1.72 -0.7,-1.71 -9.48,-19.66 -7.86,-26.46 -1.04,-2.4 -1.59,-3.95 -1.59,-3.95 -0.07,0.29 -0.19,0.77 -0.33,1.34 -0.45,1.95 -1.03,5.37 -0.06,9.62 1.69,6.34 3.09,10.24 8.21,21.5 -2.06,7.62 5.07,18.84 22.36,15.5 20.14,-2.85 29.25,-9.71 30.1,-10.38 0.04,-0.03 0.17,-0.13 0.17,-0.13 -0.55,-0.53 -1.13,-0.98 -1.7,-1.44 h 0.02 z"
     id="path40" />
  <path
     class="cls-2"
     d="m 55.817406,284.74925 c -0.91,-0.81 -1.4,-2.1 -1.55,-4.02 -0.92,-0.81 -1.8,-1.67 -2.65,-2.55 0.25,0.34 0.49,0.69 0.74,1.03 0.45,2.7 1.72,4.46 3.45,5.55 v 0 z"
     id="path41" />
  <path
     class="cls-2"
     d="m 58.197406,285.79925 c 0,0 0.03,0 0.05,0.02 -0.02,0 -0.03,0 -0.05,-0.02 z"
     id="path42" />
  <path
     class="cls-2"
     d="m 63.637406,285.84925 c -3.11,6.36 -15.3,2.94 -12.94,-5.33 -1.75,-2.16 -5.96,-8.99 -5.96,-8.99 -0.19,0.03 0.19,2.02 0.17,1.9 1.42,2.96 3.9,8.05 3.9,8.05 -1.91,12.02 15.36,12.92 16.58,4.09 1,-0.18 0.97,-0.04 1.6,-0.35 -0.75,3.59 -2.47,5.55 -4.5,6.59 -3.7,1.86 -4.78,5.14 0.83,4.75 5.71,-0.41 15.8,-2.31 27.59,-8.01 0,0 1,-0.56 2.07,-1.19 -4.88,-3.02 -9.96,-3.79 -13.56,-3.71 -2.5,0.06 -6.23,0.54 -9.29,0.99 -2.92,0.44 -5.24,0.84 -5.24,0.84 -2.33,0.35 -4.17,0.51 -5.68,0.42 0.72,0.11 1.44,0.24 2.22,0.2 0.55,-0.07 1.78,-0.15 2.23,-0.25 v 0 z"
     id="path43" />
  <path
     class="cls-1"
     d="m 45.907406,283.34925 c 0.71,1.73 0.71,1.72 0.71,1.72 -2.49,6.9 4.67,15.92 17.55,13.84 11.81,-1.13 24.07,-5.81 31.05,-9.96 0.57,-0.34 1.18,-0.68 1.67,-1.01 l -2.06,-1.72 c -0.5,0.34 -1.19,0.75 -1.86,1.14 -1.07,0.63 -2.07,1.19 -2.07,1.19 -11.79,5.7 -21.87,7.6 -27.59,8.01 -5.62,0.39 -4.53,-2.89 -0.83,-4.75 2.03,-1.03 3.75,-3 4.5,-6.59 -0.63,0.31 -0.6,0.17 -1.6,0.35 -1.22,8.83 -18.49,7.93 -16.58,-4.09 0,0 -2.49,-5.09 -3.9,-8.05 0.03,0.13 -0.36,-1.87 -0.17,-1.9 0,0 4.22,6.83 5.96,8.99 -2.35,8.27 9.84,11.68 12.94,5.33 -0.45,0.1 -1.68,0.19 -2.23,0.25 -0.78,0.03 -1.5,-0.1 -2.22,-0.2 -0.31,-0.04 -0.66,-0.02 -0.95,-0.08 -0.02,0 -0.03,0 -0.05,-0.02 -0.87,-0.21 -1.66,-0.58 -2.39,-1.04 -1.73,-1.09 -3.01,-2.86 -3.45,-5.55 -0.25,-0.34 -0.49,-0.69 -0.74,-1.03 -8.05,-11.05 -13.53,-21.5 -13.53,-21.5 -0.02,0.08 -0.03,0.16 -0.04,0.23 -1.63,6.8 7.17,24.74 7.86,26.46 v -0.02 z"
     id="path44" />
  <path
     class="cls-2"
     d="m 224.61741,282.31925 -1.3,-0.17 c 3.46,-7.15 4.32,-14.55 4.27,-20.45 -0.93,-0.16 -1.88,-0.32 -2.86,-0.49 0.16,5.01 -0.34,10.31 -2.12,15.56 -0.19,0.59 -0.45,1.18 -0.67,1.76 -0.02,0.03 -0.03,0.07 -0.04,0.11 -0.16,0.4 -0.3,0.8 -0.48,1.2 -0.25,0.58 -0.56,1.16 -0.86,1.74 -0.24,0.49 -0.47,0.97 -0.75,1.46 -0.21,0.39 -0.48,0.76 -0.71,1.13 -0.41,0.66 -0.81,1.33 -1.26,1.98 h 0.03 c 0.91,0.29 1.89,0.5 2.87,0.71 8.8,1.81 19.75,0.34 19.75,0.34 11.48,-0.75 20.71,-3.83 27.91,-8.62 -0.91,-1.42 -1.83,-2.81 -2.62,-4.32 -9.2,6.24 -22.48,9.57 -41.15,8.05 v 0 z"
     id="path45" />
  <path
     class="cls-2"
     d="m 281.26741,252.65925 c 1.86,-0.18 3.65,-0.38 5.48,-0.57 1.11,-4.09 1.8,-8.4 2.08,-12.86 l -0.23,-0.04 -0.86,-0.14 -0.08,-0.87 c -0.58,-5.7 -0.75,-8.96 -0.5,-9.7 l 0.32,-0.93 0.97,0.17 0.27,0.05 c -0.08,-1.08 -0.22,-2.17 -0.35,-3.25 -1.76,0.18 -3.49,0.37 -5.2,0.55 1.12,9.33 0.76,18.96 -1.9,27.62 h 0.02 z"
     id="path46" />
  <path
     class="cls-2"
     d="m 276.47741,267.59925 c 0.44,0.83 0.95,1.56 1.42,2.35 1.22,-1.5 2.32,-3.07 3.33,-4.71 -1.47,0.16 -2.92,0.31 -4.33,0.45 0,0 -0.7,0.21 -1.91,0.45 l 1.49,1.44 v 0 z"
     id="path47" />
  <path
     class="cls-2"
     d="m 216.03741,205.72925 c 6.02,4.57 12.33,7.11 21.6,8.26 l -20.37,-44.39 c -4.28,11.73 -3.59,24.03 -1.23,36.14 z"
     id="path48" />
  <path
     class="cls-2"
     d="m 209.58741,199.99925 c 1.08,1.07 2.12,2.08 3.06,2.96 -2.33,-12.07 -2.42,-24.76 3.32,-36.21 l -1.44,-3.12 c -2.05,3.67 -3.76,7.86 -4.81,12.67 -1.65,7.57 -1.37,15.75 -0.13,23.71 z"
     id="path49" />
  <path
     class="cls-2"
     d="m 223.12741,248.55925 c 1.5,0.25 2.96,0.51 4.39,0.76 7.54,-4.64 13.43,-13.1 16.62,-21.16 l -0.86,-1.86 c -0.11,0 -0.22,-0.02 -0.33,-0.02 -7.24,-0.4 -15.16,-1.55 -23.25,-5.03 2.05,7.78 4.15,15.32 5.31,22.36 -1.44,-6.03 -4.74,-14.22 -7.75,-23.46 -1.13,-0.55 -2.24,-1.21 -3.37,-1.87 3.21,10.61 6.85,19.33 7.74,23.41 0.44,1.98 0.98,4.32 1.5,6.88 v 0 z"
     id="path50" />
  <path
     class="cls-1"
     d="m 245.34741,199.10925 c 2.43,5.28 4.84,10.55 7.17,15.65 h 1.17 c 7.49,-0.05 17.08,-0.7 27.28,-1.66 -1.22,-4.8 -2.74,-9.36 -4.46,-13.44 -8.37,-19.76 -30.45,-12.13 -31.15,-0.55 v 0 z"
     id="path51" />
  <path
     class="cls-1"
     d="m 227.51741,249.30925 c 13.87,2.39 24.11,4.14 24.11,4.14 1.61,0.23 3.02,0.41 4.37,0.55 l -11.86,-25.86 c -3.18,8.06 -9.07,16.51 -16.61,21.16 z"
     id="path52" />
  <path
     class="cls-1"
     d="m 269.61741,253.64925 c 3.96,-0.29 7.83,-0.61 11.65,-0.97 2.65,-8.67 3.02,-18.3 1.9,-27.62 -8.86,0.89 -17.13,1.6 -23.82,2.02 -0.03,0 -0.53,0 -1.31,-0.04 5.06,11.37 9.11,20.97 11.48,26.67 0.04,-0.02 0.11,-0.05 0.11,-0.05 v 0 z"
     id="path53" />
  <path
     class="cls-1"
     d="m 223.32741,282.15925 1.3,0.17 c 18.66,1.52 31.95,-1.81 41.15,-8.05 -1.17,-2.19 -2.24,-4.47 -3.17,-6.83 l -0.53,-0.74 c -0.16,0 -0.3,0 -0.46,-0.02 -3.8,-0.24 -13.39,-1.24 -16.72,-2.04 0,0 -7.06,-1.19 -17.31,-2.93 0.06,5.9 -0.81,13.3 -4.27,20.45 z"
     id="path54" />
  <path
     class="cls-1"
     d="m 287.42741,151.80925 c -12.06,1.47 -15.42,31.66 -8.58,39.2 -2.5,-11.57 0.14,-33.06 8.58,-39.2 z"
     id="path55" />
  <path
     class="cls-1"
     d="m 219.69741,221.23925 c -0.81,-0.35 -1.63,-0.7 -2.44,-1.09 3.02,9.24 6.33,17.42 7.75,23.46 -1.16,-7.05 -3.26,-14.58 -5.31,-22.36 v 0 z"
     id="path56" />
  <path
     class="cls-1"
     d="m 212.64741,202.94925 c 1.13,1.01 2.26,1.91 3.39,2.77 -2.35,-12.11 -3.06,-24.41 1.23,-36.14 l -1.31,-2.86 c -5.74,11.47 -5.64,24.15 -3.32,36.21 v 0 z"
     id="path57" />
  <path
     class="cls-1"
     d="m 238.51741,144.83925 c -4.9,2.16 -8.78,5.58 -8.78,5.58 -1.83,1.41 -3.47,2.88 -4.98,4.38 0.16,0.34 0.33,0.7 0.49,1.04 2.2,-2.39 6.48,-6.66 13.27,-11 z"
     id="path58" />
  <path
     class="cls-2"
     d="m 280.59741,112.32925 c 0.08,-0.02 0.16,-0.02 0.24,-0.04 -0.36,-0.84 -1.17,-2.78 -2.18,-5.52 l 1.96,5.56 v 0 z"
     id="path59" />
  <path
     class="cls-2"
     d="m 313.20741,121.48925 -0.59,-0.05 c 2.24,8.59 1.66,20.17 -9.96,22.76 5.88,-2.57 0.94,-4.33 0.48,-4.54 -12.49,-2.88 -33.28,0.96 -35.56,-0.61 13.31,-1.29 14.33,-7.91 13.25,-14.77 -0.69,0.14 -1.38,0.28 -2.08,0.42 1.25,7.18 -1.71,9.9 -5.71,11.39 -6.1,2.07 -10.49,2.13 -10.69,2.1 l -3.97,-0.14 c 1.72,-0.58 5.13,-0.72 9.31,-1.59 6.39,-1.32 10.09,-4.14 9.66,-11.47 -0.84,0.18 -1.65,0.33 -2.5,0.5 0.08,2.1 -0.13,3.91 -0.86,5.22 -1.28,2.34 -5.78,3.27 -8.13,3.62 0,0 -3.5,0.49 -3.44,0.48 -11.82,1.76 -19.19,4.33 -27.93,9.03 0,0 -2.22,1.36 -2.7,1.76 -2.39,1.51 -5.31,3.65 -8.27,6.48 0.41,0.88 0.82,1.76 1.26,2.7 1.52,-1.5 3.15,-2.96 4.98,-4.38 0,0 3.88,-3.42 8.78,-5.58 -6.79,4.33 -11.07,8.61 -13.27,11 5.54,11.84 12.88,27.59 20.09,43.28 0.7,-11.57 22.78,-19.21 31.15,0.55 1.72,4.07 3.25,8.64 4.46,13.44 1.76,-0.17 3.54,-0.34 5.32,-0.53 -0.6,-2.48 -1.29,-4.95 -2.07,-7.42 -1.2,-5.02 -2.12,-11.93 -2.18,-19.31 -0.18,-0.22 -0.38,-0.42 -0.55,-0.65 -0.44,-9.06 1.34,-16.51 1.34,-16.51 0.24,0.37 0.51,0.7 0.76,1.06 1.34,-6.38 3.58,-12.41 7.32,-17.09 0.14,-0.21 0.26,-0.35 0.4,-0.54 -0.14,-0.32 -0.24,-0.55 -0.24,-0.55 1.62,-2.07 2.54,-4.17 7.03,-4.9 0.18,-0.03 0.34,-0.08 0.54,-0.1 3.14,-0.41 2.34,-0.49 3.62,-0.41 l 0.18,0.42 c 0.06,0 0.17,-0.02 0.2,-0.03 5.89,-1.06 9.55,-4.27 11.81,-8.34 1.45,-2.65 1.82,-6.2 1.85,-9.17 -0.13,-0.22 2.21,-1.11 2.78,-1.45 -2.13,-0.92 -4.07,-2.75 -5.86,-6.07 v 0 z m -34.36,69.53 c -6.83,-7.54 -3.48,-37.74 8.59,-39.2 -8.44,6.14 -11.09,27.64 -8.59,39.2 z"
     id="path60" />
  <path
     class="cls-2"
     d="m 290.26741,127.67925 10.8,-0.14 c 5.53,-0.95 8,-3.31 8.71,-6.41 l -0.26,-0.04 c -1.3,5.6 -7.5,6.06 -9.03,6.26 -2.17,0.29 -7.78,0.29 -11.52,0 -2.55,-0.19 -3.74,-2.44 -4.25,-3.86 -0.05,0 -0.1,0.03 -0.15,0.03 1.86,4.47 5.7,4.17 5.7,4.17 v 0 z"
     id="path61" />
  <path
     class="cls-2"
     d="m 275.86741,98.879246 1.08,3.080004 c -0.55,-1.65 -1.11,-3.390004 -1.66,-5.280004 -0.91,-3.01 -0.78,-5.28 -0.26,-6.95 -1.55,4.31 0.84,9.14 0.84,9.14 v 0 z"
     id="path62" />
  <path
     class="cls-2"
     d="m 298.19741,86.519246 -0.79,-0.06 c 0.97,1.76 1.34,3.32 1.34,3.32 l 8.52,19.800004 h 0.19 c -2.8,-6.78 -8.85,-20.620004 -8.85,-20.620004 l 3.31,0.29 c 1.96,5.04 4.84,13.650004 7.04,20.420004 l 0.33,0.02 c -1.02,-3.09 -6.82,-20.920004 -6.82,-20.920004 l -0.34,-1.01 0.83,-0.7 0.33,-0.14 -1.91,-0.15 z"
     id="path63" />
  <path
     class="cls-1"
     d="m 277.32741,124.98925 c 0.43,7.33 -3.27,10.15 -9.66,11.47 -4.18,0.87 -7.59,1.01 -9.31,1.59 l 3.97,0.14 c 0.2,0.02 4.59,-0.03 10.68,-2.1 4.01,-1.49 6.97,-4.21 5.71,-11.39 -0.47,0.09 -0.93,0.19 -1.41,0.29 v 0 z"
     id="path64" />
  <path
     class="cls-1"
     d="m 268.95741,94.289246 c -0.41,-1.3 -1.01,-3.79 -0.29,-5.96 0,0 -2.73,2.17 -0.28,7.96 l 6.21,17.160004 c 0.44,-0.08 0.87,-0.17 1.31,-0.25 -0.35,-1.03 -0.74,-2.1 -1.19,-3.23 -2.24,-5.72 -4.96,-13.160004 -5.75,-15.680004 v 0 z"
     id="path65" />
  <path
     class="cls-1"
     d="m 309.77741,121.12925 c -0.71,3.1 -3.18,5.46 -8.71,6.41 l -10.8,0.14 c 0,0 -3.84,0.3 -5.7,-4.17 -1.23,0.25 -2.49,0.51 -3.75,0.76 1.07,6.86 0.07,13.48 -13.25,14.77 2.28,1.57 23.07,-2.27 35.56,0.61 0.46,0.19 5.4,1.97 -0.48,4.54 11.62,-2.58 12.2,-14.17 9.96,-22.75 l -1.86,-0.17 -0.99,-0.14 z"
     id="path66" />
  <path
     class="cls-1"
     d="m 301.91741,89.239246 -3.31,-0.29 c 0,0 6.06,13.840004 8.85,20.640004 l 1.49,0.08 c -2.2,-6.76 -5.06,-15.370004 -7.04,-20.420004 v 0 z"
     id="path67" />
  <path
     class="cls-1"
     d="m 276.95741,101.96925 -1.08,-3.080004 c 0,0 -2.39,-4.83 -0.84,-9.14 0.19,-0.57 0.4,-1.07 0.66,-1.5 -0.11,-0.02 -1.73,-0.24 -2.84,-0.14 -1.72,0.14 -3.33,0.22 -2.16,4.31 0.86,3.03 1.19,3.75 1.86,5.62 0.82,2.240004 3.44,9.010004 5.36,14.770004 0.9,-0.17 1.78,-0.31 2.68,-0.47 l -1.96,-5.56 c -0.53,-1.41 -1.1,-3.02 -1.69,-4.81 v 0 z"
     id="path68" />
  <path
     class="cls-2"
     d="m 274.82741,125.49925 c 0.85,-0.18 1.65,-0.34 2.5,-0.5 0.48,-0.1 0.94,-0.19 1.41,-0.29 0.7,-0.14 1.39,-0.28 2.08,-0.42 1.24,-0.25 2.51,-0.51 3.75,-0.76 0.05,0 0.1,-0.02 0.15,-0.02 -0.24,-0.67 -0.34,-1.19 -0.34,-1.19 7.91,-1.01 8.34,-3.45 8.34,-3.45 2.3,-4.75 -2.87,-6.62 -2.87,-6.62 -2.44,-1.01 -8.78,0.58 -8.78,0.58 0,0 -0.09,-0.21 -0.22,-0.51 -0.08,0.02 -0.15,0.03 -0.24,0.04 -0.9,0.16 -1.78,0.3 -2.68,0.47 -0.67,0.13 -1.35,0.27 -2.03,0.4 -0.44,0.08 -0.87,0.18 -1.31,0.25 -0.84,0.16 -1.67,0.32 -2.51,0.5 -18.78,3.76 -37.16,8.71 -47.48,13.04 0,0 -7.74,2.79 -13.21,7.27 -0.2,0.17 -0.28,0.3 -0.29,0.43 0.57,-0.17 1.15,-0.25 1.71,-0.25 1.45,0.03 2.61,0.68 3.25,1.83 0.12,0.24 1.47,3.09 3.62,7.67 3.55,-2.29 7.17,-4.62 11.72,-6.26 13.33,-5.41 28.7,-9.1 43.44,-12.18 v -0.02 z m -55.97,16.07 c 0,0 -1.73,-3.55 -2.2,-4.68 -0.82,-1.99 -1.34,-1.92 -2.14,-2.38 2.5,-1.69 6.19,-3.42 10.58,-5.26 12.77,-5.34 39.22,-12.16 62.09,-15.85 2.44,-0.34 4.47,1.34 4.72,3.09 0.24,1.56 -0.56,3.38 -3.55,3.86 l -1.4,0.28 c -18.29,3.66 -39.05,7.81 -56.39,14.85 -5.45,1.97 -8.65,3.76 -11.71,6.09 z"
     id="path69" />
  <path
     class="cls-2"
     d="m 206.29741,145.66925 -0.45,-0.98 c 0.03,0.08 0.03,0.14 0.08,0.21 0.1,0.2 0.24,0.47 0.38,0.77 z"
     id="path70" />
  <path
     class="cls-2"
     d="m 205.60741,143.98925 c -0.03,-0.79 -0.07,-1.73 0.02,-2.71 0.03,-0.04 0.06,-0.06 0,0.02 0,0 -0.45,1.13 -0.02,2.69 z"
     id="path71" />
  <path
     class="cls-2"
     d="m 197.14741,148.54925 c -2.12,3.15 -9.74,15.2 -16.54,26.2 2.46,-1.08 4.86,-0.51 6.43,1.31 0.91,0.94 2.67,2.86 4.85,5.22 6.93,-11.2 13.5,-21.68 13.5,-21.67 1.55,-2.44 3.16,-4.9 4.28,-6.59 l -0.97,-2.12 c -0.51,0.71 -3.33,4.42 -5.27,7.44 l -12.92,21.03 -3.45,-3.8 c 0,0 -1.81,-1.54 -3.4,-1.4 6.99,-11.33 13.21,-21.12 15.37,-24.35 1.99,-3.27 6.09,-7.97 6.61,-8.53 0.11,-1.06 0.36,-2.16 0.94,-3.12 0.15,-0.25 0.37,-0.47 0.55,-0.71 -0.51,0.39 -2.6,2.03 -3.49,3.05 -2.18,2.5 -4.07,4.71 -6.5,8.06 h 0.02 z"
     id="path72" />
  <path
     class="cls-2"
     d="m 391.50741,206.77925 -1.14,-2.73 c -2.38,-6.19 -6.69,-7.35 -13.47,-6.51 l -5.9,0.65 c -11.86,1.06 -30.93,3.01 -46.87,0.32 l 3.65,8.74 c 6.49,-1 12.06,-1.94 15.94,-2.7 l 1.09,-0.37 c 0.38,-0.85 1.16,-1.56 2.28,-2.08 2.18,-0.99 5.75,-1.21 8.48,0.62 l 0.11,0.22 c 3.28,-0.7 7.63,-1.54 18.18,-3.02 1.14,0.03 2.08,0.33 2.93,0.73 0.82,-0.13 1.4,-0.19 1.4,-0.19 2.07,0.35 2.94,1.56 3.21,3.24 0.08,0.5 0.32,2.09 -0.94,3.14 -0.09,1.19 -0.51,2.3 -1.34,3.09 0,0 -0.19,0.07 -0.47,0.16 1.71,4.14 4.23,12.01 4.91,14.89 l 1.62,6.66 c 0.97,-0.23 1.97,-0.45 2.9,-0.71 h 0.03 c -0.28,-0.02 -0.48,-0.13 -0.78,-0.12 -2.68,-12.1 -6.48,-21.45 -6.48,-21.45 4.9,-3.6 3.12,-9.17 -0.19,-10.17 0,0 6.04,-1.28 8.83,9.17 10.12,28.37 17.98,67.23 15.74,80.66 0,-1.73 -2.69,-4.95 -7.3,-5.9 0,0 0.1,-1.78 -0.04,-3.95 -1.16,-11.7 -5.38,-33 -5.38,-33 4.3,-1.39 5.43,-7.62 2.56,-11.7 0.59,0.97 1.01,2.03 1.2,3.09 0.62,3.39 -0.56,7.6 -4.69,8.83 -0.1,0.03 -0.61,0.16 -1.28,0.33 l 0.27,1.44 c 1.75,9.43 4.38,23.67 5.38,32.42 0.05,0.87 -0.04,1.55 -0.17,2.16 3.45,0.7 8.55,2.46 9.56,7.11 l 0.03,0.09 v 0.09 c 0,0.18 0.7,3.23 -1.74,5.5 4.94,-3.86 4.71,-12.34 4.69,-12.77 -1.83,-24.85 -7.42,-49.64 -16.83,-75.95 v -0.03 z m -46.92,-2.57 c -5.17,1.3 -16.84,2.59 -16.84,2.59 l -2.44,-5.61 c 12.52,1.72 21.59,0.72 21.59,0.72 -2.16,0.29 -2.3,2.3 -2.3,2.3 z m 11.23,-1.59 c -1.59,-1.29 -3.17,-1.29 -3.17,-1.29 3.76,0.3 15.4,-0.86 15.4,-0.86 -2.8,0.79 -12.23,2.16 -12.23,2.16 v 0 z"
     id="path73" />
  <path
     class="cls-2"
     d="m 283.57741,169.72925 c -0.25,-0.36 -0.51,-0.69 -0.76,-1.06 0,0 -1.78,7.44 -1.34,16.51 0.18,0.23 0.38,0.43 0.55,0.65 8.94,11.02 21.02,19.11 33.34,23.18 -0.4,-0.93 -0.78,-1.87 -1.19,-2.8 -18.84,-6.19 -32.21,-23.96 -32.21,-23.96 0.09,-5.61 0.93,-9.64 0.93,-9.64 12.17,16.77 25.56,23.26 27.24,24.02 -0.4,-0.95 -0.81,-1.9 -1.2,-2.84 -1.04,-0.54 -2.03,-1.12 -2.67,-1.68 -4.24,-2.61 -14.4,-10.45 -22.69,-22.39 v 0 z"
     id="path74" />
  <path
     class="cls-2"
     d="m 360.83741,213.17925 c 0.12,0.27 0.22,0.58 0.34,0.85 11.46,-2.08 16.17,-3.5 17.48,-3.96 0.29,-0.09 0.47,-0.16 0.47,-0.16 0.83,-0.8 1.25,-1.91 1.34,-3.09 -0.3,0.24 -0.6,0.49 -1.09,0.65 -1.24,0.68 -3.49,1.18 -3.49,1.18 -2.6,0.63 -5.54,1.39 -9.61,2.16 -2.92,0.55 -5.86,1.17 -5.61,1.03 -0.62,-1.35 -1.32,-3.55 -3.12,-7.03 5.58,-1.03 11.37,-2.3 16.43,-3.59 0.92,-0.25 1.99,-0.45 2.82,-0.58 -0.85,-0.4 -1.8,-0.71 -2.93,-0.73 -10.53,1.49 -14.88,2.33 -18.18,3.02 l 5.14,10.26 v 0 z"
     id="path75" />
  <path
     class="cls-2"
     d="m 339.49741,235.32925 -6.95,-16.66 c -0.62,0.1 -1.27,0.21 -1.9,0.3 2.32,5.86 4.78,11.73 6.73,16.31 0.68,0 1.37,0.03 2.12,0.04 z"
     id="path76" />
  <path
     class="cls-2"
     d="m 365.31741,285.56925 c -0.06,-0.79 -0.12,-1.65 -0.18,-2.57 -15.63,-8.07 -25.82,-25.58 -25.82,-25.58 1.59,-0.29 7.78,-1.44 7.78,-1.44 6.37,9.54 15.68,16.09 17.13,17.08 -0.11,-0.94 -0.22,-1.89 -0.34,-2.85 -5.78,-4.19 -10.75,-9.26 -14.66,-14.92 -3.91,0.78 -8.09,1.55 -12.45,2.31 7.43,12.32 17.58,22.03 28.55,27.96 v 0 z"
     id="path77" />
  <path
     class="cls-2"
     d="m 328.69741,234.76925 c -2.61,-6.17 -5.45,-13.01 -6.09,-14.57 -0.78,0.12 -1.56,0.23 -2.36,0.35 2.11,4.98 4.07,9.63 5.82,13.76 z"
     id="path78" />
  <path
     class="cls-2"
     d="m 298.64741,146.54925 c -0.2,0.03 -0.35,0.07 -0.54,0.1 -4.5,0.73 -5.41,2.83 -7.03,4.9 0,0 0.09,0.23 0.24,0.55 1.36,3.21 9.13,21.59 17.64,41.71 0.4,0.94 0.8,1.89 1.2,2.84 0.12,0.06 0.18,0.08 0.18,0.08 l 3.89,9.5 h -0.02 c 0.4,0.93 0.79,1.87 1.18,2.8 0,0 0,0 0,0.02 4.39,-0.6 8.54,-1.21 12.39,-1.81 l -3.65,-8.74 -21.68,-51.95 -0.18,-0.42 c -1.29,-0.07 -0.48,0 -3.62,0.41 v 0 z m 26.98,60.73 c -3.54,0.63 -7.78,1.11 -7.78,1.11 l -24.92,-58.39 c 2.68,-2.92 7.03,-3.01 7.03,-3.01 1.63,3.31 25.66,60.29 25.66,60.29 v 0 z"
     id="path79" />
  <path
     class="cls-2"
     d="m 405.37741,289.99925 v -0.09 l -0.03,-0.09 c -1.01,-4.64 -6.11,-6.42 -9.56,-7.11 -1.63,-0.32 -2.93,-0.43 -3.21,-0.45 -5.33,-0.84 -10.56,-2.39 -15.53,-4.52 0.42,4.35 0.65,8.6 0.72,12.76 0.76,0.2 1.52,0.49 2.28,0.65 -0.68,0.13 -1.51,0.25 -2.3,0.38 0.03,2.75 0.05,5.5 -0.09,8.11 -0.11,1.96 -0.87,3.63 -2.14,4.77 21.76,-4.94 25.45,-6.74 26.79,-7.96 0.52,-0.29 0.95,-0.61 1.32,-0.96 2.44,-2.26 1.75,-5.32 1.74,-5.5 v 0.02 z m -27.79,11.91 c 0.71,-3.17 0.58,-8.21 0.58,-8.21 25.48,-5.47 1.29,-7.78 1.29,-7.78 5.61,1.73 5.48,3.75 5.48,3.75 -2.45,0.14 -6.76,-1.14 -6.76,-1.14 0.13,-1.59 -0.29,-8.06 -0.29,-8.06 6.62,2.88 7.68,2.06 14.53,3.59 7.06,1.59 3.6,4.47 3.6,4.47 -3.6,4.45 -16.84,6.33 -16.84,6.33 22.18,-2.88 20.15,-8.93 20.15,-8.93 9.08,5.91 0.14,10.08 -4.45,11.37 -4.07,1.14 -17.28,4.61 -17.28,4.61 v 0 z"
     id="path80" />
  <path
     class="cls-2"
     d="m 339.49741,235.32925 c -0.76,0 -1.45,-0.03 -2.13,-0.04 2.14,5.01 3.67,8.47 3.67,8.47 -1.3,0.58 -7.78,1.44 -7.78,1.44 -0.59,-1.12 -2.5,-5.56 -4.56,-10.42 l -2.63,-0.46 -37.35,-6.56 -0.27,-0.05 -0.97,-0.17 -0.32,0.93 c -0.24,0.73 -0.08,4 0.5,9.7 l 0.08,0.87 0.86,0.14 0.23,0.04 40.58,6.85 c 7.17,-1.22 14.23,-2.49 21.19,-3.74 l 5.06,-0.91 c 1.14,-0.41 1.48,-1.71 0.97,-3.28 0,-0.03 -0.4,-1.23 -0.99,-3.01 -6.12,0.24 -11.73,0.25 -16.14,0.19 h -0.02 z m -9.31,8.8 -41.3,-6.85 c 0.38,-4.03 0.18,-7.48 0.18,-7.48 l 38.09,6.96 c 0.72,2.07 3.02,7.38 3.02,7.38 z m 25.92,-6.71 c 1.14,3.89 -1.88,3.69 -1.88,3.69 l -11.08,2.31 -2.75,-6.06 c 9.64,0.14 15.7,0.06 15.7,0.06 v 0 z"
     id="path81" />
  <path
     class="cls-2"
     d="m 372.61741,250.80925 c 5,-0.92 14.34,-3.25 17.7,-4.11 0.66,-0.17 1.18,-0.3 1.28,-0.33 4.13,-1.23 5.31,-5.44 4.69,-8.83 -0.19,-1.07 -0.61,-2.13 -1.2,-3.09 -1.37,-1.94 -3.64,-3.35 -6.97,-3.54 h -0.02 c -0.93,0.26 -1.92,0.48 -2.9,0.71 -5.27,1.23 -11.04,2.07 -16.83,2.65 1.6,5.33 3.01,10.89 4.28,16.54 v 0 z m 21.43,-13.82 c 0,0 1.73,5.23 -2.73,7.1 0,0 -3.31,1.68 -18.57,4.41 0,0 -1.24,-4.75 -1.82,-7.19 0,0 12.91,-2.69 17.95,-4.57 0,0 -0.1,-1.68 -2.6,-1.63 0,0 -13.1,3.31 -16.12,3.59 l -0.72,-2.01 c 0,0 11.23,-2.16 14.98,-3.02 0,0 7.92,-2.73 9.64,3.31 v 0 z"
     id="path82" />
  <path
     class="cls-2"
     d="m 377.68741,299.63925 c 0.14,-2.61 0.12,-5.36 0.09,-8.11 0,-0.35 0.02,-0.68 0,-1.02 -0.08,-4.16 -0.3,-8.4 -0.72,-12.76 -0.87,-8.87 -2.44,-18 -4.44,-26.94 -1.26,-5.65 -2.68,-11.2 -4.28,-16.54 -2.18,-7.27 -4.6,-14.11 -7.18,-20.24 -0.11,-0.27 -0.22,-0.58 -0.34,-0.85 l -5.14,-10.26 -0.11,-0.22 c -2.73,-1.83 -6.31,-1.61 -8.48,-0.62 -1.13,0.51 -1.91,1.23 -2.28,2.07 l -1.09,0.37 c -3.88,0.76 -9.45,1.7 -15.94,2.7 -3.85,0.6 -8,1.2 -12.39,1.81 -9.21,1.28 -19.31,2.52 -29.11,3.54 -1.79,0.19 -3.56,0.36 -5.32,0.53 -10.2,0.96 -19.79,1.61 -27.28,1.66 h -1.17 c -2.33,-5.11 -4.73,-10.37 -7.16,-15.65 -7.22,-15.69 -14.56,-31.44 -20.09,-43.28 -0.16,-0.35 -0.33,-0.71 -0.49,-1.04 -0.44,-0.94 -0.85,-1.81 -1.26,-2.7 -1.45,-3.11 -2.75,-5.86 -3.83,-8.15 -2.16,-4.58 -3.5,-7.43 -3.62,-7.67 -0.65,-1.16 -1.8,-1.81 -3.25,-1.83 -0.56,0 -1.13,0.08 -1.71,0.25 -1.5,0.44 -2.93,1.45 -3.95,2.76 -0.18,0.24 -0.4,0.45 -0.55,0.71 -0.58,0.97 -0.84,2.07 -0.94,3.12 0,0 0.02,-0.02 0,0 -0.09,0.98 -0.06,1.92 -0.03,2.71 0.07,0.23 0.12,0.45 0.24,0.7 l 0.45,0.98 c 0.9,1.84 2.47,5.11 2.47,5.11 0.03,-0.03 0,0 -0.07,0.11 l 0.97,2.12 4.86,10.6 1.44,3.12 1.31,2.86 20.37,44.39 c -9.26,-1.14 -15.57,-3.68 -21.6,-8.26 -1.13,-0.86 -2.26,-1.76 -3.39,-2.77 -0.94,-0.87 -1.98,-1.89 -3.06,-2.96 -5.69,-5.64 -12.83,-13.41 -17.7,-18.71 -2.18,-2.37 -3.93,-4.28 -4.85,-5.23 -1.56,-1.82 -3.96,-2.39 -6.43,-1.31 -0.56,0.25 -1.12,0.49 -1.68,0.92 -1.8,1.39 -2.95,3.84 -2.51,6.36 0.17,-0.27 0.32,-0.51 0.49,-0.8 0,0 -0.07,1.53 2.51,4.27 2.6,2.75 6.08,6.22 6.08,6.22 -0.18,0.29 -0.31,0.5 -0.48,0.78 6.82,6.81 14.67,14.29 14.74,14.36 4.64,5.04 9.38,8.66 14.11,11.42 1.12,0.66 2.25,1.32 3.37,1.87 0.81,0.4 1.63,0.74 2.44,1.09 8.09,3.49 16.01,4.63 23.25,5.03 0.11,0 0.22,0.02 0.33,0.03 l 0.86,1.86 11.86,25.85 c -1.34,-0.14 -2.76,-0.32 -4.37,-0.55 0,0 -10.24,-1.76 -24.11,-4.14 -1.43,-0.24 -2.9,-0.5 -4.39,-0.76 -1.62,-0.28 -3.28,-0.56 -4.97,-0.86 -0.78,-0.13 -1.54,-0.26 -2.33,-0.4 -22.66,-3.89 -49.44,-8.48 -59.3,-10.17 l -1.43,2.11 c 6.3,1.08 92.69,15.91 92.7,15.92 14.18,2.11 21.92,0.81 22.08,0.78 30.23,-2.17 56.1,-6.82 81.11,-11.33 l 5.17,-0.93 0.08,-0.02 0.08,-0.03 c 1.88,-0.29 3.17,1.62 3.17,1.62 0.73,-1.22 -0.99,-8.27 -0.99,-8.27 -0.06,-0.15 -4.59,-14.5 -6.85,-20.21 l 0.03,0.11 c -0.07,-0.22 -1.24,-2.78 -3.42,-3.21 0,0 0.3,-1.82 -0.28,-2.97 0,0 -0.28,2.75 -2.89,3.32 -22.97,4.61 -61.39,9.34 -84.82,10.74 -0.1,0 -10.03,-0.07 -17.56,-0.59 -12.73,-0.71 -27.25,-3.69 -41.3,-18.93 -0.16,-0.14 -15.71,-14.95 -21.97,-21.81 -1.56,-2.21 -0.73,-4.66 0.91,-5.96 1.16,-0.91 3.74,-1.76 5.04,-0.27 2.73,3.66 17.56,19.24 25.17,27.21 8.62,6.72 15.78,10.08 27.8,11.58 6.12,0.78 14.96,0.87 15.34,0.87 27.85,-0.35 71.51,-6.9 89.49,-10.1 2.16,-0.28 4.17,1.7 4.17,1.7 l -0.6,-2.54 0.09,-0.72 c 0.03,-0.24 1.01,-1.02 1.82,-1.4 1.56,-0.7 3.65,-0.72 5.38,0.7 12.11,22.32 23.22,64.47 21.31,95.04 -0.11,1.66 -0.82,3.01 -2.1,3.66 0,0 -3.42,2.48 -6.16,-1.85 0,0 0.69,1.89 -2.34,2.89 -18.64,4.8 -38.61,5.07 -55.44,0.63 -15.26,-4.03 -33.31,-12.87 -43.33,-35.06 2.45,-3.31 7.29,-3.35 7.29,-3.35 15.57,33.31 55.28,39.13 89.65,30.34 0,0 2.4,-0.47 3.59,1.24 1.01,-2.01 1.08,-8.64 1.08,-8.64 -0.04,-0.97 -0.45,-21.09 -4.23,-34.74 -0.04,-0.48 -0.89,-2.9 -2.32,-3.34 0,0 -0.62,-3.97 -0.71,-3.24 -0.4,3.28 -4.54,3.52 -4.54,3.52 -21.19,5.04 -53.98,9.22 -79.88,11.84 -0.04,0 -2.01,0.31 -5.52,0.47 l -2.79,0.07 c -4.92,0.06 -12.73,0.04 -20.66,-1.65 0,0 -91.36,-14.97 -91.4,-14.98 -1.39,-0.45 -1.8,-2.17 -1.8,-2.17 -0.44,-1.31 -0.23,-2.94 0.1,-4.19 l -3.97,5.88 c -0.38,0.58 -0.88,1.03 -1.44,1.42 4.72,0.8 40.93,6.93 67.62,11.46 1.11,0.18 2.2,0.37 3.28,0.55 1.85,0.32 3.63,0.61 5.34,0.91 0.98,0.17 1.93,0.33 2.86,0.49 10.26,1.73 17.31,2.93 17.31,2.93 3.34,0.8 12.92,1.81 16.72,2.04 0.16,0.02 0.3,0.02 0.46,0.03 l 0.53,0.74 c 0.93,2.36 2,4.64 3.17,6.83 0.8,1.5 1.72,2.9 2.62,4.32 8.84,13.85 22.64,23.85 40.38,28.53 18.37,4.86 39.23,4.38 59.3,-1.51 2.4,1.24 4.7,0.48 6.28,-0.34 0.44,-0.24 0.83,-0.53 1.18,-0.85 1.28,-1.14 2.03,-2.81 2.14,-4.77 v 0 z m -122.31,-72.46 11.7,26.44 c 0,0 -3.17,0.71 -8.64,0.29 -1.44,-3.14 -3.14,-7.19 -10.65,-23.6 2.54,-4.03 7.58,-3.13 7.58,-3.13 z m 3.97,-0.13 c 6.69,-0.42 14.96,-1.13 23.82,-2.02 1.71,-0.18 3.44,-0.35 5.2,-0.55 10.54,-1.13 21.65,-2.49 31.88,-3.95 0.8,-0.12 1.58,-0.23 2.36,-0.34 -0.09,-0.21 -0.14,-0.35 -0.14,-0.35 1.35,-0.17 8.06,-1.16 8.06,-1.16 0.03,0.09 0.08,0.18 0.11,0.27 0.63,-0.1 1.28,-0.2 1.9,-0.3 5.07,-0.84 9.7,-1.7 13.61,-2.54 0,0 1.75,-0.3 2.32,0.13 0.96,0.72 1,1.23 1.01,1.23 v 0.06 l 0.03,0.06 c 1.63,4.09 4.58,12.89 6.11,17.54 0.6,1.78 0.98,2.97 0.99,3.01 0.51,1.56 0.18,2.86 -0.97,3.28 l -5.06,0.91 c -6.96,1.25 -14.02,2.52 -21.19,3.74 -13.52,2.3 -27.59,4.43 -42.66,6.02 -1.82,0.19 -3.62,0.39 -5.48,0.57 -3.81,0.36 -7.69,0.7 -11.65,0.97 0,0 -0.07,0.02 -0.11,0.05 -2.37,-5.7 -6.42,-15.3 -11.48,-26.67 0.78,0.03 1.29,0.04 1.31,0.04 h 0.02 z m -51.39,-83.42 c -0.72,-1.73 -0.14,-3.17 0.6,-4.41 0.97,-1.65 2.9,-2.6 4.2,-2.58 0.92,0 1.19,0.49 1.23,0.56 l 35.95,77.26 c 0,0 -5.28,0.27 -9.06,-0.52 -14.95,-32.69 -32.89,-70.27 -32.92,-70.31 z m 73.27,121.61 c 17.25,-1.85 37.83,-4.58 55.53,-7.64 4.36,-0.76 8.53,-1.53 12.45,-2.31 3.54,-0.7 6.88,-1.42 9.91,-2.14 0.78,-0.21 1.09,0 1.2,0.09 0.56,0.39 0.78,1.44 0.8,1.76 v 0.13 l 0.04,0.11 c 1.16,4.09 2.04,9.56 2.71,14.97 0.12,0.96 0.23,1.91 0.34,2.85 0.13,0.08 0.29,0.2 0.29,0.2 0.28,2.59 0.71,9.79 0.71,9.79 -0.03,-0.02 -0.06,-0.03 -0.08,-0.04 0.07,0.92 0.13,1.78 0.18,2.57 0.2,3.03 0.3,5.02 0.3,5.07 0,2.5 -1.41,3.41 -1.62,3.54 -32.02,8.67 -69.28,4.1 -86.1,-24.22 -0.47,-0.79 -0.98,-1.53 -1.42,-2.35 l -1.5,-1.45 c 1.21,-0.24 1.91,-0.45 1.91,-0.45 1.42,-0.14 2.87,-0.3 4.33,-0.45 v -0.02 z"
     id="path83" />
  <path
     class="cls-2"
     d="m 157.00741,226.38925 c -3.24,-1.83 -4.54,-4.02 -4.93,-6.02 l -0.55,1.07 c 0,0 -12.72,18.97 -12.7,18.94 -1.09,1.54 -1.27,3.28 -0.49,4.92 1.04,2.2 3.66,3.86 6.37,4.04 1.44,0.09 2.73,-0.29 3.78,-1.03 0.55,-0.39 1.05,-0.83 1.44,-1.42 l 3.97,-5.88 c 0.31,-1.15 0.72,-1.97 0.81,-1.86 0,0 0.16,0.03 0.4,0.07 l 1.43,-2.11 5.33,-7.9 c -1.89,-1.13 -3.59,-2.13 -4.86,-2.85 v 0 z m -8.86,19.08 c -0.84,1.3 -2.18,1.49 -3.14,1.42 -1.85,-0.13 -3.76,-1.3 -4.44,-2.73 -0.42,-0.87 -0.32,-1.76 0.3,-2.62 l 12.1,-18.46 c 0.76,1.47 6.83,5.11 6.83,5.11 -2.54,3.76 -11.63,17.28 -11.64,17.29 v 0 z"
     id="path84" />
  <path
     class="cls-2"
     d="m 175.83741,231.41925 c 0,0 0.26,0.75 0.81,1.76 v -0.02 c 0.5,0.9 1.29,1.73 2.21,2.28 6.67,3.97 10.36,-1.09 10.39,-1.13 0.02,-0.04 3.07,-4.01 -1.38,-8.37 -0.11,-0.1 -2.82,-2.51 -6.51,-2.06 -0.39,-1.52 -2.32,-5.81 -7.85,-5.62 h -0.08 c -4.43,0.31 -5.46,2.71 -5.97,4.09 0,0 -1.13,3.03 0.54,5.65 0.03,0.04 2.18,4.28 7.84,3.41 z m 5.83,-6.4 c 5,-0.15 8.89,4.83 6.38,8.48 l -0.9,0.14 c -4.35,0.56 -6.8,-1.16 -7.53,-5.02 0.68,-0.49 1.78,-1.83 2.04,-3.61 v 0 z m -5.8,-5.32 c 2.47,0.78 4.28,2.96 4.14,5.19 l 0.29,0.03 c -0.2,1.61 -1.92,3.81 -5.39,3.28 -0.18,-0.7 -0.2,-1.4 -0.24,-2.18 0.57,0.2 1.21,0.31 1.89,0.28 -0.02,-0.31 0.08,-1 0.08,-1 -0.7,-0.06 -1.3,-0.29 -1.97,-0.58 0.06,-1.89 0.45,-3.6 1.22,-5.01 v 0 z m -5.78,1.06 c 1.12,-0.92 2.01,-1.34 3.68,-1.25 -0.71,1.1 -0.97,2.73 -1.07,4.42 -0.35,-0.28 -0.61,-0.31 -0.96,-0.66 v 1.2 c 0.21,0.39 0.55,0.51 1,0.81 0.02,1.06 0.06,1.86 0.25,2.57 -0.22,-0.09 -0.35,-0.28 -0.6,-0.39 -3.46,-1.94 -2.31,-6.69 -2.31,-6.69 v -0.02 z m -1.27,1.54 c -0.57,7.2 6,8.24 9.69,6.89 0.81,5.82 5.87,5.98 8.32,5.59 -3.07,1.94 -8.99,0.63 -10.08,-4.85 -4.64,1.42 -9.89,-2.34 -7.93,-7.64 v 0 z"
     id="path85" />
  <path
     class="cls-2"
     d="m 157.00741,226.38925 c 1.27,0.71 2.97,1.71 4.86,2.85 7.48,4.47 18.08,11.05 18.08,11.05 7.32,4.65 12.94,-2.02 14.73,-4.4 1.39,-1.85 5.64,-7.57 5.48,-12.46 -0.14,-4.76 -3.8,-7.31 -7.06,-9.45 l -15.2,-9.96 c -0.18,0.29 -0.4,0.65 -0.55,0.89 l -2.05,-1.08 -1.27,2.01 c -1.23,0.99 -3.86,-0.02 -5.5,-1.6 -0.37,-0.35 -2.18,-2.21 -1.09,-3.5 l 0.06,-0.07 0.04,-0.07 c 0.03,-0.05 0.17,-0.27 0.39,-0.65 l -2.02,-1.06 c 0.09,-0.15 0.23,-0.37 0.37,-0.59 -3,0.25 -4.54,2.57 -4.68,2.86 -1.34,2.66 -7.12,12.16 -8.16,13.2 -0.61,0.61 -1.93,3.13 -1.38,5.98 0.4,2.01 1.69,4.19 4.93,6.02 l 0.02,0.02 z m 20.24,-20.28 c 5.84,3.75 13.52,8.79 16.83,11.3 5.96,4.52 2.75,9.95 2.75,9.95 0.6,-3.27 -0.87,-6.52 -4.69,-9.08 -3.31,-2.22 -16.26,-10.84 -16.26,-10.84 l 1.37,-1.32 z m -12.72,-4.68 c -0.25,4.36 6.45,7.86 9.62,7 l 16.95,11.34 c 2.54,1.83 5.04,4.96 3.55,9.17 -0.21,-3.96 -5.13,-7.07 -5.13,-7.07 0,0 -18.22,-10.72 -23.81,-14.22 -3.19,-2 -2.88,-4.78 -1.18,-6.22 z m -8.48,13.52 c 3.35,-4.72 4.99,-7.42 5.71,-8.68 0.71,1.59 2.95,2.89 2.95,2.89 5.64,3.52 17.49,10.7 20.9,12.58 3.66,2.04 4.41,3.02 4.41,3.02 4.26,4.03 3.45,8.04 1.37,10.84 -2.35,3.17 -6.86,5.18 -10.63,2.66 l -5.12,-3.13 v -0.02 l -1.85,-1.11 -15.88,-9.74 -0.05,-0.03 -0.04,-0.02 c 0,0 -2.65,-1.22 -3.31,-3.68 -0.45,-1.63 0.07,-3.52 1.54,-5.59 v 0 z"
     id="path86" />
  <path
     class="cls-2"
     d="m 165.91741,198.89925 2.02,1.06 c 0.86,-1.4 3.33,-5.49 9.38,-15.3 2.3,3.17 5.99,6.5 5.99,6.5 l -8.01,12.67 2.05,1.08 c 0.15,-0.24 0.37,-0.61 0.55,-0.89 1.39,-2.26 3.64,-5.9 7.12,-11.52 0.18,-0.28 0.3,-0.49 0.48,-0.78 0,0 -3.49,-3.48 -6.08,-6.22 -2.59,-2.73 -2.51,-4.27 -2.51,-4.27 -0.18,0.29 -0.32,0.52 -0.49,0.8 -5.56,9.01 -8.81,14.2 -10.12,16.29 -0.14,0.22 -0.28,0.44 -0.37,0.59 z"
     id="path87" />
  <path
     class="cls-2"
     d="m 302.12741,87.749246 0.34,1.01 c 0,0 5.81,17.820004 6.82,20.920004 l 0.5,0.02 c 5.5,0.52 12.72,1.58 15.23,2.42 l -0.21,-0.06 c 2.92,0.42 4.45,3.58 4.23,6.27 -0.08,0.93 -0.45,1.88 -1.01,2.73 2.65,-2.84 1.67,-8.3 -2.2,-9.42 -3.45,-1 -5.47,-1 -6.33,-1.14 l -10.37,-23.320004 6.04,-2.6 14.83,27.210004 c 8.47,13.43 -7.23,18.3 -13.24,10.08 0,0 1.07,-0.03 2.68,0.19 -1.29,-0.29 -3.05,-0.52 -5.41,-0.5 l -0.81,-0.08 c 1.8,3.33 3.74,5.15 5.86,6.07 1.88,0.82 3.89,0.98 6.07,0.82 4.4,-0.29 7.95,-2.88 9.48,-7.02 0.06,-0.17 1.37,-4.17 -2.21,-10.14 l -16.33,-29.690004 -0.87,0.35 -11.92,5.04 -0.33,0.14 -0.83,0.7 h -0.02 z m 5.12,0.14 9.79,22.460004 c -1.45,-0.29 -5.19,-0.72 -5.19,-0.72 l -7.33,-20.590004 2.73,-1.16 v 0 z"
     id="path88" />
  <path
     class="cls-2"
     d="m 309.50741,121.08925 0.26,0.04 0.99,0.14 1.86,0.17 0.59,0.05 0.81,0.08 c 2.36,-0.02 4.12,0.22 5.41,0.5 0.89,0.13 1.89,0.31 3.07,0.67 2.61,0.35 4.37,-0.44 5.51,-1.66 0.56,-0.85 0.92,-1.8 1.01,-2.73 0.24,-2.69 -1.31,-5.85 -4.22,-6.27 l 0.21,0.06 c -2.51,-0.85 -9.74,-1.9 -15.23,-2.42 l -0.5,-0.03 -0.33,-0.02 -1.49,-0.08 h -0.19 l 0.71,1.63 c 1.81,4.4 2.08,7.57 1.55,9.87 v -0.02 z m 15.04,-7.21 0.1,0.03 0.11,0.03 c 1.5,0.21 2.39,2.16 2.24,3.76 -0.07,0.87 -0.6,2.85 -3.58,2.85 -1.97,-0.59 -8.45,-1.54 -13.36,-1.6 0,-3.03 -1.86,-7.34 -1.86,-7.34 4,0.39 14.23,1.56 16.34,2.28 v 0 z"
     id="path89" />
  <path
     class="cls-2"
     d="m 289.50741,85.749246 c 0,0 -2.48,0.58 -1.3,4.9 0,0 0.21,0.52 0.38,0.97 0.64,1.25 1.38,2.87 3.37,4.64 0,0 -0.1,1.73 0.4,3.830004 l 0.08,0.25 c 0.49,1.63 0.92,2.9 2.12,4.28 2.87,3.31 6.11,1.44 5.21,-2.55 -0.79,-3.520004 -2.34,-4.830004 -3.89,-6.380004 0.29,-6.26 -3.59,-10.75 -6.37,-9.93 v 0 z m 6.58,18.400004 c -1.73,-1.72 -2.61,-3.62 -2.79,-6.360004 2.71,0.56 4.39,3.940004 2.79,6.360004 z m -3.61,-9.270004 c -1.47,-0.93 -3.32,-4.51 -3.37,-6.74 3.43,0.04 4.42,5.04 3.37,6.74 z"
     id="path90" />
  <path
     class="cls-1"
     d="m 291.51741,83.879246 c -1.78,-0.73 -6.12,-0.32 -5.04,4.7 0,0 0.1,0.55 0.39,1.2 l 0.87,2.16 3.39,8.200004 0.1,0.29 5.62,13.11 c 0,0 1.3,3.75 1.3,4.75 h 9.58 c 0,0 -0.18,-2.45 -2.35,-7.92 -1.63,-4.13 -7.23,-16.920004 -8.37,-19.570004 -1.3,-3.02 -3.02,-5.9 -5.48,-6.91 z m 4.35,11.8 c 1.55,1.55 3.1,2.86 3.89,6.380004 0.9,4 -2.33,5.86 -5.21,2.55 -1.2,-1.38 -1.63,-2.65 -2.13,-4.28 l -0.08,-0.25 c -0.5,-2.090004 -0.4,-3.830004 -0.4,-3.830004 -1.99,-1.76 -2.73,-3.39 -3.37,-4.64 -0.17,-0.45 -0.38,-0.97 -0.38,-0.97 -1.18,-4.32 1.3,-4.9 1.3,-4.9 2.78,-0.82 6.65,3.68 6.37,9.93 v 0 z"
     id="path91" />
  <path
     class="cls-1"
     d="m 289.10741,88.129246 c 0.04,2.23 1.9,5.8 3.37,6.74 1.06,-1.7 0.07,-6.69 -3.37,-6.74 z"
     id="path92" />
  <path
     class="cls-1"
     d="m 293.29741,97.779246 c 0.18,2.750004 1.06,4.640004 2.79,6.360004 1.6,-2.42 -0.08,-5.800004 -2.79,-6.360004 z"
     id="path93" />
  <path
     class="cls-1"
     d="m 294.96741,114.43925 c -0.92,-2.4 -8.06,-18.860004 -9.79,-22.880004 -1.07,-2.49 -1.2,-4.16 -1.14,-5.06 0.03,-0.57 0.13,-0.55 0.13,-0.55 l -3.02,1.59 c -2.16,2.73 0.72,9.93 0.72,9.93 0,0 2.16,6.760004 4.9,13.530004 7.19,-1.87 13.47,11.17 -0.34,12.33 1.25,5.27 13.15,3.07 8.54,-8.88 z"
     id="path94" />
  <path
     class="cls-1"
     d="m 282.19741,111.84925 2.59,-0.49 -4.93,-13.770004 c 0,0 -2.11,-4.8 -0.82,-9.12 l -2.2,1.06 c 0,0 -1.4,2.69 0.14,7.34 2.02,6.120004 5.23,14.980004 5.23,14.980004 z"
     id="path95" />
  <path
     class="cls-1"
     d="m 295.43741,125.65925 c 9.6,0.68 11.27,-3.44 11.27,-3.44 -3.07,-0.06 -8.82,-0.06 -8.82,-0.06 -0.14,1.88 -2.45,3.5 -2.45,3.5 z"
     id="path96" />
  <path
     class="cls-1"
     d="m 183.64741,174.16925 c 1.59,-0.14 3.4,1.4 3.4,1.4 l 3.45,3.8 12.92,-21.03 c 1.92,-3.02 4.75,-6.73 5.27,-7.44 0.08,-0.1 0.1,-0.14 0.07,-0.11 0,0 -1.56,-3.28 -2.47,-5.11 -0.14,-0.29 -0.28,-0.57 -0.38,-0.76 -0.04,-0.08 -0.04,-0.14 -0.08,-0.21 -0.11,-0.25 -0.17,-0.47 -0.24,-0.7 -0.44,-1.56 0.02,-2.69 0.02,-2.69 0.07,-0.08 0.04,-0.06 0,-0.03 -0.52,0.56 -4.62,5.28 -6.61,8.54 -2.17,3.23 -8.39,13.02 -15.37,24.35 v 0 z"
     id="path97" />
  <path
     class="cls-1"
     d="m 352.64741,201.33925 c 0,0 1.58,0 3.17,1.28 0,0 9.43,-1.37 12.23,-2.16 0,0 -11.64,1.17 -15.4,0.86 v 0 z"
     id="path98" />
  <path
     class="cls-1"
     d="m 289.06741,229.78925 c 0,0 0.19,3.45 -0.18,7.49 l 41.3,6.85 c 0,0 -2.3,-5.32 -3.02,-7.38 l -38.09,-6.96 z"
     id="path99" />
  <path
     class="cls-1"
     d="m 343.14741,243.41925 11.08,-2.31 c 0,0 3.02,0.2 1.88,-3.69 0,0 -6.06,0.09 -15.7,-0.06 l 2.75,6.06 v 0 z"
     id="path100" />
  <path
     class="cls-1"
     d="m 292.93741,150.00925 24.92,58.39 c 0,0 4.24,-0.48 7.78,-1.11 0,0 -24.03,-56.98 -25.66,-60.29 0,0 -4.35,0.1 -7.03,3.01 v 0 z"
     id="path101" />
  <path
     class="cls-1"
     d="m 333.25741,245.18925 c 0,0 6.48,-0.86 7.78,-1.44 0,0 -1.53,-3.45 -3.67,-8.47 -1.95,-4.58 -4.41,-10.45 -6.73,-16.31 -0.04,-0.09 -0.08,-0.18 -0.11,-0.27 0,0 -6.71,0.99 -8.06,1.16 0,0 0.06,0.14 0.14,0.35 0.65,1.55 3.48,8.39 6.09,14.56 2.06,4.86 3.97,9.3 4.56,10.42 z"
     id="path102" />
  <path
     class="cls-1"
     d="m 347.07741,255.98925 c 0,0 -6.19,1.16 -7.78,1.44 0,0 10.19,17.5 25.82,25.58 0.03,0 0.06,0.03 0.08,0.04 0,0 -0.44,-7.2 -0.71,-9.79 0,0 -0.17,-0.12 -0.29,-0.2 -1.45,-0.99 -10.76,-7.54 -17.13,-17.08 v 0 z"
     id="path103" />
  <path
     class="cls-1"
     d="m 399.32741,285.92925 c 0,0 2.02,6.06 -20.15,8.93 0,0 13.24,-1.88 16.84,-6.33 0,0 3.45,-2.88 -3.6,-4.47 -6.85,-1.54 -7.91,-0.72 -14.53,-3.59 0,0 0.42,6.48 0.29,8.06 0,0 4.31,1.28 6.76,1.14 0,0 0.13,-2.01 -5.48,-3.75 0,0 24.18,2.31 -1.29,7.78 0,0 0.13,5.04 -0.58,8.21 0,0 13.2,-3.47 17.28,-4.61 4.6,-1.3 13.53,-5.47 4.45,-11.37 v 0 z"
     id="path104" />
  <path
     class="cls-1"
     d="m 267.06741,253.62925 -11.7,-26.44 c 0,0 -5.04,-0.91 -7.58,3.12 7.51,16.42 9.22,20.46 10.65,23.6 5.47,0.42 8.64,-0.29 8.64,-0.29 z"
     id="path105" />
  <path
     class="cls-1"
     d="m 249.93741,214.46925 -35.95,-77.26 c -0.04,-0.07 -0.31,-0.55 -1.23,-0.55 -1.3,-0.03 -3.23,0.93 -4.2,2.58 -0.75,1.24 -1.32,2.68 -0.6,4.41 0.03,0.04 17.97,37.62 32.92,70.31 3.79,0.79 9.06,0.52 9.06,0.52 z"
     id="path106" />
  <path
     class="cls-1"
     d="m 153.88741,241.01925 c -0.34,1.24 -0.55,2.88 -0.1,4.19 0,0 0.41,1.71 1.8,2.17 0.04,0.03 91.4,14.99 91.4,14.99 7.92,1.69 15.73,1.7 20.65,1.65 l 2.79,-0.07 c 3.51,-0.15 5.48,-0.45 5.52,-0.47 25.9,-2.61 58.68,-6.79 79.88,-11.84 0,0 4.14,-0.24 4.54,-3.52 0.09,-0.73 0.71,3.24 0.71,3.24 1.44,0.44 2.28,2.86 2.32,3.34 3.79,13.64 4.19,33.78 4.23,34.74 0,0 -0.07,6.62 -1.07,8.63 -1.19,-1.71 -3.59,-1.24 -3.59,-1.24 -34.37,8.79 -74.09,2.96 -89.65,-30.34 0,0 -4.83,0.04 -7.29,3.35 10.02,22.19 28.07,31.03 43.34,35.06 16.83,4.44 36.79,4.17 55.44,-0.63 3.02,-1 2.33,-2.89 2.33,-2.89 2.73,4.32 6.16,1.85 6.16,1.85 1.28,-0.65 1.99,-2 2.1,-3.66 1.91,-30.58 -9.2,-72.72 -21.31,-95.04 -1.73,-1.42 -3.82,-1.4 -5.39,-0.7 -0.81,0.38 -1.79,1.16 -1.82,1.4 l -0.09,0.72 0.6,2.54 c 0,0 -2.01,-1.99 -4.17,-1.7 -17.98,3.2 -61.65,9.74 -89.49,10.1 -0.38,0 -9.22,-0.09 -15.34,-0.87 -12.02,-1.51 -19.19,-4.86 -27.8,-11.58 -7.62,-7.96 -22.45,-23.54 -25.18,-27.21 -1.3,-1.5 -3.88,-0.65 -5.04,0.27 -1.65,1.28 -2.48,3.75 -0.91,5.96 6.26,6.85 21.81,21.66 21.97,21.81 14.05,15.25 28.58,18.22 41.3,18.93 7.54,0.52 17.46,0.6 17.56,0.59 23.43,-1.4 61.86,-6.13 84.82,-10.74 2.6,-0.58 2.89,-3.32 2.89,-3.32 0.58,1.16 0.28,2.96 0.28,2.96 2.18,0.44 3.35,2.99 3.42,3.21 l -0.03,-0.11 c 2.27,5.71 6.8,20.05 6.85,20.21 0,0 1.72,7.06 0.99,8.27 0,0 -1.29,-1.91 -3.17,-1.62 l -0.07,0.02 -0.08,0.03 -5.17,0.93 c -25.01,4.51 -50.88,9.16 -81.11,11.33 -0.17,0.03 -7.91,1.34 -22.08,-0.78 0,0 -86.41,-14.83 -92.7,-15.92 -0.23,-0.04 -0.39,-0.07 -0.39,-0.07 -0.09,-0.12 -0.5,0.71 -0.81,1.86 l -0.03,-0.04 z"
     id="path107" />
  <path
     class="cls-1"
     d="m 157.81741,224.21925 0.04,0.03 0.05,0.03 15.88,9.74 1.86,1.11 v 0.02 l 5.11,3.13 c 3.77,2.51 8.28,0.5 10.63,-2.66 2.09,-2.8 2.89,-6.81 -1.37,-10.85 0,0 -0.75,-0.97 -4.41,-3.02 -3.41,-1.89 -15.26,-9.06 -20.9,-12.58 0,0 -2.23,-1.3 -2.95,-2.89 -0.72,1.25 -2.35,3.96 -5.71,8.68 -1.47,2.07 -1.99,3.96 -1.55,5.59 0.66,2.45 3.28,3.66 3.31,3.68 v 0 z m 9.64,-1.86 c 0.51,-1.38 1.54,-3.78 5.97,-4.07 h 0.08 c 5.54,-0.19 7.47,4.09 7.85,5.61 3.69,-0.45 6.4,1.96 6.51,2.06 4.44,4.36 1.4,8.32 1.38,8.37 -0.03,0.04 -3.72,5.1 -10.39,1.13 -0.91,-0.55 -1.71,-1.38 -2.2,-2.28 v 0.02 c -0.56,-1.02 -0.82,-1.76 -0.82,-1.76 -5.66,0.87 -7.81,-3.37 -7.84,-3.41 -1.67,-2.62 -0.54,-5.65 -0.54,-5.65 v 0 z"
     id="path108" />
  <path
     class="cls-1"
     d="m 196.82741,227.34925 c 0,0 3.21,-5.42 -2.75,-9.94 -3.31,-2.51 -11,-7.54 -16.83,-11.3 l -1.37,1.32 c 0,0 12.95,8.62 16.26,10.84 3.81,2.55 5.29,5.81 4.69,9.08 z"
     id="path109" />
  <path
     class="cls-1"
     d="m 165.71741,207.65925 c 5.59,3.5 23.81,14.22 23.81,14.22 0,0 4.92,3.12 5.13,7.07 1.49,-4.22 -1.02,-7.34 -3.55,-9.17 l -16.95,-11.34 c -3.17,0.87 -9.86,-2.65 -9.62,-7 -1.69,1.45 -2.01,4.23 1.18,6.23 v 0 z"
     id="path110" />
  <path
     class="cls-1"
     d="m 187.15741,233.64925 0.9,-0.14 c 2.5,-3.65 -1.39,-8.64 -6.38,-8.48 -0.25,1.78 -1.36,3.13 -2.04,3.61 0.73,3.86 3.18,5.59 7.53,5.02 v 0 z"
     id="path111" />
  <path
     class="cls-1"
     d="m 176.74741,229.91925 c 1.09,5.48 7,6.79 10.08,4.85 -2.45,0.39 -7.52,0.24 -8.32,-5.59 -3.68,1.35 -10.26,0.31 -9.69,-6.89 -1.96,5.3 3.29,9.06 7.93,7.64 v 0 z"
     id="path112" />
  <path
     class="cls-1"
     d="m 357.53741,204.78925 c 1.8,3.49 2.5,5.68 3.13,7.03 -0.24,0.14 2.69,-0.48 5.61,-1.02 4.07,-0.76 7.01,-1.52 9.61,-2.16 0,0 2.24,-0.5 3.49,-1.18 0.5,-0.16 0.79,-0.4 1.09,-0.65 1.27,-1.04 1.02,-2.63 0.94,-3.14 -0.27,-1.68 -1.14,-2.89 -3.21,-3.24 0,0 -0.59,0.07 -1.4,0.19 -0.83,0.13 -1.91,0.32 -2.82,0.58 -5.06,1.29 -10.85,2.55 -16.43,3.59 v 0 z"
     id="path113" />
  <path
     class="cls-1"
     d="m 370.15741,238.70925 c 3.02,-0.29 16.12,-3.6 16.12,-3.6 2.5,-0.04 2.6,1.63 2.6,1.63 -5.04,1.88 -17.95,4.57 -17.95,4.57 0.58,2.44 1.82,7.19 1.82,7.19 15.26,-2.73 18.57,-4.41 18.57,-4.41 4.47,-1.86 2.73,-7.1 2.73,-7.1 -1.72,-6.04 -9.64,-3.31 -9.64,-3.31 -3.75,0.87 -14.98,3.02 -14.98,3.02 l 0.72,2.01 v 0 z"
     id="path114" />
  <path
     class="cls-1"
     d="m 395.07741,234.44925 c 2.86,4.08 1.74,10.31 -2.56,11.7 0,0 4.22,21.31 5.38,33 0.14,2.17 0.04,3.95 0.04,3.95 4.61,0.96 7.3,4.17 7.3,5.9 2.24,-13.43 -5.62,-52.31 -15.74,-80.67 -2.79,-10.46 -8.83,-9.16 -8.83,-9.16 3.31,1.01 5.09,6.58 0.18,10.17 0,0 3.8,9.36 6.48,21.45 0.29,0 0.5,0.1 0.78,0.12 3.32,0.18 5.6,1.59 6.97,3.54 z"
     id="path115" />
  <path
     class="cls-1"
     d="m 282.89741,172.61925 c 0,0 -0.84,4.03 -0.93,9.64 0,0 13.37,17.77 32.21,23.96 h 0.02 l -3.89,-9.5 c 0,0 -0.07,-0.03 -0.18,-0.08 -1.68,-0.76 -15.07,-7.26 -27.24,-24.02 v 0 z"
     id="path116" />
  <path
     class="cls-1"
     d="m 325.29741,201.19925 2.44,5.61 c 0,0 11.67,-1.28 16.84,-2.59 0,0 0.14,-2.01 2.3,-2.3 0,0 -9.06,1 -21.59,-0.72 z"
     id="path117" />
  <path
     class="cls-1"
     d="m 152.95741,223.07925 -12.1,18.46 c -0.62,0.87 -0.71,1.75 -0.3,2.62 0.68,1.44 2.59,2.61 4.44,2.73 0.97,0.07 2.29,-0.13 3.14,-1.42 0,0 9.1,-13.52 11.64,-17.29 0,0 -6.07,-3.65 -6.83,-5.11 v 0 z"
     id="path118" />
  <path
     class="cls-1"
     d="m 286.95741,120.62925 1.4,-0.28 c 2.99,-0.47 3.79,-2.28 3.55,-3.86 -0.25,-1.75 -2.28,-3.44 -4.72,-3.09 -22.87,3.69 -49.33,10.51 -62.09,15.85 -4.4,1.83 -8.09,3.56 -10.58,5.26 0.8,0.45 1.32,0.39 2.14,2.38 0.47,1.13 2.2,4.68 2.2,4.68 3.06,-2.32 6.26,-4.12 11.71,-6.09 17.34,-7.04 38.09,-11.19 56.39,-14.85 z"
     id="path119" />
  <path
     class="cls-1"
     d="m 167.50741,200.67925 -0.06,0.07 c -1.08,1.28 0.71,3.14 1.09,3.5 1.64,1.58 4.26,2.59 5.5,1.6 l 1.27,-2.01 8,-12.67 c 0,0 -3.69,-3.32 -5.99,-6.5 -6.05,9.8 -8.53,13.89 -9.38,15.3 -0.22,0.37 -0.36,0.6 -0.39,0.65 l -0.04,0.07 v 0 z"
     id="path120" />
  <path
     class="cls-1"
     d="m 310.07741,118.93925 c 4.91,0.06 11.39,1.01 13.36,1.6 2.97,0 3.5,-1.97 3.58,-2.85 0.14,-1.61 -0.75,-3.55 -2.24,-3.76 l -0.11,-0.03 -0.1,-0.03 c -2.11,-0.71 -12.34,-1.89 -16.34,-2.28 0,0 1.86,4.31 1.86,7.34 v 0 z"
     id="path121" />
  <path
     class="cls-1"
     d="m 322.50741,122.73925 c -1.19,-0.36 -2.18,-0.55 -3.08,-0.67 -1.6,-0.22 -2.68,-0.19 -2.68,-0.19 6.01,8.22 21.7,3.35 13.24,-10.08 l -14.83,-27.210004 -6.04,2.6 10.37,23.320004 c 0.86,0.14 2.87,0.14 6.33,1.14 3.87,1.13 4.85,6.59 2.2,9.42 -1.14,1.23 -2.9,2.02 -5.51,1.66 v 0.02 z"
     id="path122" />
  <path
     class="cls-1"
     d="m 317.03741,110.36925 -9.79,-22.460004 -2.73,1.16 7.33,20.590004 c 0,0 3.75,0.44 5.19,0.72 v 0 z"
     id="path123" />
  <path
     class="cls-1"
     d="m 176.54741,226.28925 c -0.68,0.03 -1.32,-0.08 -1.89,-0.28 0.04,0.79 0.06,1.49 0.24,2.18 3.49,0.54 5.19,-1.66 5.39,-3.28 l -0.28,-0.03 c 0.13,-2.23 -1.66,-4.41 -4.14,-5.19 -0.76,1.41 -1.17,3.12 -1.22,5.01 0.67,0.29 1.28,0.52 1.97,0.58 0,0 -0.09,0.69 -0.08,1 v 0 z"
     id="path124" />
  <path
     class="cls-1"
     d="m 172.39741,227.44925 c 0.23,0.11 0.37,0.3 0.6,0.39 -0.19,-0.71 -0.24,-1.51 -0.25,-2.57 -0.45,-0.3 -0.79,-0.42 -1.01,-0.81 v -1.2 c 0.34,0.35 0.61,0.39 0.96,0.66 0.09,-1.69 0.36,-3.32 1.08,-4.42 -1.66,-0.09 -2.55,0.34 -3.68,1.25 0,0 -1.15,4.75 2.31,6.69 v 0.02 z"
     id="path125" />
  <path
     class="cls-1"
     d="m 298.34741,86.669246 h -1.39 c -0.4,-0.57 -0.81,-1.08 -1.23,-1.5 -0.14,-0.14 -0.28,-0.29 -0.42,-0.42 -0.14,-0.14 -0.28,-0.26 -0.42,-0.37 -0.28,-0.24 -0.56,-0.45 -0.84,-0.62 -0.57,-0.37 -1.17,-0.64 -1.77,-0.82 -0.76,-0.25 -1.55,-0.36 -2.39,-0.37 -0.03,0 -0.39,0 -0.88,0.09 -0.11,0.03 -0.22,0.05 -0.33,0.06 -0.22,0.05 -0.45,0.11 -0.7,0.2 h -0.02 c -0.26,0.09 -0.55,0.22 -0.82,0.37 l -1.6,0.73 c -4.1,-6.91 -8.79,-13.5 -14.07,-19.63 -5.28,-6.13 -11.15,-11.85 -17.53,-17.07 -30.28,-24.68 -72.66,-37.8800004 -123.56,-30.43 11.14,-2.7 22.56,-4.24 34.04,-4.58 41.41,-1.21 83.42,13.47 114.32,47.08 4.46,4.85 8.68,10.05 12.64,15.68 0.55,0.92 1.06,1.71 1.6,2.51 0.44,0.66 0.9,1.35 1.37,2.08 0.7,1.07 1.46,2.28 2.31,3.84 0.51,0.92 1.08,1.96 1.68,3.17 v 0 z"
     id="path126" />
  <path
     class="cls-2"
     d="m 285.54741,84.019246 h -1.13 v 0.56 c -1.23,0.62 -2.67,1.35 -3.97,2 h -12.95 c -15.68,-26.55 -46.44,-53.73 -87.23,-64.19 -18.54,-4.75 -39.15,-6.04 -61.35,-2.27 l 11.47,-3.23 c 50.9,-7.4400004 93.28,5.76 123.56,30.43 6.38,5.22 12.26,10.93 17.53,17.07 5.27,6.14 9.97,12.72 14.07,19.63 z"
     id="path127" />
  <path
     class="cls-2"
     d="m 272.55741,98.039246 c -0.68,-1.88 -1,-2.59 -1.86,-5.62 -1.18,-4.09 0.44,-4.17 2.16,-4.31 1.11,-0.09 2.73,0.12 2.84,0.14 0.81,-1.42 1.78,-2.09 2.07,-2.27 l -0.29,0.12 c -6.6,-0.24 -6.48,-0.31 -6.49,-0.31 -2.33,-0.02 -4.22,0.84 -5.21,2.38 -2.28,3.55 0.61,9.47 0.82,9.99 0,0 4.19,12.060004 5.49,15.820004 0.84,-0.18 1.67,-0.34 2.51,-0.49 l -6.21,-17.160004 c -2.44,-5.8 0.29,-7.96 0.29,-7.96 -0.72,2.17 -0.13,4.65 0.28,5.96 0.8,2.54 3.51,9.960004 5.75,15.680004 0.45,1.13 0.83,2.2 1.19,3.23 0.68,-0.13 1.35,-0.27 2.02,-0.4 -1.92,-5.76 -4.54,-12.53 -5.36,-14.780004 v 0 z"
     id="path128" />
  <path
     class="cls-2"
     d="m 288.82741,81.419246 c 0,0 -2.04,0.5 -3.75,1.01 l -7.2,3.45 c 0,0 -0.07,0.05 -0.13,0.08 -0.28,0.18 -1.26,0.85 -2.07,2.27 -0.24,0.44 -0.47,0.93 -0.65,1.5 -0.52,1.66 -0.66,3.93 0.26,6.95 0.55,1.89 1.12,3.640004 1.66,5.280004 0.6,1.79 1.17,3.39 1.69,4.8 1.02,2.73 1.82,4.68 2.18,5.52 0.13,0.3 0.22,0.51 0.22,0.51 0,0 6.33,-1.59 8.78,-0.58 0,0 5.17,1.88 2.87,6.62 0,0 -0.44,2.44 -8.34,3.45 0,0 0.11,0.51 0.34,1.18 0.51,1.43 1.7,3.66 4.25,3.86 3.75,0.29 9.36,0.29 11.52,0 1.53,-0.21 7.73,-0.65 9.03,-6.26 0.54,-2.3 0.26,-5.47 -1.55,-9.87 l -0.7,-1.64 -8.52,-19.800004 c 0,0 -0.37,-1.55 -1.34,-3.32 -1.35,-2.44 -3.91,-5.28 -8.59,-5.03 h 0.03 z m -11.99,8.11 2.2,-1.06 c -1.29,4.32 0.82,9.12 0.82,9.12 l 4.93,13.770004 -2.59,0.49 c 0,0 -3.21,-8.85 -5.23,-14.980004 -1.54,-4.65 -0.13,-7.34 -0.13,-7.34 z m 9.58,33.780004 c 13.82,-1.16 7.53,-14.2 0.34,-12.33 -2.75,-6.76 -4.9,-13.530004 -4.9,-13.530004 0,0 -2.88,-7.2 -0.72,-9.93 l 3.02,-1.59 c 0,0 -0.1,0 -0.13,0.56 -0.06,0.91 0.08,2.58 1.14,5.06 1.73,4.02 8.86,20.490004 9.79,22.880004 4.61,11.94 -7.29,14.15 -8.54,8.88 z m 9.02,2.34 c 0,0 2.31,-1.62 2.45,-3.5 0,0 5.75,0 8.82,0.06 0,0 -1.68,4.12 -11.27,3.44 z m 1.55,-34.880004 c 1.14,2.66 6.74,15.440004 8.37,19.570004 2.17,5.47 2.35,7.91 2.35,7.91 h -9.58 c 0,-1 -1.3,-4.75 -1.3,-4.75 l -5.62,-13.11 -0.1,-0.29 -3.39,-8.200004 -0.87,-2.16 c -0.28,-0.65 -0.39,-1.2 -0.39,-1.2 -1.07,-5.02 3.27,-5.43 5.04,-4.7 2.45,1.01 4.18,3.89 5.48,6.91 z"
     id="path129" />
</svg>
