<?xml version="1.0" encoding="UTF-8" standalone="no"?>
<svg
   id="Layer"
   viewBox="0 0 419.98444 373.4986"
   version="1.1"
   width="419.98444"
   height="373.4986"
   xmlns="http://www.w3.org/2000/svg"
   xmlns:svg="http://www.w3.org/2000/svg">
  <defs
     id="defs1">
    <style
       id="style1">
      .cls-1, .cls-2, .cls-3, .cls-4, .cls-5, .cls-6, .cls-7 {
        fill-rule: evenodd;
        stroke-width: 0px;
      }

      .cls-2 {
        fill: #a71930;
      }

      .cls-3 {
        fill: #0a0b09;
      }

      .cls-4 {
        fill: #c2242b;
      }

      .cls-5 {
        fill: #dc4405;
      }

      .cls-6 {
        fill: #fff;
      }

      .cls-7 {
        fill: #b1babf;
      }
    </style>
  </defs>
  <path
     class="cls-7"
     d="m 323.88,273.51 c -9.53,14.41 -18.59,27.7 -25.96,38.36 8.53,7.06 8.02,15.94 8.02,17.63 -0.16,9.45 -5.2,16.51 -9.8,20.63 -5.73,4.89 -13.57,7.25 -21.83,7.31 -0.24,0 -6.16,-0.18 -8.19,-0.65 -0.87,1.28 -2.56,2.84 -5.3,3.95 -0.3,0.86 -0.72,1.73 -1.26,2.55 -2.26,3.39 -6,5.27 -9.81,5.27 0,0 -3.86,-0.11 -6.54,-1.95 -3.42,-2.26 -5.31,-6.01 -5.31,-9.83 v -0.1 c 0,-1.82 0.45,-3.67 1.33,-5.35 -0.4,-0.94 -1.79,-6.57 -1.79,-6.57 l 3.64,-3.21 c 0.29,-0.17 1.19,-1.53 2.2,-5 1.07,-3.38 2.35,-8.4 5.03,-14.26 3.42,-7.44 8.15,-15.13 11.61,-20.46 -0.34,-1.7 -2.13,-2.49 -3.42,-2.8 -1.44,-0.39 -3.23,-1.23 -4.64,-2.88 -1.49,-1.73 -2.63,-4.17 -1.99,-7.31 0.63,-3.1 2.58,-5.34 4.85,-6.39 v 0 c 2.58,-1.35 5.76,-0.71 5.76,-0.71 7.58,0.7 13.19,7.74 13.19,7.74 7.55,-10.53 25.11,-36.65 25.48,-37.22 -23.02,4.4 -46.79,5 -66.54,1.72 -35.91,-5.96 -63.53,-25.07 -81.38,-33.79 -17.85,-8.71 -51.84,-17.63 -86.91,-8.71 -35.06,8.92 -58.22,41.23 -58.22,41.23 10.47,-73.77 56.17,-86.2 60.55,-87.45 6.66,-6.23 15.39,-25.26 -5.29,-38.09 -7.06,-4.38 -13,-9.93 -13,-9.93 4.33,0.51 14.49,-0.83 20.13,-3.06 6.77,-2.67 13,-3.56 13,-3.56 -5.34,-5.09 -13.51,-7.64 -13.51,-7.64 8.15,-0.51 20.9,-3.31 28.79,-6.88 7.89,-3.56 12.23,-9.93 10.95,-12.74 -1.27,-2.81 -8.4,-1.27 -8.4,-1.27 2.55,-3.82 8.66,-5.35 8.66,-5.35 -17.58,-1.02 -30.38,8.55 -30.38,8.55 1.95,-4.19 8.38,-11.73 8.38,-11.73 -2.44,0.8 -9.19,2.91 -9.61,3.04 27.52,-21.25 58.24,-39.94 101.28,-40.21 43.03,-0.29 84.96,19 112.89,27.94 27.95,8.94 42.78,13.45 72.97,8.99 14.45,-2.14 27.1,-8.07 36.37,-13.62 0,0 6.48,-16.49 6.98,-40.16 0,0 7.77,13.94 7.81,35.64 0.08,74.48 -36.01,128.87 -47.55,148.67 -11.02,19.48 -25.52,42.81 -43.23,69.65 z M 403.24,0 c 0,0 0.98,17.91 -2.4,34.3 -3.27,15.84 -5.07,21.88 -5.07,21.88 -6.92,4.06 -18.11,9.04 -34.48,11.77 C 330.74,73.04 303.02,64.84 272.76,52.96 242.49,41.08 201.99,28.28 164.41,32.6 127.97,36.78 101.91,51.54 88.05,61.17 74.19,70.78 71.64,73.33 59.76,76.72 c 0,0 9.34,3.67 14.15,3.67 0,0 -2.27,9.35 -1.42,12.45 0,0 19.8,-9.05 22.07,-4.81 2.27,4.24 -7.07,7.08 -13.57,8.77 -6.5,1.7 -23.48,1.41 -23.48,1.41 0,0 7.96,6.16 10.77,10.44 0,0 -15.01,6.54 -31.71,4.27 0,0 -0.55,6.18 13.17,16.31 -2.92,1.05 -6.62,2.74 -8.91,5.19 0,0 14.38,-2.97 23.41,7.1 2.38,2.98 3.16,5.65 2.89,9.03 -0.49,6.11 -2.84,8.45 -8.59,12.25 -3.29,1.34 -6.8,3.02 -10.18,5.08 -15.9,9.77 -27.53,24.64 -35.69,41.63 -3.54,7.36 -6.36,15.91 -8.36,23.66 -2,7.8 -2.73,14.72 -3.2,19.05 C 0.64,256.53 0,270.14 0,270.14 c 0,0 7.13,-10 10.48,-14.79 3.33,-4.77 24.43,-31.3 55.15,-38.99 9.83,-2.5 19.62,-3.54 28.97,-3.54 22.49,-0.02 42.57,6.09 54.46,11.91 17.26,8.35 45.61,28.07 82.78,34.23 8.75,1.44 18.18,2.16 27.96,2.16 9.78,0 19.09,-0.68 28.79,-2.01 -5.48,8.18 -10.74,15.82 -15.74,22.9 -5.07,-4.82 -11.94,-5.33 -11.94,-5.33 -8.33,-0.79 -12.51,4.29 -12.51,4.29 -1.69,1.82 -2.95,4.19 -3.44,6.99 -0.59,2.59 0.11,5.59 0.6,7.12 1.59,5.05 5.9,7.35 7.58,8.08 -12.18,16.23 -15.72,34.91 -15.72,34.92 l -5.56,4.9 2.01,8.13 c -3.1,9.97 1.76,17.45 8.07,20.54 6.4,3.15 12.37,1.32 12.37,1.32 3.76,-1.05 7.17,-3.42 9.48,-6.9 0.36,-0.53 0.67,-1.06 0.94,-1.6 1.3,-0.7 2.41,-1.49 3.36,-2.33 1.76,0.2 6.25,0.34 6.25,0.34 9.22,-0.08 18.23,-2.69 25.1,-8.53 5.41,-4.84 11.37,-13.1 11.58,-24.38 0,-2.12 0.39,-10.66 -6.67,-18.11 C 348.87,246.09 377.77,204.01 396.23,161.2 445.12,47.73 403.42,0.41 403.24,0 Z"
     id="path1" />
  <path
     class="cls-1"
     d="m 256.5,332.15 c 0,0 -0.02,0.04 -0.03,0.06 0,0 0,0.02 0,0.03 0,-0.02 0.02,-0.03 0.03,-0.05 0,-0.02 0,-0.03 0,-0.03 z m 88.92,-102.32 c -19.59,9.13 -64.8,24.27 -109.82,15.87 -15.67,-2.92 -36.29,-7.82 -63.56,-24.35 -17.89,-10.83 -37.2,-21.19 -82.23,-20.99 -37.3,0.18 -61.26,17.08 -68.88,23.37 20.24,-66.04 80.07,-56.38 80.07,-56.38 -10.92,-5.24 -24.03,-3.23 -24.03,-3.23 18.75,-29.49 -11.46,-43.3 -11.46,-43.3 2.54,0 14.01,-3.31 19.86,-5.35 5.86,-2.03 16.62,-3.44 16.62,-3.44 -3.75,-3.45 -15.35,-6.23 -15.35,-6.23 10.95,0 20.87,-5.31 27.77,-12.49 2.4,-2.5 8.98,-15.01 1.52,-19.86 -6.87,-4.46 -20.48,0.49 -20.49,0.5 0.02,-0.02 40.77,-43.92 124.86,-25.16 39.89,8.91 84.86,32.27 126.38,32.52 13.96,0.09 44.74,-4.44 63.12,-22.94 -0.97,35.14 -7.51,84.35 -64.38,171.48 z m -52.93,77.31 c -0.05,-0.04 -0.13,-0.1 -0.17,-0.13 -1.06,-0.97 -2.44,-2.14 -3.96,-3.41 2.48,-3.54 30.91,-45.81 39.25,-58.92 2.91,-1.03 5.75,-2.15 8.55,-3.33 -5.64,8.91 -36.39,55.26 -43.66,65.78 z M 291,344.15 c -3.86,3.36 -10.41,5.51 -17.26,5.38 -6.1,-0.12 -10.39,-1.11 -14.27,-3.22 -0.02,0.04 -0.03,0.08 -0.03,0.13 -0.3,0.26 -0.92,1.67 -5.4,2.33 -3.01,0.49 -4.76,-0.11 -4.94,-0.17 5.29,5.35 10.08,1.98 10.08,1.98 0.23,0.93 0.55,1.6 0.55,1.6 0,0 -1.59,2.34 -6.43,1.53 -0.59,-0.1 -1.09,-0.26 -1.58,-0.44 0.1,0.05 0.18,0.09 0.28,0.15 1.86,1.22 2.36,3.72 1.14,5.57 -1.24,1.86 -3.73,2.36 -5.59,1.14 -1.85,-1.23 -2.36,-3.73 -1.13,-5.58 1,-1.52 2.84,-2.12 4.49,-1.63 -3.63,-1.75 -4.57,-5.4 -4.57,-5.4 4.64,-4.12 4.5,-11.57 9.23,-21.93 0.22,-0.48 0.46,-0.96 0.69,-1.44 0,0.02 0,0.03 -0.02,0.05 -1.03,2.58 -2.01,7 -1.61,10.23 0.09,0.7 0.23,1.34 0.39,1.96 v 0 c 0.07,0.29 1.66,6.74 6.01,5.69 -0.04,0.1 -0.67,1.51 -0.68,1.53 1.9,1.18 6.26,3.25 13.68,3.35 10.42,0.14 16.12,-6.72 17.68,-11.82 1.23,-3.97 -0.67,-8.38 -4.6,-12.24 1.15,-1.33 1.85,-3.19 1.08,-5.75 0.35,1.18 -1.87,3.29 -4.21,3.09 -0.22,-0.02 -0.42,-0.05 -0.64,-0.11 -3.54,-0.99 -7.57,-5.29 -10.98,-7.84 -3.4,-2.55 -4.39,-6.5 -4.32,-9.3 0.05,-2.8 -0.9,-6.12 -3.57,-8.64 -2.67,-2.52 -5.07,-2.76 -5.83,-2.96 -0.77,-0.21 -0.99,-0.68 -0.91,-1.19 0.16,-0.84 1.24,-0.68 1.24,-0.68 6.48,1.3 11.22,7.72 12.27,9.61 0.97,1.73 11.21,9.73 15.17,13.23 1.85,1.35 9.87,7.5 11.3,13.8 1.7,7.52 -2.85,14.65 -6.7,18 z m -11.55,-17.1 c 1.27,0.63 3.1,1.87 3.95,3.66 0.22,0.48 0.33,0.93 0.33,1.44 0.13,2.09 -2.32,5.15 -4.49,5.96 -1.57,0.65 -3.66,0.97 -5.67,0.96 -0.64,0 -1.27,-0.03 -1.88,-0.09 0.57,-0.96 1.26,-2.13 2.03,-3.38 1.73,-2.83 3.87,-6.12 5.73,-8.55 z M 261.4,314.61 c 1.71,-2.91 3.51,-5.76 5.33,-8.59 0.09,-0.13 0.17,-0.26 0.26,-0.39 -0.08,0.6 -0.29,3.84 0.8,7.06 0.63,1.54 1.63,3.1 3.22,4.55 1.42,1.31 2.6,2.35 3.59,3.17 -4.79,6.19 -11.58,17.77 -11.58,17.77 -2.91,0.17 -4.36,-0.79 -6,-4.29 -0.23,-0.5 -0.42,-1.05 -0.55,-1.63 v 0 c -0.86,-3.61 -0.08,-8.26 -0.06,-8.39 0.12,-0.24 3.35,-6.47 4.99,-9.25 z m 47.86,-64.51 c 3.98,-0.97 7.91,-2.02 11.78,-3.23 0.11,-0.03 0.23,-0.07 0.34,-0.11 -3.95,5.99 -35.06,50.5 -37.2,53.39 -0.17,-0.14 -5.52,-4.71 -5.71,-4.88 7.93,-11.02 30.35,-44.48 30.8,-45.17 z M 406.85,19.54 C 406.36,43.21 399.87,59.7 399.87,59.7 390.6,65.25 377.95,71.17 363.5,73.32 333.32,77.78 318.49,73.27 290.53,64.33 262.59,55.39 220.67,36.1 177.64,36.39 134.6,36.67 103.88,55.35 76.36,76.6 c 0.42,-0.13 7.18,-2.24 9.61,-3.04 0,0 -6.42,7.54 -8.38,11.73 0,0 12.81,-9.57 30.38,-8.55 0,0 -6.11,1.53 -8.66,5.35 0,0 7.13,-1.54 8.4,1.27 1.28,2.8 -3.05,9.17 -10.95,12.74 -7.89,3.57 -20.64,6.37 -28.79,6.88 0,0 8.16,2.55 13.51,7.64 0,0 -6.23,0.89 -13,3.56 -5.64,2.23 -15.8,3.57 -20.13,3.06 0,0 5.93,5.55 13,9.93 20.68,12.83 11.95,31.85 5.29,38.09 -4.38,1.25 -50.08,13.68 -60.55,87.45 0,0 23.15,-32.3 58.22,-41.23 35.07,-8.92 69.07,0 86.91,8.71 17.85,8.72 45.47,27.83 81.38,33.79 19.75,3.28 43.53,2.68 66.54,-1.72 -0.37,0.57 -17.93,26.69 -25.48,37.22 0,0 -5.6,-7.04 -13.19,-7.74 0,0 -3.18,-0.64 -5.76,0.7 v 0 c -2.27,1.05 -4.22,3.29 -4.85,6.4 -0.64,3.15 0.5,5.59 1.99,7.31 1.42,1.65 3.2,2.49 4.64,2.88 1.29,0.31 3.08,1.1 3.42,2.8 -3.46,5.33 -8.2,13.02 -11.61,20.46 -2.68,5.85 -3.96,10.88 -5.03,14.26 -1.01,3.47 -1.91,4.82 -2.2,5 l -3.64,3.21 c 0,0 1.39,5.63 1.79,6.57 -0.88,1.68 -1.32,3.53 -1.33,5.35 v 0.1 c 0,3.82 1.88,7.57 5.31,9.83 2.67,1.84 6.54,1.95 6.54,1.95 3.81,0 7.56,-1.88 9.81,-5.27 0.54,-0.82 0.96,-1.69 1.26,-2.55 2.74,-1.12 4.43,-2.67 5.3,-3.95 2.03,0.47 7.95,0.65 8.19,0.65 8.27,-0.06 16.1,-2.43 21.83,-7.31 4.61,-4.12 9.64,-11.18 9.8,-20.63 0,-1.69 0.51,-10.57 -8.02,-17.63 7.38,-10.66 16.44,-23.95 25.96,-38.36 17.72,-26.85 32.21,-50.17 43.23,-69.65 11.53,-19.8 47.62,-74.19 47.55,-148.67 -0.03,-21.7 -7.81,-35.64 -7.81,-35.64 z M 256.47,332.21 c 0,0 0,0.02 0,0.03 0,-0.02 0.02,-0.03 0.03,-0.05 0,-0.02 0,-0.03 0,-0.03 0,0.02 -0.02,0.04 -0.03,0.06 v 0 z"
     id="path2" />
  <path
     class="cls-2"
     d="m 315.81,181.93 c -20.13,14.24 -51.64,18.59 -51.64,18.59 -0.35,1.37 -2.44,2.8 -2.44,2.8 0,0 3.23,1.19 11.15,7.15 7.91,5.96 5.77,5.66 8.29,7.37 2.52,1.69 3.96,1.22 3.96,1.22 0.76,1.53 0.86,3.8 0.86,3.8 1.05,0.99 6.22,5.92 1.42,11.02 -4.81,5.1 -10.36,0.36 -10.36,0.36 -1.96,0.42 -3.87,-0.23 -3.87,-0.23 0,0 -10.27,6.47 -20.47,-0.58 -8.3,-5.72 -7.8,-12.51 -7.31,-14.85 -2.8,1.61 -5.81,2.86 -8.9,3.83 -8.33,2.61 -18.95,3.69 -29.51,0.18 -6.93,-2.33 -12.68,-6.38 -17.21,-10.87 -4.54,-4.5 -7.89,-9.46 -10.08,-13.93 -0.33,-0.68 -0.64,-1.36 -0.92,-2.01 -0.73,1.73 -4.2,8.29 -14.97,7.82 -12.39,-0.54 -16.69,-11.89 -16.69,-11.89 0,0 -1.91,-0.64 -3.23,-2.14 0,0 -7.28,0.43 -8.04,-6.54 -0.75,-6.97 6.35,-7.78 7.79,-7.94 0,0 1.44,-1.76 2.97,-2.52 0,0 0.86,1.25 3.9,1.42 3.03,0.16 1.15,-0.9 11.06,-0.87 9.91,0.02 13.19,1.02 13.19,1.02 0,0 -0.8,-2.4 -0.25,-3.71 0,0 -22.51,-22.48 -29.97,-45.98 -7.46,-23.5 -5.18,-32.22 3.88,-57 0,0 6.72,42.22 27.34,68.75 11.77,15.14 25,26.94 34.21,34.29 0.21,0 0.42,0 0.63,0 -1.96,-2.19 -3.46,-4.76 -4.2,-7.7 -1.84,-7.26 -4.86,-14.02 -6.24,-19.39 -1.38,-5.39 1.69,-16.15 1.69,-16.15 -4.13,-6.62 -2.12,-17.53 -2.12,-17.53 0,0 2.24,-1.06 3.94,-3.13 1.69,-2.08 1.11,-8.2 2.49,-17.21 1.38,-9.01 7.25,-18.33 20.23,-23.63 12.92,-5.27 32.32,1.64 32.49,1.7 0.17,0.05 19.83,6.23 26.95,18.23 7.16,12.06 6.21,23.04 1.88,31.06 -4.33,8.02 -8.5,12.55 -8.39,15.23 0.1,2.67 1.25,4.87 1.25,4.87 0,0 -4.96,9.92 -12.27,12.72 0,0 -4.04,10.44 -8.4,13.89 -4.34,3.46 -10.83,7.02 -16.68,11.71 -2.31,1.85 -4.96,2.99 -7.79,3.57 0.19,0.14 0.37,0.28 0.56,0.42 11.77,-0.31 29.37,-1.74 47.8,-6.69 32.45,-8.73 63.27,-38.35 63.27,-38.35 -7.71,25.23 -11.15,33.56 -31.27,47.81 z M 346.68,81.29 C 305.16,81.04 260.19,57.68 220.3,48.77 136.21,30.01 95.46,73.91 95.44,73.93 c 0,0 13.63,-4.96 20.49,-0.5 7.46,4.85 0.88,17.36 -1.52,19.86 -6.9,7.19 -16.82,12.49 -27.77,12.49 0,0 11.59,2.78 15.35,6.23 0,0 -10.76,1.41 -16.62,3.44 -5.85,2.04 -17.32,5.35 -19.86,5.35 0,0 30.2,13.81 11.46,43.3 0,0 13.11,-2.01 24.03,3.23 0,0 -59.83,-9.66 -80.07,56.38 7.63,-6.29 31.58,-23.19 68.88,-23.37 45.03,-0.2 64.35,10.16 82.23,20.99 27.27,16.53 47.89,21.43 63.56,24.35 45.02,8.4 90.23,-6.74 109.82,-15.87 56.87,-87.13 63.41,-136.34 64.38,-171.48 -18.37,18.49 -49.16,23.02 -63.12,22.94 v 0 z"
     id="path3" />
  <path
     class="cls-6"
     d="m 256.26,324.16 c 0,0 0,0.03 -0.02,0.05 -1.03,2.58 -2.01,7 -1.61,10.23 0.09,0.7 0.23,1.34 0.39,1.96 v 0 c -2.43,11.17 -7.13,11.35 -8.38,11.19 -0.2,-0.03 -0.31,-0.06 -0.31,-0.06 4.64,-4.11 4.5,-11.57 9.23,-21.93 0.22,-0.48 0.46,-0.96 0.69,-1.44 z m 10.73,-18.54 c -0.07,0.6 -0.29,3.84 0.8,7.06 0,0 -6,7.84 -11.33,19.57 0.08,-0.22 0.04,-0.11 0,-0.03 0,0 0,0.01 0,0.02 -0.86,-3.6 -0.08,-8.25 -0.06,-8.38 0.12,-0.24 3.35,-6.47 4.99,-9.25 1.71,-2.9 3.51,-5.76 5.34,-8.59 0.09,-0.13 0.17,-0.26 0.26,-0.39 z m 54.38,-58.87 c -3.95,5.99 -35.06,50.5 -37.21,53.38 -0.17,-0.14 -5.52,-4.71 -5.71,-4.88 7.93,-11.02 30.35,-44.48 30.8,-45.16 3.98,-0.97 7.91,-2.02 11.78,-3.23 0.11,-0.03 0.23,-0.07 0.34,-0.11 z m -51.52,-32.41 c 0,0 1.74,1.4 1.89,1.51 0.66,0.5 2.08,1.81 2.74,2.46 0.54,0.53 1.08,1.06 1.61,1.6 0.39,0.4 2.01,1.93 2.56,2.33 0.42,0.31 0.84,0.58 1.28,0.8 0.4,0.2 0.82,0.35 1.25,0.46 v 0 l -0.04,0.03 c -0.9,0.68 -1.96,1.12 -3.1,1.12 -0.39,0 -0.82,-0.06 -1.2,-0.15 -0.53,-0.13 -1.04,-0.32 -1.53,-0.57 -0.31,-0.16 -0.61,-0.33 -0.9,-0.52 -0.18,-0.12 -0.36,-0.25 -0.54,-0.38 0,0 -0.01,-0.02 -0.01,-0.02 0.05,-0.23 0.09,-0.48 0.11,-0.76 0.06,-1.02 -0.15,-2.18 -0.53,-3.12 -0.63,-1.66 -3.52,-4.71 -3.59,-4.76 z m -10.46,-6.5 c 0.14,0.08 0.28,0.15 0.43,0.24 0.7,0.4 1.41,0.79 2.11,1.19 1.47,0.85 2.93,1.73 4.36,2.65 1.02,0.66 2.04,1.33 3.02,2.04 0.13,0.09 0.25,0.19 0.38,0.28 0.96,1.07 1.95,2.45 2.4,3.73 0.54,1.48 0.57,2.84 0.38,3.84 -3.13,-3.02 -9.72,-7.86 -11.58,-8.82 0.18,-2.22 -0.73,-4.03 -1.5,-5.15 z M 206.76,182 c 1,0.13 1.98,0.28 2.93,0.44 -0.54,0.75 -1.06,1.51 -1.56,2.3 1.06,0.19 2.13,0.41 3.22,0.66 0.44,-0.81 0.9,-1.6 1.38,-2.38 0.91,0.2 1.81,0.41 2.69,0.63 -0.41,0.8 -0.8,1.62 -1.19,2.46 1.01,0.27 2.03,0.56 3.05,0.88 0.32,-0.86 0.65,-1.7 0.97,-2.53 0.86,0.27 1.71,0.55 2.55,0.86 -0.24,0.86 -0.5,1.72 -0.76,2.6 1.01,0.36 2,0.74 2.97,1.13 0.19,-0.89 0.37,-1.78 0.53,-2.66 0.85,0.35 1.69,0.72 2.53,1.12 -0.09,0.9 -0.2,1.8 -0.33,2.7 1.01,0.45 2,0.92 2.96,1.4 0.08,-0.91 0.12,-1.82 0.14,-2.73 0.86,0.45 1.73,0.92 2.61,1.42 0.04,0.91 0.04,1.83 0,2.74 0.53,0.29 1.05,0.58 1.56,0.87 0,0.14 0,0.29 0.01,0.43 0.02,0.8 0,1.61 -0.03,2.42 -0.01,0.23 -0.02,0.47 -0.04,0.7 -0.61,-0.31 -1.23,-0.62 -1.86,-0.93 -0.23,1.41 -0.58,2.8 -1.05,4.16 -0.93,-0.54 -1.88,-1.06 -2.84,-1.56 0.42,-1.31 0.75,-2.63 1,-3.96 -1.02,-0.47 -2.07,-0.92 -3.14,-1.37 -0.28,1.26 -0.62,2.53 -1.02,3.78 -0.98,-0.45 -1.97,-0.89 -2.97,-1.3 0.39,-1.22 0.74,-2.44 1.06,-3.66 -1.05,-0.4 -2.11,-0.79 -3.19,-1.17 -0.37,1.18 -0.75,2.37 -1.14,3.57 -1.02,-0.36 -2.03,-0.71 -3.06,-1.03 0.41,-1.19 0.82,-2.38 1.24,-3.54 -1.09,-0.35 -2.17,-0.67 -3.25,-0.98 -0.48,1.16 -0.93,2.34 -1.36,3.55 -1.04,-0.28 -2.09,-0.53 -3.15,-0.76 0.44,-1.23 0.93,-2.44 1.46,-3.61 -1.12,-0.28 -2.24,-0.55 -3.34,-0.79 -0.6,1.21 -1.12,2.45 -1.57,3.74 -1.06,-0.18 -2.14,-0.34 -3.21,-0.47 0.44,-1.35 1,-2.66 1.66,-3.91 -0.69,-0.13 -1.38,-0.26 -2.05,-0.37 0.15,-0.22 0.3,-0.44 0.45,-0.66 0.47,-0.68 0.95,-1.33 1.46,-1.97 0.06,-0.07 0.12,-0.15 0.18,-0.22 0.59,0.07 1.18,0.15 1.78,0.23 0.53,-0.77 1.1,-1.52 1.69,-2.24 z m 130.36,-32.72 c -0.16,0.38 -6.57,15.1 -33.24,26.67 -1.19,0.51 -2.4,1.03 -3.66,1.53 -5.42,2.04 -16.83,5.9 -31.93,8.62 -6.1,1.1 -12.28,1.85 -18.45,2.37 -0.49,0.04 -4.07,0.3 -4.07,0.3 -1.12,-1.44 -2.35,-2.86 -3.7,-4.25 8.18,-0.36 16.59,-1.17 24.83,-2.66 34.03,-6.11 54.92,-20.34 64.94,-28.26 0.92,-0.72 1.72,-1.38 2.46,-1.99 1.72,-1.39 2.79,-2.27 2.82,-2.34 z m -176.25,28.79 c 0.3,0 0.91,0.01 0.86,0.02 -1.59,0.09 -4.09,0.67 -5.69,1.63 0,0 -0.02,0.01 -0.03,0.02 -0.91,0.53 -1.89,1.43 -2.39,2.37 -0.03,0.06 -0.21,0.4 -0.26,0.46 -5.2,0 -6.13,-3.94 -6.15,-4.01 0.43,0.18 0.87,0.31 1.32,0.39 v 0 l 0.36,0.06 c 0.36,0.05 0.73,0.07 1.11,0.07 1.6,0.01 3.26,-0.29 4.98,-0.53 1.95,-0.27 3.92,-0.47 5.89,-0.48 z m 1.1,0.01 c 0.68,0.01 1.36,0.03 2.04,0.07 1.07,0.05 2.15,0.13 3.22,0.22 2.16,0.19 4.67,0.48 6.81,0.82 -1.28,0.43 -3.05,1.27 -4.25,3.15 -0.02,0.02 -0.03,0.03 -0.05,0.05 -2.07,-0.36 -10.24,-0.46 -14.56,0.05 0.45,-0.91 1.3,-1.98 2.62,-2.83 1.14,-0.75 2.76,-1.25 4.17,-1.53 z M 147.36,85.6 c 1.86,7.83 7.39,37 36.35,68.37 5.73,6.21 11.99,11.96 18.35,17.22 -1.92,0.31 -3.77,0.71 -5.54,1.19 -4.45,-3.92 -14.74,-14.06 -15.28,-14.59 l -0.02,-0.02 c -8.61,-8.67 -15.05,-17 -19.88,-24.75 -1.01,-1.65 -1.79,-3.01 -2.42,-4.03 v 0 l -0.96,-1.72 C 144.61,102.81 147.36,85.6 147.36,85.6 Z m 58.05,53.12 c 1.35,-1.13 4.4,-0.61 4.4,-0.61 0,0 1.37,1.44 1.69,2.51 0.31,1.08 -0.01,6.98 2.32,11.04 v 0 -0.1 c 0,0 0.11,-0.43 0.61,-1.17 0.5,-0.74 1.47,-1.78 2.05,-1.37 0.58,0.41 0.5,1.57 0.49,2.81 0,1.24 -0.43,2.57 -0.74,2.94 0,0 0.48,0.99 1.8,1.62 0,0 -0.06,-0.47 0.04,-1.15 0.21,-1.19 0.81,-2.17 1.19,-3.26 0.12,-0.38 0.49,-0.77 1.04,-0.47 0.01,0 1.1,0.57 2.06,1.05 0.11,0.08 0.78,0.59 0.42,1.55 -0.02,0.04 -0.02,0.06 -0.03,0.08 -0.01,0.04 -0.03,0.08 -0.05,0.13 -0.36,0.91 -0.67,1.74 -1.13,2.69 0,0 -0.24,0.88 -0.65,0.92 0,0 0.81,0.53 1.18,0.69 0.56,0.24 1.25,0.54 1.59,0.62 0,0 -0.37,-0.57 -0.28,-1.39 0.22,-1.17 0.57,-2.77 0.86,-4.11 0.1,-0.32 0.38,-0.85 1.03,-0.65 0.73,0.3 1.47,0.59 2.22,0.86 0.62,0.26 0.62,0.88 0.59,1.09 -0.34,1.48 -0.72,3.26 -1.13,4.68 -0.09,0.22 -0.22,0.52 -0.33,0.63 0,0 0.67,0.47 1.12,0.59 0.45,0.12 1.29,0.29 1.29,0.29 0,0 -0.16,-0.57 0.04,-1.19 0,-0.01 0,-0.02 0,-0.04 0.33,-0.95 0.66,-1.9 1,-2.85 0.08,-0.24 0.32,-0.79 0.45,-1.14 0.07,-0.18 0.36,-0.72 1.02,-0.58 0.87,0.26 1.75,0.5 2.63,0.72 0.65,0.19 0.28,1.19 0.28,1.19 0,0 -0.95,2.32 -1.56,3.82 v 0 c 0,0 -0.21,0.52 -0.55,0.8 0,0 0.61,0.27 1.06,0.36 0.96,0.19 1.53,0.17 1.77,0.19 0,0 -0.3,-0.72 0.05,-1.57 0.02,-0.04 0.03,-0.08 0.04,-0.12 0.29,-0.68 0.6,-1.35 0.88,-2.03 0.08,-0.19 0.15,-0.38 0.23,-0.58 0.1,-0.29 0.56,-0.77 1.33,-0.64 0.03,0 0.04,0 0.07,0 0.61,0.11 1.22,0.22 1.84,0.31 v 0 c 0,0 1.1,0.23 0.7,1.26 -0.55,1.23 -1.14,2.47 -1.8,3.71 0.68,0.05 1.37,0.09 2.07,0.11 0,0 -0.09,-0.06 0.2,-0.83 0.28,-0.77 1.11,-2.4 1.2,-2.64 0.08,-0.24 0.4,-1.19 0.8,-1.24 0.4,-0.04 1.97,1.21 1.56,3.63 4.3,-1.84 7.59,-6.73 8.49,-7.39 0.79,-0.58 2.37,-0.9 2.77,-0.97 0.66,0.38 2.59,1.59 2.92,3.01 0,0 -3.24,2.98 -7.23,4.74 -4,1.76 -10.04,5.57 -12.42,7.16 -0.9,0.6 -2.13,1.12 -3.68,1.4 -0.97,-1.72 -4.33,-3.85 -8.64,-5.3 -4.5,-1.51 -8.64,-1.81 -10.33,-0.87 -1.23,-1.26 -1.98,-2.52 -2.36,-3.63 -0.94,-2.7 -3.47,-9.39 -5.59,-13.2 -2.12,-3.81 -2.91,-8.14 -2.91,-8.14 z m 13.05,-49.59 c 0.09,-4.49 4.83,-22.96 29.45,-18.76 4.54,0.94 8.18,2.04 9.13,2.34 0.1,0.03 0.18,0.06 0.28,0.1 0.47,0.15 1.11,0.35 1.88,0.64 0.22,0.09 0.46,0.17 0.7,0.27 0.32,0.12 0.66,0.25 1.01,0.4 0.47,0.19 0.96,0.4 1.48,0.62 0.51,0.23 1.05,0.48 1.6,0.74 1.2,0.58 2.48,1.26 3.77,2.04 0.13,0.07 0.26,0.15 0.38,0.22 0.04,0.02 0.08,0.04 0.11,0.07 10.02,6.1 12.77,13.54 12.77,19.7 0,5.41 -2.13,9.84 -3.29,11.47 -1.64,2.28 -3.12,3.85 -3.88,5 -0.91,-1.63 -1.61,-3.35 -1.88,-5.08 v 0 c 0,0 0,0.03 0,0.03 0.03,0.51 0.62,8.36 4.62,12.4 l 0.21,0.2 c 0,0 -2.33,5.2 -2.81,8.35 -0.48,3.16 0.75,6.49 0.75,6.49 0,0 -0.31,0.5 -0.76,1.19 -2.45,2.9 -6.75,5.4 -9.06,4.98 -2.62,-0.48 -8.93,-2.63 -12.59,-1.88 -3,0.62 -4.81,2.32 -5.8,4.03 0,0 0,0 0.02,0 -0.27,0.32 -0.52,0.67 -0.69,1.09 0,0 -0.78,1.36 -0.99,3.17 -0.54,-0.23 -0.99,-0.42 -0.99,-0.42 0,0.1 0,0.22 -0.02,0.36 -0.03,0.27 -0.16,0.7 -0.17,0.76 0,0.1 -0.02,0.16 -0.03,0.19 -0.06,0.24 -0.13,0.48 -0.19,0.73 -0.24,0.88 -0.46,1.6 -0.73,2.46 0,0 -0.03,0.03 -0.03,0.06 -0.28,0.82 -1.11,0.55 -1.11,0.55 0,0 -0.09,-0.03 -0.09,-0.03 -0.61,-0.3 -1.27,-0.62 -1.96,-0.95 0,0 -0.78,-0.41 -0.66,-1.21 0,-0.02 0,-0.03 0,-0.06 0,-0.03 0,-0.06 0.02,-0.09 0.03,-0.07 0.04,-0.16 0.07,-0.22 0.22,-0.78 0.67,-2.45 0.73,-2.84 0.08,-0.46 0.38,-1.3 0.57,-1.63 -0.13,-0.13 -0.46,-0.48 -0.74,-0.62 -0.24,-0.12 -0.5,-0.17 -0.86,-0.15 -0.13,0.11 -0.35,0.45 -0.35,0.63 0,0.1 -0.28,0.97 -0.59,1.92 -0.31,0.96 -0.67,2.01 -0.82,2.49 -0.17,0.52 -0.54,0.63 -0.85,0.63 -0.19,0 -0.35,-0.04 -0.41,-0.07 h -0.03 c -0.6,-0.25 -1.43,-0.55 -2.08,-0.79 -0.04,0 -0.08,-0.03 -0.12,-0.04 -0.78,-0.29 -0.73,-0.96 -0.67,-1.23 0.34,-1 0.77,-2.27 1.1,-3.27 0.07,-0.23 0.16,-0.47 0.22,-0.71 0,0 0,-0.02 0.02,-0.03 0.03,-0.1 0.32,-0.85 0.77,-1.07 -0.29,-0.22 -0.88,-0.46 -1.32,-0.61 -0.53,-0.17 -1.47,-0.34 -1.52,-0.35 0.16,0.34 0.19,0.93 0.11,1.22 -0.11,0.39 -1.15,4.01 -1.19,4.15 -0.05,0.14 -0.23,0.57 -0.52,0.67 -0.28,0.1 -1.05,-0.15 -1.05,-0.15 -0.05,0 -0.09,-0.02 -0.13,-0.03 -0.66,-0.2 -1.59,-0.35 -2.21,-0.52 0,0 -1.02,-0.29 -0.7,-1.23 0,0 0.67,-2.44 0.99,-3.6 0,-0.03 0,-0.07 0.02,-0.1 0.03,-0.09 0.17,-0.57 0.22,-1.31 0.05,-0.74 -0.44,-0.91 -0.8,-0.91 -0.36,0 -0.73,0.62 -0.81,0.99 -0.1,0.39 -0.31,1.04 -0.31,1.04 v 0 l -0.03,0.06 c -0.03,0.06 -0.05,0.12 -0.07,0.17 -0.35,0.94 -0.63,1.72 -0.95,2.66 -0.3,0.8 -1.13,0.74 -1.3,0.71 h -0.03 c -0.74,-0.16 -1.46,-0.31 -2.13,-0.43 0,0 -0.1,-0.03 -0.1,-0.03 0,0 -0.83,-0.29 -0.55,-1.11 0,-0.03 0,-0.05 0.02,-0.08 0.29,-0.86 0.54,-1.55 0.89,-2.4 0.1,-0.22 0.44,-1.05 0.64,-1.37 0.21,-0.32 0.48,-0.49 0.48,-0.49 0,-0.19 -0.28,-0.54 -0.8,-0.73 -0.06,-0.02 -0.13,-0.03 -0.21,-0.05 0.3,-0.75 0.68,-1.79 0.86,-2.66 0.57,-2.12 0.5,-5.1 -1.95,-7.91 -2.46,-2.81 -8.8,-4.9 -11.17,-6.1 -2.38,-1.19 -4.51,-6.93 -4.23,-10.89 0,0 2.98,-1.92 4.5,-4.73 1.54,-2.8 2.8,-8.34 2.8,-8.34 5.75,-0.65 11.13,-6.77 11.46,-7.15 -1.43,1.37 -3.3,2.4 -5.23,3.2 0.1,-1.31 -0.11,-3.53 -0.05,-6.8 z"
     id="path4" />
  <path
     class="cls-7"
     d="m 257.72,290.19 c 0.16,-0.84 1.24,-0.68 1.24,-0.68 6.48,1.3 11.22,7.72 12.27,9.61 0.97,1.73 11.21,9.73 15.17,13.23 1.85,1.35 9.87,7.5 11.3,13.8 1.7,7.52 -2.85,14.65 -6.7,18 -3.86,3.36 -10.41,5.51 -17.26,5.38 -6.1,-0.12 -10.39,-1.11 -14.27,-3.22 -0.02,0.04 -0.03,0.08 -0.04,0.13 -0.3,0.26 -0.92,1.67 -5.4,2.33 -3.01,0.49 -4.76,-0.11 -4.94,-0.17 5.29,5.35 10.08,1.98 10.08,1.98 0.23,0.93 0.55,1.6 0.55,1.6 0,0 -1.59,2.34 -6.43,1.53 -0.59,-0.1 -1.09,-0.26 -1.58,-0.44 0.09,0.05 0.18,0.09 0.28,0.15 1.86,1.22 2.36,3.72 1.14,5.57 -1.24,1.86 -3.73,2.36 -5.59,1.14 -1.85,-1.23 -2.36,-3.73 -1.13,-5.58 1,-1.52 2.84,-2.12 4.49,-1.63 -3.63,-1.75 -4.57,-5.4 -4.57,-5.4 0,0 0.11,0.03 0.31,0.06 1.25,0.16 5.95,-0.02 8.38,-11.18 0.07,0.29 1.66,6.73 6.01,5.68 -0.04,0.1 -0.67,1.51 -0.68,1.53 1.9,1.18 6.26,3.25 13.68,3.35 10.42,0.14 16.12,-6.72 17.68,-11.82 1.23,-3.97 -0.67,-8.38 -4.6,-12.24 1.15,-1.33 1.85,-3.19 1.08,-5.75 0.35,1.19 -1.87,3.3 -4.21,3.09 -0.22,-0.02 -0.42,-0.05 -0.64,-0.11 -3.54,-0.99 -7.57,-5.29 -10.98,-7.84 -3.4,-2.55 -4.39,-6.5 -4.32,-9.3 0.05,-2.8 -0.9,-6.12 -3.57,-8.64 -2.67,-2.52 -5.07,-2.76 -5.83,-2.96 -0.77,-0.21 -0.99,-0.68 -0.91,-1.19 z m 21.72,36.85 c 1.27,0.63 3.1,1.87 3.95,3.66 0.22,0.48 0.33,0.93 0.33,1.44 0.13,2.09 -2.32,5.15 -4.49,5.96 -1.57,0.65 -3.66,0.97 -5.67,0.96 -0.64,0 -1.27,-0.03 -1.88,-0.09 0.57,-0.96 1.26,-2.13 2.03,-3.38 1.73,-2.83 3.88,-6.12 5.73,-8.55 z m -11.65,-14.37 c 0.63,1.54 1.63,3.1 3.22,4.55 1.42,1.31 2.6,2.35 3.59,3.17 -4.79,6.19 -11.58,17.77 -11.58,17.77 -2.9,0.17 -4.36,-0.79 -6,-4.29 -0.23,-0.5 -0.42,-1.05 -0.55,-1.63 5.32,-11.72 11.32,-19.56 11.33,-19.57 z m 68.36,-71.31 c -5.64,8.91 -36.39,55.25 -43.67,65.78 -0.05,-0.04 -0.13,-0.1 -0.17,-0.13 -1.06,-0.97 -2.44,-2.14 -3.96,-3.41 2.48,-3.54 30.91,-45.81 39.25,-58.91 2.91,-1.03 5.75,-2.15 8.55,-3.33 z M 259.1,197.5 c 0,0 0.5,-0.37 0.81,0 0.18,0.24 0.2,0.54 -0.14,0.85 -0.33,0.31 -1.47,1.08 -2.15,3.07 -0.68,2.01 -0.26,3.94 0.52,5.35 0.73,1.3 1.04,2.88 0.79,4.36 -0.09,0.52 -0.25,1.05 -0.47,1.53 -0.56,1.19 -0.99,2.43 -1.49,3.64 -0.55,1.32 -1.16,2.55 -1.95,3.3 -0.87,0.83 -2.28,0.57 -3.15,-0.12 -0.04,-0.03 -0.08,-0.05 -0.11,-0.08 0.36,1.56 1.34,2.18 2.36,2.41 -0.47,3.11 0.63,5.38 4.38,7.22 3.84,1.88 10.49,1.87 15.46,-2.87 -0.5,-0.56 -1.09,-0.97 -1.67,-1.43 0,0 -0.02,-0.02 -0.03,-0.02 0.39,-0.11 0.88,-0.32 1.2,-0.72 0.18,-0.22 0.3,-0.58 0.39,-1 v 0 l 0.02,0.02 c 0.18,0.14 0.36,0.27 0.54,0.38 0.29,0.19 0.59,0.36 0.9,0.52 0.49,0.25 1,0.44 1.53,0.57 0.38,0.09 0.8,0.15 1.2,0.15 1.14,0 2.2,-0.44 3.1,-1.12 0.01,0 0.02,-0.01 0.03,-0.02 0,0 0.09,0.55 0.09,0.67 0.04,0.71 -0.04,1.84 -0.71,2.94 0.69,-0.52 1.65,-0.64 2.46,-0.19 1.1,0.6 1.52,1.98 0.92,3.08 -0.6,1.1 -1.98,1.52 -3.08,0.92 -1.07,-0.58 -1.46,-1.88 -0.95,-2.96 -0.18,0.18 -0.35,0.37 -0.57,0.54 -1.31,1 -2.33,1.16 -2.97,1.12 -0.45,-0.03 -0.71,-0.15 -0.71,-0.15 0,0 0.03,-0.29 -0.1,-0.76 -0.02,-0.06 -0.03,-0.12 -0.05,-0.19 0.16,0.01 0.44,0.02 0.8,-0.03 1.11,-0.16 2.92,-0.86 3.79,-3.71 0,0 -0.21,0.28 -0.58,0.63 -0.8,0.79 -2.44,1.96 -4.7,1.8 -1.08,0.93 -7.8,6.26 -15.84,3.42 -8.78,-3.11 -8.85,-8.53 -8.63,-10.3 0.14,-1.16 0.76,-3.06 0.79,-3.15 0.71,-2.22 4.34,-10.24 4.36,-11.48 0.02,-1.24 0.69,-5.77 3.63,-8.18 z m 1.79,15.47 c 1.85,0.96 8.44,5.8 11.58,8.82 -0.1,0.5 -0.24,0.94 -0.44,1.19 -0.31,0.39 -0.76,0.6 -1.15,0.73 -2.76,-1.89 -6.94,-4.36 -11.36,-6.35 0.27,-0.68 0.59,-1.53 0.96,-2.58 0.24,-0.67 0.41,-1.82 0.41,-1.82 z m -81.06,-42.34 c 0.47,-0.12 0.65,0.48 0.65,0.48 0.89,3.69 -1.31,7.71 -2.04,8.71 -0.73,1 -2.68,9.58 -3.46,11.79 0,0 -0.91,2.26 -1.27,2.99 -0.8,1.59 -4.22,5.83 -13.1,3.01 -8.13,-2.58 -10.31,-10.88 -10.61,-12.26 -2.77,-1.78 -2.7,-5.14 -2.7,-5.14 -1.36,3.71 0.88,5.42 1.41,5.76 -0.06,-0.04 -0.53,0.45 -0.58,0.51 0,0 -0.11,0.16 -0.12,0.16 0,0 -0.8,-0.15 -1.53,-1.19 -0.31,-0.43 -0.6,-1 -0.82,-1.8 -0.08,-0.29 -0.13,-0.57 -0.16,-0.84 0,0.03 0,0.06 0,0.09 -0.19,1.26 -1.36,2.12 -2.62,1.93 -1.25,-0.19 -2.12,-1.37 -1.93,-2.62 0.19,-1.26 1.36,-2.12 2.62,-1.93 0.99,0.15 1.74,0.91 1.92,1.84 0.07,-2.26 1.72,-3.59 1.72,-3.59 0.02,0.07 0.95,4.01 6.15,4.01 -0.18,0.39 -0.3,0.75 -0.29,1.04 0.02,0.51 0.28,0.98 0.53,1.3 h -0.26 c -0.57,0 -1.98,0.01 -1.98,0.13 1.1,6.78 6.41,10.8 10.6,11.61 4.09,0.8 6.34,-0.34 7.84,-3.1 0.95,0.43 2.11,0.51 3.35,-0.51 -1.81,0.08 -2.59,-1.02 -2.73,-1.81 -0.36,-2.08 0.94,-5.22 1.44,-7.61 0.51,-2.39 2.33,-3.85 3.8,-4.5 1.48,-0.65 2.98,-1.94 3.65,-3.95 0.67,-2 0.21,-3.3 0.13,-3.75 -0.08,-0.45 0.12,-0.68 0.4,-0.76 z m 157.28,-21.37 c 0,0 -0.16,0.47 -0.16,0.47 -1.99,5.73 -5.66,11.05 -9.69,15.53 -2.93,3.25 -6.12,6.21 -9.52,8.96 -5.22,4.21 -11.16,7.63 -17.21,10.49 -6.01,2.84 -12.32,5.09 -18.72,6.87 -10.02,2.78 -20.62,4.23 -31.1,4.82 -0.8,-1.55 -1.75,-3.14 -2.83,-4.74 33.67,-2.41 55.83,-15.6 55.83,-15.6 v 0 l 0.17,-0.13 c 26.66,-11.57 33.07,-26.29 33.24,-26.67 z m -181.94,33.16 c 4.32,-0.51 12.49,-0.4 14.56,-0.05 0.01,-0.02 0.03,-0.03 0.05,-0.05 -0.32,0.51 -0.61,1.07 -0.82,1.74 -0.34,1.06 -0.6,1.92 -0.8,2.63 -4.98,-1.37 -12.89,-1.79 -12.89,-1.79 -0.23,-0.33 -0.46,-0.78 -0.47,-1.28 0,-0.33 0.15,-0.76 0.37,-1.22 z m -7.82,-96.84 c 0,0 -2.75,17.21 10.6,41.67 l -0.04,-0.07 -0.04,-0.06 c 0,0 9.52,23.54 34.48,45.63 l 0.76,0.67 c -1.82,0.64 -3.54,1.33 -5.11,2.08 -0.25,0.12 -2.77,-2.39 -3.08,-2.66 -2.52,-2.23 -4.97,-4.53 -7.34,-6.9 -5.54,-5.54 -10.64,-11.52 -15.11,-17.94 -3.63,-5.22 -6.9,-10.71 -9.54,-16.5 -2.58,-5.65 -4.68,-11.51 -6,-17.59 -1.24,-5.72 -1.79,-11.61 -1.48,-17.46 0.18,-3.46 0.6,-7.05 1.72,-10.35 0,0 0.17,-0.49 0.17,-0.49 z m 60.09,42.43 c 0,0 2.35,1.14 3.08,1.57 0,0 0,0.03 -0.01,0.08 -0.09,0.66 -0.71,5.34 -0.74,7.59 0,0.35 0,0.63 0.03,0.84 0,0 -3.05,-0.53 -4.4,0.61 0,0 0.79,4.33 2.91,8.14 2.12,3.81 4.65,10.5 5.59,13.2 0.38,1.11 1.14,2.37 2.36,3.63 1.69,-0.94 5.82,-0.65 10.33,0.87 4.31,1.45 7.67,3.58 8.64,5.3 1.55,-0.29 2.78,-0.8 3.68,-1.4 2.38,-1.59 8.42,-5.4 12.42,-7.16 3.99,-1.76 7.23,-4.74 7.23,-4.74 -0.33,-1.42 -2.26,-2.63 -2.92,-3.01 0.06,-0.01 0.09,-0.01 0.09,-0.01 1.11,-1.12 4.15,-6.49 4.53,-7.15 0.03,-0.05 0.04,-0.07 0.04,-0.07 0.84,0.1 3.4,0.61 3.4,0.61 0,0 -2.66,6.18 -4.23,8.84 -1.57,2.65 -2.85,3.55 -4.38,4.63 -1.53,1.08 -8.27,5.54 -10.06,6.79 -1.78,1.26 -6.52,5.51 -10.66,6.24 -2.05,0.36 -3.83,0.41 -5.52,0.22 -1.69,-0.19 -3.29,-0.61 -4.98,-1.18 -0.01,0 -0.02,0 -0.03,-0.01 -0.01,0 -0.03,0 -0.03,0 -3.38,-1.14 -6.12,-2.51 -8.95,-5.57 -2.5,-2.69 -3.74,-7.82 -4.46,-10.45 -0.1,-0.38 -0.19,-0.7 -0.28,-0.96 -0.66,-2.08 -3.35,-9.7 -3.92,-11.49 -0.57,-1.78 -1.05,-3.27 -0.7,-6.34 0.33,-2.88 1.76,-8.8 1.94,-9.53 0,-0.05 0.02,-0.07 0.02,-0.07 z m 38.39,17.74 c 0,0 1.53,-1.08 4.27,-0.95 0,0 -0.02,0.02 -0.02,0.03 h 0.02 c -0.08,0.2 -0.7,1.9 -0.86,3.4 -0.09,0.93 -0.54,3.26 -0.54,3.28 -0.8,2.8 -3.5,4.35 -3.74,4.19 -0.29,-0.18 -0.66,-0.86 0.55,-4.74 0,-0.19 0.62,-0.41 0.76,-0.41 0.25,-0.04 0.5,-0.08 0.75,-0.12 0,0 -0.07,-0.15 -0.33,-0.52 -0.11,-0.18 -0.41,-0.29 -0.59,-0.4 -0.21,-0.11 -1.26,-0.58 -1.26,-0.59 0.2,-1.66 0.87,-2.94 0.98,-3.15 l 0.02,-0.03 z m -40.86,-32.81 c -0.29,3.96 1.85,9.69 4.23,10.89 2.37,1.19 8.71,3.28 11.17,6.1 2.46,2.81 2.52,5.79 1.95,7.91 -0.18,0.87 -0.56,1.91 -0.86,2.66 -0.17,-0.04 -0.34,-0.07 -0.51,-0.09 -0.5,-0.06 -1.3,-0.11 -1.46,0.51 0,0.03 -0.02,0.04 -0.02,0.04 0.08,0.27 0.14,0.6 0.1,0.78 -0.04,0.2 -0.11,0.38 -0.15,0.47 -1.36,3.81 -2.08,4.14 -2.41,4.11 -0.29,-0.02 -1.5,-2.89 -0.46,-5.6 0,-0.02 0.02,-0.03 0.02,-0.05 0.54,-1.21 1.05,-2.09 1.52,-2.89 0.84,-1.38 1.37,-3.26 1.37,-3.26 v 0 l 0.02,0.03 v -0.03 c 0.7,0.48 1.3,1.06 1.85,1.69 0.02,0.02 0.03,0.03 0.03,0.04 0.25,0.42 0.64,0.73 0.86,1.18 0.06,0.13 0.1,0.25 0.1,0.34 0.19,-0.73 0.16,-1.61 -0.11,-2.32 -0.02,-0.03 -0.02,-0.05 -0.03,-0.08 -1.03,-2.81 -3.69,-4.46 -6.17,-5.86 -1.65,-0.93 -3.37,-1.75 -5.11,-2.51 -5.09,-2.24 -5.17,-3.73 -5.85,-6.08 -0.08,-0.29 -0.15,-0.64 -0.2,-1.02 -0.1,-0.75 -0.12,-1.65 -0.12,-2.54 0,-2.22 0.22,-4.43 0.22,-4.43 z m 68.98,24.6 c 0,0 -0.04,0.06 -0.06,0.09 -1.02,1.82 -2.39,3.76 -4.07,5.02 -1.95,1.47 -2.91,2.6 -8.33,1.32 -2.13,-0.51 -4.28,-0.97 -6.45,-1.24 -2.78,-0.35 -6.45,-0.45 -8.47,1.88 0,0.02 -0.02,0.02 -0.03,0.04 -0.02,0 -0.03,0.02 -0.03,0.03 1,-1.72 2.81,-3.42 5.82,-4.05 3.66,-0.75 9.97,1.39 12.59,1.88 2.31,0.42 6.6,-2.08 9.05,-4.98 z m -33.48,-13.98 c 1.95,0.78 3.04,2.75 2.45,4.51 -0.37,1.12 -0.29,2.02 -0.2,3.22 v 0 0.03 c 0,0 0.01,0.02 0.01,0.02 0.04,0.96 0.26,1.47 0.49,2.13 0.24,0.61 0.52,1.59 0.16,2.59 v 0 l -0.46,1.37 c -0.61,1.84 -2.83,2.75 -4.94,2.05 v 0 c 0,0 1.42,-0.37 1.88,-1.73 0,-0.02 0.02,-0.04 0.02,-0.05 0.87,-0.13 1.64,-0.65 1.91,-1.48 v 0 l 0.49,-1.43 c 0.48,-1.46 -0.6,-2.12 -0.66,-4.48 -0.09,-1.22 -0.17,-2.4 0.3,-3.81 0.38,-1.14 -0.26,-2.41 -1.45,-2.93 z m -5.17,1.94 c 0.6,-1.75 2.65,-2.67 4.71,-2.09 -1.27,-0.32 -2.56,0.31 -2.94,1.45 -0.48,1.42 -1.28,2.3 -2.08,3.22 -1.48,1.85 -2.74,1.72 -3.23,3.18 v 0 l -0.48,1.43 c -0.28,0.82 0.02,1.69 0.62,2.32 0,0.02 -0.02,0.04 -0.02,0.06 -0.46,1.37 0.46,2.51 0.46,2.51 -2.1,-0.71 -3.31,-2.77 -2.7,-4.6 v 0 l 0.46,-1.37 c 0.32,-1.02 1.12,-1.63 1.69,-1.98 0.59,-0.38 1.06,-0.66 1.68,-1.39 v 0 l 0.03,-0.04 c 0.81,-0.9 1.43,-1.57 1.8,-2.7 z m 36.99,-4.38 h 0.08 c 0,0 -1.08,7.31 -2.86,10.17 -1.78,2.87 -3.48,5.52 -7.91,5.28 0,0 2.57,-0.74 1.75,-2.76 -0.06,-0.15 -0.1,-0.29 -0.14,-0.45 1.18,-0.67 2.25,-1.17 3.22,-2.18 1.29,-1.34 2.31,-2.99 3.04,-4.69 0.32,-0.75 0.59,-1.52 0.81,-2.31 0,0 0.57,-2.62 1.68,-3.01 0.12,-0.02 0.23,-0.04 0.35,-0.05 v 0 z m -34.7,-7.13 c 0.94,2.05 8.37,4.54 10.4,3.49 0,0.04 -0.2,2.71 -0.19,4.31 0,1.6 0.55,7.78 3.26,9.4 v 0 c 0,0 -0.67,0.8 0.2,3.32 -0.21,-0.07 -3.6,-1.32 -4.82,-4.06 -1.26,-2.82 -0.03,-10.39 -4.57,-11.98 -4.57,-1.48 -8.15,5.31 -10.87,6.8 -2.7,1.49 -6.3,0.34 -6.3,0.34 2.09,-1.39 2.17,-2.4 2.17,-2.52 v 0 c 3.13,0.33 7.28,-4.27 8.26,-5.55 0.97,-1.27 2.46,-3.54 2.46,-3.54 z m -21.64,-11.79 0.05,0.03 h 0.02 c 0.08,0.09 0.16,0.17 0.24,0.26 0.65,0.98 -0.48,3.41 -0.48,3.41 -0.29,0.71 -0.51,1.44 -0.7,2.17 -0.65,2.52 -0.89,5.64 0.15,8.14 0.04,0.09 0.7,1.23 0.67,1.26 -0.06,0.05 -0.12,0.1 -0.19,0.15 -0.07,0.05 -0.14,0.1 -0.21,0.14 -1.8,1.05 -0.39,3.08 -0.28,3.23 -3.67,-2.46 -3.44,-5.6 -3.12,-8.97 0.31,-3.36 3.85,-9.83 3.85,-9.83 v 0 z m 48.02,-26.74 1,0.42 c 25.77,12.4 20.09,31.98 18.62,35.73 -1.34,3.36 -4,6.68 -5.17,8.58 -1.37,-1.5 -3.21,-3.73 -4.59,-6.23 0.76,-1.15 2.24,-2.71 3.88,-5 1.17,-1.63 3.29,-6.06 3.29,-11.47 0,-6.16 -2.75,-13.6 -12.77,-19.7 -0.03,-0.03 -0.07,-0.05 -0.11,-0.07 -0.12,-0.08 -0.25,-0.16 -0.38,-0.22 -1.29,-0.78 -2.57,-1.46 -3.77,-2.04 z m -39.98,22.2 c 4.31,-1.07 11.3,5.45 15.42,8.88 3.5,3.1 5.03,3.39 5.35,3.48 0.32,0.12 1.71,0.81 6.35,0.45 5.36,-0.25 14.87,-1.24 17.67,2.22 0,0.1 -6.76,-0.67 -11.32,0.07 -4.53,0.96 -10.96,1.57 -13.82,0.58 -2.87,-0.93 -7.63,-5.3 -10.66,-8.79 -3.17,-3.31 -8.98,-6.77 -8.98,-6.88 z m 14.64,-28.29 c 2.07,0 4.28,0.15 6.66,0.48 0.86,0.15 1.69,0.31 2.49,0.48 l 0.12,0.03 v 0 c -24.62,-4.19 -29.36,14.27 -29.45,18.76 -0.06,3.28 0.16,5.49 0.05,6.8 -3.58,1.5 -7.41,2.04 -7.41,2.04 0.21,-2.08 0.2,-6.66 1.09,-10.27 0.84,-3.4 6.51,-18.23 26.45,-18.32 z"
     id="path5" />
  <path
     class="cls-3"
     d="m 226.4,65.76 c 12.92,-5.27 32.32,1.64 32.49,1.7 0.17,0.05 19.83,6.23 26.95,18.23 7.16,12.06 6.21,23.04 1.88,31.06 -4.33,8.02 -8.5,12.55 -8.39,15.23 0.1,2.67 1.25,4.87 1.25,4.87 0,0 -4.96,9.92 -12.27,12.72 0,0 -4.04,10.44 -8.4,13.89 -4.34,3.46 -10.83,7.02 -16.68,11.71 -2.31,1.85 -4.96,2.99 -7.79,3.57 0.19,0.14 0.37,0.28 0.56,0.42 11.77,-0.31 29.37,-1.74 47.8,-6.69 32.45,-8.73 63.27,-38.35 63.27,-38.35 -7.71,25.23 -11.15,33.56 -31.27,47.81 -20.13,14.24 -51.64,18.59 -51.64,18.59 -0.35,1.37 -2.44,2.8 -2.44,2.8 0,0 3.23,1.19 11.15,7.15 7.91,5.96 5.77,5.66 8.29,7.37 2.37,1.59 3.78,1.27 3.94,1.22 h 0.02 c 0.76,1.53 0.86,3.8 0.86,3.8 1.05,0.99 6.22,5.92 1.42,11.02 -4.81,5.1 -10.36,0.36 -10.36,0.36 -1.96,0.42 -3.87,-0.23 -3.87,-0.23 0,0 -10.27,6.47 -20.47,-0.58 -8.3,-5.72 -7.8,-12.51 -7.31,-14.85 -2.8,1.61 -5.81,2.86 -8.9,3.83 -8.33,2.61 -18.95,3.69 -29.51,0.18 -6.93,-2.33 -12.68,-6.38 -17.21,-10.87 -4.54,-4.5 -7.89,-9.46 -10.08,-13.93 -0.33,-0.68 -0.64,-1.36 -0.92,-2.01 -0.73,1.73 -4.2,8.29 -14.97,7.82 -12.39,-0.54 -16.69,-11.89 -16.69,-11.89 0,0 -1.91,-0.64 -3.23,-2.14 0,0 -7.28,0.43 -8.04,-6.54 -0.75,-6.97 6.35,-7.78 7.79,-7.94 0,0 1.44,-1.76 2.97,-2.52 0,0 0.86,1.25 3.9,1.42 3.03,0.16 1.15,-0.9 11.06,-0.87 9.91,0.02 13.19,1.02 13.19,1.02 0,0 -0.8,-2.4 -0.25,-3.71 0,0 -22.51,-22.48 -29.97,-45.98 -7.46,-23.5 -5.18,-32.22 3.88,-57 0,0 6.72,42.22 27.34,68.75 11.77,15.14 25,26.94 34.21,34.29 0.21,0 0.42,0 0.63,0 -1.96,-2.19 -3.46,-4.76 -4.2,-7.7 -1.84,-7.26 -4.86,-14.02 -6.24,-19.39 -1.38,-5.39 1.69,-16.15 1.69,-16.15 -4.13,-6.62 -2.12,-17.53 -2.12,-17.53 0,0 2.24,-1.06 3.94,-3.13 1.69,-2.08 1.11,-8.2 2.49,-17.21 1.38,-9.01 7.25,-18.33 20.23,-23.63 z m 33.5,131.75 c -0.3,-0.38 -0.8,0 -0.8,0 -2.94,2.4 -3.61,6.93 -3.63,8.18 -0.02,1.25 -3.64,9.26 -4.35,11.48 -0.03,0.09 -0.65,2 -0.8,3.15 -0.22,1.77 -0.15,7.19 8.63,10.31 8.04,2.85 14.76,-2.49 15.84,-3.42 2.26,0.16 3.9,-1.01 4.69,-1.8 0.33,-0.32 0.53,-0.57 0.57,-0.63 -0.86,2.84 -2.67,3.54 -3.78,3.7 -0.35,0.05 -0.65,0.05 -0.8,0.03 0.03,0.08 0.03,0.13 0.05,0.2 0.13,0.47 0.1,0.76 0.1,0.76 0,0 0.26,0.13 0.71,0.16 0.64,0.03 1.66,-0.12 2.98,-1.12 0.22,-0.17 0.39,-0.35 0.56,-0.54 -0.51,1.08 -0.11,2.38 0.95,2.96 1.11,0.6 2.49,0.19 3.09,-0.92 0.61,-1.1 0.19,-2.49 -0.92,-3.09 -0.81,-0.44 -1.77,-0.33 -2.46,0.19 0.67,-1.1 0.74,-2.23 0.7,-2.94 0,-0.12 -0.08,-0.67 -0.09,-0.67 v 0 c -0.44,-0.12 -0.86,-0.28 -1.25,-0.47 -0.44,-0.22 -0.86,-0.49 -1.27,-0.8 -0.55,-0.41 -2.17,-1.94 -2.57,-2.33 -0.53,-0.54 -1.07,-1.06 -1.61,-1.6 -0.65,-0.64 -2.08,-1.95 -2.73,-2.46 -0.13,-0.1 -1.59,-1.26 -1.84,-1.46 0.37,0.38 2.95,3.16 3.54,4.72 0.38,0.93 0.6,2.1 0.54,3.11 -0.02,0.29 -0.06,0.54 -0.11,0.77 0,0 0,0.02 0.02,0.02 0,0 -0.02,0 -0.03,0 -0.09,0.42 -0.22,0.78 -0.39,1 -0.32,0.39 -0.82,0.61 -1.2,0.72 0,0 0.02,0 0.03,0.02 0.58,0.46 1.18,0.87 1.67,1.44 -4.97,4.74 -11.62,4.75 -15.46,2.86 -3.74,-1.83 -4.85,-4.1 -4.38,-7.22 -1.01,-0.22 -1.99,-0.85 -2.36,-2.4 0.03,0.03 0.08,0.04 0.11,0.08 0.86,0.7 2.27,0.95 3.15,0.12 0.79,-0.74 1.4,-1.97 1.95,-3.29 0.5,-1.21 0.93,-2.46 1.5,-3.64 0.22,-0.48 0.38,-1.01 0.47,-1.53 0.25,-1.48 -0.06,-3.05 -0.79,-4.36 -0.79,-1.41 -1.2,-3.35 -0.53,-5.35 0.68,-2 1.82,-2.76 2.15,-3.07 0.34,-0.3 0.32,-0.61 0.14,-0.85 z m -0.52,10.32 c 0.76,1.11 1.68,2.93 1.5,5.14 0,0 -0.17,1.14 -0.41,1.82 -0.37,1.05 -0.69,1.89 -0.96,2.58 4.42,1.99 8.6,4.47 11.36,6.35 0.39,-0.13 0.84,-0.35 1.15,-0.73 0.2,-0.26 0.34,-0.69 0.43,-1.19 0.2,-1 0.16,-2.37 -0.38,-3.84 -0.45,-1.28 -1.44,-2.66 -2.4,-3.73 -0.12,-0.1 -0.25,-0.18 -0.37,-0.28 -0.99,-0.71 -2,-1.38 -3.03,-2.04 -1.43,-0.92 -2.88,-1.8 -4.36,-2.65 -0.7,-0.41 -1.4,-0.8 -2.11,-1.19 -0.15,-0.09 -0.29,-0.16 -0.42,-0.23 z m -37.22,-30.66 c -17.14,-5.75 -35.73,2.75 -39.81,7.91 -0.17,0.21 -0.33,0.42 -0.46,0.66 -0.02,0.03 -0.03,0.08 -0.05,0.1 0,0 -0.1,0.16 -0.22,0.48 -1.63,4.86 8.22,25.51 26.81,31.75 18.61,6.24 38.72,-3.74 40.53,-9.15 0.13,-0.39 0.16,-0.71 0.16,-0.71 0.18,-1.28 -0.1,-3.1 -0.81,-5.24 -2.77,-8.21 -11.97,-21.03 -26.15,-25.79 z m 10.85,17.14 c 6.53,3.83 11.39,7.95 13.87,10.9 -3.63,-2.68 -8.35,-5.65 -13.89,-8.48 0.04,-0.81 0.05,-1.62 0.03,-2.42 z m -53.09,-23.7 -0.1,0.02 c -0.28,0.08 -0.48,0.31 -0.4,0.76 0.08,0.44 0.54,1.75 -0.14,3.74 -0.67,2.01 -2.16,3.3 -3.64,3.95 -1.48,0.65 -3.29,2.11 -3.8,4.5 -0.5,2.39 -1.8,5.53 -1.44,7.61 0.13,0.8 0.92,1.88 2.72,1.82 -1.24,1.02 -2.4,0.94 -3.35,0.51 -1.5,2.76 -3.74,3.89 -7.84,3.1 -4.18,-0.8 -9.49,-4.82 -10.59,-11.61 0,-0.12 1.41,-0.13 1.98,-0.13 h 0.25 c -0.24,-0.32 -0.51,-0.8 -0.53,-1.3 0,-0.29 0.11,-0.65 0.29,-1.04 0.04,-0.06 0.22,-0.4 0.26,-0.46 0.5,-0.94 1.47,-1.83 2.39,-2.37 0,0 0.02,-0.02 0.03,-0.02 1.6,-0.96 4.11,-1.54 5.7,-1.63 0.04,0 -0.56,-0.03 -0.86,-0.02 -1.97,0 -3.93,0.2 -5.89,0.48 -1.73,0.24 -3.39,0.54 -4.98,0.53 -0.51,0 -1,-0.04 -1.48,-0.13 -0.44,-0.09 -0.88,-0.22 -1.31,-0.4 0,0 -1.65,1.32 -1.72,3.59 -0.17,-0.93 -0.93,-1.69 -1.91,-1.84 -1.25,-0.19 -2.43,0.67 -2.62,1.93 -0.19,1.25 0.68,2.43 1.94,2.62 1.25,0.19 2.42,-0.67 2.61,-1.93 0,-0.03 0,-0.06 0,-0.1 0.03,0.27 0.09,0.55 0.16,0.84 0.22,0.8 0.51,1.37 0.82,1.8 0.73,1.04 1.53,1.19 1.53,1.19 0,0 0.11,-0.15 0.12,-0.16 0.05,-0.06 0.48,-0.51 0.57,-0.51 -0.54,-0.35 -2.75,-2.06 -1.4,-5.75 0,0 -0.08,3.35 2.7,5.14 0.3,1.38 2.48,9.68 10.62,12.26 8.88,2.83 12.29,-1.41 13.1,-3.01 0.35,-0.73 1.26,-2.99 1.26,-2.99 0.77,-2.2 2.72,-10.78 3.46,-11.78 0.73,-1 2.93,-5.01 2.04,-8.71 0,0 -0.18,-0.61 -0.66,-0.48 l 0.1,-0.02 z M 337.1,149.26 c -0.03,0.07 -1.1,0.95 -2.82,2.34 -0.73,0.61 -1.55,1.26 -2.46,1.99 -10.01,7.91 -30.91,22.13 -64.93,28.26 -8.25,1.48 -16.65,2.29 -24.84,2.65 1.35,1.39 2.59,2.81 3.71,4.25 0,0 3.58,-0.27 4.07,-0.31 6.17,-0.52 12.35,-1.26 18.45,-2.37 15.1,-2.72 26.51,-6.58 31.92,-8.62 1.27,-0.5 2.48,-1.01 3.67,-1.53 v 0 l -0.16,0.14 c 0,0 -22.17,13.19 -55.83,15.61 1.07,1.6 2.02,3.18 2.83,4.74 10.47,-0.59 21.07,-2.05 31.09,-4.82 6.41,-1.78 12.71,-4.03 18.73,-6.87 6.05,-2.85 11.99,-6.28 17.21,-10.49 3.4,-2.75 6.59,-5.71 9.52,-8.97 4.03,-4.47 7.7,-9.8 9.69,-15.52 v 0 l 0.15,-0.45 z m -175.16,28.8 c -1.41,0.28 -3.03,0.78 -4.17,1.53 -1.32,0.86 -2.17,1.92 -2.62,2.83 -0.22,0.47 -0.38,0.9 -0.37,1.22 0.02,0.5 0.25,0.94 0.48,1.28 0,0 7.91,0.42 12.89,1.79 0.19,-0.71 0.45,-1.58 0.79,-2.64 0.22,-0.67 0.51,-1.24 0.83,-1.75 1.19,-1.88 2.96,-2.72 4.25,-3.15 -2.14,-0.35 -4.65,-0.63 -6.8,-0.82 -1.07,-0.1 -2.14,-0.17 -3.23,-0.22 -0.67,-0.03 -1.36,-0.05 -2.04,-0.07 z m 23.01,6.48 c 3.84,-0.85 10.41,-1.25 18.14,-0.33 -0.51,0.63 -0.99,1.29 -1.46,1.97 -6.31,-1.13 -12.05,-1.59 -16.68,-1.63 z m -37.61,-98.96 -0.17,0.49 c -1.12,3.29 -1.54,6.89 -1.72,10.35 -0.31,5.85 0.24,11.74 1.48,17.46 1.31,6.09 3.42,11.94 6,17.6 2.64,5.79 5.9,11.28 9.54,16.5 4.47,6.42 9.58,12.41 15.11,17.94 2.37,2.38 4.82,4.68 7.34,6.91 0.31,0.27 2.83,2.78 3.08,2.66 1.57,-0.75 3.29,-1.44 5.11,-2.08 -25.13,-21.92 -34.93,-45.54 -35.23,-46.27 v 0 l 0.07,0.12 c 0.31,0.57 0.62,1.14 0.96,1.72 0.62,1.02 1.4,2.38 2.41,4.03 4.84,7.75 11.27,16.08 19.89,24.75 0.03,0.03 10.73,10.58 15.3,14.6 1.77,-0.48 3.62,-0.88 5.54,-1.19 -6.35,-5.26 -12.62,-11.02 -18.36,-17.21 -28.95,-31.37 -34.48,-60.53 -36.34,-68.37 v 0 z m 60.09,42.44 c 0,0 0,0.03 -0.02,0.07 -0.18,0.73 -1.61,6.66 -1.94,9.54 -0.04,0.38 -0.07,0.73 -0.09,1.07 -0.14,2.36 0.28,3.7 0.79,5.27 0.57,1.78 3.26,9.41 3.92,11.48 0.09,0.26 0.18,0.59 0.29,0.96 0.71,2.64 1.95,7.76 4.45,10.45 2.84,3.05 5.58,4.43 8.96,5.57 0,0 0.02,0 0.03,0 0.02,0 0.03,0 0.03,0 1.69,0.57 3.29,0.99 4.98,1.18 1.69,0.19 3.47,0.15 5.52,-0.22 4.14,-0.73 8.88,-4.98 10.66,-6.24 1.78,-1.26 8.53,-5.72 10.06,-6.8 1.53,-1.08 2.81,-1.98 4.38,-4.63 1.57,-2.66 4.23,-8.85 4.23,-8.85 0,0 -2.55,-0.5 -3.4,-0.61 0,0 0,0.03 -0.03,0.07 -0.38,0.67 -3.42,6.04 -4.53,7.16 0,0 -0.04,0 -0.09,0.02 -0.4,0.07 -1.98,0.38 -2.77,0.97 -0.91,0.67 -4.19,5.55 -8.49,7.39 0.41,-2.42 -1.16,-3.67 -1.56,-3.63 -0.4,0.04 -0.71,0.99 -0.8,1.24 -0.09,0.24 -0.92,1.88 -1.19,2.65 -0.29,0.77 -0.2,0.83 -0.2,0.83 -0.69,-0.03 -1.38,-0.06 -2.07,-0.11 0.66,-1.25 1.25,-2.48 1.8,-3.71 0.36,-0.93 -0.5,-1.2 -0.66,-1.25 h -0.03 c 0,0 0,-0.02 0,-0.02 -0.61,-0.1 -1.23,-0.19 -1.84,-0.31 h -0.06 c -0.77,-0.14 -1.24,0.35 -1.33,0.64 -0.08,0.19 -0.15,0.39 -0.23,0.58 -0.29,0.67 -0.59,1.36 -0.88,2.03 0,0.04 -0.02,0.09 -0.04,0.12 -0.35,0.86 -0.05,1.57 -0.05,1.57 -0.23,-0.02 -0.8,0 -1.77,-0.19 -0.45,-0.1 -1.05,-0.36 -1.05,-0.36 0.34,-0.28 0.54,-0.8 0.54,-0.8 0.61,-1.5 1.56,-3.81 1.56,-3.81 0,0 0.37,-1 -0.28,-1.19 -0.88,-0.22 -1.76,-0.46 -2.63,-0.72 -0.67,-0.15 -0.95,0.4 -1.02,0.58 -0.14,0.35 -0.37,0.89 -0.46,1.13 -0.34,0.96 -0.67,1.91 -0.99,2.85 0,0.02 0,0.03 0,0.04 -0.21,0.61 -0.04,1.18 -0.04,1.18 0,0 -0.85,-0.17 -1.29,-0.29 -0.45,-0.11 -1.12,-0.59 -1.12,-0.59 0.11,-0.1 0.24,-0.42 0.34,-0.63 0.4,-1.42 0.79,-3.19 1.12,-4.68 0.03,-0.21 0.03,-0.82 -0.6,-1.08 -0.74,-0.28 -1.49,-0.56 -2.21,-0.86 -0.65,-0.2 -0.93,0.34 -1.04,0.65 -0.29,1.34 -0.63,2.95 -0.86,4.12 -0.1,0.81 0.28,1.38 0.28,1.38 -0.34,-0.08 -1.04,-0.38 -1.59,-0.61 -0.37,-0.16 -1.18,-0.69 -1.18,-0.69 0.42,-0.03 0.65,-0.92 0.65,-0.92 0.46,-0.96 0.77,-1.79 1.13,-2.7 0,-0.04 0.03,-0.08 0.04,-0.12 0,-0.03 0.02,-0.04 0.03,-0.09 0.35,-0.96 -0.31,-1.47 -0.42,-1.55 -0.97,-0.48 -2.06,-1.05 -2.07,-1.05 -0.55,-0.29 -0.92,0.1 -1.04,0.48 -0.38,1.08 -0.98,2.07 -1.18,3.26 -0.1,0.67 -0.04,1.14 -0.04,1.14 -1.31,-0.62 -1.8,-1.62 -1.8,-1.62 0.31,-0.37 0.73,-1.7 0.74,-2.94 0,-1.25 0.09,-2.4 -0.49,-2.82 -0.58,-0.41 -1.55,0.63 -2.05,1.37 -0.49,0.73 -0.61,1.17 -0.61,1.17 v 0 0.1 c -2.33,-4.06 -2.01,-9.96 -2.33,-11.04 -0.32,-1.08 -1.69,-2.52 -1.69,-2.52 -0.03,-0.21 -0.03,-0.49 -0.03,-0.84 0.03,-2.26 0.66,-6.93 0.74,-7.59 0,-0.05 0,-0.08 0,-0.08 -0.73,-0.43 -3.08,-1.56 -3.08,-1.56 z m 31.19,-58.66 c -19.94,0.09 -25.61,14.92 -26.45,18.32 -0.89,3.61 -0.88,8.2 -1.09,10.27 0,0 3.83,-0.54 7.41,-2.04 1.94,-0.8 3.8,-1.82 5.23,-3.2 -0.33,0.38 -5.71,6.5 -11.46,7.15 0,0 -1.26,5.54 -2.8,8.34 -1.52,2.81 -4.5,4.73 -4.5,4.73 0,0 -0.22,2.2 -0.22,4.43 0,0.89 0.03,1.79 0.12,2.54 0.05,0.38 0.12,0.73 0.2,1.02 0.68,2.35 0.76,3.84 5.85,6.08 1.74,0.76 3.46,1.57 5.11,2.51 2.47,1.4 5.14,3.05 6.16,5.86 0,0.03 0,0.05 0.03,0.08 0.28,0.71 0.3,1.59 0.11,2.32 0,-0.1 -0.04,-0.22 -0.1,-0.35 -0.22,-0.44 -0.61,-0.76 -0.86,-1.18 0,0 0,-0.02 -0.03,-0.03 -0.55,-0.63 -1.15,-1.21 -1.85,-1.69 v 0 0.03 l -0.02,-0.03 c 0,0 -0.54,1.88 -1.37,3.26 -0.48,0.8 -0.99,1.68 -1.52,2.89 0,0.02 0,0.03 -0.02,0.05 -1.05,2.71 0.17,5.59 0.46,5.6 0.34,0.03 1.05,-0.3 2.41,-4.12 0.03,-0.09 0.1,-0.27 0.15,-0.47 0.03,-0.18 -0.03,-0.51 -0.1,-0.78 0,0 0,-0.02 0.02,-0.04 0.16,-0.62 0.96,-0.57 1.46,-0.51 0.17,0.02 0.35,0.04 0.51,0.09 0.08,0.02 0.15,0.03 0.21,0.05 0.52,0.18 0.8,0.54 0.8,0.73 0,0 -0.28,0.17 -0.48,0.49 -0.2,0.32 -0.54,1.14 -0.64,1.37 -0.35,0.86 -0.6,1.55 -0.89,2.4 -0.02,0.03 -0.02,0.05 -0.02,0.08 -0.24,0.72 0.37,1.03 0.52,1.09 h 0.03 c 0,0 0.09,0.05 0.1,0.05 0.67,0.12 1.38,0.27 2.13,0.42 0,0 1,0.18 1.33,-0.71 0.32,-0.94 0.6,-1.72 0.95,-2.66 0.02,-0.05 0.04,-0.11 0.07,-0.16 v 0 c 0,0 0.03,-0.07 0.03,-0.07 0,0 0.22,-0.65 0.31,-1.04 0.09,-0.36 0.47,-0.99 0.81,-0.99 0.36,0 0.86,0.17 0.8,0.91 -0.06,0.74 -0.2,1.22 -0.22,1.31 0,0.03 -0.02,0.08 -0.02,0.1 -0.33,1.16 -0.99,3.6 -0.99,3.6 -0.32,0.93 0.7,1.23 0.7,1.23 0.62,0.17 1.56,0.32 2.21,0.52 0.04,0 0.08,0.02 0.13,0.03 0,0 0.78,0.25 1.05,0.15 0.29,-0.1 0.47,-0.54 0.52,-0.67 0.04,-0.14 1.08,-3.76 1.19,-4.15 0.08,-0.29 0.04,-0.88 -0.11,-1.22 0.05,0 0.99,0.17 1.52,0.35 0.44,0.16 1.03,0.39 1.32,0.61 -0.45,0.22 -0.74,0.97 -0.77,1.07 0,0.02 -0.02,0.03 -0.02,0.03 -0.07,0.24 -0.16,0.48 -0.22,0.71 -0.33,0.99 -0.76,2.27 -1.1,3.27 -0.05,0.27 -0.1,0.93 0.67,1.23 v 0 l 0.12,0.04 c 0.65,0.24 1.47,0.54 2.08,0.78 0,0 0.2,0.08 0.45,0.08 0.3,0 0.68,-0.11 0.85,-0.63 0.16,-0.48 0.51,-1.53 0.82,-2.49 0.3,-0.95 0.58,-1.82 0.59,-1.92 0,-0.18 0.22,-0.52 0.35,-0.63 0.35,-0.03 0.61,0.03 0.86,0.15 0.29,0.14 0.61,0.49 0.74,0.62 -0.19,0.33 -0.49,1.17 -0.57,1.63 -0.06,0.39 -0.52,2.06 -0.73,2.84 -0.03,0.06 -0.04,0.15 -0.07,0.22 -0.02,0.03 0,0.05 -0.02,0.09 0,0.03 -0.02,0.04 0,0.06 -0.12,0.8 0.66,1.21 0.66,1.21 0.69,0.33 1.36,0.65 1.96,0.95 0,0 0.09,0.03 0.09,0.03 0,0 0.83,0.27 1.11,-0.55 0,-0.03 0.03,-0.05 0.03,-0.06 0.28,-0.86 0.49,-1.58 0.73,-2.46 0.06,-0.24 0.13,-0.48 0.19,-0.73 0.02,-0.03 0.03,-0.1 0.03,-0.19 0.02,-0.06 0.14,-0.49 0.17,-0.76 0.03,-0.14 0.03,-0.27 0.02,-0.36 0,0 0.46,0.18 0.99,0.42 0,0 1.05,0.48 1.26,0.59 0.18,0.1 0.48,0.22 0.59,0.41 0.26,0.36 0.33,0.51 0.33,0.51 v 0 l -0.75,0.12 c -0.14,0 -0.76,0.22 -0.76,0.41 -1.21,3.87 -0.84,4.56 -0.55,4.74 0.24,0.16 2.94,-1.38 3.74,-4.18 0,-0.03 0.45,-2.36 0.55,-3.29 0.16,-1.5 0.79,-3.2 0.86,-3.41 h -0.02 l 0.02,-0.02 c -2.74,-0.13 -4.27,0.95 -4.27,0.95 0.17,-0.42 0.42,-0.77 0.69,-1.09 0.02,-0.02 0.03,-0.02 0.03,-0.03 2.02,-2.33 5.7,-2.24 8.47,-1.88 2.17,0.27 4.32,0.73 6.45,1.24 5.43,1.28 6.38,0.15 8.34,-1.32 1.69,-1.26 3.06,-3.21 4.08,-5.02 0.02,-0.03 0.04,-0.06 0.06,-0.1 0.45,-0.69 0.76,-1.19 0.76,-1.19 0,0 -1.23,-3.33 -0.75,-6.49 0.48,-3.16 2.81,-8.35 2.81,-8.35 -4.32,-4.1 -4.82,-12.62 -4.82,-12.62 0.27,1.73 0.97,3.46 1.88,5.08 1.38,2.5 3.23,4.73 4.59,6.23 1.17,-1.89 3.83,-5.21 5.17,-8.58 1.48,-3.74 7.16,-23.33 -18.62,-35.73 v 0 l -1,-0.42 c -0.55,-0.27 -1.09,-0.51 -1.6,-0.74 -0.52,-0.23 -1.01,-0.44 -1.48,-0.62 -0.35,-0.15 -0.69,-0.28 -1.01,-0.4 -0.25,-0.1 -0.48,-0.18 -0.7,-0.27 -0.77,-0.29 -1.41,-0.49 -1.88,-0.64 -0.1,-0.03 -0.18,-0.06 -0.28,-0.1 -0.95,-0.3 -4.59,-1.4 -9.13,-2.34 v 0 l -0.12,-0.03 c -0.8,-0.16 -1.63,-0.33 -2.49,-0.48 -2.38,-0.34 -4.59,-0.48 -6.66,-0.48 z m -1.56,55.49 c 0.38,-1.14 1.67,-1.77 2.94,-1.45 0.08,0.02 0.15,0.03 0.22,0.06 0.08,0.03 0.16,0.06 0.24,0.09 1.19,0.52 1.83,1.79 1.45,2.93 -0.47,1.41 -0.39,2.59 -0.3,3.81 0.06,2.36 1.14,3.02 0.66,4.48 v 0 l -0.49,1.43 c -0.27,0.83 -1.04,1.35 -1.91,1.48 -0.41,0.05 -0.84,0.05 -1.27,-0.09 -1.34,-0.45 -2.09,-1.82 -1.68,-3.03 0.07,-0.21 -0.05,-0.43 -0.27,-0.51 -0.22,-0.07 -0.44,0.04 -0.51,0.24 -0.41,1.23 -1.83,1.86 -3.18,1.41 -0.43,-0.15 -0.78,-0.41 -1.07,-0.71 -0.61,-0.63 -0.9,-1.5 -0.62,-2.32 v 0 l 0.48,-1.43 c 0.48,-1.46 1.75,-1.33 3.23,-3.18 0.8,-0.92 1.6,-1.8 2.08,-3.22 z m 10.93,-7.38 c 0,0 0.03,0.04 0.05,0.07 0.13,0.19 0.73,1.03 1.66,1.92 v 0 c 0.16,0.16 0.34,0.32 0.52,0.48 0,0 0.03,0.02 0.03,0.03 0.68,0.56 1.47,1.08 2.39,1.38 2.79,0.94 6.86,0.28 11.23,-0.52 0.38,-0.06 0.75,-0.11 1.12,-0.16 3.92,-0.45 7.36,0.42 7.36,0.42 v 0 0.03 c 0,0 -0.07,0 -0.07,0 -0.11,0.02 -0.22,0.03 -0.35,0.05 -1.11,0.39 -1.68,3.01 -1.68,3.01 -0.22,0.79 -0.49,1.56 -0.81,2.31 -0.73,1.69 -1.75,3.35 -3.04,4.69 -0.97,1.01 -2.03,1.51 -3.22,2.18 v 0 c 0,0 -0.68,0.2 -1.04,0.24 -2.68,0.33 -8.32,-0.54 -11.02,-2.39 -0.03,0 -0.04,-0.02 -0.06,-0.03 v 0 c -2.72,-1.62 -3.26,-7.8 -3.27,-9.4 0,-1.59 0.18,-4.26 0.19,-4.31 z m -32.02,-15.29 c 0.2,0.08 3.34,1.45 6.1,4.09 0.28,0.26 0.55,0.53 0.81,0.8 3.01,3.27 5.85,6.26 8.65,7.19 0.91,0.3 1.87,0.37 2.74,0.33 0,0 0.03,0 0.04,0 0.24,0 0.47,-0.03 0.7,-0.05 v 0 c 1.44,-0.18 2.58,-0.56 2.58,-0.56 0,0 -1.49,2.27 -2.46,3.54 -0.98,1.28 -5.13,5.88 -8.26,5.53 -0.03,0 -0.05,-0.02 -0.08,-0.02 -3.28,-0.16 -8.3,-2.87 -10.24,-4.75 -0.26,-0.26 -0.66,-0.82 -0.66,-0.82 -0.06,0.05 -0.12,0.1 -0.19,0.14 0.07,-0.04 0.13,-0.1 0.19,-0.15 0.03,-0.03 -0.62,-1.18 -0.67,-1.26 -1.04,-2.51 -0.8,-5.63 -0.15,-8.14 0.19,-0.73 0.42,-1.46 0.7,-2.17 0,0 1.12,-2.43 0.48,-3.41 -0.08,-0.09 -0.17,-0.17 -0.24,-0.25 h -0.02 c 0,0 0,-0.03 -0.03,-0.04 z"
     id="path6" />
  <path
     class="cls-4"
     d="m 247.07,210.01 c -6.89,4.34 -22.26,8.36 -37.06,3.39 -14.53,-4.88 -24.18,-17.3 -27.28,-24.86 -0.36,-0.79 -0.46,-2.9 1.67,-3.89 0,0 -1.34,0.19 -2.55,1.18 0,0 -0.11,0.16 -0.22,0.48 -1.63,4.85 8.22,25.5 26.81,31.74 18.6,6.24 38.72,-3.73 40.54,-9.14 0.12,-0.39 0.15,-0.71 0.15,-0.71 -0.42,-1.32 -1.23,-2.15 -1.23,-2.15 1.03,1.95 -0.03,3.38 -0.83,3.95"
     id="path7" />
  <path
     class="cls-5"
     d="m 232.99,196.75 c -0.01,0.23 -0.02,0.47 -0.04,0.7 -0.61,-0.31 -1.23,-0.62 -1.86,-0.93 -0.23,1.41 -0.58,2.8 -1.05,4.16 -0.93,-0.54 -1.88,-1.06 -2.84,-1.56 0.42,-1.31 0.75,-2.63 1,-3.96 -1.02,-0.47 -2.07,-0.92 -3.14,-1.37 -0.28,1.26 -0.62,2.53 -1.02,3.78 -0.98,-0.45 -1.97,-0.89 -2.97,-1.3 0.39,-1.22 0.74,-2.44 1.06,-3.66 -1.05,-0.4 -2.11,-0.79 -3.19,-1.17 -0.37,1.18 -0.75,2.37 -1.14,3.57 -1.02,-0.36 -2.03,-0.71 -3.06,-1.03 0.41,-1.19 0.82,-2.38 1.24,-3.54 -1.09,-0.35 -2.17,-0.67 -3.25,-0.98 -0.48,1.16 -0.93,2.34 -1.36,3.55 -1.04,-0.28 -2.09,-0.53 -3.15,-0.76 0.44,-1.23 0.93,-2.44 1.46,-3.61 -1.12,-0.28 -2.24,-0.55 -3.34,-0.79 -0.6,1.21 -1.12,2.45 -1.57,3.74 -1.06,-0.18 -2.14,-0.34 -3.21,-0.47 0.44,-1.35 1,-2.66 1.66,-3.91 -0.69,-0.13 -1.38,-0.26 -2.05,-0.37 0.15,-0.22 0.3,-0.44 0.45,-0.66 -6.31,-1.13 -12.05,-1.59 -16.68,-1.63 3.84,-0.85 10.41,-1.25 18.14,-0.33 0.06,-0.07 0.12,-0.15 0.18,-0.22 0.59,0.07 1.18,0.15 1.78,0.23 0.53,-0.77 1.1,-1.52 1.69,-2.24 1,0.13 1.98,0.28 2.93,0.44 -0.54,0.75 -1.06,1.51 -1.56,2.3 1.06,0.19 2.13,0.41 3.22,0.66 0.44,-0.81 0.9,-1.6 1.38,-2.38 0.91,0.2 1.81,0.41 2.69,0.63 -0.41,0.8 -0.8,1.62 -1.19,2.46 1.01,0.27 2.03,0.56 3.05,0.88 0.32,-0.86 0.65,-1.7 0.97,-2.53 0.86,0.27 1.71,0.55 2.55,0.86 -0.24,0.86 -0.5,1.72 -0.76,2.6 1.01,0.36 2,0.74 2.97,1.13 0.19,-0.89 0.37,-1.78 0.53,-2.66 0.85,0.35 1.69,0.72 2.53,1.12 -0.09,0.9 -0.2,1.8 -0.33,2.7 1.01,0.45 2,0.92 2.96,1.4 0.08,-0.91 0.12,-1.82 0.14,-2.73 0.86,0.45 1.73,0.92 2.61,1.42 0.04,0.91 0.04,1.83 0,2.74 0.53,0.29 1.05,0.58 1.56,0.87 0,0.14 0,0.29 0.01,0.43 6.53,3.83 11.39,7.95 13.87,10.9 -3.63,-2.68 -8.35,-5.65 -13.89,-8.48 z m -10.82,-19.57 c -17.13,-5.75 -35.73,2.75 -39.81,7.91 -0.17,0.21 -0.32,0.43 -0.45,0.66 -0.01,0.02 -0.03,0.07 -0.05,0.09 1.21,-0.99 2.55,-1.18 2.55,-1.18 -2.12,0.98 -2.03,3.1 -1.67,3.89 3.09,7.56 12.75,19.98 27.28,24.86 14.8,4.97 30.18,0.95 37.06,-3.39 0.8,-0.57 1.86,-2 0.83,-3.95 0,0 0.81,0.82 1.23,2.15 0.18,-1.29 -0.1,-3.11 -0.82,-5.24 -2.76,-8.21 -11.96,-21.03 -26.15,-25.8 z"
     id="path8" />
</svg>
