<?xml version="1.0" encoding="UTF-8" standalone="no"?>
<svg
   id="Layer"
   viewBox="0 0 419.9982 395.01002"
   version="1.1"
   width="419.9982"
   height="395.01001"
   xmlns="http://www.w3.org/2000/svg"
   xmlns:svg="http://www.w3.org/2000/svg">
  <defs
     id="defs1">
    <style
       id="style1">
      .cls-1, .cls-2, .cls-3, .cls-4 {
        stroke-width: 0px;
      }

      .cls-2 {
        fill: #ffb612;
      }

      .cls-3 {
        fill: #97233f;
      }

      .cls-4 {
        fill: #fffffe;
      }
    </style>
  </defs>
  <path
     class="cls-4"
     d="m 419.3,320.33 c -31.26,-6.58 -93.27,-0.17 -128.64,74.68 0,0 -60.48,-72.23 -144.52,-84.92 3.3,-40.19 -49.93,-50.87 -60.11,-120.01 0,0 -41.35,-33.87 -62.02,-87.2 l 11.01,3.54 c 0,0 -16.08,-17.81 -28.44,-48.51 l 11.64,3.84 C 18.22,61.75 6.44,45.79 0,0 c 142.65,98.15 217.79,63.9 304.56,113.01 58.89,33.37 72.91,72.11 77.84,110.78 0,0 43.59,39.51 36.9,96.53"
     id="path1" />
  <path
     class="cls-1"
     d="M 413.35,311.97 C 414.28,263.43 376.18,228.95 376.18,228.95 372.07,198.26 360.92,153.88 301.53,121.11 211.35,71.39 161.46,112 19.3,24.88 22.26,41.17 31.63,63.71 43.56,77.71 l -14.7,-4.82 c 10.69,22.53 27.8,42.97 36.76,49.6 l -16.48,-5.18 c 17.45,42.85 51.55,68.23 51.55,68.23 7.77,65.6 55.87,76.78 59.75,117.13 62.66,9.72 128.89,76.85 128.89,76.85 34.68,-59.64 83.03,-71.2 124.01,-67.55"
     id="path2" />
  <path
     class="cls-4"
     d="m 333.1,227.54 c -13.63,21.94 -36.66,15.83 -44.88,-11.53 l 16.61,1.01 c -14.56,-8.72 -27.79,-21.54 -38.02,-34.18 -3.01,60.45 53.85,87.58 72.65,45.13 -2.13,-0.02 -4.25,-0.16 -6.37,-0.42"
     id="path3" />
  <path
     class="cls-3"
     d="M 293.99,129.33 C 228.66,93.51 148.82,116.77 46.8,53.53 c 10.11,30.22 73.25,65.61 73.25,65.61 L 64.17,100.96 c 14.23,24.71 72.48,55.67 72.48,55.67 L 84.54,139.78 c 21.58,35.87 70.55,60.07 70.55,60.07 L 125,197.67 c 3.89,33.72 50.46,62.76 52.94,88.79 21.06,8.05 48.21,22.1 69.37,40.3 40.45,-19.89 29.29,-87.2 -47.83,-182.68 106.08,6.41 103.15,85.1 164.03,73.78 -4.46,-21.14 -7.34,-54.41 -69.52,-88.53"
     id="path4" />
  <path
     class="cls-2"
     d="m 405.73,299.45 c -14.85,-14.79 -46.05,-29.89 -83.99,-34.44 16.16,-4.49 34.56,-14.41 42.1,-29.84 16.08,10.18 38.48,39.3 41.89,64.27 v 0 z m -81.2,20.63 c 6.25,-21.3 -5.12,-40.63 -5.12,-40.63 33.25,-3.26 69.94,12.18 84.79,24.75 -23.22,-4.69 -55,2.02 -79.67,15.88 z"
     id="path5" />
  <path
     class="cls-4"
     d="m 333.1,227.54 c -13.63,21.94 -36.66,15.83 -44.88,-11.53 l 16.61,1.01 c -14.56,-8.72 -27.79,-21.54 -38.02,-34.18 -3.01,60.45 53.85,87.58 72.65,45.13 -2.13,-0.02 -4.25,-0.16 -6.37,-0.42"
     id="path6" />
</svg>
