<?xml version="1.0" encoding="UTF-8" standalone="no"?>
<svg
   id="Layer"
   viewBox="0 0 419.99991 185.2"
   version="1.1"
   width="419.99991"
   height="185.2"
   xmlns="http://www.w3.org/2000/svg"
   xmlns:svg="http://www.w3.org/2000/svg">
  <defs
     id="defs1">
    <style
       id="style1">
      .cls-1 {
        fill: #ffc20e;
      }

      .cls-1, .cls-2, .cls-3 {
        fill-rule: evenodd;
        stroke-width: 0px;
      }

      .cls-2 {
        fill: #fff;
      }

      .cls-3 {
        fill: #0080c6;
      }
    </style>
  </defs>
  <path
     class="cls-2"
     d="M 419.14,185.2 C 395.85,153.84 355.21,115.53 306.78,94.02 l 9.89,22.79 C 275.49,96.07 229.72,81.18 177.83,81.42 l 11.06,11.97 C 93.05,97.14 36.82,144.67 0,185.2 0.86,130.32 40.18,80.76 91.99,50.51 L 81.33,40.61 C 119.88,13.92 173.95,6.44 219.59,11.71 L 213.1,0 c 151.19,11.23 215.22,124.07 206.04,185.2"
     id="path1" />
  <path
     class="cls-3"
     d="M 177.13,88.75 165.51,76.17 c 44.02,-1.46 88.52,5.16 140.29,29.5 l -9.54,-21.98 c 38.98,15.1 82.16,43.29 118.37,87.01 C 411.44,104.5 344.59,18.72 222.99,6.46 l 6.76,12.2 C 180.6,10.31 125.38,19 90.24,41.41 l 10.99,10.2 C 48.34,79.97 13.59,125.1 6.13,170.7 49.79,125.1 106.55,93.6 177.13,88.75"
     id="path2" />
  <path
     class="cls-1"
     d="M 395.66,135.16 C 375.06,79.7 313.08,31.88 243.51,20.43 l 8.17,14.56 C 209.78,22.03 148.89,22.81 108.86,43.7 l 11.48,10.66 C 83.65,70.08 44.94,103.75 29.62,134.68 54.75,112.01 109.42,85.78 154.26,80.2 L 143.12,68.13 c 43.1,-8.54 100.55,-0.09 141.5,16.54 l -7.94,-18.31 c 30.16,6.18 86.22,33.13 118.98,68.78"
     id="path3" />
</svg>
