<?xml version="1.0" encoding="UTF-8" standalone="no"?>
<svg
   id="Layer"
   viewBox="0 0 419.98633 442.23724"
   version="1.1"
   width="419.98633"
   height="442.23724"
   xmlns="http://www.w3.org/2000/svg"
   xmlns:svg="http://www.w3.org/2000/svg">
  <defs
     id="defs1">
    <style
       id="style1">
      .cls-1 {
        fill: #002c5f;
      }

      .cls-1, .cls-2 {
        stroke-width: 0px;
      }

      .cls-2 {
        fill: #fffffe;
      }
    </style>
  </defs>
  <path
     class="cls-2"
     d="m 210.0028,442.22723 c -42.59,0.19 -75.25,-11.97 -90.88,-20.22 -30.619995,-16.07 -55.849995,-37.36 -77.579995,-66.89 -31.22,-42.34 -37.2600004,-76.44 -39.7500004,-95.01 -1.46000001,-9.67 -3.2,-32.9 0.06,-53.75 3.69,-30.08 10.5300004,-45.06 15.4200004,-59.72 3.8,-10.42 16.07,-35.51 23.35,-47.009998 6.18,-9.02 17.48,-25.63 22.09,-31.5 1.26,-1.84 -0.38,-0.97 -1.07,-0.95 -1.69,0.41 -2.56,0.52 -3.86,0.41 -0.98,0 -2.93,-0.33 -4.02,-0.65 -6.08,-1.3 -14.77,-8.03 -13.68,-19.77 -0.22,-2.6 2.6,-24.97 4.78,-31.92 2.82,-9.7600001 8.67,-14.32000007 19.1,-15.19000007 5.21,0 27.14,-0.44 37.099995,1.11999997 19.95,1.98 34.55,7.79 43.24,25.3800001 6.95,15.42 4.57,39.52 -4.99,57.98 -3.26,6.3 -9.77,18.029998 -15.42,25.629998 -5.21,7.6 -7.38,11.52 -11.95,19.98 -4.56,8.9 -19.759995,42.13 -24.969995,63.84 -9.91,40.53 -4.35,63.85 14.759995,95.56 14.12,21.06 30.62,36.27 43.44,43.22 21.07,13.24 49.83,16.94 64.82,16.94 14.99,0 43.75,-3.7 64.83,-16.94 12.81,-6.95 29.31,-22.15 43.42,-43.22 19.11,-31.71 24.68,-55.03 14.77,-95.56 -5.21,-21.71 -20.42,-54.94 -24.97,-63.84 -4.56,-8.46 -6.73,-12.38 -11.95,-19.98 -5.64,-7.6 -12.16,-19.329998 -15.42,-25.629998 -9.55,-18.46 -11.93,-42.56 -4.99,-57.98 8.68,-17.5900001 23.3,-23.4000001 43.24,-25.3800001 9.96,-1.54999997 31.9,-1.11999997 37.1,-1.11999997 10.43,0.87 16.29,5.43999997 19.11,15.20000007 2.17,6.95 5,29.32 4.78,31.92 1.09,11.73 -7.6,18.47 -13.68,19.77 -1.08,0.33 -3.04,0.65 -4.02,0.65 -1.3,0.1 -2.17,0 -3.86,-0.41 -0.69,-0.02 -2.33,-0.89 -1.07,0.95 4.61,5.87 15.9,22.48 22.09,31.5 7.27,11.499998 19.54,36.589998 23.34,47.009998 4.89,14.66 11.72,29.64 15.42,59.72 3.26,20.85 1.52,44.08 0.07,53.75 -2.49,18.57 -8.52,52.66 -39.76,95.01 -21.72,29.54 -46.95,50.82 -77.57,66.89 -15.63,8.25 -48.29,20.02 -90.88,20.22"
     id="path1" />
  <path
     class="cls-1"
     d="m 209.7628,400.36723 c 2.82,0 5.11,-2.29 5.11,-5.1 0,-2.81 -2.29,-5.12 -5.11,-5.12 -2.82,0 -5.11,2.29 -5.11,5.12 0,2.83 2.29,5.1 5.11,5.1 z m -136.029995,-64.71 c 2.83,0 5.11,-2.29 5.11,-5.11 0,-2.82 -2.29,-5.12 -5.11,-5.12 -2.82,0 -5.11,2.29 -5.11,5.12 0,2.83 2.29,5.11 5.11,5.11 z m -30.4,-118.13 c 2.82,0 5.11,-2.29 5.11,-5.11 0,-2.82 -2.29,-5.12 -5.11,-5.12 -2.82,0 -5.11,2.29 -5.11,5.12 0,2.83 2.29,5.11 5.11,5.11 z M 103.2628,78.537232 c 2.83,0 5.11,-2.29 5.11,-5.11 0,-2.82 -2.29,-5.11 -5.11,-5.11 -2.82,0 -5.119995,2.29 -5.119995,5.11 0,2.82 2.289995,5.11 5.119995,5.11 z m 248.15,252.009998 c 0,-2.83 -2.29,-5.12 -5.11,-5.12 -2.82,0 -5.12,2.29 -5.12,5.12 0,2.83 2.3,5.11 5.12,5.11 2.82,0 5.11,-2.29 5.11,-5.11 z m 30.4,-118.13 c 0,-2.83 -2.29,-5.12 -5.12,-5.12 -2.83,0 -5.11,2.29 -5.11,5.12 0,2.83 2.29,5.11 5.11,5.11 2.82,0 5.12,-2.29 5.12,-5.11 z m -59.93,-138.989998 c 0,-2.83 -2.29,-5.11 -5.12,-5.11 -2.83,0 -5.11,2.29 -5.11,5.11 0,2.82 2.29,5.11 5.11,5.11 2.82,0 5.12,-2.29 5.12,-5.11 z m -207.11,334.239998 c -27.789995,-16.5 -52.989995,-37.34 -77.309995,-77.47 -10.86,-19.81 -36.0500004,-61.94 -23.63,-135.34 14.33,-67.11 43.18,-100.989998 59.68,-124.219998 7.81,-11.29 -0.22,-17.81 -6.52,-15.42 -5.28,2 -8.9,2.13 -8.9,2.13 -9.34,-1.26 -8.03,-7.34 -6.3,-23.2 l 2.17,-13.03 c 1.95,-11.5100001 7.16,-11.2900001 20.84,-11.03 21.72,0.43 25.619995,0.61 37.349995,2.78 15.64,3.48 36.05,19.11 19.98,62.11 -9.99,23.02 -20.42,30.829998 -31.71,54.729998 -12.159995,26.5 -41.689995,86 -21.709995,136.82 27.359995,68.19 80.349995,92.51 130.729995,93.38 50.38,-0.66 108.58,-30.41 131.85,-93.38 19.98,-50.82 -9.55,-110.32 -21.72,-136.82 -11.29,-23.89 -21.71,-31.709998 -31.7,-54.729998 -16.07,-42.99 4.35,-58.63 19.98,-62.11 11.72,-2.17 15.64,-2.35 37.35,-2.78 13.68,-0.2600001 18.9,-0.4800001 20.85,11.03 l 2.17,13.03 c 1.73,15.86 3.04,21.93 -6.3,23.2 0,0 -3.62,-0.13 -8.91,-2.13 -6.3,-2.39 -14.34,4.13 -6.52,15.42 16.51,23.24 45.35,57.119998 59.68,124.219998 12.42,73.4 -12.77,115.53 -23.63,135.34 -24.32,40.13 -49.51,60.97 -77.31,77.47 -38.05,26.5 -109.27,24.97 -95.59,24.11 14.34,1.09 -52.34,2.82 -94.9,-24.11 v 0 z"
     id="path2" />
</svg>
