<?xml version="1.0" encoding="UTF-8" standalone="no"?>
<svg
   id="Layer"
   viewBox="0 0 420 228.92"
   version="1.1"
   width="420"
   height="228.92"
   xmlns="http://www.w3.org/2000/svg"
   xmlns:svg="http://www.w3.org/2000/svg">
  <defs
     id="defs1">
    <style
       id="style1">
      .cls-1 {
        fill: #5a1414;
      }

      .cls-1, .cls-2 {
        stroke-width: 0px;
      }

      .cls-2 {
        fill: #ffb612;
      }
    </style>
  </defs>
  <path
     class="cls-2"
     d="M 286.79,0 300.22,41.16 290.23,71.75 266.91,0 H 162.38 L 143.63,57.51 124.96,0 H 0 l 39.25,63.74 53.77,165.18 h 101.19 l 20.34,-62.44 20.28,62.44 h 110.7 L 420,0 Z M 53.23,57.27 27.36,15.28 h 86.5 l 21.73,66.94 -37.12,114.02 z m 129.83,156.72 h -74.28 l 60.66,-186.37 37.08,114.16 -23.47,72.2 z M 181.49,15.28 h 74.32 l 26.43,81.19 -37.2,114.29 z M 334.3,213.89 H 260.04 L 316.23,41.26 307.77,15.28 h 91.14 z"
     id="path1" />
  <path
     class="cls-1"
     d="M 282.18,96.48 244.98,210.77 181.49,15.28 h 74.32 l 26.38,81.21 z m 25.58,-81.21 8.42,25.98 -56.19,172.63 h 74.26 l 64.7,-198.6 h -91.18 z m -193.91,0 H 27.36 L 53.23,57.26 98.55,196.23 135.6,82.2 113.85,15.28 Z m -5.08,198.61 h 74.37 L 206.61,141.77 169.43,27.61 108.76,213.88 Z"
     id="path2" />
</svg>
