<?xml version="1.0" encoding="UTF-8" standalone="no"?>
<svg
   id="Layer"
   viewBox="0 0 420 289.17999"
   version="1.1"
   width="420"
   height="289.17999"
   xmlns="http://www.w3.org/2000/svg"
   xmlns:svg="http://www.w3.org/2000/svg">
  <defs
     id="defs1">
    <style
       id="style1">
      .cls-1, .cls-2, .cls-3, .cls-4 {
        fill-rule: evenodd;
        stroke-width: 0px;
      }

      .cls-2 {
        fill: #a5acaf;
      }

      .cls-3 {
        fill: #fff;
      }

      .cls-4 {
        fill: #004c54;
      }
    </style>
  </defs>
  <path
     class="cls-3"
     d="M 244.68,21.39 224.21,42.85 C 257.75,28.92 330.88,4.99 330.88,4.99 L 307.45,27.91 C 371.4,8.97 420,0 420,0 c 0,0 -14.08,32.77 -35.12,65.6 4.07,-0.44 30.64,-3.53 30.64,-3.53 0,0 -23.92,39.63 -51.55,68.19 l 15.46,3.85 c 0,0 -24.09,34.72 -55.88,63.05 -45.72,40.74 -69.25,34.49 -69.25,34.49 -33.94,24.58 -61.14,12.12 -61.14,12.12 0,0 11.75,-29.66 -0.39,-32.81 -10.94,-2.84 -27.6,5.71 -29.68,9.15 -2.16,7.48 -11.26,26.49 -20.66,38 -18.03,22.05 -38.01,31.07 -38.01,31.07 0,0 -15.74,-13.44 -15.85,-36.31 0,0 -10.81,11.46 -28.42,15.2 -12.32,2.62 -29.14,0.49 -46.37,-13.89 C 2.21,244.5 0,212.06 0,212.06 c 0,0 10.87,-20.77 31.84,-38.97 -4.64,-3.98 -7.48,-8.99 -8.38,-12.08 55.73,-24.32 55.77,-47.54 100.07,-75.77 43.65,-27.81 71.08,-40.6 121.15,-63.85"
     id="path1" />
  <path
     class="cls-4"
     d="M 217.54,41.08 200.03,59.43 C 234.61,44.12 307.63,19.27 307.63,19.27 L 286.44,40 C 361.31,16.82 408.79,8.97 408.79,8.97 c 0,0 -15.52,34.58 -36.17,63.96 10,-0.96 30.85,-3.38 30.85,-3.38 0,0 -20.86,34.94 -51.68,64.54 3.43,0.5 17.41,3.69 17.41,3.69 0,0 -18.59,27.58 -50.9,55.87 -41.24,36.11 -59.53,31.83 -59.53,31.83 0,0 0.4,-1.41 0.36,-3.6 -0.03,-1.21 -0.29,-2.31 -0.3,-2.4 -31.75,29.88 -58.2,19.8 -58.2,19.8 0,0 11.74,-28.43 -6.27,-34.17 -13.95,-4.44 -35.32,6.98 -37.03,13.1 -1.85,6.65 -10.71,25.11 -19.5,35.93 -15.25,18.77 -32.12,27.33 -32.12,27.33 0,0 -15.34,-11.8 -10.02,-46.34 1.16,-7.53 -0.33,-10.47 -1.15,-11.73 -2.52,-3.85 -22.14,0.35 -26.93,11.3 -3.38,7.73 16.12,14.27 16.12,14.27 0,0 -9,9.93 -24.73,13.14 -9.89,2.02 -25.21,1.38 -41.3,-12.55 -9.52,-8.24 -11.49,-36.12 -11.49,-36.12 0,0 11.76,-21.54 34.66,-40.14 -4.52,-2.96 -7.95,-7.97 -8.82,-9.94 46.14,-19.87 52.47,-47.98 104.56,-79.38 24.28,-14.64 49.85,-29.04 80.92,-42.91"
     id="path2" />
  <path
     class="cls-1"
     d="m 391.95,21.27 c 0,0 -9.77,28.72 -30.52,57.87 12.54,-0.88 26.05,-1.62 26.05,-1.62 0,0 -14.53,29.23 -47.34,60.53 1.85,0.38 9.43,1.75 13.65,3.5 -15.85,25.71 -63.23,76.19 -89.7,78.27 -0.3,-4.43 -2.02,-8.2 -4.09,-10.81 -9.94,18.16 -40.27,29.31 -52.87,26.39 15.29,-56.03 -49.59,-34.68 -54.57,-19.3 -12.92,39.94 -45.71,58.73 -45.71,58.73 0,0 -10.48,-11.94 -5.99,-38.83 3.32,-19.82 -9.23,-19.21 -9.23,-19.21 -5,-0.23 -23.98,2.06 -29.97,15.3 -4.83,10.67 12.07,18.15 12.07,18.15 0,0 -24.4,19.48 -52.63,-4.66 -6.92,-5.92 -9.5,-30.93 -9.5,-30.93 13.58,-22.51 31.47,-36.82 38.88,-42.14 -7.86,-3.01 -10.31,-7.09 -10.31,-7.09 37.9,-17.38 52.77,-46.27 85.04,-67.74 35.56,-23.66 62.78,-35.28 62.78,-35.28 l -10.27,12.93 c 0,0 8.6,-3.68 12.35,-5.51 33.86,-16.62 91.24,-34.73 91.24,-34.73 l -17.89,17.33 c 0,0 29.66,-10.16 67.03,-18.14 19.9,-4.25 61.49,-13.01 61.49,-13.01 z M 119.56,152.03 c -0.59,0.73 -1.25,1.57 -1.97,2.45 2.13,0.02 4,0.86 4.98,2.48 1.72,2.88 0.01,7.06 -3.83,9.36 -3.84,2.29 -8.36,1.82 -10.08,-1.06 -0.27,-0.44 -0.43,-0.92 -0.53,-1.41 -0.73,0.52 -1.48,1 -2.26,1.43 0.16,0.56 0.39,1.11 0.7,1.62 2.44,4.06 8.67,4.82 13.92,1.69 5.25,-3.13 7.52,-8.96 5.08,-13.03 -1.24,-2.05 -3.45,-3.25 -6,-3.54 z"
     id="path3" />
  <path
     class="cls-3"
     d="m 259.31,48.61 c 0,0 -8.64,6.18 -14.6,10.14 -8.1,5.37 -15.27,10.57 -15.27,10.57 0,0 0.32,-0.14 0.9,-0.39 67.98,-21.31 124.13,-14.64 124.13,-14.64 -36.75,3.54 -66.47,10.53 -82.24,17.73 0,0 21.77,-3.74 32.84,-3.74 11.07,0 19.68,1.05 19.68,1.05 -69.27,10.81 -106.52,30.83 -115.6,36.22 -3.78,1.61 -5.76,2.61 -5.76,2.61 0,0 11.3,-3.54 25.61,-7.09 25.19,-3.86 62.06,-1.79 97.64,8.77 0,0 -24.66,-1.31 -35.44,-1.07 -32.19,0.72 -65.36,13.66 -65.36,13.66 20.95,-5.28 43.92,-1.39 43.92,-1.39 -8.93,0.51 -30.89,6.38 -41.91,10.92 -15.88,6.54 -31.92,15.85 -43.61,24.45 -4.73,2.81 -7.26,4.65 -7.26,4.65 h 0.01 c 0.31,-0.17 6.26,-3.33 16.09,-7.12 17.21,-5.79 46.37,-10.96 78.75,-0.08 -49.91,-9.94 -89.34,13.44 -89.34,13.44 28.58,-9.34 46.71,-0.53 46.71,-0.53 -34.65,-4.21 -60.48,14.02 -69.38,25.4 5.01,-10.12 12.41,-16.64 12.41,-16.64 -1.78,0.88 -3.54,1.89 -5.28,3 -7.14,4.11 -36.37,18.95 -61.75,3.18 -1.58,-0.98 -2.9,-1.89 -4.05,-2.75 8.44,4.42 22.37,4.8 28.15,-0.89 -20.24,5.22 -23.83,-4.02 -24.27,-9.77 -1.31,0.25 -3.41,0.09 -4.98,-0.28 0,0 3.31,-1.41 4.96,-2.26 0.28,-0.15 0.56,-0.31 0.84,-0.47 0.16,0.56 0.39,1.11 0.7,1.62 2.44,4.06 8.67,4.82 13.92,1.69 5.25,-3.13 7.52,-8.96 5.08,-13.03 -1.24,-2.05 -3.45,-3.25 -6,-3.54 1.82,-2.11 5.32,-6.79 10.73,-10.68 -3.98,4.77 -5.25,8.01 -5.41,8.41 2.44,0.38 4.58,1.43 5.61,3.36 2.03,3.8 0.65,6.78 -0.09,8.31 0,0 0,0 -0.01,0 -1.35,2.86 -3.87,5.69 -7.25,7.82 -4.58,2.89 -9.61,3.8 -13.3,2.76 0,0 0.66,1.21 1.74,1.92 1.79,1.19 7.06,2.93 14.69,-0.51 2.83,-1.28 4.95,-2.73 6.57,-4.2 5.73,-4.3 6.36,-9.81 8.41,-14.64 4.83,-11.41 14.8,-21.29 26.42,-25.39 -11.04,1.35 -24.55,11.3 -24.16,6.86 0.18,-2.07 6.11,-21.78 42.38,-36.86 0.66,-0.24 1.32,-0.48 2,-0.72 0,0 -17.61,2.73 -44.16,18.55 -10.44,6.23 -19.82,14.83 -24.56,21.37 0.21,-4.3 2.53,-8.46 3.94,-11.75 -9.88,6.36 -7.42,15.22 -14.86,23.85 -3.26,3.47 -6.69,6.8 -10.33,9.17 -21.04,13.7 -41.8,5.17 -41.8,5.17 28.19,-15.24 27.35,-18.67 45.92,-38.37 20.82,-22.07 33.62,-33.44 68.66,-50.63 -2.29,2.95 -11.76,11.26 -13.81,13.63 0,0 7.03,-3.76 20.35,-10.08 47.22,-22.42 82.09,-30.77 82.09,-30.77 z m -146.97,111.7 c -0.1,1.63 0.27,3.69 2.27,5.2 0,0 -2.28,0.19 -3.77,-0.91 -0.84,-0.62 -1.2,-1.36 -1.35,-1.79 1,-0.79 1.94,-1.64 2.84,-2.51 z"
     id="path4" />
  <path
     class="cls-2"
     d="m 86.9,175.15 c 0,0 25.68,32.44 66.59,16.31 -1.88,3.32 -2.71,6.99 -3.94,11.32 -9.45,43.96 -41.29,63 -41.29,63 -5.8,-13.16 -2.55,-25.88 -1.57,-30.65 2.25,-10.85 -2.96,-18.93 -2.96,-18.93 20.95,1 0.41,27.09 8.19,38.45 14.08,-8.2 22.57,-37.03 24.66,-47.33 0.15,-0.39 -1.99,-1.9 -3.71,-2.54 -20.23,-6.5 -54.14,-0.94 -66.4,6.48 -38.4,23.24 -2.48,39.18 -2.48,39.18 0,0 -23.64,7.9 -37.18,-13.47 -3.32,-5.67 -4.15,-16 -4.88,-24.08 14.08,-23.83 36.2,-33.3 42.35,-37.54 5.33,1.45 14.99,2.11 22.61,-0.22 z m 81.04,21.56 c 0,0 17.77,-17.33 57.25,-10.36 15.14,2.67 23.52,10.67 23.52,10.67 -6.75,11.74 -20.1,17.48 -20.1,17.48 0,0 0.85,-18.68 -28.81,-23.45 -19.45,-3.13 -31.14,5.14 -31.83,5.64 z m 25.15,-42.77 c 25.92,-10.01 78.83,-24.48 126.77,-0.44 -2.85,6.12 -10.07,15.21 -21.58,26.54 -10.96,10.79 -18.25,13.89 -20.14,14.92 -0.3,0.16 -0.46,0.24 -0.46,0.24 -3.91,-14.81 -36.49,-28.91 -83.36,-17.28 -19.36,4.8 -27.99,10.77 -35.86,18.1 l -0.52,0.49 c 0.57,-1.52 1.22,-2.97 1.9,-4.36 8.89,-11.37 34.73,-29.61 69.38,-25.4 0,0 -18.13,-8.81 -46.71,0.53 0,0 39.43,-23.38 89.34,-13.44 -32.39,-10.88 -61.54,-5.71 -78.75,0.08 z M 77.24,181.7 c -5.1,2.64 -8.91,4.7 -8.91,4.7 -3.01,4.51 3.33,3.61 6.26,2.74 2.38,-0.71 13.08,-3.82 13.08,-3.82 -5.96,-0.57 -8.24,-1.82 -10.43,-3.62 z M 185.88,99.17 c -36.28,15.08 -42.2,34.79 -42.38,36.86 -0.39,4.45 13.11,-5.51 24.16,-6.86 -11.62,4.1 -21.59,13.98 -26.42,25.39 -2.05,4.83 -2.67,10.34 -8.41,14.64 4.83,-4.4 5.02,-8.94 5.02,-9.36 v -0.03 c 0,0 -2.67,1.61 -4.94,1.86 -0.75,0.08 -1.64,-0.05 -2.5,-0.24 1.16,-2.27 1.14,-3.88 1.16,-4.32 3.52,-8.04 12.32,-15.49 12.32,-15.49 0,0 -6.51,3.87 -7.48,0.12 -2.59,-9.98 14.89,-29.69 48.14,-42.09 0.07,-0.03 0.96,-0.35 1.33,-0.48 z m 70.28,-3.73 c 41.52,-6.39 98.86,-0.23 98.86,-0.23 0,0 -2.65,8.43 -15.12,22.1 -11.75,12.9 -16.17,16.29 -16.17,16.29 -67.54,-14.39 -120.77,11.69 -139.48,22.79 11.69,-8.6 27.74,-17.91 43.61,-24.45 11.02,-4.54 32.98,-10.4 41.91,-10.92 0,0 -22.97,-3.89 -43.92,1.39 0,0 33.17,-12.94 65.36,-13.66 10.78,-0.24 35.44,1.07 35.44,1.07 -35.57,-10.56 -72.44,-12.64 -97.64,-8.77 8.56,-2.11 18.19,-4.24 27.15,-5.61 z M 362.6,41.32 c 0,0 -7.05,21.89 -25,39.23 -12.59,1.25 -43.86,2.58 -70.77,7.91 -28.53,5.65 -48.46,13.17 -57.66,17.07 9.08,-5.39 46.34,-25.41 115.6,-36.22 0,0 -8.86,-1.05 -19.68,-1.05 -10.82,0 -32.84,3.74 -32.84,3.74 15.77,-7.2 45.49,-14.19 82.24,-17.73 0,0 -56.15,-6.66 -124.13,14.64 4.76,-2.02 28.61,-11.64 65.51,-18.49 35.48,-6.58 66.75,-9.11 66.75,-9.11 z"
     id="path5" />
</svg>
