<?xml version="1.0" encoding="UTF-8" standalone="no"?>
<svg
   id="Layer"
   viewBox="0 0 399.81027 379.63"
   version="1.1"
   width="399.81027"
   height="379.63"
   xmlns="http://www.w3.org/2000/svg"
   xmlns:svg="http://www.w3.org/2000/svg">
  <defs
     id="defs1">
    <style
       id="style1">
      .cls-1 {
        fill: #a71930;
      }

      .cls-1, .cls-2, .cls-3, .cls-4 {
        stroke-width: 0px;
      }

      .cls-3 {
        fill: #fffffe;
      }

      .cls-4 {
        fill: #a5acaf;
      }
    </style>
  </defs>
  <path
     class="cls-4"
     d="M 375,81.43 C 321.15,47.42 197.8,21.4 105.79,0 L 0,113.77 90.81,111.83 c -45.21,73.09 -36,244.95 78.34,267.8 -5.89,-11.29 -16.11,-32.03 -2.86,-57.71 9.44,-18.26 61.89,-118.66 61.89,-118.66 h 12.56 c 17.01,0 22.6,6.4 15.06,15.41 45.33,-0.58 73.16,-17.73 85.65,-36.05 -9.51,-17.41 -39.76,-37.9 -52.02,-46.2 h 63.42 c 18.19,0 22.29,7.62 18.01,15.92 29.68,-5.84 44.85,-45.2 4.14,-70.91"
     id="path1" />
  <path
     class="cls-3"
     d="M 367.76,84.9 C 294.41,43.74 112.79,16.3 112.79,16.3 l -77.8,83.38 h 80.66 c -59.56,78.73 -46.36,237.67 41.22,270.71 -6.21,-14.78 -9.36,-31.93 1.84,-53.76 12.63,-24.61 32.74,-65.98 61.55,-121.22 h 23.51 c 19.51,0 25.75,8.25 23.1,14.62 16.05,0 45.38,-1.57 66.67,-27.42 -17.73,-24.79 -76.37,-53.69 -76.37,-53.69 h 100.59 c 14.78,0 22.17,5.26 20.13,14.17 25.7,-12.55 19.02,-41.85 -10.14,-58.21"
     id="path2" />
  <path
     class="cls-2"
     d="m 248.7,131.64 c 0,0 64.83,31.74 77.43,50.98 -6.64,8.84 -16.79,15.03 -30.39,18.13 8.69,-6.67 10.33,-13.09 4.99,-13.09 h -19.22 c -3.28,3.23 -5.03,9.07 -0.63,14.95 -7.43,-1.63 -14.58,-7.74 -15.14,-14.95 h -40.69 c 5.43,-10.88 21.11,-41.96 25.49,-50.52 l -1.85,-5.5 v 0 z m 116,-41.21 c 28.39,15.58 26.51,37.05 18.12,44.14 0.15,-7.66 -7.38,-13.37 -20.96,-13.37 H 229.23 l 14.26,7.64 c 0,0 -85.36,170.05 -91.91,183.47 -7.56,15.51 -9.64,32.92 -3.12,47.42 -16.89,-10.71 -30.15,-27.95 -39.48,-48.96 l -7.58,-0.52 80.51,-118.2 c -0.17,-0.76 -0.32,-1.53 -0.45,-2.29 l -81.29,95.88 c -4.16,-15.46 -6.56,-32.13 -7.08,-49.23 l -9.21,-2.31 99.86,-78.84 c 0.25,-0.84 0.51,-1.67 0.78,-2.5 l -90.55,54.99 c 1.37,-15.17 4.22,-30.33 8.62,-44.96 l -9.37,-5.31 106.58,-35.54 c 0.48,-0.73 0.96,-1.45 1.45,-2.16 l -89.46,18.29 c 4.83,-10.77 10.59,-21.05 17.35,-30.58 l -8.29,-7.82 h 106.99 c 0.3,-0.6 0.59,-1.19 0.89,-1.76 L 69.44,85.72 114.73,36.93 107.65,27.91 c 0,0 195.37,28.64 257.05,62.5 v 0 z"
     id="path3" />
  <path
     class="cls-3"
     d="m 371.72,102.66 1.7,7.54 c -11.61,2.18 -32.15,3.92 -37.95,4.39 -0.28,0.58 -0.58,1.16 -0.88,1.75 h 30.57 c 12.13,0 17.24,5.76 18.32,9.06 1.59,-4.53 0.12,-16.67 -11.76,-22.74 z m -34,-14.9 c 6.78,2.26 22.04,10.78 27.81,17.44 H 354.57 C 350.25,98.09 337.72,87.76 337.72,87.76 Z"
     id="path4" />
  <path
     class="cls-1"
     d="m 108.4,181.95 65.15,-35.6 c 0.35,-0.88 0.72,-1.77 1.1,-2.65 l -62.7,22.54 c -1.39,5.17 -2.57,10.42 -3.55,15.71 z m 29.13,-70.6 c -2.87,3.94 -5.54,8.04 -8.02,12.27 l 63.73,-11.39 c 0.56,-0.73 1.12,-1.47 1.69,-2.18 l -57.4,1.31 v 0 z m 40.43,117.26 c -0.42,-0.76 -0.84,-1.53 -1.24,-2.29 l -52.91,79.82 c 2.78,5.26 5.85,10.18 9.18,14.7 l 44.96,-92.22 z m -70.67,25.33 58.81,-65.64 c -0.05,-0.94 -0.08,-1.87 -0.1,-2.81 l -60.62,51.56 c 0.41,5.71 1.05,11.36 1.9,16.89 v 0 z m 183.15,-75.15 -46.17,-6.9 -4.68,9.07 h 49.77 l 1.09,-2.18 v 0 z m 31.89,-82.6 -211.4,-29.27 12.93,-14.01 c 71.21,11.01 156.37,28.42 199.61,41.02 -0.37,0.74 -0.75,1.5 -1.14,2.27 v 0 z"
     id="path5" />
</svg>
