<?xml version="1.0" encoding="UTF-8" standalone="no"?>
<svg
   id="Layer"
   viewBox="0 0 420 326.04718"
   version="1.1"
   width="420"
   height="326.04718"
   xmlns="http://www.w3.org/2000/svg"
   xmlns:svg="http://www.w3.org/2000/svg">
  <defs
     id="defs1">
    <style
       id="style1">
      .cls-1 {
        fill: #a71930;
      }

      .cls-1, .cls-2 {
        stroke-width: 0px;
      }

      .cls-2 {
        fill: #fffffe;
      }
    </style>
  </defs>
  <path
     class="cls-1"
     d="m 419.98,256.56718 c 0,0.54 0.02,13.92 0.02,14.45 0,36.39 -24.54,47.9 -35.26,51.18 -7.84,2.22 -17.16,3.34 -27.07,3.85 H 32.14 v -66.9 h 300.34 c 8.15,-0.19 13.29,-2.84 15.62,-7.89 0.94,-2.65 1.19,-4.78 1.19,-8.18 v -14.28 c -4.79,3.2 -13.3,5.88 -13.3,5.88 -18.41,6.51 -52.52,1.41 -66.57,-9.72 -13.97,-7.94 -24.96,-24.88 -26.11,-43.41 V 69.047184 c 0,-4.83 -3.9,-8.74 -8.71,-8.74 H 216.69 V 2.7771841 h 97.1 l -0.1,153.5599959 c -0.03,9.18 8.17,16.58 17.85,16.58 3.37,0 6.49,-0.91 9.17,-2.45 4.63,-2.66 7.87,-7.25 8.55,-12.62 0.06,-0.68 0.1,-1.35 0.12,-2.04 0.1,-1.74 0.13,-3.52 0.13,-5.3 V 2.7771841 h 70.29 l 0.18,253.7799959 v 0 z m -206.74,-79.46 h 16.27 v 55.35 h -64.4 c -12.75,0 -23.58,-8.07 -27.79,-19.38 -1.2,-3.22 -1.88,-6.69 -1.88,-10.33 V 78.007184 c -0.21,-9 -7.86,-16.24 -17.29,-16.24 -9.43,0 -17.32,7.43 -17.32,16.59 v 0 1.61 c 0,0 -0.01,152.929996 -0.01,152.929996 H 32.17 V 69.217184 c 0,-4.82 -3.89,-8.74 -8.72,-8.74 H 0 L 0.02,2.7771841 H 100.78 V 13.757184 c 16.39,-12.5399999 40.5,-16.9999999 62.91,-11.3299999 14.16,3.7 24.67,10.2799999 32.96,22.3699999 3.97,5.8 5.94,11.66 6.94,16.21 0.59,2.67 0.83,4.88 0.92,6.33 v 63.069996 c 0,0 0,3.14 0,8.22 v 41.96 c 0,2.1 0,4.19 -0.01,6.22 v 0.37 c 0,0 0.01,1.21 0.01,1.21 0,4.83 3.92,8.73 8.73,8.73 v 0 z"
     id="path1" />
  <path
     class="cls-2"
     d="m 274.19,216.51718 c -11.75,-6.69 -20.25,-20.9 -21.19,-35.4 V 69.057184 c 0,-10.17 -8.26,-18.45 -18.41,-18.45 h -8.22 v -38.11 h 77.72 c -0.01,17.04 -0.1,143.909996 -0.1,143.939996 0,6.69 2.7,13.07 7.56,17.96 5.21,5.25 12.5,8.24 19.99,8.24 4.91,0 9.75,-1.29 14,-3.74 7.32,-4.23 12.31,-11.64 13.33,-19.84 l 0.04,-0.28 0.17,-2.49 0.13,-5.79 V 12.487184 h 50.92 c 0.01,17.95 0.17,258.529996 0.17,258.529996 0,28.88 -17.8,38.66 -28.4,41.91 -6.89,1.93 -15.45,2.93 -24.56,3.41 -0.63,0 -297.31,0.03 -315.52,0 v -47.47 h 290.65 c 15.22,-0.37 21.65,-7.56 24.41,-13.52 l 0.21,-0.43 0.14,-0.44 c 1.45,-4.12 1.73,-7.42 1.73,-11.4 v -32.46 l -15.09,10.1 c -2.61,1.77 -8.02,3.82 -10.83,4.71 l -0.3,0.09 c -15.17,5.38 -45.73,1.01 -57.34,-8.18 l -0.57,-0.45 -0.65,-0.37 v 0 z m -79.38,-48.14 c 0,10.17 8.26,18.45 18.42,18.45 h 6.57 v 35.92 h -54.7 c -8.29,0 -15.79,-5.24 -18.69,-13.05 -0.85,-2.27 -1.28,-4.61 -1.28,-6.95 V 78.007184 c -0.32,-14.4 -12.42,-25.94 -26.98,-25.94 -14.56,0 -27.01,11.8 -27.02,26.29 0,-0.06 -0.01,1.55 -0.01,1.55 V 223.18718 H 41.85 V 69.217184 c 0,-10.17 -8.25,-18.45 -18.41,-18.45 H 9.69 v -38.28 h 81.4 v 20.93 l 15.58,-11.94 c 14.21,-10.87 35.15,-14.5799999 54.64,-9.64 12.51,3.27 20.72,8.79 27.33,18.45 2.61,3.81 4.45,8.11 5.48,12.8 0,0 0.63,4.32 0.7,4.76 v 62.539996 c 0,0 0,8.26 0,8.26 v 48.35 c 0,0 0,0.41 0,0.41 v 0.97 0 z"
     id="path2" />
</svg>
