<?xml version="1.0" encoding="UTF-8" standalone="no"?>
<svg
   id="Layer"
   viewBox="0 0 420.00229 250.55"
   version="1.1"
   width="420.00229"
   height="250.55"
   xmlns="http://www.w3.org/2000/svg"
   xmlns:svg="http://www.w3.org/2000/svg">
  <defs
     id="defs1">
    <style
       id="style1">
      .cls-1 {
        fill: #fff;
      }

      .cls-1, .cls-2 {
        stroke-width: 0px;
      }

      .cls-2 {
        fill: #115740;
      }
    </style>
  </defs>
  <path
     class="cls-1"
     d="m 210.00115,250.55 c -29.48,0 -78.65,-7.74 -120.170001,-29.58 -40.64,-21.37 -70.18,-46.16 -83.1899996,-69.81 -4.4,-8.02 -6.69999998,-16.96 -6.63999998,-25.89 -0.06,-8.93 2.22999998,-17.88 6.63999998,-25.87 C 19.651149,75.75 49.191149,50.95 89.831149,29.59 131.36115,7.74 180.52115,0 210.00115,0 c 29.48,0 78.64,7.74 120.17,29.58 40.64,21.37 70.18,46.16 83.19,69.81 4.4,8 6.7,16.94 6.64,25.87 0.06,8.93 -2.23,17.88 -6.64,25.87 -13.01,23.65 -42.55,48.45 -83.19,69.81 -41.52,21.83 -90.69,29.59 -120.17,29.59"
     id="path1" />
  <path
     class="cls-2"
     d="m 408.19115,125.27 c 0.06,-7.18 -1.8,-14.27 -5.27,-20.57 -11.71,-21.29 -39.96,-44.94 -78.42,-65.16 -39.6,-20.82 -86.29,-28.19 -114.5,-28.19 -28.21,0 -74.9,7.37 -114.500001,28.19 -38.46,20.22 -66.7,43.86 -78.42,65.16 -3.46,6.29 -5.33,13.38 -5.27,20.57 -0.06,7.18 1.81,14.27 5.27,20.57 11.71,21.29 39.96,44.94 78.42,65.16 39.600001,20.82 86.290001,28.19 114.500001,28.19 28.21,0 74.9,-7.37 114.5,-28.19 38.46,-20.22 66.7,-43.87 78.42,-65.16 3.46,-6.29 5.33,-13.38 5.27,-20.57 z"
     id="path2" />
  <path
     class="cls-1"
     d="m 303.95115,104.56 -12.95,22.44 c -1.37,2.38 -0.31,5.42 2.24,6.43 l 23.6,9.32 h -50.65 l -7.78,13.47 h 76.01 c 1.6,0 3.09,-0.86 3.89,-2.24 l 12.95,-22.44 c 1.37,-2.38 0.31,-5.42 -2.24,-6.43 l -29.3,-11.56 h 41.92 l 6.48,-11.23 h -60.29 c -1.6,0 -3.09,0.86 -3.89,2.24 v 0 z"
     id="path3" />
  <path
     class="cls-1"
     d="m 289.78115,113.55 6.48,-11.23 h -71.87 l -6.48,11.23 h 17.97 l -24.64,42.67 h 35.94 l 24.64,-42.67 h 17.97 z"
     id="path4" />
  <path
     class="cls-1"
     d="m 208.92115,113.55 6.49,-11.23 h -58.39 l -31.12,53.9 h 74.11 l 7.78,-13.48 h -38.18 l 5.19,-8.98 h 20.2 l 6.48,-11.23 h -20.21 l 5.19,-8.98 h 22.45 z"
     id="path5" />
  <path
     class="cls-1"
     d="m 360.18115,88.66 c 0,0 -5.33,-1.08 -20.97,-2.16 l -54.85,-5.39 c -30.15,-2.66 -56.61,-9.59 -81.14,-26.81 h -0.82 l 20.71,33.42 h -104.81 L 87.831149,140.5 c -0.81,1.39 -2.28,2.24 -3.89,2.24 h -33.34 l -7.78,13.47 h 66.680001 c 3.21,0 6.17,-1.71 7.78,-4.49 l 33.72,-58.39 h 222.34 c -2.76,-1.61 -7.2,-3.65 -13.14,-4.68 v 0 z"
     id="path6" />
</svg>
