<?xml version="1.0" encoding="UTF-8" standalone="no"?>
<svg
   id="Layer"
   viewBox="0 0 420 577.59998"
   version="1.1"
   width="420"
   height="577.59998"
   xmlns="http://www.w3.org/2000/svg"
   xmlns:svg="http://www.w3.org/2000/svg">
  <defs
     id="defs1">
    <style
       id="style1">
      .cls-1 {
        fill: #013369;
      }

      .cls-1, .cls-2, .cls-3 {
        stroke-width: 0px;
      }

      .cls-2 {
        fill: #fff;
      }

      .cls-3 {
        fill: #d50a0a;
      }
    </style>
  </defs>
  <path
     class="cls-2"
     d="M 406.18,65.59 C 388.05,78.53 353.59,96.32 309.08,85.36 232.08,66.31 210,0 210,0 210,0 187.92,66.49 110.92,85.36 66.41,96.32 31.95,78.71 13.82,65.59 H 0 v 358.17 c 0,8.99 2.15,26.96 16.87,44.75 18.13,22.1 48.82,36.3 91.36,42.41 33.92,4.85 58.87,15.64 76.46,32.53 12.92,12.58 25.31,34.15 25.31,34.15 0,0 12.74,-22.1 25.31,-34.15 17.59,-17.07 42.72,-27.68 76.46,-32.53 42.54,-6.11 73.23,-20.49 91.36,-42.41 C 417.85,450.72 420,432.75 420,423.76 V 65.59 Z"
     id="path1" />
  <path
     class="cls-1"
     d="m 407.44,79.61 c 0,0 -42.18,32.89 -101.41,17.97 C 236.93,80.33 210,28.39 210,28.39 c 0,0 -26.92,51.94 -96.03,69.19 C 54.74,112.5 12.56,79.61 12.56,79.61 v 344.15 c 0,11.68 4.85,61.28 97.46,74.76 36.62,5.21 63.9,17.07 83.46,35.94 7,6.83 12.38,13.66 16.51,19.95 4.13,-6.29 9.51,-13.3 16.51,-19.95 19.56,-18.87 46.85,-30.73 83.46,-35.94 92.62,-13.48 97.46,-63.08 97.46,-74.76 v -344.15 0 z"
     id="path2" />
  <path
     class="cls-2"
     d="m 210,519.55 c 0,0 26.92,-33.07 96.56,-43.85 79.87,-12.4 77.54,-49.96 77.54,-51.76 V 243.51 H 35.72 v 180.25 c 0,1.98 -2.33,39.54 77.54,51.76 69.82,10.78 96.74,44.03 96.74,44.03 z"
     id="path3" />
  <path
     class="cls-3"
     d="m 128.87,375.24 v -85.72 l -10.77,-6.11 v -22.28 h 48.82 v 22.28 l -10.23,6.11 V 464.38 L 130.48,456.47 92.61,344.69 v 73.68 l 12.03,9.16 v 22.64 l -52.41,-13.3 v -19.41 l 12.03,-4.67 V 289.33 L 52.05,283.4 v -22.28 h 39.67 z m 89.92,78.36 10.41,12.58 v 22.28 l -52.05,-19.41 v -18.87 l 11.49,-4.67 V 289.7 l -11.49,-5.75 v -22.46 h 90.28 v 45.29 h -19.92 l -6.1,-18.51 h -22.97 v 52.3 h 17.23 l 6.82,-9.88 h 13.82 v 46.19 h -13.82 l -6.46,-9.35 h -17.59 v 86.08 h 0.36 v 0 z m 57.44,7.91 v -22.28 l 12.92,-10.6 v -139.1 l -10.95,-5.75 v -22.46 h 52.05 v 22.46 l -10.23,5.75 V 420 l 22.44,-6.11 4.31,-34.15 h 21.18 v 57.15 z"
     id="path4" />
  <path
     class="cls-2"
     d="M 44.87,206.49 29.08,194.63 h 19.2 l 6.28,-18.33 6.28,18.33 h 19.2 L 64.25,206.49 69.99,225 54.37,214.04 38.75,225 l 6.1,-18.51 v 0 z m 68.39,0 -15.79,-11.86 h 19.2 l 6.28,-18.33 6.28,18.33 h 19.2 l -15.79,11.86 5.74,18.51 -15.62,-10.96 -15.62,10.96 6.1,-18.51 v 0 z M 44.87,144.85 29.08,132.99 h 19.2 l 6.28,-18.33 6.28,18.33 h 19.2 l -15.79,11.86 5.74,18.51 -15.62,-10.96 -15.62,10.96 6.1,-18.51 v 0 z m 68.39,0 -15.79,-11.86 h 19.2 l 6.28,-18.33 6.28,18.33 h 19.2 l -15.79,11.86 5.74,18.51 -15.62,-10.96 -15.62,10.96 6.1,-18.51 v 0 z m 267.62,80.33 -15.62,-10.96 -15.62,10.96 5.74,-18.51 -15.79,-11.86 h 19.38 l 6.28,-18.33 6.28,18.33 h 19.2 l -15.79,11.86 5.92,18.51 v 0 z m -68.21,0 -15.62,-10.96 -15.62,10.96 5.74,-18.51 -15.79,-11.86 h 19.2 l 6.28,-18.33 6.28,18.33 h 19.2 l -15.79,11.86 6.1,18.51 v 0 z m 68.21,-61.82 -15.62,-10.96 -15.62,10.96 5.74,-18.51 -15.79,-11.86 h 19.38 l 6.28,-18.33 6.28,18.33 h 19.2 l -15.79,11.86 5.92,18.51 v 0 z m -68.21,0 -15.62,-10.96 -15.62,10.96 5.74,-18.51 -15.79,-11.86 h 19.2 l 6.28,-18.33 6.28,18.33 h 19.2 l -15.79,11.86 6.1,18.51 v 0 z M 253.44,95.25 c 1.62,-0.18 2.51,1.8 3.41,3.05 6.82,17.25 8.62,38.28 3.41,58.41 -7.9,30.73 -33.74,58.95 -89.21,66.13 -1.26,0.18 -2.69,-0.18 -2.87,-0.9 2.51,-11.68 8.79,-33.97 22.26,-57.51 2.51,1.62 5.03,3.23 7.36,5.03 0.9,-1.44 1.97,-3.05 3.59,-5.75 -6.82,-5.39 -14.72,-9.16 -23.51,-10.78 0,0 -1.62,3.41 -2.87,5.93 0,0 3.41,0.72 7.54,2.16 -12.03,25.52 -16.15,49.24 -17.23,60.02 -3.41,-5.39 -6.1,-17.97 -7,-24.8 -8.79,-64.7 37.69,-102.44 88.31,-103.16 3.41,-0.18 4.67,0.54 4.67,0.54 0,0 -11.13,4.13 -24.05,14.02 0,0 -3.05,-1.26 -6.28,-2.16 -1.97,1.26 -4.13,2.7 -6.1,4.13 6.1,1.44 13.82,4.49 21.18,10.6 1.62,-1.44 3.23,-3.05 5.03,-4.67 -1.8,-1.44 -4.67,-3.41 -7.18,-4.85 11.49,-11.14 19.56,-15.46 19.56,-15.46 v 0 z m -47.74,61.1 c 1.26,-1.8 2.69,-3.95 4.13,-6.11 -5.74,-4.85 -14,-9.53 -24.05,-11.5 -1.44,2.16 -3.95,6.29 -3.95,6.29 8.26,1.62 16.69,5.39 23.87,11.32 z m 9.15,-12.76 c 1.44,-1.98 2.87,-3.77 4.49,-5.75 -7.9,-6.47 -16.87,-10.24 -23.87,-11.5 -1.62,1.8 -3.23,3.77 -4.67,5.57 9.15,1.8 17.41,6.11 24.05,11.68 z m 10.23,-12.22 c 1.44,-1.8 3.05,-3.41 5.03,-5.21 -4.85,-3.95 -11.85,-8.63 -22.26,-11.14 -1.8,1.44 -3.95,3.05 -5.92,5.03 8.26,1.8 16.15,5.57 23.15,11.32 z"
     id="path5" />
</svg>
