<?xml version="1.0" encoding="UTF-8" standalone="no"?>
<svg
   id="Layer"
   viewBox="0 0 420.01001 275.63001"
   version="1.1"
   width="420.01001"
   height="275.63"
   xmlns="http://www.w3.org/2000/svg"
   xmlns:svg="http://www.w3.org/2000/svg">
  <defs
     id="defs1">
    <style
       id="style1">
      .cls-1 {
        fill: #203731;
      }

      .cls-1, .cls-2, .cls-3 {
        stroke-width: 0px;
      }

      .cls-2 {
        fill: #ffb612;
      }

      .cls-3 {
        fill: #fffffe;
      }
    </style>
  </defs>
  <path
     class="cls-2"
     d="M 208.89,0 C 95.66,0.01 0,63.45 0,138.53 c 0,75.08 89.81,137.1 208.89,137.1 69.5,0 135.39,-24.42 176.27,-65.31 22.5,-22.51 34.87,-48.01 34.85,-71.79 C 419.98,101.51 398.19,66.73 358.67,40.61 319.02,14.42 265.84,0 208.89,0"
     id="path1" />
  <path
     class="cls-1"
     d="M 62.81,230.34 C 26.48,206.12 6.47,173.51 6.47,138.53 6.47,68.19 101.06,6.48 208.89,6.47 c 112.78,0 204.58,59.24 204.65,132.07 0.02,22.06 -11.68,45.93 -32.96,67.22 -39.68,39.71 -103.87,63.42 -171.69,63.42 -56.66,0 -108.55,-13.79 -146.08,-38.83"
     id="path2" />
  <path
     class="cls-3"
     d="m 299.5,102.25 c -16.26,-24.21 -51.87,-41 -93.79,-41 -57.54,0 -104.2,31.64 -104.2,70.67 0,39.03 32.94,73.29 104.2,73.25 42.8,-0.02 77.21,-18.5 93.28,-42.77 l -121.56,0.21 -0.37,-31.57 211.02,-0.07 c 0.28,2.53 0.58,5 0.58,7.56 0,60.76 -80.49,110.02 -179.77,110.02 -99.28,0 -179.76,-49.25 -179.76,-110.02 0,-60.77 85.26,-111.87 179.76,-112.24 78.65,-0.3 145.51,32.19 169.89,75.92 l -79.28,0.05"
     id="path3" />
</svg>
