<?xml version="1.0" encoding="UTF-8" standalone="no"?>
<svg
   id="Layer"
   viewBox="0 0 419.98999 228.08564"
   version="1.1"
   width="419.98999"
   height="228.08563"
   xmlns="http://www.w3.org/2000/svg"
   xmlns:svg="http://www.w3.org/2000/svg">
  <defs
     id="defs1">
    <style
       id="style1">
      .cls-1, .cls-2, .cls-3 {
        stroke-width: 0px;
      }

      .cls-2 {
        fill: #bfc0bf;
      }

      .cls-3 {
        fill: #0085ca;
      }
    </style>
  </defs>
  <path
     class="cls-1"
     d="m 385.03,22.139455 z m -60.09,89.940005 c 0,0 4.97,-10.94 2.73,-24.360005 0,0 -9.44,-3.48 -26.59,0 0,0 -8.21,18.380005 -18.65,27.330005 0,0 7.96,-18.640005 3.23,-32.560005 0,0 14.42,-5.72 32.08,-4.47 17.65,1.24 21.62,4.98 21.62,4.98 0,0 -4.47,21.120005 -14.42,29.080005 z m -11.4,38.51 c 8.21,-6 7.33,-17.75 7.33,-17.75 1.99,4.65 3.1,10.87 1.99,15.32 -1.11,4.43 -3.99,8.87 -15.98,9.97 -11.99,1.12 -18.87,-2.66 -18.87,-2.66 5.33,-5.32 10.51,-19.74 10.51,-19.74 2.67,10.22 0.4,14.94 0.4,14.94 5.77,1.77 14.62,-0.08 14.62,-0.08 z m 18.88,-1.94 c 2.89,21.09 -15.87,29.94 -26.29,29.94 -10.42,0 -24.76,-4.43 -30.23,-22.13 -5.47,-17.71 -5.47,-39.59 1.56,-50.27 0,0 -4.68,21.1 -2.08,33.08 2.6,11.98 7.55,22.14 17.19,23.97 9.64,1.82 23.98,1.3 29.18,-4.7 5.22,-5.99 7.3,-14.58 2.09,-26.31 -5.22,-11.71 -15.64,-26.83 1.58,-41.920005 0,0 -7.57,9.11 -4.7,22.400005 2.86,13.28 8.8,14.86 11.7,35.95 v 0 z M 265.09,61.419455 c -39.26,-5.4 -71.47,2.62 -71.47,2.62 31.63,-10.19 60.38,-8.92 74.55,-7.29 -1.33,1.63 -2.35,3.19 -3.09,4.67 v 0 z m -1.84,9.76 c -38.37,-2.66 -68.8,6.75 -68.8,6.75 27.67,-10.64 53.56,-12.04 68.95,-11.61 -0.35,1.85 -0.33,3.5 -0.15,4.87 v 0 z m -64.63,55.480005 c -14.65,-17.97 -8.48,-41.980005 -8.48,-41.980005 0,0 0.55,20.590005 18.52,38.790005 17.98,18.2 40.3,23.12 40.3,23.12 0,0 -35.69,-1.96 -50.34,-19.93 z m 78.84,-78.210005 c -2.02,1.4 -3.76,2.78 -5.27,4.13 -42.02,-9.92 -78.76,-2.89 -78.76,-2.89 45.5,-11.93 84.03,-1.24 84.03,-1.24 z m -32.77,-21.99 v 0 c 0,0 0.01,-0.01 0.01,-0.01 0.63,-0.27 13.42,-5.61 26.48,-2.65 13.39,3.05 21.7,12.12 21.7,12.12 0,0 -12.03,-3.6 -34.31,-3.21 0,0 -0.88,-1.62 1.42,-5.02 0,0 -3.57,-1.04 -15.3,-1.24 v 0 z m 98.62,3.71 c 6.85,-1.38 13.11,2.14 16.05,4.88 0,0 -15.84,-2.93 -23.27,3.91 0,0 0.39,-7.43 7.23,-8.79 z m 75.51,52.25 c -15.48,-8.44 -33.04,-11.07 -46.51,-11.59 0,0 -5.48,0.1 -6.33,0.08 0.28,-2.24 0.21,-4.25 -0.15,-6.03 3.34,-0.1 7.58,-0.23 8.2,-0.26 l 0.51,-0.03 c 26.99,-0.88 41.27,6.25 41.27,6.25 l -1.37,-1.04 c -13.15,-6.09 -27.06,-8.32 -39.09,-8.66 h -0.48 c 0,0 -5.81,0 -10.23,0.07 -1.21,-2.55 -2.98,-4.48 -4.76,-5.89 5.68,-0.03 12.27,-0.01 16.06,0.15 h 0.28 c 20.77,0.23 32.1,5.15 32.1,5.15 l -1.36,-1.07 c -10.3,-4.4 -20.83,-6.39 -30.7,-7.04 0,0 -12.87,-0.69 -22.79,-0.63 2.87,2.18 5.07,5.31 5.28,9.81 0.67,13.86 -13.64,19.44 -13.64,19.44 3.36,-2.24 9.4,-9.83 7.84,-19.67 -1.57,-9.83 -14.31,-14.5 -14.31,-14.5 0,0 -14.92,6.46 -18.16,18.64 0,0 0.25,-12.67 -20.89,-20.88 0,0 9.95,-2.98 20.64,-2.24 10.69,0.75 18.4,4.48 18.4,4.48 0,0 1.97,-5.21 12.46,-6.99 10.5,-1.78 21.84,0.79 21.84,0.79 -2.09,-3.82 -4.51,-9.4 -15.06,-13.71 -10.54,-4.31 -20,-0.41 -20,-0.41 0,0 -0.69,-5.09 -8.35,-10.05 -12.46,-8.0499997 -45.4,-12.8499997 -51.76,-13.1999997 -6.34,-0.33 4.76,3.75 9.21,6.29 5.06,2.8799997 10.72,7.7699997 11.2,12.4199997 0.12,1.25 -0.17,2.34 -0.73,3.24 -0.45,-1.3 -1.39,-2.96 -3.03,-5.08 C 285.38,8.6694553 262.5,3.6594553 245.32,4.8094553 c -17.18,1.15 -30.83,7.6399997 -30.83,7.6399997 0.2,1.59 -6.33,7.12 -24.35,9.11 -17.16,1.88 -29.28,-1.26 -33.64,-1.9 l -0.33,-0.06 c -1.77,-0.22 -3.09,-0.14 -3.65,1.13 l -0.06,0.18 -0.04,0.24 c -0.08,0.89 0.47,2.11 0.47,2.11 l -0.25,-0.48 c 1.22,2.34 8.52,15.8 18.15,22.71 0,0 5.75,-1.22 12.57,-1.95 0,0 -105.44,51.3 -148.16,131.460005 18.61,-2.18 43.1,-3.59 69.69,-1.25 l -0.18,-0.02 h -0.01 c 3.84,-6.46 23.1,-42.51 68.92,-64.66 0,0 -33.87,23.54 -45.91,67.59 15.32,2.6 30.96,6.63 46.28,12.59 49.24,19.18 90.74,39.24 137.53,38.83 l 7.95,-0.35 v -0.04 c -12.44,-25.9 -24.68,-37.74 -24.68,-37.74 9.25,1.66 16.73,-0.98 16.86,-1.02 0.69,-0.25 1.3,-0.5 1.8,-0.73 15.3,-8.25 17.86,-22.21 19.11,-32.21 1.44,-11.57 -0.61,-18.96 -0.61,-18.96 0,0 26.49,-34.77 33.22,-62.110005 0,0 3.39,-0.46 6,-0.41 31.57,0.36 48.82,9.13 48.82,9.13 l -1.18,-1.19 v 0 z m -34.17,-59.17 c 0.1,-0.22 0.17,-0.43 0.23,-0.63 l 0.14,-0.51 v -0.02 c -0.61,-1.74 -1.82,-1.87 -4.38,-1.67 -3.72,0.71 -7.15,1.16 -10.05,1.44 v 0 l -0.47,0.05 -0.34,0.03 -1.25,0.12 h -0.18 c -3.73,0.31 -6.09,0.33 -6.09,0.33 9.53,7.2 10.64,18.35 10.64,18.35 l 0.49,-0.42 c 7.31,-5.31 11.25,-17.08 11.25,-17.08 v 0 z"
     id="path1" />
  <path
     class="cls-2"
     d="m 285.65,82.509455 c 4.73,13.91 -3.23,32.560005 -3.23,32.560005 10.45,-8.95 18.65,-27.330005 18.65,-27.330005 17.15,-3.48 26.59,0 26.59,0 2.24,13.420005 -2.73,24.360005 -2.73,24.360005 9.95,-7.95 14.42,-29.080005 14.42,-29.080005 0,0 -3.97,-3.73 -21.62,-4.98 -17.66,-1.24 -32.08,4.47 -32.08,4.47 z m 57.66,-52.32 c -6.83,1.36 -7.23,8.79 -7.23,8.79 7.43,-6.84 23.27,-3.91 23.27,-3.91 -2.94,-2.74 -9.19,-6.26 -16.05,-4.88 z M 313.54,150.60946 c 0,0 -8.85,1.85 -14.62,0.08 0,0 2.27,-4.73 -0.4,-14.94 0,0 -5.17,14.42 -10.51,19.74 0,0 6.88,3.78 18.87,2.66 11.99,-1.1 14.87,-5.54 15.98,-9.97 1.11,-4.44 0,-10.66 -1.99,-15.32 0,0 0.87,11.75 -7.33,17.75 z M 271.18,23.819455 c -13.06,-2.97 -25.84,2.38 -26.48,2.65 0.62,-0.26 12.83,-5.36 25.56,-2.84 -7.24,-1.37 -10.28,4.09 -10.28,4.09 -2.29,3.4 -1.42,5.02 -1.42,5.02 22.29,-0.4 34.31,3.21 34.31,3.21 0,0 -8.31,-9.07 -21.7,-12.12 v 0 z"
     id="path2" />
  <path
     class="cls-3"
     d="m 365.17,74.909455 c -6.72,27.350005 -33.22,62.110005 -33.22,62.110005 h 0.01 c 20.02,-17.09 33.37,-47.290005 39.21,-62.520005 -2.61,-0.05 -6,0.41 -6,0.41 z m 0.81,-3.99 c 0.85,0.02 6.33,-0.08 6.33,-0.08 0.51,-1.71 1.13,-3.88 1.72,-6.21 -0.62,0.03 -4.85,0.16 -8.2,0.26 0.36,1.78 0.42,3.78 0.15,6.03 z m -45.26,41.790005 c -2.86,-13.290005 4.7,-22.400005 4.7,-22.400005 -17.21,15.100005 -6.79,30.210005 -1.58,41.920005 5.21,11.73 3.13,20.32 -2.09,26.31 -5.2,6 -19.54,6.52 -29.18,4.7 -9.64,-1.83 -14.59,-11.99 -17.19,-23.97 -2.6,-11.99 2.08,-33.08 2.08,-33.08 -7.03,10.68 -7.03,32.56 -1.56,50.27 5.47,17.71 19.8,22.13 30.23,22.13 10.43,0 29.18,-8.85 26.29,-29.94 -2.9,-21.08 -8.84,-22.67 -11.7,-35.95 v 0 z m 64.48,-91.980005 -0.04,-0.34 -0.03,-0.18 -0.09,-0.3 -0.06,-0.15 -0.12,-0.26 -0.07,-0.12 -0.16,-0.23 -0.09,-0.1 -0.18,-0.19 -0.09,-0.08 -0.21,-0.16 -0.1,-0.07 -0.22,-0.12 -0.1,-0.06 -0.22,-0.1 -0.09,-0.05 -0.21,-0.07 -0.09,-0.03 -0.2,-0.05 -0.07,-0.02 -0.18,-0.03 h -0.05 c 0,0 -0.14,-0.03 -0.14,-0.03 h -0.03 c 0,0 -0.16,-0.03 -0.16,-0.03 -13.16,0.14 -23.96,-4.32 -23.96,-4.32 l -0.89,-0.32 C 328.09,2.6194553 297.73,-0.44054474 270.7,0.04945526 v -0.03 c -12.08,0.11 -20.89,1.10000004 -20.89,1.10000004 -38.81,3.28 -66.63,12.5799997 -66.63,12.5799997 0,0 -10.56,2.97 -24.63,2.27 0,0 -5.22,-0.09 -6.25,3.23 -0.88,2.12 -1,4.64 0.98,10.15 2.29,6.36 11.47,18.31 11.54,18.4 -27.77,11.28 -100.06,51.81 -164.82,133.320005 0,0 13.69,-3.56 35.21,-6.08 C 77.93,94.839455 183.37,43.539455 183.37,43.539455 c -6.82,0.73 -12.57,1.95 -12.57,1.95 -9.62,-6.91 -16.92,-20.37 -18.15,-22.71 l 0.25,0.48 c 0,0 -0.54,-1.22 -0.47,-2.11 l 0.04,-0.24 0.06,-0.18 c 0.55,-1.27 1.88,-1.35 3.65,-1.13 l 0.33,0.06 c 4.36,0.65 16.47,3.78 33.64,1.9 18.01,-1.99 24.54,-7.52 24.35,-9.11 0,0 13.65,-6.4999997 30.83,-7.6399997 17.18,-1.14 40.07,3.87 49.09,15.4499997 1.65,2.12 2.59,3.78 3.03,5.08 0.56,-0.91 0.85,-1.99 0.73,-3.24 -0.49,-4.65 -6.15,-9.54 -11.2,-12.4199997 -4.45,-2.54 -15.56,-6.63 -9.21,-6.29 6.35,0.35 39.3,5.14 51.76,13.1999997 7.67,4.96 8.35,10.05 8.35,10.05 0,0 9.46,-3.9 20,0.41 10.55,4.31 12.96,9.88 15.06,13.71 0,0 -1.11,-11.15 -10.64,-18.35 0,0 2.36,-0.01 6.09,-0.32 h 0.18 c 0,0 1.25,-0.12 1.25,-0.12 l 0.34,-0.03 0.47,-0.05 v 0 c 2.9,-0.29 6.33,-0.74 10.05,-1.44 2.55,-0.2 3.76,-0.07 4.37,1.67 v 0.02 c 0,0 -0.14,0.51 -0.14,0.51 -0.06,0.2 -0.14,0.41 -0.23,0.63 0,0 -3.94,11.77 -11.25,17.08 l -0.49,0.42 c 0,0 -11.35,-2.57 -21.84,-0.79 -10.49,1.78 -12.46,6.99 -12.46,6.99 0,0 12.74,4.67 14.31,14.5 1.56,9.84 -4.47,17.43 -7.84,19.67 0,0 14.31,-5.59 13.64,-19.44 -0.21,-4.5 -2.41,-7.63 -5.28,-9.81 9.92,-0.06 22.79,0.63 22.79,0.63 0.06,-3.84 -0.58,-7 -2.04,-9.74 7.61,-6.61 10.43,-16.67 10.83,-20.64 v 0 c 0.04,-0.15 0.11,-0.51 0.12,-0.59 l 0.02,-0.23 c 0.02,-0.13 0.02,-0.27 0.02,-0.39 v -0.2 0 z m -85.62,24 c 21.14,8.21 20.89,20.88 20.89,20.88 3.24,-12.17 18.16,-18.64 18.16,-18.64 0,0 -7.71,-3.73 -18.4,-4.48 -10.7,-0.74 -20.64,2.24 -20.64,2.24 z m 60.29,10.61 c 1.78,1.41 3.55,3.33 4.76,5.89 4.42,-0.08 10.23,-0.07 10.23,-0.07 0.42,-1.87 0.79,-3.75 1.04,-5.51 l 0.02,-0.15 c -3.79,-0.17 -10.38,-0.19 -16.06,-0.15 v 0 z M 311.66,188.92946 c -0.14,0.05 -7.61,2.68 -16.86,1.02 0,0 12.24,11.84 24.67,37.74 v 0.04 c 0,0 0.5,-0.03 0.5,-0.03 -1.2,-11.8 -6.24,-31.57 -7.41,-35.23 z m -103,-65.45 c -17.98,-18.19 -18.52,-38.790005 -18.52,-38.790005 0,0 -6.17,24.010005 8.48,41.980005 14.65,17.98 50.34,19.93 50.34,19.93 0,0 -22.31,-4.92 -40.3,-23.12 z m -103.96,50.25 h 0.01 l 0.18,0.02 c 0.67,0.06 2.82,0.26 2.93,0.28 0.29,0.02 3.98,0.41 4.01,0.41 5.23,0.59 10.52,1.32 15.87,2.23 12.04,-44.05 45.91,-67.59 45.91,-67.59 -45.81,22.15 -65.08,58.2 -68.92,64.66 v 0 z M 193.42,49.709455 c 0,0 36.74,-7.03 78.76,2.89 1.51,-1.36 3.25,-2.73 5.27,-4.13 0,0 -38.53,-10.69 -84.03,1.24 z m 0.2,14.34 c 0,0 32.2,-8.02 71.47,-2.62 0.74,-1.48 1.76,-3.05 3.09,-4.67 -14.18,-1.62 -42.93,-2.9 -74.55,7.29 v 0 z m 76.65,-40.43 c -12.73,-2.52 -24.95,2.57 -25.56,2.84 h -0.01 c 0,0 0,0.01 0,0.01 v 0 c 11.73,0.19 15.3,1.24 15.3,1.24 0,0 3.05,-5.46 10.28,-4.09 v 0 z m -75.83,54.32 c 0,0 30.43,-9.41 68.8,-6.75 -0.19,-1.37 -0.21,-3.02 0.15,-4.87 -15.38,-0.43 -41.28,0.97 -68.95,11.61 v 0 z"
     id="path3" />
</svg>
