<?xml version="1.0" encoding="UTF-8" standalone="no"?>
<svg
   id="Layer"
   viewBox="0 0 419.9971 202.27594"
   version="1.1"
   width="419.9971"
   height="202.27594"
   xmlns="http://www.w3.org/2000/svg"
   xmlns:svg="http://www.w3.org/2000/svg">
  <defs
     id="defs1">
    <style
       id="style1">
      .cls-1 {
        fill: #c60c30;
      }

      .cls-1, .cls-2, .cls-3, .cls-4 {
        stroke-width: 0px;
      }

      .cls-2 {
        fill: #024;
      }

      .cls-3 {
        fill: #b0b7bc;
      }

      .cls-4 {
        fill: #fffffe;
      }
    </style>
  </defs>
  <path
     class="cls-4"
     d="m 414.6229,24.525935 c -52.85,12.46 -55.16,-18.0999995 -134.64,-23.69999953 C 172.9929,-6.7240645 83.092904,39.815935 11.242904,45.775935 c -15.6099996,1.3 -13.5799996,14.27 -2.3699996,16.47 27.0799996,6.31 55.0199996,5.51 80.5999996,2.08 -0.86,2.06 -1.72,5.23 1.14,7.66 10.129996,8.6 50.849996,9.33 68.719996,8.31 6.07,-0.35 19.03,-1.57 19.03,-1.57 -3.7,0.35 -9.47,11.59 2.74,14.76 75.45,21.090005 110.95,55.150005 151.7,108.790005 16.56,-2.11 32.15,-22.01 25.5,-37.19 l 3.3,-8.15 12.2,-5.64 -3.5,-27.2 18.59,-8.74 c 0,0 28.96,-77.710005 30.66,-83.370005 1.7,-5.66 -1.81,-8.19 -4.94,-7.45"
     id="path1" />
  <path
     class="cls-1"
     d="m 205.2729,35.215935 c -52.31,3.09 -115.079996,32.6 -194.989996,19.45 70.83,-9.55 124.829996,-32.94 190.699996,-42.25 l 4.3,22.81 v 0 z m 5.64,30.52 c -28.93,3.41 -62.5,11.48 -110.929996,2.37 41.739996,-1.13 72.989996,-15.08 107.379996,-21.94 z"
     id="path2" />
  <path
     class="cls-2"
     d="m 214.0029,65.415935 c 21.21,-2.28 39.91,-1.55 60.29,10.86 -42.52,-4.61 -63.34,7.25 -89.84,9.89 93.62,24.530005 127.9,76.950005 151.12,106.000005 16.23,-6.88 17.11,-20.96 12.97,-25.99 l 4.18,-8.94 0.19,-5.74 11.19,-5.22 -3.54,-27.83 20.95,-8.57 27.75,-75.850005 c -47.02,9.74 -62.26,-20.62 -129.16,-24.7599995 -27.25,-1.69 -51.8,-0.44 -74.84,2.5799995 l 3.76,23.22 c 15.4,-0.53 29.89,1.43 43.65,7.67 -15.12,-0.94 -28.73,0.32 -42,2.78 l 3.33,19.92"
     id="path3" />
  <path
     class="cls-3"
     d="m 286.2229,129.41594 c 25.31,17.69 38.3,37.3 51.49,54.46 6.71,-2.78 8.81,-10.56 6.6,-13.3 l -6.39,-7.85 7.26,0.43 3.33,-5.78 -9.03,-0.53 -10.17,1.83 10.32,-7.05 7.85,0.46 0.29,-4.47 -8.02,-3.84 2.76,-3.01 14.84,0.92 -4.27,-33 c -5.87,-0.71 -10.8,2.36 -12.93,10.83 l -26.31,-1.55 c 3.7,-8.38 9.47,-12.15 20.41,-10.76 -6.14,-8.590005 -36.06,-9.380005 -40.28,4.09 l 23.23,19 3.01,17.37 -9.54,-13.83 c -8.58,-7.42 -17.59,-12.62 -24.45,-4.43"
     id="path4" />
  <path
     class="cls-4"
     d="m 364.0729,44.315935 1.87,16.57 18.69,7 -17.53,4.38 1.73,22.35 -15.16,-18.88 -22.67,5.33 14,-16.29 -11.55,-15.28 19.35,6.63 11.27,-11.82"
     id="path5" />
</svg>
