<?xml version="1.0" encoding="UTF-8" standalone="no"?>
<svg
   id="Layer"
   viewBox="0 0 420.00851 301.50549"
   version="1.1"
   width="420.00851"
   height="301.50549"
   xmlns="http://www.w3.org/2000/svg"
   xmlns:svg="http://www.w3.org/2000/svg">
  <defs
     id="defs9">
    <style
       id="style1">
      .cls-1 {
        fill: url(#linear-gradient);
      }

      .cls-1, .cls-2, .cls-3, .cls-4, .cls-5, .cls-6, .cls-7, .cls-8 {
        stroke-width: 0px;
      }

      .cls-2 {
        fill: #ff8200;
      }

      .cls-3 {
        fill: #ffd100;
      }

      .cls-4 {
        fill: #ffa300;
      }

      .cls-5 {
        fill: #003594;
      }

      .cls-6 {
        fill: #fff;
      }

      .cls-7 {
        fill: url(#linear-gradient-2);
      }

      .cls-8 {
        fill: #d7d2cb;
      }
    </style>
    <linearGradient
       id="linear-gradient"
       x1="-745.96002"
       y1="1646.23"
       x2="-745.96002"
       y2="1645.3199"
       gradientTransform="matrix(276.77,0,0,-228.63,206746.34,376382.33)"
       gradientUnits="userSpaceOnUse">
      <stop
         offset=".22"
         stop-color="#ffd100"
         id="stop1" />
      <stop
         offset=".3"
         stop-color="#ffd724"
         id="stop2" />
      <stop
         offset=".47"
         stop-color="#ffe87f"
         id="stop3" />
      <stop
         offset=".71"
         stop-color="#fff"
         id="stop4" />
    </linearGradient>
    <linearGradient
       id="linear-gradient-2"
       x1="-746.28998"
       y1="1646.55"
       x2="-745.38"
       y2="1646.55"
       gradientTransform="matrix(266.1,0,0,-265.85,198677.07,437883.18)"
       gradientUnits="userSpaceOnUse">
      <stop
         offset="0"
         stop-color="#ffa300"
         id="stop5" />
      <stop
         offset=".13"
         stop-color="#ffa800"
         id="stop6" />
      <stop
         offset=".29"
         stop-color="#ffb600"
         id="stop7" />
      <stop
         offset=".45"
         stop-color="#ffcd00"
         id="stop8" />
      <stop
         offset=".48"
         stop-color="#ffd100"
         id="stop9" />
    </linearGradient>
  </defs>
  <path
     class="cls-5"
     d="m 368.79,51.209791 c -57.51,-57.5199997 -147.09,-67.77 -216.1,-24.72 v 0 c -19.02,12.62 -35.5,28.71 -48.57,47.44 -0.05,0.06 -0.09,0.11 -0.14,0.16 H 67.95 L 0,227.83979 h 88.16 c 12.75,23.76 32.07,43.36 55.65,56.45 44.98,24.75 99.95,22.69 142.94,-5.38 4.98,-3.26 7.24,-9.38 5.57,-15.09 -1.66,-5.71 -6.86,-9.66 -12.81,-9.73 -1.34,0 -2.68,0.2 -3.97,0.59 -8.79,2.64 -17.91,3.97 -27.09,3.97 -26.4,0.06 -51.57,-11.14 -69.19,-30.8 h 82.33 l 14.14,-19.7 h 54.88 c 0,0 -1.67,4.25 -2.59,6.33 l -5.89,13.38 h 89.81 l 1.91,-7.03 c 16.5,-60.52 -0.7,-125.249999 -45.06,-169.599999 z m 35.86,167.099999 h -67.92 c 2.81,-6.38 5.14,-12.97 6.95,-19.7 h -72.93 l -14.06,19.7 H 191.32 L 289.06,81.389791 h -0.01 c -12.88,-5.27 -26.68,-7.94 -40.59,-7.86 -1.78,0 -3.54,0.05 -5.29,0.14 -53.02,2.67 -95.31,45.239999 -95.31,97.179999 0,3.37 0.18,6.75 0.54,10.1 h 57.74 l -17.19,24.19 c -5.42,7.3 -12.62,13.17 -23.58,13.17 h -4.71 c 17.24,29.73 50.14,49.85 87.81,49.85 10.11,0 20.16,-1.46 29.84,-4.37 0.39,-0.12 0.8,-0.18 1.22,-0.19 1.73,0.07 3.22,1.25 3.68,2.92 0.46,1.67 -0.21,3.45 -1.66,4.4 -31.24,20.4 -69.77,26.31 -105.7,16.24 -35.92,-10.08 -65.75,-35.18 -81.82,-68.85 H 14.63 L 74.16,83.619791 h 34.4 c 23.83,-30.97 60.39,-49.5 99.45,-50.41 0.94,-0.02 1.88,-0.03 2.82,-0.03 55.05,0 101.22,32.94 119.92,81.399999 l -33.85,47.42 h 51.54 c -0.21,-45.98 -23.25,-88.849999 -61.48,-114.389999 -38.23,-25.55 -86.65,-30.43 -129.21,-13.03 57.7,-35.9799997 131.55,-32.9399997 186.1,7.66 54.55,40.6 78.68,110.459999 60.79,176.069999 z m -191.57,-46.9 h -55.69 c 0,-0.19 -0.01,-0.38 -0.01,-0.57 0,-46.72 37.89,-85.229999 86.27,-87.669999 1.61,-0.08 3.23,-0.12 4.81,-0.12 8.56,0 17.09,1.1 25.36,3.29 l -60.73,85.069999 z m 120.75,-44.62 c 2.43,8.37 3.99,16.97 4.67,25.66 h -22.98 z"
     id="path9" />
  <path
     class="cls-1"
     d="m 157.74,34.569791 c 52.19,-21.33 112.1,-8.86 151.44,31.52 39.34,40.389999 50.24,100.599999 27.54,152.219999 h 67.92 c 17.9,-65.61 -6.22,-135.489999 -60.78,-176.089999 -54.55,-40.5999997 -128.41,-43.6399997 -186.12,-7.65"
     id="path10"
     style="fill:url(#linear-gradient)" />
  <path
     class="cls-8"
     d="m 330.73,114.58979 -13.07,18.32 c -12.53,-12.89 -29.75,-20.15 -47.73,-20.13 -1.12,0 -2.24,0.03 -3.34,0.08 l 22.47,-31.479999 c 16.76,6.89 31.21,18.41 41.67,33.209999 z m 12.96,84.01 c 3.16,-11.75 4.76,-23.86 4.75,-36.03 v -0.59 h -14.13 c 3.26,12.01 3.1,24.69 -0.47,36.62 z"
     id="path11" />
  <path
     class="cls-3"
     d="m 281.53,270.92979 c -40.04,26.13 -91.23,28.06 -133.12,5.01 v 0 c -10.34,-13.03 -17.97,-28 -22.45,-44.01 14.47,-0.67 35.42,0.58 50.9,7.23 19.14,18.68 44.85,29.1 71.59,29.01 10.11,0 20.16,-1.46 29.84,-4.37 0.39,-0.12 0.8,-0.18 1.22,-0.19 1.73,0.07 3.22,1.25 3.68,2.93 0.46,1.68 -0.21,3.45 -1.66,4.4 z m -133.14,-89.98 c -0.36,-3.36 -0.54,-6.73 -0.54,-10.1 0,-51.95 42.29,-94.509999 95.32,-97.179999 -61.47,2.5 -111.82,48.319999 -120.41,107.289999 h 25.63 z"
     id="path12" />
  <path
     class="cls-4"
     d="m 160.64,218.30979 h -37.65 c 0.73,4.59 1.72,9.14 2.97,13.62 v 0 c 14.47,-0.67 35.42,0.58 50.9,7.23 -6.32,-6.19 -11.78,-13.2 -16.22,-20.85 z"
     id="path13" />
  <path
     class="cls-2"
     d="m 94.01,218.30979 c 4.69,9.81 10.61,19 17.6,27.33 3.65,-5.62 8.56,-10.32 14.35,-13.72 -1.25,-4.48 -2.24,-9.03 -2.97,-13.62 H 94.02 Z"
     id="path14" />
  <path
     class="cls-7"
     d="m 289.05,81.379791 c -12.88,-5.26 -26.68,-7.93 -40.59,-7.86 -1.78,0 -3.54,0.05 -5.29,0.14 -61.47,2.5 -111.82,48.319999 -120.41,107.289999 h -35 l 43.12,-97.329999 h -22.31 c 23.83,-30.97 60.39,-49.5 99.45,-50.41 0.94,-0.02 1.88,-0.03 2.82,-0.03 55.05,0 101.23,32.94 119.92,81.399999 v 0.02 C 320.28,99.799791 305.83,88.279791 289.06,81.379791 Z M 125.96,231.91979 v 0 c -5.78,3.4 -10.69,8.09 -14.35,13.72 10.29,12.28 22.77,22.55 36.8,30.3 -10.34,-13.03 -17.97,-28 -22.45,-44.01 v 0 z"
     id="path15"
     style="fill:url(#linear-gradient-2)" />
  <path
     class="cls-6"
     d="m 336.63,179.47979 c 0,6.48 -0.94,12.92 -2.79,19.13 h -63.08 l -14.06,19.7 h -65.37 l 75.27,-105.44 c 1.11,-0.05 2.22,-0.08 3.34,-0.08 17.98,-0.02 35.19,7.24 47.73,20.13 l -20.76,29.08 h 37.4 c 1.55,5.7 2.33,11.58 2.33,17.49 v 0 z M 74.16,83.619791 14.63,218.30979 h 150.72 c 10.96,0 18.16,-5.87 23.58,-13.17 l 17.19,-24.19 H 87.75 l 43.12,-97.329999 h -56.7 z"
     id="path16" />
</svg>
