<?xml version="1.0" encoding="UTF-8" standalone="no"?>
<svg
   id="Layer"
   viewBox="0 0 419.98001 202.57184"
   version="1.1"
   width="419.98001"
   height="202.57184"
   xmlns="http://www.w3.org/2000/svg"
   xmlns:svg="http://www.w3.org/2000/svg">
  <defs
     id="defs1">
    <style
       id="style1">
      .cls-1 {
        fill: #c60c30;
      }

      .cls-1, .cls-2, .cls-3, .cls-4, .cls-5 {
        stroke-width: 0px;
      }

      .cls-3 {
        fill: #241773;
      }

      .cls-4 {
        fill: #9e7c0c;
      }

      .cls-5 {
        fill: #fffffe;
      }
    </style>
  </defs>
  <path
     class="cls-5"
     d="m 419.49,124.62183 c -1.7,-10.34 -8.52,-25.529998 -31.4,-39.199998 -1.55,-0.92 -3.17,-1.82 -4.84,-2.71 4.28,-1.44 8.7,-2.92 8.7,-2.92 l -25.36,-9.88 c -2.17,-0.85 -4.45,-1.61 -6.75,-2.35 l 3.44,-3.49 -19.44,-2.72 c -8.4,-1.18 -15.03,-1.45 -20.11,-1.37 -0.05,-0.82 -0.11,-1.57 -0.2,-2.25 0,0 -3.25,-24.33 -3.25,-24.33 0,0 -7.52,10.26 -8.27,11.28 -1.6,-2.66 -3.41,-5.16 -5.49,-7.52 0,0 -20.97,-23.69 -20.97,-23.69 0,0 0.84,6.97 1.51,12.53 -6.8,-4.74 -14.28,-8.97 -22.55,-12.51 C 230.77,-0.95816789 188.1,-3.9581679 147.44,5.2518321 113.43,12.961832 64.32,33.041832 23.54,84.981832 L 0,114.95183 l 35.43,-14.1 c 0.28,-0.11 27.63,-10.769998 49.69,-13.869998 8.23,-1.16 14.52,-1.25 9.41,10 -4.03,8.879998 -13.18,21.849998 -13.28,21.979998 l -17.74,25.78 29.6,-10.26 c 14.24,-4.95 27.01,-7.38 33.47,-7.61 2.31,0.04 2.73,1.56 2,3.22 -0.21,0.57 -0.33,0.87 -1.93,3.33 l -18.56,26.46 30.44,-10.89 c 22.09,-7.92 51.13,-13.13 61.52,-9.16 0.85,0.32 3.59,1.78 0.87,5.76 l -11.96,19 c 0,0 17.65,-2.68 20.16,-3.06 1.39,17.35 10.1,26.81 11.17,27.9 l 12.82,13.14 4.5,-17.79 c 3.23,-12.8 9.32,-19.78 14.76,-23.58 0,0 1.04,7.31 1.04,7.31 l 11.89,-4.28 c 9.99,-3.61 17.9,-7.94 23.6,-12.89 7.53,-0.6 25.94,-1.69 43.62,0.06 30.47,3.01 50.91,-1.04 56.45,-2.35 7.41,-1.75 13.66,1.41 13.72,1.45 l 9.06,4.92 4.89,-9.16 c 0.58,-1.1 3.34,-6.82 3.34,-15.3 0,-2.1 -0.17,-4.22 -0.52,-6.31"
     id="path1" />
  <path
     class="cls-4"
     d="m 415.24,126.38183 c -1.51,-9.16 -7.71,-22.7 -28.76,-35.279998 -5.63,-3.35 -11.74,-6.21 -17.93,-8.65 l 7.45,-2.5 -10.24,-3.99 c -5.07,-1.98 -10.4,-3.61 -15.89,-4.93 1.06,-1.07 2.2,-2.23 2.2,-2.23 l -7.84,-1.1 c -12.08,-1.69 -20.42,-1.49 -25.33,-1.04 0.05,-1.06 0.08,-2.17 0.08,-3.3 0,-1.58 -0.06,-3.13 -0.23,-4.39 l -1.32,-9.82 c 0,0 -4.77,6.51 -5.46,7.45 -1.58,-4.38 -4.16,-9.8 -8.89,-15.15 l -8.48,-9.58 0.96,7.99 c -7.62,-7.07 -18.16,-14.5 -32.62,-20.7 -32.79,-14.0499999 -74.36,-16.9499999 -114.04,-7.96 -33.25,7.53 -81.28,27.19 -121.2,78.03 L 17.64,102.05183 32.79,96.021832 c 0.28,-0.11 28.46,-11.26 51.36,-14.32 8.98,-1.19 15.18,-0.13 17.45,3 2.12,2.93 1.44,8.73 -1.85,15.529998 -4.5,9.33 -13.71,22.72 -13.8,22.87 l -7.59,11.02 12.65,-4.38 c 16.67,-5.79 37.69,-10.07 42.57,-6.89 1.13,0.74 1.73,1.6 1.97,2.82 0.78,4.05 -2.71,10.18 -3.99,12.02 l -7.94,11.3 13.02,-4.65 c 20.8,-7.45 58.1,-16 69.62,-7.17 5.33,4.09 0.35,12.16 0.13,12.5 l -5.12,8.14 9.5,-1.45 4.65,-0.72 c -0.03,0.74 -0.08,1.5 -0.08,2.21 0,18.37 9.3,28.14 9.75,28.6 l 5.49,5.62 1.93,-7.62 c 5.4,-21.38 18.18,-28.78 25.3,-31.29 0.2,1.42 1.19,8.34 1.19,8.34 l 5.08,-1.83 c 12.46,-4.49 19.44,-9.43 23.28,-13.13 5.73,-0.5 26.74,-2.09 46.91,-0.1 29.7,2.94 49.45,-0.96 54.79,-2.23 9.85,-2.33 17.85,1.93 17.94,1.97 l 3.91,2.13 2.1,-3.93 c 0.13,-0.25 2.66,-5.16 2.66,-12.6 0,-1.67 -0.13,-3.47 -0.44,-5.38"
     id="path2" />
  <path
     class="cls-2"
     d="m 383.87,95.541832 c -8.79,-6.21 -20.62,-10.72 -32.1,-13.95 4.78,-1.54 9.57,-1.44 9.57,-1.44 -7.36,-2.81 -15.04,-4.57 -22.19,-5.67 l 2.67,-2.4 c -13.09,-2.23 -22.22,-2.06 -27.64,-1.49 0.68,-2.68 1.24,-6.77 0.54,-12.23 0,0 -1.59,4.71 -5.44,7.63 -0.51,-6.11 -2.46,-14.95 -9.1,-20.95 l 1.23,10.79 c -5.85,-8.8 -16.98,-20.06 -38.03,-29.89 -57.22,-26.72999989 -158.05,-16.5999999 -213.39,54.8 0,0 21.52,-10.74 51.34,-11.46 15.62,-0.37 19.42,8.37 13.73,23.1 -5.72,14.799998 -15.76,27.789998 -15.76,27.789998 0,0 67.48,-23.879998 46.17,9.3 0,0 50.94,-15.24 66.22,2.64 7.1,8.29 -1.17,19.89 -1.17,19.89 l 14.45,-3.12 c -4.69,18.33 3.52,30.04 3.52,30.04 5.96,-23.97 26.76,-30.35 34.12,-31.56 l 1.59,6.49 c 12.34,-4.46 18.14,-9.2 21.45,-13.1 26.12,-4.1 43.86,-0.6 64,0.5 29.33,1.6 44.5,-3.5 49.34,-3.47 3.56,0.03 7.77,3.13 7.77,3.13 0,0 12.19,-20.56 -22.9,-45.369998"
     id="path3" />
  <path
     class="cls-5"
     d="m 359.79,134.53183 c -20.31,0.1 -38.41,-5.07 -62.94,-2.04 l -8.22,-6.59 c -2.22,5.69 -5.26,9.56 -5.26,9.56 2.71,-4.84 -0.06,-10.6 -1.21,-13.41 -10.11,-5.37 -26.65,-15.64 -12.6,-18.99 -8.75,-1.3 -35.41,-3.929998 -68.81,5.59 0,0 30.88,-20.599998 90.26,-10.919998 -16.04,-9.57 -51.2,-9.17 -51.2,-9.17 32.04,-8 70.7,4.65 85.06,9.34 l -13.38,-9.66 16.9,1.46 -9.08,-7.31 c 0,0 35.95,2.55 59.35,18.129998 27.35,16 24,32.81 24,32.81 -6.42,-13.42 -53.89,-22.59 -108.74,-29.07 -14.65,-1.72 -20.83,-0.76 -20.22,2.65 0.59,3.21 9.04,9.56 17.51,12.89 -6.06,-5.81 -0.79,-7.29 -0.79,-7.29 9.63,-0.79 71.77,5.03 103.51,18.61 -8.6,2.01 -19.53,3.32 -34.14,3.4 v 0 z m -181.7,-32.74 c -0.31,0.2 -0.63,0.41 -0.94,0.61 -0.34,0.24 -0.69,0.48 -1.03,0.71 l -0.5,0.34 c -1.49,0.08 -2.96,0.13 -4.39,0.13 l -13.16,0.76 c -7.81,0.4 -21,1.98 -25.39,2.54 l -1.48,0.18 c 10.22,-35.739998 19.45,-48.269998 25.63,-54.389998 3.67,-4.48 10.17,-7.51 15.38,-9.28 -34.99,1.67 -69.01,8.86 -69.01,8.86 22,-17.06 73.02,-28.97 102.42,-25.98 29.4,3 27.4,14.91 24.38,21.71 -2.45,5.49 -14.46,12.94 -25.76,15.34 11.69,1.52 18.32,10.54 14.13,19.54 -0.36,0.77 -0.78,1.52 -1.22,2.24 -12.48,2.96 -23.56,7.66 -32.65,12.78 -0.32,0.19 -0.63,0.37 -0.95,0.55 -0.42,0.25 -0.85,0.49 -1.27,0.74 l -0.97,0.57 c -0.39,0.24 -0.78,0.479998 -1.17,0.719998 -0.32,0.2 -1.7,1.08 -2.06,1.32 v 0 z"
     id="path4" />
  <path
     class="cls-3"
     d="m 247.49,28.221832 c 63.54,18.94 53.92,55.35 53.92,55.35 0,0 -5.13,0.32 -11.18,-10.98 -5.71,-10.67 -14.15,-12.03 -14.15,-12.03 0,0 6.23,-0.57 14.99,3.24 0,0 -12.3,-18.43 -47.42,-17.01 0,0 17.71,2.18 25.22,12.07 0,0 -23.86,-3.75 -45.32,7.34 0,0 19.14,-3.16 33.82,6.72 0,0 -22.01,-1.65 -34.09,10.88 10.75,-1.98 22.41,-2.63 34.62,-1.18 7.99,1.21 14.79,2.83 19.79,4.22 -12.44,-1.37 -25.63,-1.33 -37.87,1.72 0,0 35.16,-0.39 51.2,9.17 -59.38,-9.68 -90.26,10.919998 -90.26,10.919998 33.4,-9.529998 60.06,-6.9 68.81,-5.59 -14.05,3.35 2.49,13.62 12.6,18.99 1.15,2.82 3.92,8.57 1.21,13.41 -6.64,9.1 -14.06,10.95 -14.06,10.95 4.39,-11.1 -0.97,-19.02 -0.97,-19.02 0,0 -3.72,11.43 -19.83,18.16 -17.67,7.39 -20.41,18.16 -20.41,18.16 0,0 -0.64,-9.85 8.69,-20.21 3,-3.34 5.2,-6.12 6.6,-8.55 l -19.75,5.41 c 13.25,-38.47 -63.23,-23 -63.23,-23 2.81,-3.98 8.24,-9.12 15.71,-14.25 0.34,-0.23 0.69,-0.47 1.03,-0.71 0.31,-0.21 0.63,-0.42 0.94,-0.61 0.36,-0.24 0.73,-0.48 1.1,-0.71 l 0.97,-0.61 c 0.38,-0.24 0.77,-0.479998 1.17,-0.719998 l 0.97,-0.57 c 0.42,-0.25 0.85,-0.5 1.27,-0.74 0.32,-0.18 0.63,-0.36 0.95,-0.55 9.09,-5.13 20.17,-9.82 32.65,-12.78 0.44,-0.72 0.86,-1.47 1.22,-2.24 4.19,-9 -2.43,-18.02 -14.13,-19.54 11.3,-2.4 23.31,-9.85 25.76,-15.34 3.02,-6.8 5.03,-18.71 -24.38,-21.71 -29.41,-3 -80.42,8.92 -102.42,25.98 0,0 34.02,-7.19 69.01,-8.86 -5.21,1.77 -11.7,4.8 -15.38,9.28 -6.18,6.13 -15.41,18.65 -25.63,54.389998 l 1.48,-0.18 -13.09,2.05 c 0,0 20.01,-31.969998 6.8,-45.559998 -11.36,-11.69 -49.21,0.21 -49.21,0.21 37.59,-36 105.34,-54.7199999 170.28,-35.37 z m -66.64,64.09 c -1.99,0.5 -3.91,0.68 -5.53,0.68 h -7.52 c 0,0 3.02,-9.4 7.87,-19.66 h 2.95 c 7,0 10.89,3.93 6.53,13.32 -1.12,2.39 -2.61,4.24 -4.29,5.66 v 0 z m 13.05,-32.45 c -2.12,0.63 -4.48,0.99 -6.99,0.99 h -5.27 c 3.26,-7.51 5.87,-12.09 7.68,-14.82 6.87,0.06 9.66,3.48 6.02,11.28 -0.45,0.99 -0.94,1.83 -1.44,2.55 z"
     id="path5" />
  <path
     class="cls-2"
     d="m 195.34,57.311832 c -0.45,0.99 -0.94,1.83 -1.44,2.55 4.21,-1.25 7.47,-3.58 9.07,-6.35 3.52,-6.14 0.82,-10.55 -4.86,-11.15 l -5.9,0.02 c 0,0 -1.02,0.84 -2.89,3.66 6.87,0.06 9.66,3.48 6.02,11.28 m -10.19,29.34 c -1.12,2.39 -2.61,4.24 -4.29,5.66 4.45,-1.1 9.27,-3.76 11.92,-9.46 4.37,-9.39 0.48,-13.32 -6.52,-13.32 h -8.7 c -0.65,1.27 -1.28,2.54 -1.87,3.8 h 2.95 c 7,0 10.89,3.93 6.53,13.32"
     id="path6" />
  <path
     class="cls-4"
     d="m 227.32,38.561832 c -2.75,-4.51 -9.46,-7.18 -21.38,-7.78 0,0 -12.06,-1.64 -27.33,0.41 -6.04,0.81 -35.41,3.79 -60.41,15.99 21.87,-5.32 47.71,-7.27 64.07,-7.86 6.88,-0.24 14.44,-0.03 14.44,-0.03 4.89,0 9.43,1.45 11.17,4.3 1.8,2.95 2.3,6.49 -1.09,10.81 -1.87,2.38 -4.06,4.89 -10.42,7.48 l 7.33,-1.56 c 10.96,-2.34 20.91,-8.49 23.19,-13.26 1.67,-3.48 1.76,-6.27 0.42,-8.48"
     id="path7" />
  <path
     class="cls-4"
     d="m 174.28,66.481832 h 12.07 c 6.23,0 9.1,2.55 10.41,4.7 2.06,3.37 1.69,7.9 -0.86,13.59 -4.92,10.96 -16.82,11.95 -20.4,11.95 l -13.7,0.52 c 5.94,-18.82 12.47,-30.75 12.47,-30.75 v 0 z m 6.28,33.719998 c 8.72,-5.369998 19.62,-10.489998 32.08,-13.949998 0.79,-1.05 1.46,-2.15 2,-3.32 1.25,-2.68 1.4,-6.02 0.5,-8.65 -1.34,-4 -4.02,-6.67 -12.46,-8.64 -11.11,-2.59 -27.33,-1.45 -27.33,-1.45 3.73,-9.06 6.52,-14.35 9.31,-18.94 -2.4,-0.16 -14.5,1.13 -23.79,9.98 -8.09,7.14 -16.83,25.7 -23.78,47.799998 11.96,-1.25 22.8,-1.82 22.8,-1.82 l 11.37,-0.49 c 2.99,0 6.13,-0.16 9.31,-0.52 v 0 z"
     id="path8" />
  <path
     class="cls-1"
     d="m 281.82,70.001832 c 1.82,4.31 -0.69,9.09 -5.61,10.69 -4.92,1.6 -10.38,-0.61 -12.2,-4.91 -1.82,-4.31 0.69,-9.1 5.61,-10.69 4.91,-1.6 10.38,0.6 12.2,4.92 z m -0.45,2.63 c -0.99,-2.58 -4.01,-3.88 -6.75,-2.89 -2.73,0.98 -4.16,3.86 -3.17,6.44 0.99,2.59 4.01,3.88 6.75,2.9 2.74,-0.98 4.16,-3.87 3.17,-6.45 z"
     id="path9" />
  <path
     class="cls-5"
     d="m 269.18,76.331832 c -1.37,-3.24 0.61,-6.87 4.41,-8.11 1.47,-0.48 2.99,-0.53 4.38,-0.22 -1.9,-1.2 -4.47,-1.57 -6.88,-0.79 -3.81,1.23 -5.79,4.86 -4.41,8.12 0.84,2 2.76,3.38 5,3.86 -1.1,-0.69 -1.99,-1.67 -2.5,-2.86"
     id="path10" />
</svg>
