<?xml version="1.0" encoding="UTF-8" standalone="no"?>
<svg
   id="Layer"
   viewBox="0 0 419.99368 185.74001"
   version="1.1"
   width="419.99368"
   height="185.74001"
   xmlns="http://www.w3.org/2000/svg"
   xmlns:svg="http://www.w3.org/2000/svg">
  <defs
     id="defs1">
    <style
       id="style1">
      .cls-1 {
        fill: #024;
      }

      .cls-1, .cls-2, .cls-3, .cls-4 {
        stroke-width: 0px;
      }

      .cls-2 {
        fill: #69be28;
      }

      .cls-3 {
        fill: #fffffe;
      }

      .cls-4 {
        fill: #a5acaf;
      }
    </style>
  </defs>
  <path
     class="cls-3"
     d="m 351.98367,152.3 c -19.14,-3.82 -44.27,-4.84 -54.88,-4.84 l -252.569996,0.06 c -15.71,0 -31.96,0 -40.2999999,-12.84 -8.46,-13.03 -3.85999995,-25.84 10.3999999,-51.48 1.06,-1.92 44.32,-83.2 44.32,-83.2 0,0 4.42,5.48 8.88,8.98 4.4,3.45 8.92,5.28 20.97,5.28 21.409996,0 159.499996,-0.3 160.909996,-0.31 28.03,0 56.35,2.9 74.69,23.01 9.52,1.02 40.27,5.08 65.61,17.19 14.83,7.08 24.61,17.66 28.31,30.58 1.12,3.91 1.67,8.01 1.67,12.27 0,12.26 -4.59,25.84 -13.6,39.96 -19.03,29.83 -36.58,40.26 -37.36,40.82 -10.81,7.6 -21.29,7.96 -21.29,7.96 0,0 9.43,-10.72 12.61,-21.44 3.19,-10.72 -8.37,-11.99 -8.37,-11.99"
     id="path1" />
  <path
     class="cls-1"
     d="m 386.89367,60.69 c 28.88,13.8 33.94,40.17 13.4,72.37 -18.42,28.86 -37.02,41.1 -37.02,41.1 0,0 17.92,-23.42 -9.86,-28.98 -20.93,-4.18 -47.73,-4.97 -56.3,-4.97 -9.86,0 -97.95,0.2 -108.94,0.2 -10.99,0 -14.03,-1.5 -16.44,-4.82 -2.41,-3.3 -2.83,-7.83 1.68,-14.6 4.52,-6.77 11.4,-17.38 11.4,-17.38 l -29.7,-23.88 c 24.92,-24.85 44.82,-33.19 62.2,-33.19 17.38,0 25.38,2.59 54.38,14.75 29,12.17 38.59,-0.77 38.59,-0.77 -12.18,5.17 -23.05,0.77 -43.52,-8.28 -20.46,-9.06 -32.63,-13.2 -51,-13.2 -18.37,0 -33.92,5.17 -53.38,19.48 -18.32,13.47 -19.71,16.24 -47.33,16.24 H 27.253674 l 33.81,-63.25 c 0,0 2.53,9.99 27.74,9.99 21.659996,0 160.909996,-0.31 160.909996,-0.31 27.65,0 55,2.93 71.19,22.71 0,0 37.1,2.98 65.98,16.79 v 0 z m -51.03,5.19 c -13.14,-3.14 -1.91,-10.74 -1.91,-10.74 -18.9,3.82 -25.94,19.23 -27.56,23.54 -0.3,0.58 -0.61,1.18 -0.93,1.82 -10.46,21.03 -19.88,19.9 -37.74,19.9 h -30.58 c -24.77,0 -36.31,12.27 -48.19,33.17 h 13.99 c 12.79,-19.03 22.44,-24.16 47.73,-25.59 57.79,0.03 103.87,16.6 128.21,29.27 34.63,-58.12 -16.76,-67.74 -43.03,-71.37 v 0 z m -107.57,67.46 c 6.46,-9.77 19.61,-13.08 40.79,-11.86 52.29,3.03 82.36,13.2 105.71,21.9 -28.8,-16.85 -80.13,-29 -115.81,-28.88 -17.44,0.05 -32.66,3.1 -41.6,18.84 z m 56.12,-57.65 c -6.81,9.5 -15.79,12.75 -41.25,11.01 -29.62,-2.01 -21.98,-14.48 -18.53,-20.62 h -0.1 c 0.94,-1.75 2.56,-4.7 4.19,-7.67 -22.69,-1.4 -39.27,16.06 -39.27,16.06 16.92,16.72 28.2,18.47 43.51,18.47 h 28.61 c 26.61,0 33.03,-11.96 35.47,-17.28 -4.59,0.57 -8.73,0.52 -12.64,0.03 v 0 z"
     id="path2" />
  <path
     class="cls-2"
     d="m 271.49367,72.85 c -0.54,-0.22 -1.1,-0.45 -1.66,-0.68 -2.61,2.75 -7.11,4.34 -11.47,3.78 -5.74,-0.73 -9.04,-4.9 -7.42,-9.3 0.23,-0.64 0.58,-1.25 0.98,-1.83 -2.94,-1.15 -5.89,-2.26 -8.77,-3.26 -5.89,9.53 -9.35,15.85 11.1,17.57 12.74,1.08 16.2,-1.1 18.87,-5.67 -0.55,-0.21 -1.08,-0.39 -1.65,-0.62"
     id="path3" />
  <path
     class="cls-4"
     d="m 168.76367,109.06 c -10.55,18.3 -14.74,22.51 -7.33,31.2 H 44.533674 c -17.24,0 -28.45,-0.65 -34.22,-9.53 -5.6099999,-8.63 -4.4599999,-16.86 10.66,-44.02 h 99.399996 c 17.11,0 21.51,0.98 30.8,8.18 9.29,7.21 17.6,14.18 17.6,14.18"
     id="path4" />
</svg>
