<?xml version="1.0" encoding="UTF-8" standalone="no"?>
<svg
   id="Layer"
   viewBox="0 0 420 419.99999"
   version="1.1"
   width="420"
   height="420"
   xmlns="http://www.w3.org/2000/svg"
   xmlns:svg="http://www.w3.org/2000/svg">
  <defs
     id="defs1">
    <style
       id="style1">
      .cls-1 {
        fill: #c60c30;
      }

      .cls-1, .cls-2, .cls-3, .cls-4, .cls-5, .cls-6 {
        stroke-width: 0px;
      }

      .cls-3 {
        fill: #00539b;
      }

      .cls-4 {
        fill: #ffb612;
      }

      .cls-5 {
        fill: #fffffe;
      }

      .cls-6 {
        fill: #a5acaf;
      }
    </style>
  </defs>
  <path
     class="cls-2"
     d="M 0,210 C 0,325.8 94.2,420 210,420 325.8,420 420,325.8 420,210 420,94.2 325.79,0 210,0 94.21,0 0,94.2 0,210"
     id="path1" />
  <path
     class="cls-6"
     d="M 210,415.39 C 323.43,415.39 415.39,323.43 415.39,210 415.39,96.57 323.43,4.61 210,4.61 96.57,4.61 4.61,96.57 4.61,210 4.61,323.43 96.57,415.39 210,415.39"
     id="path2" />
  <path
     class="cls-5"
     d="m 210,381.84 c 94.62,0 171.34,-76.71 171.34,-171.34 0,-94.63 -76.72,-171.34 -171.34,-171.34 -94.62,0 -171.34,76.72 -171.34,171.34 0,94.62 76.71,171.34 171.34,171.34"
     id="path3" />
  <path
     class="cls-4"
     d="m 210.89,210.73 c 1.98,-70.18 68.27,-86.66 84.93,-85.14 -41.06,-2.23 -81.58,-19.58 -84.71,-84.51 -4.95,60.38 -29.17,77.54 -85.01,84.71 39.88,2.02 80.25,17.8 84.79,84.94"
     id="path4" />
  <path
     class="cls-1"
     d="m 296.05,297.6 c 1.98,-70.18 67.1,-87.5 83.77,-85.99 -41.2,-1.52 -80.87,-21.1 -84,-86.02 -4.95,60.38 -29.09,77.98 -84.93,85.14 39.88,2.02 80.62,19.73 85.16,86.86"
     id="path5" />
  <path
     class="cls-3"
     d="m 211.92,381.12 c 1.97,-70.19 67.47,-85.04 84.13,-83.53 -41.06,-2.23 -82.03,-21.93 -85.16,-86.86 -4.95,60.38 -28.45,78.52 -84.28,85.68 39.88,2.03 80.77,17.58 85.31,84.71"
     id="path6" />
  <path
     class="cls-2"
     d="m 163.15,195.73 6.69,-0.07 0.03,3.23 c 1.01,-1.77 1.61,-2.83 3.89,-3.34 h 1.66 v 7.83 c -5.76,-0.41 -5.38,1.61 -5.45,3.16 v 14.89 h -6.82 z m 30.14,8.38 -5.97,-0.03 c 0,-0.62 0.01,-1.16 -0.1,-1.63 -0.16,-0.66 -1.05,-1.29 -1.95,-1.3 -1.06,0 -1.88,0.34 -2.23,1.37 -0.42,1.24 -0.23,3.06 2.99,3.43 l 1.64,0.41 c 1.83,0.61 3.59,1.12 4.97,3.75 0.23,0.45 0.27,0.6 0.64,1.88 0.78,2.66 0.26,4.7 -0.61,6.28 -0.53,0.95 -1.83,2.13 -2.29,2.42 -2.53,1.56 -5.94,1.72 -9.04,0.78 -1.52,-0.46 -3.18,-1.63 -4,-3.22 -0.85,-1.65 -0.87,-3 -0.98,-5.23 l 5.77,-0.04 c -0.12,0.9 0.44,1.95 1.33,2.29 0.9,0.35 3.16,0.37 3.55,-0.64 0.28,-0.71 0.46,-1.1 -0.16,-2.03 -1.13,-1.7 -3.54,-1.98 -5.66,-2.52 -3.79,-0.96 -4.71,-4.63 -4.55,-7.42 0.08,-1.32 0.32,-2.84 1.15,-3.86 1.75,-2.17 2.52,-2.06 3.57,-2.56 3.49,-1.7 7.83,-0.49 10.15,1.86 1.3,1.31 1.72,3.72 1.77,6.04 v 0 z M 82.57,195.88 h -4.73 l -2.57,0.02 c -0.06,-1.13 -0.23,-2.59 -0.98,-3.28 -1.11,-1.01 -3.61,-0.45 -4.27,0.95 -1.2,2.51 0.34,4.87 4.2,6.11 l 1.06,0.53 c 3.65,1.78 4.66,2.66 6.03,4.58 0.41,0.58 1.21,2.1 1.54,3.95 0.69,3.96 -0.3,6.41 -1.19,8.58 0,0 -0.34,1.03 -1.28,1.9 -3.84,3.58 -9.15,3.74 -13.09,1.87 -1.81,-0.87 -3.21,-1.71 -4.21,-3.95 -0.98,-2.2 -1.2,-4.19 -0.92,-7.43 l 7.35,-0.04 c -0.14,1.03 0.16,3.63 0.86,4.36 0.68,0.72 3.47,1.42 4.54,-0.48 0.38,-0.67 0.47,-3.56 -0.7,-4.68 -2.21,-2.12 -4.11,-2.33 -6.71,-3.96 -3.71,-2.31 -5.68,-6.47 -5.44,-10.41 0.11,-1.87 0.62,-3.17 1.53,-4.8 0.91,-1.62 2.19,-3.09 4.05,-3.9 4.94,-2.17 10.98,-0.93 13.64,3.76 0.7,1.23 1.4,3.06 1.3,6.32 v 0 z m 3.75,-0.13 v -2.37 l 6.89,-3.78 0.03,6.24 2.62,-0.06 0.03,6.08 -2.65,-0.04 v 10.12 c 0,1.38 -0.25,1.94 2.53,1.89 v 7.7 c -3.28,-0.08 -9.49,1.03 -9.52,-6.21 l -0.05,-13.64 -2.57,0.09 -0.03,-5.93 2.73,-0.09 v 0 z m 48.66,-10.31 6.94,0.02 v 36.19 h -6.94 z m 14.67,28.72 c 0,2.31 5.04,2.78 5.17,-0.13 v -0.73 l 5.67,-0.03 v 3.03 c 0.07,2.01 -0.77,4.2 -4.17,5.37 -3.61,1.12 -5.86,0.45 -7.97,0 -2.77,-1.02 -4.12,-3.22 -4.25,-6.33 V 202.8 c -0.13,-2.35 1.18,-4.4 3.45,-5.9 3.87,-1.69 5.99,-1.24 8.9,-0.23 2.77,1.51 4.02,3.38 4.05,5.99 v 7.95 h -10.87 l 0.02,3.53 v 0 z m 0.25,-8.9 5.13,0.02 c 1.06,-4.49 -5.99,-5.07 -5.13,-0.02 z m -27.86,8.9 c 0.01,2.31 5.05,2.78 5.18,-0.13 v -0.73 l 5.66,-0.03 v 3.03 c 0.06,2.01 -0.77,4.2 -4.17,5.37 -3.61,1.12 -5.86,0.45 -7.97,0 -2.77,-1.02 -4.12,-3.22 -4.25,-6.33 V 202.8 c -0.13,-2.35 1.19,-4.4 3.45,-5.9 3.87,-1.69 5.99,-1.24 8.89,-0.23 2.78,1.51 4.02,3.38 4.06,5.99 v 7.95 h -10.85 v 3.53 c 0,0 -0.01,0 -0.01,0 z m 0.25,-8.9 5.13,0.02 c 1.06,-4.49 -5.99,-5.07 -5.13,-0.02 z m -19.05,8.9 c 0.01,2.31 5.05,2.78 5.18,-0.13 v -0.73 l 5.66,-0.03 v 3.03 c 0.07,2.01 -0.77,4.2 -4.17,5.37 -3.61,1.12 -5.87,0.45 -7.97,0 -2.77,-1.02 -4.12,-3.22 -4.25,-6.33 V 202.8 c -0.13,-2.35 1.19,-4.4 3.45,-5.9 3.87,-1.69 5.99,-1.24 8.89,-0.23 2.78,1.51 4.02,3.38 4.06,5.99 v 7.95 h -10.85 v 3.53 c 0,0 -0.01,0 -0.01,0 z m 0.25,-8.9 5.13,0.02 c 1.06,-4.49 -5.99,-5.07 -5.13,-0.02 z"
     id="path7" />
</svg>
