<?xml version="1.0" encoding="UTF-8" standalone="no"?>
<svg
   id="Layer"
   viewBox="0 0 420.00876 383.23165"
   version="1.1"
   width="420.00876"
   height="383.23166"
   xmlns="http://www.w3.org/2000/svg"
   xmlns:svg="http://www.w3.org/2000/svg">
  <defs
     id="defs1">
    <style
       id="style1">
      .cls-1 {
        fill: #021018;
      }

      .cls-1, .cls-2, .cls-3 {
        stroke-width: 0px;
      }

      .cls-2 {
        fill: #fff;
      }

      .cls-3 {
        fill: #eb0028;
      }
    </style>
  </defs>
  <path
     class="cls-2"
     d="m 309.87855,65.291666 c 89.87,68.390004 21.48,78.630004 -48.71,88.620004 0,0 -29.62,-8.16 -80.93,-33.67 -116.4,-57.810004 -79.76,-85.050004 11.73,-101.530004 -146.42,-63.77 -268.44,47.28 -133.83,155.260004 l -36.94,26.41 c 30.35,18.6 93.21,57.62 84.08,117.37 l -31.2,22.3 95.3,43.18 75.2,-34.07 c 0.55,-33.1 59.69,-50.28 85.14,-117.6 140.09,-32.14 104.41,-155.360004 -19.82,-166.270004 v 0 z"
     id="path1" />
  <path
     class="cls-1"
     d="m 245.84855,160.22167 c -175.85,-67.920004 -187.5,-123.640004 -77.73,-142.890004 -137.28,-37.3 -217.35,62.19 -81.52,157.060004 l -36.45,26.05 c 38.7,25.86 79.72,64.15 65.8,124.41 l -18.36,13.11 70.53,31.97 c 65.64,-71.89 99.98,-141.74 77.73,-209.71 z m -44.33,109.37 -27.01,-30.73 -31.02,4.62 14.34,-23.62 -27.01,-30.75 35.88,16.14 14.3,-23.62 7.83,33.58 35.88,16.12 -31.03,4.65 7.85,33.6 v 0 z"
     id="path2" />
  <path
     class="cls-3"
     d="m 335.10855,76.001666 c 60.35,47.250004 18.45,77.440004 -55.13,85.640004 18.62,78.46 -38.46,150.33 -98.88,205.98 l 55.41,-25.1 c 4.1,-31.9 60.31,-48.48 86.95,-119.25 125.12,-27.91 104.7,-117.71 11.66,-147.280004 v 0 z"
     id="path3" />
</svg>
