<?xml version="1.0" encoding="UTF-8" standalone="no"?>
<svg
   id="Layer"
   viewBox="0 0 419.99875 517.37998"
   version="1.1"
   width="419.99875"
   height="517.38"
   xmlns="http://www.w3.org/2000/svg"
   xmlns:svg="http://www.w3.org/2000/svg">
  <defs
     id="defs1">
    <style
       id="style1">
      .cls-1 {
        fill: #ffc62f;
      }

      .cls-1, .cls-2, .cls-3, .cls-4, .cls-5 {
        stroke-width: 0px;
      }

      .cls-3 {
        fill: #e9bf9b;
      }

      .cls-4 {
        fill: #4f2683;
      }

      .cls-5 {
        fill: #fffffe;
      }
    </style>
  </defs>
  <path
     class="cls-1"
     d="m 212.56456,356.99 c -3.07,12.07 -2.55,15.49 -2.34,18.93 -8.4,-5.86 -30.1,-16.89 -31.11,-44.82 -0.47,-12.93 0.57,-24.52 2.99,-32.79 -0.4,0.48 -0.86,1.03 -1.32,1.57 -27.8,33.45 -59.52,31.2 -88.540004,34.18 -4.3,0.44 -20.42,3.7 -24.67,4.62 10.34,-11.06 28.23,-27.31 39.920004,-35.29 22.58,-15.41 61.83,-31.49 61.83,-31.49 -17.75,9.77 -32.1,25.6 -32.1,25.6 11.04,-7.47 49.6,-29.74 49.6,-29.74 -10.29,9.8 -39.62,35.64 -57.01,47.14 22.13,-10.43 40.85,-23.96 50.94,-33.5 12.62,-11.92 31.57,-23.42 40.15,-27.85 4.2,4.14 10.29,7.94 15.73,10.18 -14.55,10.25 -24.26,16.09 -28.41,29.94 0,0 10.65,-13.67 26,-22.04 2.88,-1.57 6.01,-3.51 9.22,-5.72 3.45,0.81 10.94,1.5 14.61,1.5 l 0.91,-0.38 c -0.59,0.45 -2.07,1.3 -2.68,1.74 -29.33,21.51 -56.17,27.16 -58.65,70.93 0,0 3.71,-28.52 26.27,-42.97 12.78,-8.19 35.7,-19.08 51.06,-34.74 11.76,-5.38 19.16,-14.58 22.99,-27.38 l 0.09,-0.4 c 3.8,-0.37 7.58,-0.86 11.55,-1.21 -0.46,4.62 -1.46,10.9 -3.71,17.32 -2.75,8.59 -7.38,18.15 -15.53,28.12 -14.67,17.92 -32.38,29.14 -50.81,53.13 -18.44,23.99 -22.36,48.44 -22.36,48.44 -4.11,-29.84 10.12,-48.82 10.12,-48.82 -2.16,1.71 -11.33,12.5 -14.71,25.8 v 0 z m -64.78,-25.08 c 14.34,-3.59 27.29,-19.09 27.29,-19.09 -1.52,5.24 -0.39,21.24 -0.39,21.24 0,0 -5.6,2.21 -12.42,2.21 -6.82,0 -15.05,-4.31 -15.05,-4.31 l 0.56,-0.06 v 0 z m 93.24,71.29 c -3.23,8.68 -5.47,16.72 -6.3,19.85 -9.62,-5.77 -24.38,-13.46 -29.79,-21.89 -7.26,-11.31 -7.18,-26.13 -7.18,-26.13 3.59,3.17 12.81,8.33 21.25,13.01 6.89,3.82 18.13,12.2 22.03,15.16 v 0 z m -18.01,-18.61 c 0.31,-5.68 2.36,-16.38 8.2,-29.66 6.55,-14.89 23.26,-33.15 23.26,-33.15 5.56,5.76 12.85,17.53 9.95,32.87 -2.9,15.33 -10.23,20.58 -17.69,35.3 -1.28,2.54 -2.5,5.23 -3.63,7.95 -4.66,-3.69 -13.1,-8.96 -20.09,-13.31 z m -32.26,-173.07 0.37,0.1 -0.53,0.09 c -7.57,1.34 -15.43,3.18 -22.08,4.91 0.3,-2.64 0.65,-5.28 1.07,-7.88 0.13,-0.72 0.28,-1.45 0.44,-2.18 2.91,0.71 5.86,1.39 8.82,2.07 2.67,0.62 5.34,1.24 7.98,1.91 l 3.92,0.99 v 0 z m 148.58,18.91 c 3.89,-2.59 17.49,-1.55 22.02,-1.03 4.54,0.52 19.69,2.85 27.21,1.17 7.51,-1.68 10.88,-3.24 10.88,-3.24 0,0 -1.81,13.72 -16.32,14.76 -14.51,1.04 -16.45,-2.46 -27.33,-3.89 0,0 3.24,-1.94 9.07,-3.11 0,0 -10.11,-1.43 -17.75,0.52 -7.64,1.94 -10.75,5.18 -10.75,5.18 0,0 -0.91,-7.77 2.98,-10.36 v 0 z m -144.06,-84.21 c 0,0 1.17,-1.49 1.38,-1.81 6.24,-9.43 13.03,-18.8 16.41,-23.36 2.36,-3.18 4.16,-6.33 5.54,-9.26 3.9,-8.26 4.45,-14.71 4.45,-14.71 36.02,1.65 79.17,17.45 114.08,50.52 15.45,14.63 25.66,31.9 32.27,46.63 -6.43,-1.05 -19.8,-2.62 -34.88,-2.72 -16.9,-0.12 -37.17,2.17 -41.02,2.63 v -0.02 c -0.06,-0.6 -0.14,-1.19 -0.23,-1.78 l -0.08,-0.52 c -0.07,-0.46 -0.16,-0.92 -0.25,-1.38 h 0.03 c -2.17,-16.55 -14.41,-32.36 -29.94,-38.93 -5.58,-2.6 -17.34,-6.5 -29.6,-7.61 -6.2,-0.71 -12.86,-0.64 -20.95,0.22 -3.47,0.37 -6.83,0.8 -10.14,1.22 -2.4,0.31 -4.75,0.61 -7.07,0.88 z m 45.63,307 c 0,0 -8.18,-4.25 -13.89,-12.49 -4.48,-6.47 -4.88,-14.41 -4.84,-17.55 5.76,3.32 12.37,6.6 16.23,9 4.24,2.63 7.68,5.23 10.24,7.4 -4.07,7.21 -7.73,13.64 -7.73,13.64 v 0 z m -23.59,-204.62 c -27.14,7.4 -84.95,31.87 -118.760004,55.54 -14.59,10.22 -30.51,26.35 -40.2,36.3 -9.5,2.93 -21.49,7.96 -27.06,10.39 12.99,-14.28 39.32,-39.88 60.78,-54.3 64.800004,-43.54 118.370004,-50.57 122.360004,-51.38 l 1.18,1.02 c 0.54,0.83 1.11,1.63 1.69,2.42 v 0 z m 157.31,70.07 c -16.71,11.01 -27.33,37.26 -27.33,37.26 4.29,-29.13 23.02,-49.48 23.02,-49.48 -13.99,8.16 -24.18,23.77 -29.59,58.55 -6.18,39.78 -17.59,55.05 -17.59,55.05 l 1.19,-4.03 c 4.79,-21.5 4.01,-31.6 7.9,-57.5 3.89,-25.9 15.29,-41.7 15.29,-41.7 -14.25,9.97 -21.92,31.3 -24.61,62.3 -2.97,34.18 -11.16,46.28 -11.16,46.28 4.98,-17.08 2.87,-36.05 3.64,-48.74 0.78,-12.7 1.34,-29.96 8.46,-46.27 7.13,-16.32 23.67,-32.08 41.03,-39.98 17.35,-7.9 31.21,-4.01 31.21,-4.01 9.15,8.58 9.71,17.61 9.71,17.61 0,0 -14.45,3.67 -31.17,14.68 v 0 z m -145.89,142.54 c -1.72,-5.77 0.87,-7.97 2.33,-9.87 0,0 3.83,3.38 7.8,5.4 0,0 -2.17,5.88 -3.85,11.2 -2.6,-1.36 -5.23,-3.18 -6.29,-6.73 v 0 z m -2.28,33.4 c 0,0 1.33,2.4 2.75,4.34 1.77,2.39 1.39,4.65 0.12,6.09 -1.27,1.44 -3.31,1.65 -4.77,-0.08 -1.47,-1.72 -0.41,-7.49 1.89,-10.35 z m 34.34,-114.95 c 1.19,2.24 4.37,7.88 5.27,14.97 1.32,10.33 -2.74,21.66 -8.03,31.27 -1.44,2.61 -5.05,5.93 -6.89,9.21 -1.42,-1.58 -3.93,-3.95 -8.15,-6.91 -0.88,-0.61 -1.92,-1.28 -3.07,-2 3.84,-15.37 12.86,-34.99 16.51,-39.92 1.16,-1.56 3.13,-4.63 4.37,-6.62 z m -28.29,105.98 c 3.07,2.07 6.32,6.71 6.55,8.97 0.35,3.4 -4.95,6.09 -4.95,6.09 0,0 0.74,-3.73 -3.12,-6.59 -5.64,-4.18 -7.63,-5.82 -3.53,-12.86 0,0 1.98,2.31 5.05,4.39 z m 13.76,-33.66 c 4.69,-8.44 11.37,-17.44 11.37,-17.44 0,0 4.09,12.71 0.67,23.33 -3.42,10.62 -11.84,19.99 -11.84,19.99 0,0 -3.93,-5.51 -7,-7.58 -0.27,-0.18 -0.57,-0.37 -0.88,-0.54 1.47,-4.13 4.4,-11.87 7.67,-17.75 v 0 z m -10.94,20.81 c 4.2,2.01 7.2,4.81 8.77,8.11 1.56,3.3 0.16,6.33 -2.66,8.31 0,0 -1.5,-4.03 -5.47,-6.05 -3.97,-2.02 -7.71,-3.75 -8.64,-7.77 -0.92,-4.01 1.59,-7.4 1.59,-7.4 0,0 2.21,2.8 6.41,4.81 v 0 z"
     id="path1" />
  <path
     class="cls-5"
     d="m 215.42456,212.04 c -12.62,-3.82 -30.77,-7.23 -46.88,-11.8 -32.54,-9.11 -54.88,-28.73 -66.4,-58.3 -7.580004,-19.44 -7.750004,-37.06 -7.660004,-41.3 0,-0.61 -0.03,-1.74 -0.03,-2.13 0.18,-13.63 2.01,-26.25 3.55,-35.33 l 0.18,-1.11 0.03,1.94 c -0.05,9.43 0.6,17.74 0.83,20.32 l 0.02,0.25 c 0.04,0.38 0.29,-1.94 0.47,-3.1 0.630004,-4.2 1.350004,-8.37 1.770004,-12.61 0.42,-4.21 1.37,-9.25 1.55,-13.48 0.07,-1.62 0.14,-3.26 0.1,-4.89 0.47,0.28 0.66,1.86 0.75,2.3 0.37,1.76 1.18,15.58 1.42,20.32 0.1,1.89 0.13,3.78 0.15,5.67 0.01,0.94 0.04,1.87 0.19,2.81 0.03,0.25 0.11,0.52 0.17,0.78 0.05,0.22 0.74,-6.16 1.26,-9.52 0.44,-2.83 1.15,-5.7 1.13,-8.58 0,-0.25 -0.08,-0.56 -0.03,-0.81 0.07,-0.43 0.69,1.41 1,4.79 0.22,3.81 0.38,7.77 0.82,11.5 l 0.34,2.95 c 3.08,27.07 19.31,51.74 41.23,62.79 17.69,9.92 34.21,7.8 51.69,5.56 3.26,-0.42 6.59,-0.85 10.01,-1.21 7.65,-0.81 13.92,-0.88 19.76,-0.22 12.88,1.16 24.79,5.55 28.71,7.58 13.07,5.87 23.32,19.18 25.46,33.18 v 0.37 c 0.56,2.54 0.85,5.18 0.85,7.89 v 0.1 c -0.09,-0.52 -0.14,-1.02 -0.25,-1.54 -0.06,4.54 -0.98,8.86 -2.58,12.84 1.3,-4.03 1.73,-8.75 0.55,-14.26 -0.07,5.16 -1.26,10.02 -3.3,14.43 1.22,-3.95 1.72,-8.18 1.32,-12.54 -0.8,-8.83 -5.09,-16.51 -11.4,-21.88 5.05,5.4 7.49,13.96 8.22,21.96 1.69,18.76 -13.31,31.05 -29.4,33.82 l -0.34,0.08 c 1.38,0.25 6.75,0.98 12.09,-0.72 2.37,-0.17 5.52,-0.7 8.72,-2.25 1.18,-0.57 2.68,-1.43 4.28,-2.55 -6.68,6.17 -15.59,9.97 -25.4,9.97 -12.96,0 -24.35,-6.58 -31.07,-16.58 9.34,1.17 18.49,3.03 18.49,3.03 -8.42,-6.5 -22.39,-10.59 -22.39,-10.59 v 0.05 c 0,0 0,0 0,0 z m -5.69,-97.24 c -4.38,6.74 -10.86,15.9 -15.91,23.02 -6.1,-4.58 -16.28,-13.66 -20.97,-26.05 -7.24,-19.15 -4.81,-37.41 -6.07,-47.63 -0.37,-2.94 -0.83,-6.53 -1.41,-10.36 1.6,5.28 3.71,12.85 4.27,17.69 0,0 -0.47,-13.76 -2.37,-22.3 0,0 4.74,13.29 5.69,20.87 0,0 0.62,-7.35 -0.07,-15.2 0.9,3.01 1.7,6.18 2.29,9.52 3.73,20.73 9.87,35.19 34.55,50.43 v 0 z"
     id="path2" />
  <path
     class="cls-3"
     d="m 360.40456,250.91 c 1.3,1.56 3.63,4.92 3.76,6.09 0.02,0.14 0,0.46 -0.03,0.89 v 0 c 0,0 -0.03,0.31 -0.03,0.31 v 0.05 c -0.17,1.79 -1.03,10.12 -2.95,12.45 -0.28,0.46 -0.6,0.91 -1,1.31 -2.21,2.06 -6.06,4.02 -13.35,9.08 -8.03,5.57 -14.38,16.97 -14.38,16.97 0,0 2.28,-10.77 7.25,-16.92 6.15,-7.62 14.17,-12.66 19.12,-15.29 l 2.22,-9.93 c -1.7,-1.14 -3.85,-2.3 -5.92,-2.67 -4.3,-0.76 -11.55,-0.66 -15.99,-2.11 l 0.05,-0.09 c 5.31,-0.65 8.42,-2.2 16.32,-3.5 7.9,-1.29 13.99,1.04 13.99,1.04 -5.31,0.26 -9.07,2.33 -9.07,2.33 v 0 z m 25.7,-4.28 c 0,0 3.3,7.55 3.14,13.05 -0.15,5.5 1.57,9.27 3.61,10.85 2.05,1.57 4.09,1.89 5.35,2.83 1.26,0.94 1.26,3.77 0.63,6.13 -0.63,2.36 -2.36,2.67 -4.25,2.2 -1.76,-0.44 -10.96,-1.68 -20.95,0.15 -0.53,-1.85 -1.44,-6.07 0.54,-8.17 2.59,-2.71 7.64,-2.46 9.58,-2.07 0,0 -4.14,-1.94 -7.77,-1.94 -3.63,0 -6.61,2.46 -7.65,5.18 -0.77,2.02 -0.11,6.18 0.28,8.19 -10.86,3.2 -26.41,11.68 -39.16,28.05 -13.84,17.76 -16.97,39.93 -16.97,39.93 0,0 -14.6,2.87 -22.15,-8.34 -10.13,-15.05 -6.32,-32.69 -6.32,-32.69 0,0 -6,2.83 -10.75,1.59 -1.66,-0.43 -2.85,-1.53 -3.68,-2.83 7.9,-7.02 16.3,-13.61 24.64,-23.15 4.32,0.96 8.2,2 10.32,2.65 4.67,1.42 9.53,5.37 10.82,9.64 1.3,4.28 1.94,18.78 1.94,18.78 2.62,-10.09 3.04,-15.18 3.3,-18.04 0.27,-2.85 -0.03,-10.05 -5.5,-15.03 -2.95,-2.69 -11.31,-5.19 -14.62,-7.03 12.65,-17.42 16.12,-44.1 16.12,-44.1 v -0.76 c 1.28,-0.14 2.12,-0.27 2.15,-0.41 2.33,-0.13 10.61,-1.14 12.91,-1.19 0,0 -3.46,10.21 -0.47,17.76 0,0 7.71,-5.19 18.72,-4.4 11.01,0.79 28.62,6.13 36.17,3.15 v 0 z m -104.34,97.16 c 5.23,7.68 12.25,14.21 23.52,14.21 1.63,0 3.57,-0.03 5.67,-0.08 -0.93,5.84 -1.38,12.13 -1.61,16.7 -2.45,0.81 -4.62,1.6 -6.35,2.33 -10.95,4.57 -31.32,15.37 -31.32,15.37 l -0.69,0.42 c -1.68,-11.61 -5.47,-21.15 -5.47,-21.15 0,0 7.31,-19.01 4.58,-30.69 -3.59,-15.35 -9.47,-23.51 -9.47,-23.51 0.65,-0.69 1.29,-1.33 1.94,-1.99 3.85,5.25 10.38,5.4 10.38,5.4 0,0 3.6,15.35 8.82,23.02 v 0 z m 111.84,13.96 c 5.55,0.16 10.66,-0.25 10.66,-0.25 -1.63,1.31 -6.04,1.14 -8.49,1.47 -2.45,0.33 -17.64,0.82 -36.1,3.59 -3.34,0.5 -6.99,1.15 -10.77,1.89 1.17,-3.17 2.26,-5.44 3.62,-7.57 h 0.16 c 13.56,0 35.36,0.69 40.92,0.85 v 0 z m 6.5,-22.44 c 3.88,1.56 6.09,2.98 7.51,11.01 1.42,8.03 -3.11,7.77 -5.31,7.65 -2.2,-0.13 -8.6,-0.17 -18.45,-1.34 -9.85,-1.16 -27.43,-1.62 -27.43,-1.62 8.41,-23.26 37.72,-35.89 37.72,-35.89 0.52,6.73 -4.53,19.04 -4.53,19.04 0,0 6.61,-0.39 10.5,1.16 v 0 z"
     id="path3" />
  <path
     class="cls-4"
     d="m 372.33456,199.99 c -4.64,-0.86 -19.44,-3.1 -37.8,-3.22 -16.69,-0.11 -36.81,1.97 -40.78,2.41 v 0.07 c -0.03,24.82 -21.4,42.54 -41.3,42.83 -30.06,0.45 -41.12,-23.77 -41.35,-25.2 -2.14,-0.62 -4.43,-1.25 -6.8,-1.88 -3.99,0.49 -8.26,1.1 -12.74,1.89 -8.28,1.46 -16.84,3.5 -23.8,5.31 -0.33,3.68 -0.86,9.59 -0.88,10.09 -0.99,20.9 0.33,19.44 0.33,19.44 6.06,-2.37 28.42,-8.1 28.42,-8.1 6.55,-1.52 14.32,-3.16 23.43,-4.84 6.4,12.9 19.69,21.76 35.07,21.76 19.2,0 35.15,-13.82 38.49,-32.04 41.96,-4.55 61.79,-4.68 87.71,-1.24 -2.72,-14.44 -7.97,-27.29 -7.97,-27.29"
     id="path4" />
  <path
     class="cls-2"
     d="m 369.46456,248.58 c 0,0 -6.08,-2.33 -13.98,-1.04 -7.91,1.29 -11.02,2.85 -16.33,3.5 l -0.05,0.09 c 4.43,1.45 11.68,1.35 15.99,2.1 2.08,0.38 4.22,1.54 5.92,2.67 l -2.23,9.94 c -4.95,2.64 -12.97,7.66 -19.11,15.29 -0.47,0.57 -0.92,1.2 -1.33,1.86 -0.2,0.27 -0.38,0.56 -0.54,0.86 -0.24,0.38 -0.45,0.75 -0.65,1.13 -0.25,0.45 -0.49,0.92 -0.72,1.4 -0.23,0.47 -0.45,0.93 -0.65,1.4 -0.88,1.97 -1.58,3.95 -2.1,5.62 l -0.18,0.57 c -0.39,1.31 -0.68,2.39 -0.86,3.12 l -0.07,0.29 -0.05,0.22 -0.07,0.34 -0.02,0.09 c 0.11,-0.18 0.66,-1.19 1.6,-2.64 l 0.68,-1.04 c 1.79,-2.69 4.52,-6.42 7.77,-9.61 0.45,-0.45 0.91,-0.9 1.38,-1.31 0.95,-0.84 1.92,-1.63 2.92,-2.33 7.29,-5.06 11.14,-7.01 13.35,-9.08 0.4,-0.41 0.72,-0.86 1.01,-1.31 1.92,-2.33 2.78,-10.67 2.94,-12.45 v -0.05 l 0.03,-0.31 c 0.02,-0.31 0.02,-0.56 0.02,-0.72 V 257 c -0.13,-1.17 -2.46,-4.54 -3.75,-6.08 0,0 3.75,-2.08 9.06,-2.33 v 0 z m 0,0 c 0,0 -6.08,-2.33 -13.98,-1.04 -7.91,1.29 -11.02,2.85 -16.33,3.5 l -0.05,0.09 c 4.43,1.45 11.68,1.35 15.99,2.1 2.08,0.38 4.22,1.54 5.92,2.67 l -2.23,9.94 c -4.95,2.64 -12.97,7.66 -19.11,15.29 -0.47,0.57 -0.92,1.2 -1.33,1.86 -0.2,0.27 -0.38,0.56 -0.54,0.86 -0.24,0.38 -0.45,0.75 -0.65,1.13 -0.25,0.45 -0.49,0.92 -0.72,1.4 -0.23,0.47 -0.45,0.93 -0.65,1.4 -0.88,1.97 -1.58,3.95 -2.1,5.62 l -0.18,0.57 c -0.39,1.31 -0.68,2.39 -0.86,3.12 l -0.07,0.29 -0.05,0.22 -0.07,0.34 -0.02,0.09 c 0.11,-0.18 0.66,-1.19 1.6,-2.64 l 0.68,-1.04 c 1.79,-2.69 4.52,-6.42 7.77,-9.61 0.45,-0.45 0.91,-0.9 1.38,-1.31 0.95,-0.84 1.92,-1.63 2.92,-2.33 7.29,-5.06 11.14,-7.01 13.35,-9.08 0.4,-0.41 0.72,-0.86 1.01,-1.31 1.92,-2.33 2.78,-10.67 2.94,-12.45 v -0.05 l 0.03,-0.31 c 0.02,-0.31 0.02,-0.56 0.02,-0.72 V 257 c -0.13,-1.17 -2.46,-4.54 -3.75,-6.08 0,0 3.75,-2.08 9.06,-2.33 v 0 z m 0,0 c 0,0 -6.08,-2.33 -13.98,-1.04 -7.91,1.29 -11.02,2.85 -16.33,3.5 l -0.05,0.09 c 4.43,1.45 11.68,1.35 15.99,2.1 2.08,0.38 4.22,1.54 5.92,2.67 l -2.23,9.94 c -4.95,2.64 -12.97,7.66 -19.11,15.29 -0.47,0.57 -0.92,1.2 -1.33,1.86 -0.2,0.27 -0.38,0.56 -0.54,0.86 -0.24,0.38 -0.45,0.75 -0.65,1.13 -0.25,0.45 -0.49,0.92 -0.72,1.4 -0.23,0.47 -0.45,0.93 -0.65,1.4 -0.88,1.97 -1.58,3.95 -2.1,5.62 l -0.18,0.57 c -0.39,1.31 -0.68,2.39 -0.86,3.12 l -0.07,0.29 -0.05,0.22 -0.07,0.34 -0.02,0.09 c 0.11,-0.18 0.66,-1.19 1.6,-2.64 l 0.68,-1.04 c 1.79,-2.69 4.52,-6.42 7.77,-9.61 0.45,-0.45 0.91,-0.9 1.38,-1.31 0.95,-0.84 1.92,-1.63 2.92,-2.33 7.29,-5.06 11.14,-7.01 13.35,-9.08 0.4,-0.41 0.72,-0.86 1.01,-1.31 1.92,-2.33 2.78,-10.67 2.94,-12.45 v -0.05 l 0.03,-0.31 c 0.02,-0.31 0.02,-0.56 0.02,-0.72 V 257 c -0.13,-1.17 -2.46,-4.54 -3.75,-6.08 0,0 3.75,-2.08 9.06,-2.33 v 0 z m 0,0 c 0,0 -6.08,-2.33 -13.98,-1.04 -7.91,1.29 -11.02,2.85 -16.33,3.5 l -0.05,0.09 c 4.43,1.45 11.68,1.35 15.99,2.1 2.08,0.38 4.22,1.54 5.92,2.67 l -2.23,9.94 c -4.95,2.64 -12.97,7.66 -19.11,15.29 -0.47,0.57 -0.92,1.2 -1.33,1.86 -0.2,0.27 -0.38,0.56 -0.54,0.86 -0.24,0.38 -0.45,0.75 -0.65,1.13 -0.25,0.45 -0.49,0.92 -0.72,1.4 -0.23,0.47 -0.45,0.93 -0.65,1.4 -0.88,1.97 -1.58,3.95 -2.1,5.62 l -0.18,0.57 c -0.39,1.31 -0.68,2.39 -0.86,3.12 l -0.07,0.29 -0.05,0.22 -0.07,0.34 -0.02,0.09 c 0.11,-0.18 0.66,-1.19 1.6,-2.64 l 0.68,-1.04 c 1.79,-2.69 4.52,-6.42 7.77,-9.61 0.45,-0.45 0.91,-0.9 1.38,-1.31 0.95,-0.84 1.92,-1.63 2.92,-2.33 7.29,-5.06 11.14,-7.01 13.35,-9.08 0.4,-0.41 0.72,-0.86 1.01,-1.31 1.92,-2.33 2.78,-10.67 2.94,-12.45 v -0.05 l 0.03,-0.31 c 0.02,-0.31 0.02,-0.56 0.02,-0.72 V 257 c -0.13,-1.17 -2.46,-4.54 -3.75,-6.08 0,0 3.75,-2.08 9.06,-2.33 v 0 z m -13.98,-1.04 c -7.91,1.29 -11.02,2.85 -16.33,3.5 l -0.05,0.09 c 4.43,1.45 11.68,1.35 15.99,2.1 2.08,0.38 4.22,1.54 5.92,2.67 l -2.23,9.94 c -4.95,2.64 -12.97,7.66 -19.11,15.29 -0.47,0.57 -0.92,1.2 -1.33,1.86 -0.2,0.27 -0.38,0.56 -0.54,0.86 -0.24,0.38 -0.45,0.75 -0.65,1.13 -0.25,0.45 -0.49,0.92 -0.72,1.4 -0.23,0.47 -0.45,0.93 -0.65,1.4 -0.88,1.97 -1.58,3.95 -2.1,5.62 l -0.18,0.57 c -0.39,1.31 -0.68,2.39 -0.86,3.12 l -0.07,0.29 -0.05,0.22 -0.07,0.34 -0.02,0.09 c 0.11,-0.18 0.66,-1.19 1.6,-2.64 l 0.68,-1.04 c 1.79,-2.69 4.52,-6.42 7.77,-9.61 0.45,-0.45 0.91,-0.9 1.38,-1.31 0.95,-0.84 1.92,-1.63 2.92,-2.33 7.29,-5.06 11.14,-7.01 13.35,-9.08 0.4,-0.41 0.72,-0.86 1.01,-1.31 1.92,-2.33 2.78,-10.67 2.94,-12.45 v -0.05 l 0.03,-0.31 c 0.02,-0.31 0.02,-0.56 0.02,-0.72 V 257 c -0.13,-1.17 -2.46,-4.54 -3.75,-6.08 0,0 3.75,-2.08 9.06,-2.33 0,0 -6.08,-2.33 -13.98,-1.04 v 0 z m 46.81,106.43 c -2.21,-0.13 -8.59,-0.16 -18.45,-1.35 -9.85,-1.15 -27.44,-1.61 -27.44,-1.61 8.4,-23.25 37.72,-35.89 37.72,-35.89 0.52,6.73 -4.52,19.03 -4.52,19.03 0,0 6.6,-0.37 10.48,1.17 3.89,1.56 6.1,2.98 7.52,11.01 1.42,8.04 -3.11,7.77 -5.31,7.64 z m -6.53,5.01 c -2.46,0.34 -17.64,0.83 -36.1,3.61 -3.34,0.5 -6.98,1.15 -10.77,1.88 1.17,-3.16 2.26,-5.44 3.62,-7.55 l 0.16,-0.02 c 13.55,0 35.35,0.7 40.91,0.86 5.54,0.16 10.66,-0.25 10.66,-0.25 -1.63,1.31 -6.03,1.15 -8.49,1.47 v 0 z m -55.05,6.01 c -6.19,39.79 -17.58,55.05 -17.58,55.05 l 1.19,-4.04 c 4.79,-21.49 4.02,-31.59 7.89,-57.5 3.89,-25.9 15.29,-41.71 15.29,-41.71 -14.25,9.98 -21.93,31.31 -24.62,62.3 -2.87,33.1 -10.64,45.51 -11.12,46.25 4.95,-17.06 2.83,-36.02 3.62,-48.7 0.77,-12.7 1.33,-29.96 8.45,-46.28 7.12,-16.32 23.67,-32.07 41.04,-39.98 17.35,-7.89 31.2,-4 31.2,-4 9.13,8.57 9.71,17.6 9.71,17.6 0,0 -14.45,3.68 -31.17,14.69 -16.71,10.99 -27.33,37.26 -27.33,37.26 4.29,-29.13 23.02,-49.49 23.02,-49.49 -14,8.16 -24.19,23.77 -29.59,58.55 z m -31.36,9.63 c -2.46,0.81 -4.63,1.6 -6.35,2.33 -10.95,4.57 -31.33,15.37 -31.33,15.37 l -0.7,0.41 c -1.67,-11.62 -5.46,-21.15 -5.46,-21.15 0,0 7.3,-19.01 4.58,-30.69 -3.59,-15.35 -9.47,-23.52 -9.47,-23.52 0.64,-0.7 1.29,-1.35 1.94,-1.99 3.86,5.24 10.37,5.4 10.37,5.4 0,0 3.61,15.34 8.83,23.02 5.24,7.68 12.26,14.21 23.52,14.21 1.63,0 3.57,-0.03 5.67,-0.09 -0.91,5.85 -1.38,12.13 -1.6,16.7 z m -51.32,51.27 c -1.43,2.62 -5.06,5.94 -6.89,9.2 -1.42,-1.58 -3.93,-3.95 -8.14,-6.91 -0.88,-0.61 -1.94,-1.27 -3.09,-1.99 3.86,-15.37 12.87,-34.98 16.51,-39.93 1.17,-1.56 3.14,-4.63 4.38,-6.6 1.18,2.23 4.36,7.87 5.26,14.96 1.33,10.33 -2.73,21.67 -8.02,31.27 v 0 z m 0.27,31.97 c -3.41,10.62 -11.83,20 -11.83,20 0,0 -3.93,-5.51 -7,-7.59 -0.27,-0.18 -0.57,-0.36 -0.88,-0.54 1.45,-4.14 4.4,-11.87 7.66,-17.76 4.68,-8.43 11.37,-17.44 11.37,-17.44 0,0 4.09,12.7 0.66,23.32 v 0 z m -16.87,31.34 c 0,0 -1.49,-4.02 -5.47,-6.05 -3.97,-2.01 -7.7,-3.75 -8.63,-7.77 -0.93,-4.02 1.58,-7.41 1.58,-7.41 0,0 2.23,2.82 6.42,4.81 4.2,2.01 7.2,4.81 8.76,8.11 1.56,3.3 0.16,6.33 -2.66,8.31 z m -7.32,11.5 c 0,0 0.73,-3.73 -3.14,-6.58 -5.63,-4.2 -7.63,-5.83 -3.52,-12.86 0,0 1.97,2.32 5.04,4.38 3.07,2.08 6.32,6.73 6.55,8.97 0.36,3.41 -4.93,6.1 -4.93,6.1 v 0 z m -4.79,4.34 c -1.27,1.43 -3.3,1.65 -4.77,-0.07 -1.45,-1.72 -0.41,-7.5 1.9,-10.35 0,0 1.33,2.4 2.75,4.33 1.78,2.39 1.4,4.66 0.12,6.1 v 0 z m 9.53,-48.31 c 0,0 -2.15,5.89 -3.84,11.2 -2.6,-1.35 -5.22,-3.17 -6.28,-6.71 -1.72,-5.77 0.86,-7.98 2.33,-9.88 0,0 3.82,3.39 7.79,5.4 v 0 z m -16.69,-33.56 c 5.76,3.32 12.38,6.6 16.24,9.01 4.23,2.62 7.68,5.22 10.23,7.39 -4.06,7.21 -7.73,13.65 -7.73,13.65 0,0 -8.16,-4.25 -13.89,-12.5 -4.49,-6.46 -4.88,-14.4 -4.84,-17.54 v 0 z m -17.23,-22.01 c -7.25,-11.3 -7.18,-26.12 -7.18,-26.12 3.59,3.17 12.81,8.32 21.24,13.01 6.89,3.82 18.12,12.2 22.02,15.16 -3.23,8.68 -5.46,16.72 -6.3,19.84 -9.6,-5.76 -24.37,-13.45 -29.79,-21.89 z m 59.48,-46.5 c -2.89,15.34 -10.23,20.58 -17.69,35.28 -1.28,2.55 -2.49,5.24 -3.62,7.95 -4.65,-3.7 -13.1,-8.95 -20.08,-13.29 0.31,-5.69 2.35,-16.38 8.2,-29.67 6.55,-14.87 23.25,-33.15 23.25,-33.15 5.56,5.76 12.85,17.54 9.94,32.88 z m -85.3,-23.57 c -0.48,-12.92 0.56,-24.5 2.98,-32.79 -0.39,0.49 -0.86,1.04 -1.31,1.58 -27.81,33.46 -59.52,31.2 -88.550004,34.19 -4.29,0.43 -20.42,3.7 -24.67,4.61 10.35,-11.07 28.24,-27.32 39.930004,-35.28 21.87,-14.92 59.38,-30.5 61.71,-31.45 -17.69,9.8 -31.98,25.56 -31.98,25.56 10.69,-7.25 47.23,-28.36 49.49,-29.67 -10.37,9.88 -39.57,35.59 -56.9,47.07 22.12,-10.44 40.86,-23.97 50.94,-33.51 12.61,-11.91 31.56,-23.41 40.14,-27.84 4.2,4.14 10.3,7.93 15.74,10.17 -14.55,10.24 -24.26,16.09 -28.42,29.94 0,0 10.66,-13.67 26,-22.05 2.89,-1.56 6.01,-3.5 9.22,-5.7 3.44,0.81 10.94,1.51 14.6,1.51 l 0.9,-0.4 c -0.59,0.45 -2.06,1.29 -2.67,1.74 -29.28,21.49 -56.09,27.14 -58.64,70.75 0.38,-2.46 4.76,-29.03 26.27,-42.8 12.78,-8.18 35.69,-19.07 51.05,-34.73 11.75,-5.38 19.16,-14.58 22.99,-27.37 l 0.09,-0.39 c 3.8,-0.38 7.59,-0.86 11.56,-1.22 -0.45,4.63 -1.47,10.91 -3.71,17.31 -2.75,8.59 -7.38,18.15 -15.52,28.13 -14.68,17.92 -32.39,29.13 -50.81,53.13 -18.45,23.98 -22.36,48.43 -22.36,48.43 -4,-29.03 9.35,-47.77 10.08,-48.77 -2.23,1.78 -11.32,12.54 -14.68,25.76 -3.07,12.07 -2.55,15.5 -2.35,18.93 -8.4,-5.87 -30.09,-16.88 -31.1,-44.83 v 0 z m -4.41,2.98 c 0,0 -5.6,2.21 -12.42,2.21 -6.82,0 -15.06,-4.3 -15.06,-4.3 l 0.56,-0.06 c 14.34,-3.59 27.29,-19.08 27.29,-19.08 -1.51,5.24 -0.38,21.24 -0.38,21.24 z m -116.350004,6.37 c -9.49,2.93 -21.5,7.97 -27.06,10.39 12.99,-14.28 39.32,-39.88 60.77,-54.3 64.800004,-43.54 118.370004,-50.57 122.380004,-51.38 l 1.17,1.02 c 0.53,0.84 1.11,1.63 1.68,2.42 -27.13,7.41 -84.95,31.88 -118.750004,55.54 -14.59,10.22 -30.5,26.35 -40.19,36.31 z M 102.13456,141.95 c -7.570004,-19.45 -7.730004,-37.06 -7.660004,-41.29 0.02,-0.61 -0.02,-1.76 -0.02,-2.13 0.18,-13.63 2.01,-26.26 3.55,-35.34 0.07,-0.36 0.13,-0.74 0.18,-1.09 l 0.04,1.94 c -0.05,9.44 0.59,17.74 0.83,20.32 l 0.02,0.25 c 0.04,0.38 0.29,-1.94 0.47,-3.1 0.630004,-4.2 1.350004,-8.38 1.760004,-12.61 0.43,-4.22 1.38,-9.24 1.56,-13.47 0.07,-1.63 0.14,-3.27 0.09,-4.88 0.48,0.27 0.66,1.85 0.77,2.3 0.36,1.76 1.17,15.59 1.4,20.32 0.11,1.88 0.14,3.77 0.16,5.67 0.02,0.93 0.04,1.87 0.2,2.8 0.02,0.25 0.11,0.52 0.16,0.79 0.07,0 0.74,-6.22 1.26,-9.53 0.45,-2.83 1.15,-5.7 1.13,-8.57 0,-0.25 -0.07,-0.57 -0.04,-0.81 0.07,-0.43 0.7,1.4 1,4.77 0.22,3.82 0.38,7.77 0.83,11.5 l 0.34,2.96 c 3.09,27.07 19.31,51.74 41.24,62.78 17.69,9.92 34.2,7.8 51.7,5.56 3.25,-0.41 6.59,-0.84 9.99,-1.2 7.66,-0.81 13.92,-0.88 19.76,-0.23 12.88,1.17 24.8,5.56 28.71,7.59 13.08,5.87 23.33,19.19 25.48,33.19 v 0.38 c 0.56,2.55 0.85,5.18 0.85,7.89 v 0.09 c -0.09,-0.52 -0.14,-1 -0.25,-1.54 -0.07,4.54 -0.98,8.86 -2.58,12.84 1.29,-4.04 1.72,-8.75 0.54,-14.26 -0.05,5.17 -1.26,10.03 -3.3,14.42 1.22,-3.95 1.72,-8.18 1.33,-12.54 -0.81,-8.83 -5.1,-16.5 -11.39,-21.89 5.04,5.4 7.5,13.96 8.22,21.97 1.69,18.75 -13.31,31.03 -29.39,33.81 l -0.34,0.09 c 1.38,0.23 6.75,0.99 12.1,-0.72 2.37,-0.18 5.53,-0.7 8.72,-2.26 1.18,-0.56 2.67,-1.42 4.29,-2.55 -6.68,6.17 -15.59,9.97 -25.41,9.97 -12.95,0 -24.35,-6.58 -31.06,-16.58 9.35,1.17 18.5,3.01 18.5,3.01 -8.43,-6.49 -22.39,-10.58 -22.39,-10.58 v 0.05 c -12.63,-3.82 -30.77,-7.23 -46.89,-11.8 -32.53,-9.11 -54.87,-28.74 -66.41,-58.3 v 0 z m 70.72,-30.17 c -7.25,-19.14 -4.81,-37.4 -6.07,-47.63 -0.38,-2.94 -0.84,-6.53 -1.42,-10.37 1.61,5.29 3.71,12.86 4.27,17.7 0,0 -0.47,-13.72 -2.35,-22.26 0.27,0.79 4.76,13.47 5.67,20.83 0,0 0.63,-7.36 -0.07,-15.19 0.9,3.01 1.7,6.19 2.3,9.53 3.73,20.72 9.87,35.2 34.56,50.43 -4.4,6.73 -10.87,15.89 -15.92,23.02 -6.1,-4.57 -16.29,-13.65 -20.98,-26.05 v 0 z m 45.76,0.02 c 3.89,-8.25 4.45,-14.73 4.45,-14.73 36.01,1.67 79.17,17.45 114.07,50.53 15.45,14.62 25.68,31.89 32.28,46.62 -6.44,-1.04 -19.81,-2.62 -34.88,-2.73 -16.9,-0.11 -37.16,2.17 -41.02,2.64 v -0.02 c -0.07,-0.59 -0.14,-1.18 -0.23,-1.78 l -0.07,-0.52 c -0.07,-0.47 -0.16,-0.92 -0.25,-1.38 h 0.02 c -2.15,-16.54 -14.41,-32.36 -29.93,-38.93 -5.58,-2.6 -17.33,-6.51 -29.61,-7.61 -6.21,-0.72 -12.87,-0.65 -20.94,0.22 -3.48,0.36 -6.84,0.81 -10.14,1.22 -2.4,0.31 -4.76,0.61 -7.09,0.88 0,0 1.18,-1.49 1.38,-1.81 6.24,-9.44 13.03,-18.8 16.42,-23.36 2.35,-3.17 4.16,-6.33 5.54,-9.26 v 0 z m -50.08,104.81 c 0.29,-2.64 0.65,-5.27 1.06,-7.87 0.14,-0.72 0.29,-1.45 0.45,-2.17 2.91,0.7 5.87,1.38 8.83,2.06 2.66,0.63 5.33,1.26 7.97,1.92 1.33,0.32 2.64,0.65 3.93,0.99 l 0.38,0.09 -0.54,0.09 c -7.57,1.33 -15.43,3.17 -22.07,4.9 v 0 z m 211.77,10.67 c -25.91,-3.44 -45.74,-3.32 -87.71,1.24 -3.34,18.23 -19.29,32.06 -38.49,32.06 -15.38,0 -28.66,-8.88 -35.06,-21.78 -9.1,1.69 -16.88,3.32 -23.43,4.84 0,0 -22.36,5.74 -28.4,8.11 0,0 -1.33,1.45 -0.34,-19.45 0.04,-0.5 0.56,-6.42 0.9,-10.08 6.96,-1.81 15.52,-3.86 23.79,-5.33 4.49,-0.79 8.76,-1.4 12.74,-1.88 2.37,0.63 4.67,1.26 6.8,1.88 0.23,1.43 11.3,25.65 41.36,25.2 19.9,-0.31 41.27,-18.01 41.29,-42.84 v -0.07 c 3.97,-0.43 24.1,-2.53 40.79,-2.4 18.37,0.13 33.16,2.35 37.81,3.21 0,0 5.26,12.86 7.97,27.28 z m 8.27,3.28 c 7.5,-1.69 10.88,-3.23 10.88,-3.23 0,0 -1.81,13.72 -16.33,14.75 -14.5,1.04 -16.44,-2.46 -27.33,-3.87 0,0 3.25,-1.96 9.08,-3.1 0,0 -10.12,-1.43 -17.76,0.5 -7.63,1.96 -10.75,5.18 -10.75,5.18 0,0 -0.9,-7.77 2.98,-10.35 3.89,-2.6 17.49,-1.56 22.01,-1.04 4.54,0.52 19.7,2.85 27.22,1.17 v 0 z m 4.29,39.97 c 2.05,1.58 4.09,1.9 5.35,2.83 1.26,0.95 1.26,3.78 0.63,6.13 -0.63,2.35 -2.37,2.67 -4.25,2.2 -1.76,-0.45 -10.95,-1.69 -20.94,0.14 -0.54,-1.85 -1.45,-6.06 0.54,-8.16 2.58,-2.69 7.56,-2.46 9.53,-2.08 -0.47,-0.22 -4.31,-1.94 -7.72,-1.94 -3.62,0 -6.6,2.48 -7.64,5.19 -0.77,2.03 -0.11,6.19 0.29,8.2 -10.86,3.19 -26.41,11.68 -39.17,28.06 -13.83,17.76 -16.96,39.93 -16.96,39.93 0,0 -14.61,2.87 -22.16,-8.34 -10.14,-15.05 -6.32,-32.7 -6.32,-32.7 0,0 -6.01,2.83 -10.75,1.6 -1.67,-0.43 -2.85,-1.52 -3.69,-2.83 7.91,-7.01 16.31,-13.6 24.65,-23.14 4.3,0.95 8.18,1.99 10.3,2.65 4.67,1.42 9.53,5.36 10.84,9.63 1.29,4.27 1.94,18.78 1.94,18.78 2.62,-10.1 3.03,-15.18 3.28,-18.05 0.27,-2.83 -0.04,-10.05 -5.49,-15.03 -2.96,-2.69 -11.3,-5.18 -14.63,-7.02 12.65,-17.42 16.13,-44.11 16.13,-44.11 -0.02,-0.25 -0.02,-0.5 -0.02,-0.75 1.29,-0.14 2.13,-0.27 2.17,-0.41 2.33,-0.13 10.6,-1.15 12.9,-1.18 0,0 -3.46,10.21 -0.47,17.76 0,0 7.7,-5.18 18.72,-4.39 11,0.79 28.62,6.13 36.17,3.14 0,0 3.3,7.55 3.14,13.06 -0.14,5.49 1.58,9.27 3.62,10.84 v 0 z m 19.32,70.78 c -0.72,-4.4 -5.13,-8.32 -7.34,-8.81 -2.21,-0.48 -7.84,-1.95 -7.84,-1.95 4.16,-11.75 4.16,-19.1 4.16,-19.1 3.68,-1.96 11.02,-4.9 11.02,-4.9 -2.44,-12.99 -11.27,-23.03 -11.27,-23.03 0.74,-2.69 2.46,-7.34 2.46,-9.06 0,-1.72 -3.19,-4.65 -6.62,-6.85 -3.43,-2.21 -3.91,-6.12 -3.91,-10.78 0,-4.66 -1.96,-10.53 -2.69,-10.78 -0.74,-0.23 8.74,-3.23 11.68,-11.57 2.94,-8.32 3.01,-15.09 3.01,-15.09 -3.91,5.7 -19.24,8.05 -19.24,8.05 -1.22,-12.99 -11.64,-54.87 -53.78,-92.83 -42.13,-37.96 -113.92,-44.83 -113.92,-44.83 0.11,2.12 -0.16,4.63 -0.79,7.39 -0.59,3.57 -1.63,7.79 -3.45,11.19 -0.11,0.2 -0.25,0.45 -0.39,0.68 -9.91,-5.36 -20.31,-12.57 -25.09,-21.01 -9.24,-16.32 -8.09,-30.37 -12.99,-41.89 -8.02,-18.85 -19.6,-29.1 -23.04,-32.09 -1.97,-1.72 -2.64,-2.3 -3.66,-1.47 -1,0.81 -0.34,1.97 0.48,3.19 0.77,1.15 7.99,15.05 10.68,33.92 2.69,18.85 -0.88,48.61 7.95,67.72 5.49,11.89 14.57,21.31 20.65,26.73 0.22,0.18 0.43,0.38 0.63,0.56 l 1.97,1.96 c -12.6,1.18 -24.31,0.74 -36.77,-6.26 -20.03,-10.08 -35.39,-33.53 -38.2,-58.34 l -0.34,-2.98 c -0.79,-6.8 -0.47,-13.6 -0.77,-20.41 -0.27,-6.19 -0.95,-12.36 -2.03,-18.46 -0.47,-2.69 -1.02,-5.35 -1.67,-8 l -0.02,-0.09 c -0.27,-1.61 -0.74,-3.21 -1.2,-4.79 -0.31,-1.04 -0.65,-2.08 -0.99,-3.14 -0.79,-2.31 -1.81,-4.54 -3.12,-6.66 -1.58,-2.55 -3.32,-5.02 -5.35,-7.23 -1.200004,-1.31 -2.490004,-2.55 -3.950004,-3.57 0,0 -1.35,-0.84 -2.26,-0.36 0,0 -1.2,0.84 0.07,3.46 0,0 0.32,0.52 0.7,1.42 0.22,0.5 0.45,1.13 0.66,1.85 0.2,0.65 0.36,1.35 0.48,2.1 1,5.38 1.72,16.97 -2.53,39.09 l -0.04,0.07 c -0.38,3.21 -0.79,6.42 -1.35,9.61 -1.76,10.35 -3.46,22.1 -3.75,34.3 0,0.54 0.07,2.12 0.05,2.44 -0.13,10.85 1.96,82 75.540004,104.4 -0.34,1.52 -0.66,3 -0.9,4.41 -4.97,31.37 -3.14,44.6 -3.14,44.6 l 0.04,0.32 c -15.06,5.67 -32.08,13.31 -50.03,23.57 -20.080004,11 -41.860004,25.96 -63.180004,46.37 -4,3.86 -7.75,7.64 -11.3,11.41 -0.86,0.9 -1.72,1.81 -2.58,2.73 l -0.16,0.18 c -11.25,12.11 -19.74,23.27 -25.8900002,32.34 33.2500002,-24 85.2000002,-31.19 101.0800042,-32.13 16.65,-0.97 33.52,-3.82 33.52,-3.82 0,0 6.59,3.51 14.45,5.24 8.92,1.97 18.25,-0.86 18.25,-0.86 3.36,17.26 15.49,28.34 18.66,30.83 -0.83,5.19 0.02,22.3 5.85,31.81 6.28,10.24 16.65,17.15 16.65,17.15 0,0 -0.72,9.27 1.72,15.91 2.44,6.64 8.11,12.68 8.11,12.68 0,0 -2.58,4.34 -2.92,9.79 -0.34,5.45 2.92,8.48 2.92,8.48 0,0 -2.96,3.8 -3.46,6.76 -0.49,2.98 1.35,7.44 1.35,7.44 0,0 -1.79,3.27 -2.31,5.78 -0.54,2.53 0.97,5.63 0.97,5.63 -1.2,2.35 -4.77,13.38 0.48,17.81 5.24,4.43 11.77,-3.84 11.77,-3.84 2.01,-0.59 5.79,-3.09 7.59,-5.88 2.21,-3.43 2.21,-6.62 2.21,-6.62 0,0 2.82,-1.83 5.26,-6.49 2.01,-3.78 1.72,-6.28 1.72,-6.28 0,0 11.39,-11.96 13.76,-26.91 2.03,-12.74 -0.97,-24.49 -0.97,-24.49 0,0 8.56,-13.02 8.17,-27.91 5.83,-4.07 19.9,-13.2 37.41,-20.02 0.5,10.04 2.08,18.74 -1.06,34.89 -3.93,20.09 -21.82,34.78 -21.82,34.78 24.99,-2.69 41.67,-24.74 48.27,-40.67 5.4,-12.99 10.32,-31.36 12.6,-39.68 24.38,-4.74 46.65,-5.99 54.05,-7.1 9.8,-1.47 12.26,-3.66 12.49,-7.34 0.25,-3.68 -0.74,-10.3 -1.47,-14.71 v 0 z m -42.72,-92.72 c 0,0 -6.08,-2.33 -13.98,-1.04 -7.91,1.29 -11.02,2.85 -16.33,3.5 l -0.05,0.09 c 4.43,1.45 11.68,1.35 15.99,2.1 2.08,0.38 4.22,1.54 5.92,2.67 l -2.23,9.94 c -4.95,2.64 -12.97,7.66 -19.11,15.29 -0.47,0.57 -0.92,1.2 -1.33,1.86 -0.2,0.27 -0.38,0.56 -0.54,0.86 -0.24,0.38 -0.45,0.75 -0.65,1.13 -0.25,0.45 -0.49,0.92 -0.72,1.4 -0.23,0.47 -0.45,0.93 -0.65,1.4 -0.88,1.97 -1.58,3.95 -2.1,5.62 l -0.18,0.57 c -0.39,1.31 -0.68,2.39 -0.86,3.12 l -0.07,0.29 -0.05,0.22 -0.07,0.34 -0.02,0.09 c 0.11,-0.18 0.66,-1.19 1.6,-2.64 l 0.68,-1.04 c 1.79,-2.69 4.52,-6.42 7.77,-9.61 0.45,-0.45 0.91,-0.9 1.38,-1.31 0.95,-0.84 1.92,-1.63 2.92,-2.33 7.29,-5.06 11.14,-7.01 13.35,-9.08 0.4,-0.41 0.72,-0.86 1.01,-1.31 1.92,-2.33 2.78,-10.67 2.94,-12.45 v -0.05 l 0.03,-0.31 c 0.02,-0.31 0.02,-0.56 0.02,-0.72 v -0.18 c -0.13,-1.17 -2.46,-4.54 -3.75,-6.08 0,0 3.75,-2.08 9.06,-2.33 v 0 z m 0,0 c 0,0 -6.08,-2.33 -13.98,-1.04 -7.91,1.29 -11.02,2.85 -16.33,3.5 l -0.05,0.09 c 4.43,1.45 11.68,1.35 15.99,2.1 2.08,0.38 4.22,1.54 5.92,2.67 l -2.23,9.94 c -4.95,2.64 -12.97,7.66 -19.11,15.29 -0.47,0.57 -0.92,1.2 -1.33,1.86 -0.2,0.27 -0.38,0.56 -0.54,0.86 -0.24,0.38 -0.45,0.75 -0.65,1.13 -0.25,0.45 -0.49,0.92 -0.72,1.4 -0.23,0.47 -0.45,0.93 -0.65,1.4 -0.88,1.97 -1.58,3.95 -2.1,5.62 l -0.18,0.57 c -0.39,1.31 -0.68,2.39 -0.86,3.12 l -0.07,0.29 -0.05,0.22 -0.07,0.34 -0.02,0.09 c 0.11,-0.18 0.66,-1.19 1.6,-2.64 l 0.68,-1.04 c 1.79,-2.69 4.52,-6.42 7.77,-9.61 0.45,-0.45 0.91,-0.9 1.38,-1.31 0.95,-0.84 1.92,-1.63 2.92,-2.33 7.29,-5.06 11.14,-7.01 13.35,-9.08 0.4,-0.41 0.72,-0.86 1.01,-1.31 1.92,-2.33 2.78,-10.67 2.94,-12.45 v -0.05 l 0.03,-0.31 c 0.02,-0.31 0.02,-0.56 0.02,-0.72 v -0.18 c -0.13,-1.17 -2.46,-4.54 -3.75,-6.08 0,0 3.75,-2.08 9.06,-2.33 v 0 z m 0,0 c 0,0 -6.08,-2.33 -13.98,-1.04 -7.91,1.29 -11.02,2.85 -16.33,3.5 l -0.05,0.09 c 4.43,1.45 11.68,1.35 15.99,2.1 2.08,0.38 4.22,1.54 5.92,2.67 l -2.23,9.94 c -4.95,2.64 -12.97,7.66 -19.11,15.29 -0.47,0.57 -0.92,1.2 -1.33,1.86 -0.2,0.27 -0.38,0.56 -0.54,0.86 -0.24,0.38 -0.45,0.75 -0.65,1.13 -0.25,0.45 -0.49,0.92 -0.72,1.4 -0.23,0.47 -0.45,0.93 -0.65,1.4 -0.88,1.97 -1.58,3.95 -2.1,5.62 l -0.18,0.57 c -0.39,1.31 -0.68,2.39 -0.86,3.12 l -0.07,0.29 -0.05,0.22 -0.07,0.34 -0.02,0.09 c 0.11,-0.18 0.66,-1.19 1.6,-2.64 l 0.68,-1.04 c 1.79,-2.69 4.52,-6.42 7.77,-9.61 0.45,-0.45 0.91,-0.9 1.38,-1.31 0.95,-0.84 1.92,-1.63 2.92,-2.33 7.29,-5.06 11.14,-7.01 13.35,-9.08 0.4,-0.41 0.72,-0.86 1.01,-1.31 1.92,-2.33 2.78,-10.67 2.94,-12.45 v -0.05 l 0.03,-0.31 c 0.02,-0.31 0.02,-0.56 0.02,-0.72 v -0.18 c -0.13,-1.17 -2.46,-4.54 -3.75,-6.08 0,0 3.75,-2.08 9.06,-2.33 v 0 z m 0,0 c 0,0 -6.08,-2.33 -13.98,-1.04 -7.91,1.29 -11.02,2.85 -16.33,3.5 l -0.05,0.09 c 4.43,1.45 11.68,1.35 15.99,2.1 2.08,0.38 4.22,1.54 5.92,2.67 l -2.23,9.94 c -4.95,2.64 -12.97,7.66 -19.11,15.29 -0.47,0.57 -0.92,1.2 -1.33,1.86 -0.2,0.27 -0.38,0.56 -0.54,0.86 -0.24,0.38 -0.45,0.75 -0.65,1.13 -0.25,0.45 -0.49,0.92 -0.72,1.4 -0.23,0.47 -0.45,0.93 -0.65,1.4 -0.88,1.97 -1.58,3.95 -2.1,5.62 l -0.18,0.57 c -0.39,1.31 -0.68,2.39 -0.86,3.12 l -0.07,0.29 -0.05,0.22 -0.07,0.34 -0.02,0.09 c 0.11,-0.18 0.66,-1.19 1.6,-2.64 l 0.68,-1.04 c 1.79,-2.69 4.52,-6.42 7.77,-9.61 0.45,-0.45 0.91,-0.9 1.38,-1.31 0.95,-0.84 1.92,-1.63 2.92,-2.33 7.29,-5.06 11.14,-7.01 13.35,-9.08 0.4,-0.41 0.72,-0.86 1.01,-1.31 1.92,-2.33 2.78,-10.67 2.94,-12.45 v -0.05 l 0.03,-0.31 c 0.02,-0.31 0.02,-0.56 0.02,-0.72 v -0.18 c -0.13,-1.17 -2.46,-4.54 -3.75,-6.08 0,0 3.75,-2.08 9.06,-2.33 v 0 z m 0,0 c 0,0 -6.08,-2.33 -13.98,-1.04 -7.91,1.29 -11.02,2.85 -16.33,3.5 l -0.05,0.09 c 4.43,1.45 11.68,1.35 15.99,2.1 2.08,0.38 4.22,1.54 5.92,2.67 l -2.23,9.94 c -4.95,2.64 -12.97,7.66 -19.11,15.29 -0.47,0.57 -0.92,1.2 -1.33,1.86 -0.2,0.27 -0.38,0.56 -0.54,0.86 -0.24,0.38 -0.45,0.75 -0.65,1.13 -0.25,0.45 -0.49,0.92 -0.72,1.4 -0.23,0.47 -0.45,0.93 -0.65,1.4 -0.88,1.97 -1.58,3.95 -2.1,5.62 l -0.18,0.57 c -0.39,1.31 -0.68,2.39 -0.86,3.12 l -0.07,0.29 -0.05,0.22 -0.07,0.34 -0.02,0.09 c 0.11,-0.18 0.66,-1.19 1.6,-2.64 l 0.68,-1.04 c 1.79,-2.69 4.52,-6.42 7.77,-9.61 0.45,-0.45 0.91,-0.9 1.38,-1.31 0.95,-0.84 1.92,-1.63 2.92,-2.33 7.29,-5.06 11.14,-7.01 13.35,-9.08 0.4,-0.41 0.72,-0.86 1.01,-1.31 1.92,-2.33 2.78,-10.67 2.94,-12.45 v -0.05 l 0.03,-0.31 c 0.02,-0.31 0.02,-0.56 0.02,-0.72 v -0.18 c -0.13,-1.17 -2.46,-4.54 -3.75,-6.08 0,0 3.75,-2.08 9.06,-2.33 v 0 z m 0,0 c 0,0 -6.08,-2.33 -13.98,-1.04 -7.91,1.29 -11.02,2.85 -16.33,3.5 l -0.05,0.09 c 4.43,1.45 11.68,1.35 15.99,2.1 2.08,0.38 4.22,1.54 5.92,2.67 l -2.23,9.94 c -4.95,2.64 -12.97,7.66 -19.11,15.29 -0.47,0.57 -0.92,1.2 -1.33,1.86 -0.2,0.27 -0.38,0.56 -0.54,0.86 -0.24,0.38 -0.45,0.75 -0.65,1.13 -0.25,0.45 -0.49,0.92 -0.72,1.4 -0.23,0.47 -0.45,0.93 -0.65,1.4 -0.88,1.97 -1.58,3.95 -2.1,5.62 l -0.18,0.57 c -0.39,1.31 -0.68,2.39 -0.86,3.12 l -0.07,0.29 -0.05,0.22 -0.07,0.34 -0.02,0.09 c 0.11,-0.18 0.66,-1.19 1.6,-2.64 l 0.68,-1.04 c 1.79,-2.69 4.52,-6.42 7.77,-9.61 0.45,-0.45 0.91,-0.9 1.38,-1.31 0.95,-0.84 1.92,-1.63 2.92,-2.33 7.29,-5.06 11.14,-7.01 13.35,-9.08 0.4,-0.41 0.72,-0.86 1.01,-1.31 1.92,-2.33 2.78,-10.67 2.94,-12.45 v -0.05 l 0.03,-0.31 c 0.02,-0.31 0.02,-0.56 0.02,-0.72 v -0.18 c -0.13,-1.17 -2.46,-4.54 -3.75,-6.08 0,0 3.75,-2.08 9.06,-2.33 v 0 z"
     id="path5" />
  <path
     class="cls-5"
     d="m 413.66456,356.02 c -0.23,3.68 -2.69,5.86 -12.49,7.34 -7.39,1.11 -29.66,2.37 -54.05,7.1 -2.28,8.32 -7.19,26.69 -12.6,39.68 -6.6,15.93 -23.27,37.98 -48.27,40.67 0,0 17.89,-14.69 21.82,-34.78 3.14,-16.15 1.56,-24.84 1.06,-34.89 -17.51,6.81 -31.58,15.94 -37.41,20.02 0.39,14.89 -8.17,27.91 -8.17,27.91 0,0 3,11.75 0.97,24.49 -2.37,14.94 -13.76,26.91 -13.76,26.91 0,0 0.29,2.49 -1.72,6.28 -2.44,4.66 -5.26,6.49 -5.26,6.49 0,0 0,3.19 -2.21,6.62 -1.79,2.8 -5.58,5.29 -7.59,5.88 0,0 -6.53,8.27 -11.77,3.84 -5.26,-4.43 -1.69,-15.46 -0.48,-17.81 0,0 -1.51,-3.1 -0.97,-5.63 0.52,-2.51 2.31,-5.78 2.31,-5.78 0,0 -1.83,-4.46 -1.35,-7.44 0.5,-2.96 3.46,-6.76 3.46,-6.76 0,0 -3.27,-3.03 -2.92,-8.48 0.34,-5.45 2.92,-9.79 2.92,-9.79 0,0 -5.67,-6.05 -8.11,-12.68 -2.44,-6.64 -1.72,-15.91 -1.72,-15.91 0,0 -10.37,-6.91 -16.65,-17.15 -5.83,-9.51 -6.68,-26.62 -5.85,-31.81 -3.18,-2.49 -15.31,-13.58 -18.66,-30.83 0,0 -9.33,2.83 -18.25,0.86 -7.86,-1.72 -14.45,-5.24 -14.45,-5.24 0,0 -16.87,2.85 -33.52,3.82 C 92.094556,339.88 40.144556,347.08 6.8945558,371.08 13.044556,362 21.534556,350.84 32.784556,338.74 l 0.16,-0.18 c 0.86,-0.92 1.72,-1.83 2.58,-2.73 3.55,-3.77 7.3,-7.55 11.3,-11.41 21.32,-20.41 43.1,-35.37 63.180004,-46.37 17.94,-10.26 34.97,-17.9 50.03,-23.57 l -0.04,-0.32 c 0,0 -1.83,-13.22 3.14,-44.6 0.23,-1.42 0.56,-2.89 0.9,-4.41 -73.590004,-22.4 -75.670004,-93.55 -75.540004,-104.4 0.02,-0.32 -0.05,-1.9 -0.05,-2.44 0.29,-12.2 1.99,-23.95 3.75,-34.3 0.56,-3.19 0.97,-6.4 1.35,-9.61 l 0.04,-0.07 c 4.25,-22.12 3.53,-33.71 2.53,-39.09 -0.13,-0.75 -0.29,-1.45 -0.48,-2.1 -0.22,-0.72 -0.45,-1.35 -0.66,-1.85 -0.38,-0.9 -0.7,-1.42 -0.7,-1.42 -1.27,-2.62 -0.07,-3.46 -0.07,-3.46 0.92,-0.48 2.26,0.36 2.26,0.36 1.45,1.02 2.75,2.26 3.950004,3.57 2.03,2.21 3.77,4.68 5.35,7.23 1.31,2.12 2.33,4.34 3.12,6.66 0.34,1.06 0.68,2.1 0.99,3.14 0.47,1.58 0.93,3.17 1.2,4.79 l 0.02,0.09 c 0.65,2.66 1.2,5.31 1.67,8 1.08,6.1 1.76,12.27 2.03,18.46 0.31,6.82 -0.02,13.61 0.77,20.41 l 0.34,2.98 c 2.82,24.81 18.18,48.25 38.2,58.34 12.45,7 24.17,7.44 36.77,6.26 l -1.97,-1.96 c -0.2,-0.18 -0.41,-0.38 -0.63,-0.56 -6.08,-5.42 -15.16,-14.84 -20.65,-26.73 -8.83,-19.1 -5.26,-48.86 -7.95,-67.72 -2.69,-18.87 -9.91,-32.77 -10.68,-33.92 -0.83,-1.22 -1.49,-2.39 -0.48,-3.19 1.02,-0.83 1.69,-0.25 3.66,1.47 3.45,3 15.02,13.24 23.04,32.09 4.9,11.52 3.75,25.56 12.99,41.89 4.77,8.43 15.18,15.64 25.09,21.01 0.14,-0.23 0.29,-0.48 0.39,-0.68 1.81,-3.41 2.85,-7.62 3.45,-11.19 0.63,-2.76 0.9,-5.27 0.79,-7.39 0,0 71.79,6.87 113.92,44.83 42.13,37.96 52.56,79.84 53.78,92.83 0,0 15.32,-2.35 19.24,-8.05 0,0 -0.07,6.76 -3.01,15.09 -2.94,8.34 -12.42,11.34 -11.68,11.57 0.74,0.25 2.69,6.13 2.69,10.78 0,4.65 0.48,8.57 3.91,10.78 3.43,2.21 6.62,5.13 6.62,6.85 0,1.72 -1.72,6.37 -2.46,9.06 0,0 8.83,10.05 11.27,23.03 0,0 -7.34,2.94 -11.02,4.9 0,0 0,7.36 -4.16,19.1 0,0 5.63,1.47 7.84,1.95 2.21,0.49 6.62,4.41 7.34,8.81 0.74,4.41 1.72,11.03 1.47,14.71 v 0 z m 4.7,-15.57 c -1.13,-6.83 -7.32,-12.81 -12.15,-13.88 -0.34,-0.07 -0.79,-0.16 -1.27,-0.29 1.26,-4.52 1.86,-8.13 2.17,-10.66 2.78,-1.27 6.03,-2.6 7.43,-3.16 l 4.76,-1.92 -0.95,-5.02 c -1.96,-10.37 -7.39,-18.94 -10.5,-23.18 1.12,-3.53 1.78,-5.83 1.78,-7.78 0,-3.98 -3.19,-8.06 -9.47,-12.09 -0.5,-0.32 -1.08,-1.24 -1.08,-5.56 0,-0.07 -0.07,-4.13 -1.13,-8.25 3.41,-2.31 7.68,-6.12 9.78,-12.04 2.1,-5.96 2.89,-11.23 3.19,-14.3 0.16,-1.67 -0.07,-5.67 -0.07,-5.67 l -0.64,-7.71 c 0,0 -3.88,3.09 -6.03,4.74 -0.58,0.43 -1.01,0.75 -1.24,0.9 -0.31,0.23 -0.64,0.45 -0.97,0.65 -1.58,0.95 -3.34,1.7 -4.09,2.1 -1.69,0.92 -4.25,1.88 -7.07,2.67 -4.05,-20.97 -18.91,-57.65 -54.83,-90.02 -43.21,-38.93 -114.57,-46.14 -117.58,-46.44 l -6.69,-0.63 c 0,0 -0.14,10.03 -0.77,12.88 l -0.07,0.32 c -0.23,1.38 -0.5,2.69 -0.83,3.91 -8.13,-5.08 -13.8,-10.22 -16.54,-15.09 -5.08,-8.97 -6.73,-17.2 -8.31,-25.15 -1.11,-5.63 -2.19,-10.98 -4.38,-16.15 -5.78,-13.56 -14.09,-25.13 -24.69,-34.37 -1.92,-1.65 -3.88,-3.37 -6.89,-3.37 -1.2,0 -3,0.31 -4.81,1.76 -1.29,1.06 -5.17,4.97 -0.84,11.37 0.07,0.11 7.12,13.01 9.76,31.48 0.88,6.08 1.06,13.58 1.26,21.51 0.39,16.05 0.86,34.23 7.21,48 2.8,6.05 6.41,11.48 10.17,16.2 0.38,0.47 1.81,1.97 2.06,2.28 0.65,0.75 1.31,1.51 1.96,2.22 -6.94,-0.59 -12.9,-2.42 -18.82,-5.74 l -0.25,-0.14 c -18.23,-9.18 -32.23,-30.68 -34.81,-53.49 l -0.34,-2.98 c -0.48,-4.04 -0.52,-8.13 -0.57,-12.45 -0.02,-2.46 -0.05,-4.99 -0.16,-7.53 -0.29,-6.39 -0.99,-12.86 -2.12,-19.25 -0.47,-2.69 -1.04,-5.4 -1.67,-8.05 l -0.05,-0.2 c -0.34,-1.96 -0.88,-3.8 -1.33,-5.29 -0.32,-1.13 -0.68,-2.24 -1.06,-3.35 -0.93,-2.8 -2.17,-5.47 -3.71,-7.96 -2.05,-3.32 -3.98,-5.92 -6.08,-8.2 -1.65,-1.79 -3.27,-3.25 -4.92,-4.41 L 99.864556,1.51 c -0.7,-0.47 -2.6,-1.51 -4.97,-1.51 -1.26,0 -2.46,0.29 -3.55,0.86 l -0.7,0.43 c -2.75,1.94 -4.4,6.19 -1.92,11.28 l 0.23,0.43 c 0.05,0.09 0.18,0.34 0.34,0.7 0.14,0.34 0.29,0.75 0.43,1.2 0.13,0.39 0.22,0.84 0.32,1.45 0.83,4.43 1.6,15 -2.42,36.2 l -0.22,1.09 c -0.45,3.77 -0.84,6.62 -1.29,9.27 -1.72,10.15 -3.53,22.26 -3.84,35.21 0,0.39 0.02,1.22 0.04,1.9 l 0.02,0.61 c -0.09,8.57 1.22,82.89 74.590004,108.67 l 0.05,0.02 -0.23,0.09 c -3.34,21.36 -3.57,34.53 -3.36,40.95 -15.92,6.24 -31.58,13.74 -46.53,22.3 -23.400004,12.81 -45.110004,28.76 -64.540004,47.38 -3.93,3.78 -7.7,7.57 -11.5,11.59 -0.9,0.93 -1.78,1.87 -2.55,2.71 l -0.25,0.27 c -9.62,10.35 -18.3000002,21.15 -25.8200002,32.09 -0.23,0.34 -0.92,1.43 -1.18,2.08 -0.86000004,1.97 -1.78000004,5.76 0.02,7.75 1.08,1.2 3.19,2.22 7.19,0.52 0.2,-0.05 0.97,-0.36 1.26,-0.52 0.7700002,-0.43 1.9200002,-1.15 2.3000002,-1.44 24.3,-18.58 80.1,-28.84 96.390004,-29.79 13.65,-0.81 27.2,-2.8 32.23,-3.59 2.73,1.29 8.06,3.54 14.07,4.86 2.55,0.56 5.29,0.84 8.18,0.84 2.51,0 4.86,-0.21 6.87,-0.5 4.16,13.15 12.45,22.17 16.76,26.21 -0.27,7.93 1.08,22.8 7.02,32.45 4.84,7.91 11.77,13.96 15.63,16.97 0,3.78 0.32,9.87 2.23,15.01 1.69,4.61 4.54,8.79 6.66,11.53 -0.83,2.21 -1.65,5.13 -1.85,8.42 -0.23,3.69 0.63,6.67 1.7,8.9 -0.93,1.69 -1.81,3.71 -2.15,5.74 -0.47,2.78 0.11,5.81 0.75,8.04 -0.65,1.42 -1.33,3.23 -1.71,4.95 -0.5,2.48 -0.09,4.95 0.43,6.8 -1.92,5.58 -4.02,16.68 3.11,22.69 2.15,1.81 4.74,2.76 7.46,2.76 5.47,0 9.92,-3.89 12.06,-6.15 3.18,-1.49 6.98,-4.4 9.13,-7.73 1.63,-2.53 2.42,-4.97 2.82,-6.81 1.44,-1.44 3.26,-3.63 4.91,-6.76 1.4,-2.65 2.03,-4.93 2.3,-6.66 3.1,-3.71 9.98,-12.83 12.95,-24.18 l 0.7,-3.14 c 0.07,-0.37 0.14,-0.77 0.2,-1.18 1.63,-10.3 0.31,-19.91 -0.54,-24.4 2.42,-4.34 7.18,-14.23 7.75,-25.69 5.26,-3.5 14.43,-9.15 25.62,-14.23 0.43,6.85 0.56,13.9 -1.53,24.59 -2.57,13.06 -12.09,23.86 -16.88,28.59 -1.67,1.63 -5.78,6.3 -5.78,6.3 0,0 -1.58,1.33 -1.27,4.04 0.02,0.16 0.14,0.63 0.27,0.97 0.05,0.12 0.34,0.54 0.47,0.65 2.28,2.21 8.54,1.4 8.54,1.4 26.97,-2.89 45.23,-25.54 53.01,-44.25 4.84,-11.66 9.22,-27.21 11.82,-36.7 15.63,-2.83 30.09,-4.25 39.91,-5.22 4.38,-0.43 7.84,-0.77 10.12,-1.13 5.98,-0.88 17.1,-2.55 17.8,-13.1 0.23,-3.35 -0.27,-8.48 -1.54,-16.15 v 0 z"
     id="path6" />
</svg>
